<svg xmlns="http://www.w3.org/2000/svg" width="30.93" height="35.309" viewBox="0 0 30.93 35.309">
  <path id="I" d="M5279.448,1557.1v11.389c-3.026-.707-6.016-1.479-9.042-2.073a19.741,19.741,0,0,0-3.977-.151c-.249,0-.489.409-.73.628.2.208.375.543.616.6,1.738.437,3.514.737,5.234,1.24,2.81.822,5.568,1.717,7.7,3.972a8.558,8.558,0,0,1,2.376,5.037c.363,3.221-.068,6.371-2.347,8.919a13.027,13.027,0,0,1-7.59,3.826c-4.936.953-9.8.361-14.641-.731-1.357-.306-2.728-.579-4.061-.966a1.263,1.263,0,0,1-.774-.882c-.059-3.434-.037-6.87-.037-10.38,4.821,1.067,9.346,3.009,14.225,2.9l.188-.676a24.271,24.271,0,0,0-2.391-.829c-3.143-.744-6.31-1.428-9.124-3.1-3.677-2.187-4.587-5.752-4.174-9.47a14.553,14.553,0,0,1,1-3.875c1.5-3.631,4.626-5.286,8.176-6.139a30.835,30.835,0,0,1,11.26-.321C5274.02,1556.375,5276.7,1556.735,5279.448,1557.1Z" transform="translate(-5250.812 -1555.661)" fill="#fff"/>
</svg>
