<svg xmlns="http://www.w3.org/2000/svg" width="38.078" height="35.168" viewBox="0 0 38.078 35.168">
  <path id="O" d="M4911.506,1573.182a16.009,16.009,0,0,1,5.1-12.528,18.986,18.986,0,0,1,10.806-4.74,22.283,22.283,0,0,1,10.929,1.166c5.959,2.211,9.787,6.485,10.867,12.762,1.046,6.067-.346,11.637-4.931,16.018a18.615,18.615,0,0,1-11.583,4.88,22.332,22.332,0,0,1-9.071-.875c-6.92-2.244-10.922-7.052-12.1-14.208A15.28,15.28,0,0,1,4911.506,1573.182Zm13.5.081a5.193,5.193,0,0,0,5.4,5.507,5.382,5.382,0,0,0,5.6-5.409c.041-3.34-2.435-5.468-5.68-5.521C4927.479,1567.793,4924.668,1570.258,4925,1573.263Z" transform="translate(-4911.459 -1555.693)" fill="#fff"/>
</svg>
