<?xml version="1.0" standalone="no"?>
<!DOCTYPE svg PUBLIC "-//W3C//DTD SVG 1.1//EN" "http://www.w3.org/Graphics/SVG/1.1/DTD/svg11.dtd" >
<svg xmlns="http://www.w3.org/2000/svg" xmlns:xlink="http://www.w3.org/1999/xlink" version="1.1">
<metadata>
Created by FontForge 20170731 at Tue Jan 11 16:04:08 2022
 By Aleksey,,,
Copyright (c) 2018 by MadeType. All rights reserved.
</metadata>
<defs>
<font id="MADEBruno" horiz-adv-x="1247" >
  <font-face 
    font-family="MADE Bruno"
    font-weight="400"
    font-stretch="normal"
    units-per-em="2048"
    panose-1="2 0 5 3 0 0 0 2 0 4"
    ascent="1638"
    descent="-410"
    x-height="1032"
    cap-height="1434"
    bbox="-471.272 -741 2673 2046"
    underline-thickness="102"
    underline-position="-307"
    unicode-range="U+0020-FB03"
  />
<missing-glyph horiz-adv-x="555" 
 />
    <glyph glyph-name="f_f" unicode="ff" horiz-adv-x="1466" 
d="M1075 2046q222 0 414.5 -57t322.5 -153.5t189.5 -232.5t23.5 -286q-17 -69 -59.5 -119.5t-97.5 -75.5t-118 -30t-121 11.5t-107.5 55.5t-75.5 96q34 13 55.5 24t51 32.5t51 55t36.5 79.5q40 122 25 219q-4 9 -8 17.5t-18.5 28t-30.5 33.5t-44.5 26.5t-60.5 15.5
q-44 4 -75 -27t-47.5 -93t-23.5 -138.5t-7 -177.5v-136h73v-26h-73v-1106q0 -101 -20.5 -182.5t-53.5 -137.5t-83.5 -98t-102.5 -66t-118.5 -38.5t-123.5 -19.5t-125 -5q-75 0 -129 25q-23 -63 -59.5 -112t-83.5 -81t-97 -53.5t-110.5 -32.5t-113.5 -15.5t-116 -4.5
q-159 0 -282.5 65t-175 174t-7.5 230q24 66 76.5 108t114 53.5t122.5 4t109.5 -39t67.5 -77.5q-52 -24 -93.5 -79.5t-62.5 -120.5t-27 -127t12 -107.5t56 -55.5q61 -15 104 37t64 153t21 240v1469h-84v26h84v93q3 122 38 225.5t91.5 178t134 133.5t162 96.5t179.5 61.5
t182 34t175 10zM678 -442q46 0 77 32.5t46.5 95.5t21.5 135.5t6 172.5v1194h-196v-1381q0 -125 -33 -229q38 -20 78 -20zM1446 1815q144 -10 207 -93q-40 131 -174 207.5t-322 87.5q-112 7 -200.5 -21t-148.5 -84.5t-100 -140.5t-57.5 -184t-17.5 -219v-154h196v48
q0 139 37.5 244.5t97.5 166t143 96t165.5 44.5t173.5 2z" />
    <glyph glyph-name="fi" unicode="fi" horiz-adv-x="1566" 
d="M1403 264q0 -59 8.5 -107.5t20.5 -76t24 -47t20 -26.5l9 -7h-686q3 2 8.5 7t20 26t25 47.5t19.5 75.5t9 108v502q0 158 -56 238h-161v-740q0 -59 8.5 -107.5t21 -76t25 -47t21.5 -26.5l8 -7h-687q3 2 8.5 7t20 26t25 47.5t19.5 75.5t9 108v740h-82v28h82v191
q0 101 21 182.5t55 138t86 98.5t108 66.5t128.5 39t138 19.5t145.5 5q89 0 171.5 -16.5t156 -52.5t127.5 -87.5t84 -127.5t27 -167q-3 -72 -31 -123.5t-71.5 -75.5t-98.5 -33.5t-113 3.5q-48 8 -87 34t-65.5 69.5t-26 113.5t33.5 155q29 73 38 126t2.5 83t-27.5 48t-45 23
t-58 5q-38 0 -67 -15t-48.5 -45t-32 -67t-19 -89.5t-9 -103.5t-2.5 -118v-279h821q-3 -2 -8.5 -7t-20 -26t-25 -48t-19.5 -76.5t-9 -108.5v-502z" />
    <glyph glyph-name="f_f_i" unicode="ffi" horiz-adv-x="2215" 
d="M2050 264q0 -59 8.5 -107.5t21 -76t25 -47t21.5 -26.5l8 -7h-686q3 2 8.5 7t20 26t25 47.5t19.5 75.5t9 108v502q0 59 -8.5 108t-20.5 77t-24 47.5t-21 26.5l-8 7h686q-3 -2 -9 -7t-20.5 -26t-25.5 -48t-20 -76.5t-9 -108.5v-502zM1094 2046q216 0 401.5 -53.5
t313 -147.5t189.5 -230t38 -294q-22 -139 -107 -194.5t-207 -34.5q-48 8 -87 34t-65.5 69.5t-26 113.5t33.5 155q57 144 51 250q-43 72 -125 72q-45 -1 -75.5 -33t-47 -93t-23.5 -135.5t-7 -174.5v-136h73v-26h-73v-1106q0 -101 -21 -182.5t-54.5 -138t-83.5 -98.5
t-102.5 -66.5t-118.5 -39t-123 -19.5t-124 -5q-76 0 -131 27q-27 -75 -75.5 -131t-103 -87.5t-126.5 -51t-135 -25.5t-138 -6q-95 0 -181.5 25t-149 69t-104 103.5t-48.5 128.5t18 145q24 66 76 108t113.5 53t122 3.5t109 -39.5t67.5 -78q-51 -24 -92.5 -79t-62 -119.5
t-26.5 -126.5t12 -107.5t56 -55.5q91 -22 139 97t48 333v1469h-82v26h82v93q4 122 40 225.5t94.5 177.5t138.5 133.5t166 96.5t183 61.5t185 34.5t176 10zM676 -444q38 0 65.5 23t43.5 60t26 95.5t13 118.5t3 139v948v248h-196v-1381q0 -131 -31 -229q37 -22 76 -22z
M1446 1815q119 -7 178 -66q-38 237 -440 268q-112 9 -203.5 -19t-156 -85.5t-108.5 -141t-64.5 -185.5t-20.5 -220v-152h196v48q0 100 20 182.5t53.5 140.5t81.5 101.5t101 69t116 40.5t122.5 19t124.5 0z" />
    <glyph glyph-name="f_f_j" unicode="ffj" horiz-adv-x="2195" 
d="M1094 2046q217 0 402.5 -53.5t313.5 -147.5t189.5 -230t36.5 -294q-21 -138 -106.5 -194t-207.5 -35q-47 8 -86 34t-65.5 69.5t-26 113.5t34.5 155q57 144 51 250q-16 27 -48 49.5t-79 22.5q-44 -1 -74.5 -33t-47.5 -93t-24 -136t-7 -174v-136h73v-26h-73v-1106
q0 -101 -20.5 -182.5t-53.5 -138t-83.5 -98.5t-103 -66.5t-118.5 -39t-123.5 -19.5t-124.5 -5q-74 0 -129 27q-28 -75 -76.5 -131t-103.5 -87.5t-126.5 -51t-134.5 -25.5t-139 -6q-95 0 -180.5 25t-148 69t-104.5 103.5t-49 128.5t17 145q24 66 76.5 108t114 53t122.5 3.5
t109.5 -39.5t67.5 -78q-52 -24 -93.5 -79t-62.5 -119.5t-27 -126.5t12 -107.5t56 -55.5q61 -15 104 37t64 153t21 240v1469h-84v26h84v93q3 122 39 225.5t94.5 177.5t138 133.5t165.5 96.5t183 61.5t185 34.5t176 10zM678 -444q46 0 77 32.5t46.5 96t21.5 135.5t6 172v1196
h-196v-1381q0 -125 -33 -229q42 -22 78 -22zM1446 1815q121 -7 180 -66q-41 237 -440 268q-112 9 -203.5 -19t-156 -85.5t-108.5 -141t-64.5 -185.5t-20.5 -220v-152h196v48q0 100 19.5 182.5t53 140.5t81.5 101.5t101 69t116 40.5t122.5 19t123.5 0zM1450 1032h684
q-3 -2 -8.5 -7t-20 -26t-25 -48t-19.5 -76.5t-9 -108.5v-959q0 -101 -19.5 -182.5t-52 -137.5t-81.5 -97.5t-100.5 -66t-116.5 -39t-121.5 -19t-124.5 -4.5q-45 0 -68 2v22q81 -1 122.5 116.5t41.5 317.5v1047q0 59 -8.5 108t-20.5 77t-24 47.5t-21 26.5z" />
    <glyph glyph-name="f_j" unicode="fj" horiz-adv-x="1546" 
d="M1481 1032q-80 -80 -80 -266v-959q0 -101 -19.5 -182.5t-52 -137.5t-82 -97.5t-100.5 -66t-116.5 -39t-122 -19t-124.5 -4.5q-44 0 -67 2v22q81 -1 122.5 116.5t41.5 317.5v1047q0 157 -58 238h-159v-740q0 -56 8 -103.5t18 -74.5t23 -48t19.5 -28t10.5 -10h-682
q3 2 10 8.5t20.5 26.5t24 47.5t19 75.5t8.5 106v740h-82v28h82v191q0 101 20.5 182.5t54.5 138t86.5 98.5t108 66.5t128 39t138.5 19.5t146 5q89 0 171 -16.5t156 -52.5t127.5 -88t84 -127.5t27.5 -166.5q-4 -95 -51.5 -153t-115 -74t-147.5 -2q-38 6 -71 23t-59.5 48
t-39.5 72.5t-7.5 100.5t32.5 128q29 73 38 126t2.5 83t-27.5 48t-45 23t-58 5q-38 0 -67 -15t-48.5 -45t-32 -67t-19 -89.5t-9 -103.5t-2.5 -118v-279h817z" />
    <glyph glyph-name="r_i" unicode="ri" horiz-adv-x="1593" 
d="M1450 264q0 -59 8.5 -107.5t20.5 -76t24 -47t21 -26.5l8 -7h-684q3 2 8.5 7t20 26t25 47.5t19.5 75.5t9 108v502q0 59 -8.5 108t-20.5 77t-24 47.5t-21 26.5l-8 7h684q-3 -2 -8.5 -7t-20 -26t-25 -48t-19.5 -76.5t-9 -108.5v-502zM664 264q0 -59 8.5 -107.5t21 -76
t25 -47t21.5 -26.5l8 -7h-687q3 2 8.5 7t20 26t25 47.5t19.5 75.5t9 108v502q0 59 -8.5 108t-20.5 77t-24 47.5t-20 26.5l-9 7h549l54 -198q10 71 29.5 151.5t54 174.5t77 174.5t103.5 148.5t129 100q131 56 241 18t158 -141q27 -55 23 -115t-27.5 -111t-71.5 -88t-108 -46
q-59 -8 -107 0t-82.5 26.5t-65 37.5t-54.5 33.5t-51 14.5t-54 -20q-71 -54 -132.5 -235t-61.5 -289v-404z" />
    <glyph glyph-name="r_j" unicode="rj" horiz-adv-x="1552" 
d="M745 0h-684q3 2 8.5 7t20 26t25 47.5t19.5 75.5t9 108v502q0 59 -8.5 108t-20.5 77t-24 47.5t-20 26.5l-9 7h547l56 -198q91 642 352 749q132 52 241 15.5t156 -138.5q28 -55 24 -115t-27.5 -111t-72 -88t-108.5 -46q-59 -8 -107 0t-82.5 26.5t-65 37.5t-54.5 33.5
t-50 14.5t-53 -20q-46 -36 -83.5 -149.5t-53.5 -216t-16 -158.5v-404q0 -59 8.5 -107.5t20 -76t23.5 -47t20 -26.5zM805 1032h684q-3 -2 -8.5 -7t-20 -26t-25 -48t-19.5 -76.5t-9 -108.5v-959q0 -101 -19.5 -182.5t-52 -137.5t-81.5 -97.5t-100.5 -66t-116.5 -39t-121.5 -19
t-124.5 -4.5q-45 0 -68 2v22q81 -1 122.5 116.5t41.5 317.5v1047q0 59 -8.5 108t-20.5 77t-24 47.5t-20 26.5z" />
    <glyph glyph-name="f_t" unicode="ft" horiz-adv-x="1652" 
d="M1655 221h18q-23 -39 -57 -77t-85 -78t-122 -64.5t-149 -24.5q-89 0 -161 25t-130.5 78.5t-90.5 147t-32 221.5v557h-182v-742q0 -59 8.5 -107.5t20 -76t23.5 -47t20 -26.5l9 -7h-684q3 2 8.5 7t20 26t25 47.5t19.5 75.5t9 108v742h-82v26h82v193q0 101 19.5 182.5
t52.5 137.5t82 98t100 66t116.5 38.5t122 19.5t124.5 5q101 0 188 -26.5t144 -76t76.5 -119t-13.5 -155.5q-14 -37 -39 -64.5t-54.5 -42t-64 -21.5t-67.5 -2t-64.5 17t-55.5 34.5t-40 50.5t-18 66t10 80q10 32 36 66.5t49 57.5t39 45t8.5 37t-44.5 24q-52 12 -90 -23
q-47 -44 -71.5 -150.5t-24.5 -256.5v-281h182q155 0 254 39.5t161.5 127t106.5 241.5v-408h223v-26h-223v-639q0 -77 27 -127.5t69 -66t92.5 -3.5t98.5 51z" />
    <glyph glyph-name="g_i" unicode="gi" horiz-adv-x="1986" 
d="M1843 264q0 -59 8.5 -107.5t20.5 -76t24 -47t20 -26.5l9 -7h-686q3 2 8.5 7t20 26t25 47.5t19.5 75.5t9 108v502q0 59 -8.5 108t-20.5 77t-24 47.5t-20 26.5l-9 7h686q-3 -2 -8.5 -7t-20 -26t-25 -48t-19.5 -76.5t-9 -108.5v-502zM1831 1460q28 -55 24.5 -115t-27 -111
t-72 -88t-109.5 -46q-58 -8 -105.5 0t-82 26.5t-65 37.5t-54.5 33.5t-51 14.5t-54 -20q-79 -62 -131 -336q80 -110 80 -242q-1 -92 -39.5 -172t-109.5 -140.5t-177.5 -95t-236.5 -34.5q-231 0 -383 107q-8 -41 16 -84q37 -66 159.5 -94.5t334.5 -30.5q145 -1 245.5 -29
t154 -78.5t73.5 -113.5t12 -144q-10 -93 -66.5 -162.5t-145.5 -107.5t-189.5 -56t-213.5 -18q-83 0 -151 2.5t-149.5 9t-142 21t-112.5 35.5t-78.5 55t-23.5 78q8 128 242 121q-104 64 -149.5 186.5t-6.5 241.5q38 111 174 180q-161 127 -164 323q2 191 154 317t410 126
q155 0 274 -48.5t192 -134.5q92 604 347 709q132 52 241.5 15t155.5 -138zM600 -416q-220 11 -373 82q-47 -70 -3.5 -134t156.5 -109.5t236 -45.5q102 0 172 9.5t103.5 27t46 36.5t10.5 44q-2 49 -51 62.5t-212 22.5q-54 3 -85 5zM621 190q27 0 48.5 18t34.5 53t22 72.5
t14 91.5t7 94t3 95q-1 55 -3 95.5t-7 94.5t-14 92t-22 73t-34.5 53t-48.5 18t-48 -18t-34 -53t-22.5 -73t-14 -91.5t-7 -95t-3.5 -95.5q1 -53 3.5 -94.5t7 -94.5t14 -91.5t22.5 -73t34 -52.5t48 -18z" />
    <glyph glyph-name="T_h" unicode="Th" horiz-adv-x="2734" 
d="M2589 264q0 -59 8.5 -107.5t21 -76t25 -47t20.5 -26.5l9 -7h-686q3 2 8.5 7t19.5 26t24.5 47.5t19.5 75.5t9 108v410q0 57 -3 96.5t-12 86t-31.5 71.5t-57.5 26q-44 2 -79.5 -49.5t-35.5 -124.5v-516q0 -59 8.5 -107.5t20.5 -76t24 -47t20 -26.5l9 -7h-684q3 2 8.5 7
t20 26t25 47.5t19.5 75.5t9 108v817q0 132 -73.5 219.5t-202.5 102.5v-1139q0 -59 8.5 -107.5t20.5 -76t24 -47t20 -26.5l9 -7h-740q3 2 8.5 7t20 26t25 47.5t19.5 75.5t9 108v1139q-75 -8 -139.5 -40.5t-107.5 -77.5t-78 -98t-55 -104.5t-33.5 -93.5t-17.5 -68l-5 -26v539
h1012q193 0 392 26t301 52l103 26v-645q80 164 326 164q106 0 187 -31t129.5 -86t73 -127t24.5 -158v-391z" />
    <glyph glyph-name="T_b" unicode="Tb" horiz-adv-x="2652" 
d="M2116 1057q103 0 191.5 -33.5t157 -98.5t107.5 -169.5t39 -237.5q0 -134 -39 -239t-107.5 -170t-157 -98.5t-191.5 -33.5q-58 0 -233 21.5t-269 28.5q-123 9 -206 3t-125 -18l-42 -12q3 2 8.5 7.5t20 26.5t25 48.5t19.5 77t9 108.5v789q0 86 -25 153.5t-66 106.5t-86 60
t-93 26v-1139q0 -59 8.5 -107.5t20.5 -76t24 -47t20 -26.5l9 -7h-740q3 2 8.5 7t20 26t25 47.5t19.5 75.5t9 108v1139q-75 -8 -139.5 -40.5t-107.5 -77.5t-78 -98t-55 -104.5t-33.5 -93.5t-17.5 -68l-5 -26v539h1216q144 0 290.5 26t220.5 52l75 26v-606q83 125 273 125z
M1896 12q51 -4 86.5 37t54 117t26.5 161.5t8 190.5q0 439 -127 459q-36 5 -68.5 -30t-32.5 -99v-821q37 -15 53 -15z" />
    <glyph glyph-name=".notdef" horiz-adv-x="555" 
 />
    <glyph glyph-name=".null" horiz-adv-x="0" 
 />
    <glyph glyph-name="nonmarkingreturn" horiz-adv-x="682" 
 />
    <glyph glyph-name="space" unicode=" " horiz-adv-x="555" 
 />
    <glyph glyph-name="exclam" unicode="!" horiz-adv-x="649" 
d="M324 403q89 0 151 -62.5t62 -150.5t-62 -150.5t-151 -62.5q-88 0 -149.5 62.5t-61.5 150.5t61.5 150.5t149.5 62.5zM324 1434q111 0 177 -77t66 -179q0 -89 -25 -195.5t-60.5 -194.5t-71.5 -163t-61 -117l-25 -43q-10 16 -26 44.5t-58 113.5t-74 167t-58 190.5t-26 197.5
q0 102 66 179t176 77z" />
    <glyph glyph-name="quotedbl" unicode="&#x22;" horiz-adv-x="620" 
d="M186 1665q48 0 76.5 -33.5t28.5 -77.5q0 -62 -26.5 -139t-52.5 -123l-26 -47q-12 19 -29 51t-46 114t-29 144q0 45 28 78t76 33zM432 1665q49 0 78 -33.5t29 -77.5q0 -62 -26.5 -139t-53.5 -123l-27 -47q-12 19 -29 51t-46 114t-29 144q0 44 28.5 77.5t75.5 33.5z" />
    <glyph glyph-name="numbersign" unicode="#" horiz-adv-x="1409" 
d="M1327 930h-334l-135 -428h352v-27h-362l-152 -475h-26l151 475h-387l-151 -475h-27l152 475h-326v27h334l135 428h-352v26h362l152 478h26l-151 -478h387l151 476h27l-152 -476h326v-26zM829 502l138 428h-387l-138 -428h387z" />
    <glyph glyph-name="dollar" unicode="$" horiz-adv-x="1198" 
d="M969 707q94 -102 127.5 -212.5t10 -205.5t-92.5 -172q-68 -76 -174 -106.5t-254 -33.5v-190h-27v190h-4h-31q-149 0 -277.5 66t-150.5 154q-26 104 26 169t148 62q52 -1 92 -22.5t58.5 -55.5t21.5 -76.5t-18 -85.5q-25 -54 -28.5 -92t14 -59t45 -30t69.5 -11q11 0 35 4
v432q-40 39 -164 144t-182 169q-112 123 -127 266t70 263q113 157 403 180v193h27v-193q23 2 65 2q147 0 261.5 -65t136.5 -154q26 -103 -26.5 -168.5t-148.5 -62.5q-105 3 -148.5 76.5t-4.5 162.5q51 113 39.5 151.5t-92.5 41.5q-35 3 -82 -25v-362q46 -46 180.5 -158.5
t202.5 -185.5zM508 1145q22 -32 51 -64v314q-36 -29 -57.5 -68.5t-22 -88.5t28.5 -93zM586 8q49 20 80.5 65t35 103.5t-31.5 122.5q-27 50 -84 107v-398z" />
    <glyph glyph-name="percent" unicode="%" horiz-adv-x="1603" 
d="M1249 1434h27l-911 -1434h-29zM436 1442q180 0 277.5 -104.5t97.5 -258.5q0 -73 -23.5 -137t-69 -114t-118 -79.5t-164.5 -29.5t-164.5 29.5t-118 79.5t-69 114t-23.5 137q0 154 97.5 258.5t277.5 104.5zM436 727q90 0 90 352q0 355 -90 355t-90 -355q0 -352 90 -352z
M1167 700q179 0 277 -103t98 -257q0 -99 -40.5 -179.5t-127.5 -131.5t-207 -52q-121 1 -207.5 52t-126.5 131.5t-40 179.5q0 154 97 257t277 103zM1167 -12q90 0 90 352t-90 352q-91 0 -90 -341v-11q0 -225 34 -303q22 -49 56 -49z" />
    <glyph glyph-name="ampersand" unicode="&#x26;" horiz-adv-x="1748" 
d="M1161 518q267 -188 494 -119q6 -78 -4 -141.5t-29.5 -106.5t-50 -75.5t-62.5 -50.5t-71 -29.5t-70 -15t-65 -3.5q-188 0 -369 134q-143 -134 -395 -134q-87 0 -175 31t-159 85.5t-111.5 140t-30.5 184.5q13 127 97.5 208t206.5 115q-46 66 -72.5 144t-31 157.5t20 153.5
t73.5 131.5t137.5 92t205.5 34.5q100 0 180 -25.5t132 -82t55 -138.5q2 -63 -22.5 -117.5t-67.5 -93t-90.5 -64.5t-100.5 -42q189 -238 365 -363l27 74q23 53 46 93.5t55.5 82t75 66.5t91.5 30q84 8 150.5 -28.5t84.5 -112.5q22 -93 -33 -163.5t-145 -65.5q-52 3 -90 21.5
t-57 44t-32 55t-18 53.5t-10.5 39.5t-14.5 14t-26 -24.5q-39 -51 -94 -189zM639 1430q-116 -40 24 -326q36 -75 111 -197q1 2 5.5 22t6 25.5t5.5 25.5t5.5 31t4 31.5t3 38t1.5 40t-0.5 47t-3.5 51.5q-9 110 -55 170.5t-107 40.5zM469 295q95 -119 222.5 -171.5t226.5 -0.5
q-62 49 -264 261.5t-275 338.5q-32 -113 -5.5 -227t95.5 -201z" />
    <glyph glyph-name="quotesingle" unicode="'" horiz-adv-x="372" 
d="M186 1665q48 0 76.5 -33.5t28.5 -77.5q0 -62 -26.5 -139t-52.5 -123l-26 -47q-12 19 -29 51t-46 114t-29 144q0 45 28 78t76 33z" />
    <glyph glyph-name="parenleft" unicode="(" horiz-adv-x="780" 
d="M698 1518q-64 -51 -112 -144.5t-74.5 -209.5t-39.5 -235.5t-13 -244.5t13 -244.5t39.5 -235.5t74.5 -209.5t112 -144.5v-20q-160 37 -285 124.5t-200 205t-113.5 250.5t-38.5 274t38.5 274t113.5 250.5t200 205t285 124.5v-20z" />
    <glyph glyph-name="parenright" unicode=")" horiz-adv-x="780" 
d="M82 1538q160 -37 285 -124.5t200 -205t113.5 -250.5t38.5 -274t-38.5 -274t-113.5 -250.5t-200 -205t-285 -124.5v20q64 51 112 144.5t75 209t40 236t13 244.5t-13 244.5t-40 236t-75 209t-112 144.5v20z" />
    <glyph glyph-name="asterisk" unicode="*" horiz-adv-x="643" 
d="M541 1323q26 -14 36 -41t-6 -59q-14 -29 -45 -35.5t-55 8.5q-35 19 -59.5 51.5t-45 64.5t-44.5 48q2 -29 20 -62t34.5 -70t16.5 -77q0 -30 -19.5 -53t-51.5 -23t-52 23t-20 53q0 40 16.5 77t35 70t20.5 62q-24 -16 -44.5 -48t-45.5 -64.5t-60 -51.5q-24 -15 -55 -8.5
t-45 35.5q-16 32 -6 59t36 41q35 19 75 22t79 3t66 12q-30 14 -103 14.5t-117 24.5q-26 14 -36 41t6 59q14 28 45 35t55 -8q35 -19 60 -51.5t45.5 -64.5t44.5 -48q-2 29 -20.5 62t-35 70t-16.5 77q0 30 20 53t52 23t51.5 -23t19.5 -53q0 -40 -16.5 -77t-34.5 -70t-20 -62
q24 16 44.5 48t45 64.5t59.5 51.5q24 15 55 8t45 -35q16 -32 6 -59t-36 -41q-44 -24 -117 -24.5t-102 -14.5q26 -12 64.5 -12t79 -3t75.5 -22z" />
    <glyph glyph-name="plus" unicode="+" horiz-adv-x="1030" 
d="M530 690h439v-26h-439v-441h-28v441h-441v26h441v440h28v-440z" />
    <glyph glyph-name="comma" unicode="," horiz-adv-x="546" 
d="M274 403q88 0 149.5 -62.5t61.5 -150.5q0 -126 -88.5 -248.5t-240.5 -205.5l-17 24q198 101 285 281q-61 -64 -150 -64t-151 62.5t-62 150.5t62 150.5t151 62.5z" />
    <glyph glyph-name="hyphen" unicode="-" horiz-adv-x="1071" 
d="M82 690h907v-26h-907v26z" />
    <glyph glyph-name="period" unicode="." horiz-adv-x="548" 
d="M274 403q88 0 150.5 -62.5t62.5 -150.5t-62.5 -150.5t-150.5 -62.5t-150.5 62.5t-62.5 150.5t62.5 150.5t150.5 62.5z" />
    <glyph glyph-name="slash" unicode="/" horiz-adv-x="698" 
d="M608 1524h29l-549 -1614h-27z" />
    <glyph glyph-name="zero" unicode="0" horiz-adv-x="1468" 
d="M733 1456q107 0 199 -27t159.5 -72.5t122 -107t90 -128t59.5 -139.5t34 -138.5t10 -126.5t-10 -127t-34 -139t-59.5 -140t-90 -128t-122 -106.5t-159.5 -72.5t-199 -27t-199 27t-159.5 72.5t-121.5 106.5t-89.5 128t-59 140t-33.5 138.5t-10 127.5q0 61 10 126.5
t33.5 138.5t59 139.5t89.5 128t121.5 107t159.5 72.5t199 27zM733 -4q34 0 61.5 16.5t46 53t32.5 71.5t22.5 98t13.5 104t6.5 117.5t2 111.5t0.5 110v39q0 286 -11 400q-34 320 -174 321q-44 0 -77 -28t-52 -89.5t-31 -115t-16 -150t-5 -146.5t-1 -149v-15.5v-13.5v-14
q0 -285 10 -395q32 -325 172 -326z" />
    <glyph glyph-name="one" unicode="1" horiz-adv-x="827" 
d="M664 264q0 -59 8.5 -108t20 -76.5t23.5 -47t20 -26.5l9 -6h-663q3 2 8.5 7t20 25.5t25 47.5t19.5 76t9 108v813q0 26 -8.5 45t-20.5 27.5t-24 13.5t-21 5l-8 1l567 265h15v-1170z" />
    <glyph glyph-name="two" unicode="2" horiz-adv-x="1284" 
d="M1206 549v-242q0 -330 -332 -330q-100 0 -214.5 23.5t-194.5 46.5t-155 35.5t-127 -12t-81 -93.5q-4 9 -10 25.5t-16.5 66t-13 96.5t9.5 110t41.5 114.5t93 101.5t155.5 80q193 63 282 176t95 300q4 118 -48.5 213t-144 131.5t-212.5 -11.5q-46 -20 -66.5 -34
t-13.5 -27.5t19 -21t49 -24.5q44 -21 70 -35t63.5 -47t56.5 -71q30 -71 19 -137t-61.5 -116t-121.5 -58q-101 -11 -178.5 45.5t-87.5 173.5q-19 211 176 340q134 88 356 88q280 0 443.5 -114.5t165.5 -305.5q0 -72 -16 -133.5t-47 -108t-71.5 -84t-93 -64t-108 -46
t-121.5 -31.5t-127.5 -18.5t-130.5 -9.5q-86 -4 -155 -22.5t-114 -47t-77.5 -67t-48.5 -78.5t-22.5 -84.5t-4.5 -83.5t10 -78q-12 193 87 303.5t294 93.5q47 -4 136.5 -20t159 -24t152 -7.5t154.5 31t127 92.5z" />
    <glyph glyph-name="three" unicode="3" horiz-adv-x="1286" 
d="M653 780q111 6 207 -10t174.5 -56t124 -113.5t45.5 -174.5q0 -197 -154 -323t-434 -126q-106 0 -207.5 21t-168.5 65q-196 129 -177 343q10 115 89.5 172.5t179.5 44.5q67 -8 116 -54t62 -112.5t-16 -143.5q-13 -31 -35 -56.5t-51.5 -45t-51 -30.5t-52.5 -25
q-20 -9 -29 -13.5t-21.5 -12t-14.5 -12.5t-2 -13t9.5 -15.5t26 -18t42.5 -22.5q65 -32 134.5 -16.5t127 59t97.5 118t47 159.5q29 333 -326 364q-9 2 -9 12t11 13q32 6 95 17q67 11 100.5 17t92 18t89.5 21t78.5 24t75 30t63 37t58 46t44.5 55.5t37 68.5q-86 -155 -309 -138
q-48 4 -131.5 20t-147.5 25t-139 8.5t-143 -30.5t-123 -92v241q0 169 87.5 249.5t244.5 80.5q87 0 178 -17t154 -38t126 -37t105.5 -18t78.5 23.5t58 84.5q17 -144 3.5 -257t-66.5 -195.5t-164 -137.5t-289 -84z" />
    <glyph glyph-name="four" unicode="4" horiz-adv-x="1267" 
d="M1206 457h-127v-205q1 -56 9.5 -103t20.5 -73t23.5 -44.5t19.5 -25.5l9 -6h-586q0 321 236 457h-791v26q7 1 19 3t49 15.5t72.5 33.5t82 61t85.5 94t76 137t59 185q17 74 17 144.5t-11 118.5t-24.5 85.5t-24.5 55.5l-12 18h639q0 -151 -21 -278.5t-56 -219.5t-86 -166
t-105.5 -122t-119.5 -83t-123 -53.5t-122 -28.5h450q53 29 95 60t63.5 55.5t35.5 45t18 31.5l3 11v-203h127v-26z" />
    <glyph glyph-name="five" unicode="5" horiz-adv-x="1286" 
d="M700 854q104 -2 194 -30t160 -80t110 -134t40 -184q0 -96 -36 -176.5t-106.5 -142t-184.5 -96t-261 -34.5q-106 0 -207.5 21t-168.5 65q-196 129 -177 343q10 116 88.5 173t178.5 44q105 -12 157.5 -106t6.5 -204q-11 -25 -29.5 -48t-34.5 -37.5t-45 -32t-41 -24
t-43 -20.5q-28 -13 -39.5 -19.5t-22.5 -17t-4.5 -19t25 -20t55.5 -26.5q40 -16 83.5 -16.5t85.5 12.5t81 41.5t70.5 68t54 95t31.5 119.5q26 171 -49 281.5t-242 123.5q-72 6 -146 -11.5t-120 -45.5v739q31 -59 72.5 -85t85.5 -24.5t104.5 17.5t118.5 37t140 38t159 17
q68 0 125 -13t105 -41.5t75 -80t27 -121.5v-328q-34 44 -77 74.5t-93 45.5t-96.5 22t-106.5 5t-103 -5.5t-105 -11t-95 -9.5q-236 -16 -307 170v-405q225 103 507 96z" />
    <glyph glyph-name="six" unicode="6" horiz-adv-x="1357" 
d="M1274 473q6 -149 -67.5 -263.5t-199.5 -173.5t-282 -59q-161 1 -289 59t-208.5 159t-123 234t-43.5 288q1 204 88 371.5t252 267.5t377 100q160 0 294 -79.5t161 -186.5q30 -125 -33 -203.5t-178 -75.5q-63 1 -110.5 27.5t-69.5 67.5t-26 92t22 102q62 135 49 184
t-109 54q-56 3 -100 -54.5t-70.5 -156t-41 -213.5t-17.5 -242q177 69 311 68.5t225 -55.5t138.5 -136.5t50.5 -175.5zM725 -4q72 0 103 102t22 264q-4 68 -12 121.5t-28.5 113.5t-51.5 97t-84.5 55t-124.5 3v-35q0 -101 1.5 -172.5t7 -163t17.5 -153.5t30.5 -118.5t49 -85
t70.5 -28.5z" />
    <glyph glyph-name="seven" unicode="7" horiz-adv-x="1140" 
d="M1073 1456q17 -201 -27 -346t-180 -346q-47 -70 -66.5 -99.5t-48 -80.5t-38.5 -86t-18.5 -85.5t-8.5 -109.5q0 -88 18.5 -163.5t37.5 -107.5l18 -32h-565q-27 107 -25.5 195.5t33.5 168.5t76 140t104 110q73 62 172 113t192 94.5t144 83.5q96 77 143 234
q-81 -162 -297 -146q-33 2 -95 9.5t-105 11t-103 5.5t-106.5 -5t-96.5 -22t-93 -45.5t-77 -74.5v328q0 70 27.5 121.5t75.5 80t105 41.5t124 13q77 0 159 -17t140 -38t118.5 -37t104.5 -17.5t85.5 24.5t72.5 85z" />
    <glyph glyph-name="eight" unicode="8" horiz-adv-x="1267" 
d="M963 809q109 -98 169.5 -196.5t69.5 -184t-9.5 -155.5t-62.5 -132q-40 -57 -101 -93.5t-123 -52.5t-146 -19t-147.5 1.5t-149.5 14.5q-59 8 -116 27t-112.5 54.5t-95 82t-60.5 114.5t-13 148q13 128 99 209.5t210 115.5q-101 75 -152 174.5t-43.5 200t72.5 178.5
q145 175 481 158q80 -5 145.5 -24.5t107.5 -49t73 -67.5t43 -80t16.5 -86t-6.5 -86q-14 -76 -55 -142t-94 -110zM543 1425q-43 -32 -11 -122t121 -189q151 -174 295 -293q-14 172 -117 350q-189 323 -288 254zM801 12q24 10 30 44t-11.5 95.5t-61.5 137.5q-50 87 -158 216.5
t-211 227.5q-65 -173 84 -440q92 -161 176 -236.5t152 -44.5z" />
    <glyph glyph-name="nine" unicode="9" horiz-adv-x="1335" 
d="M612 1456q167 0 294.5 -53.5t207 -149.5t119.5 -224t41 -284q-1 -153 -52.5 -292t-142.5 -245t-227 -168.5t-295 -62.5q-104 0 -203.5 36.5t-167 98.5t-84.5 132q-30 123 33 202t178 76q63 -1 111 -27.5t70.5 -67.5t26 -92t-22.5 -102q-61 -137 -49 -184.5t108 -52.5
q56 -3 100 54t70.5 155t41 212.5t17.5 241.5q-137 -59 -258 -70.5t-204.5 17.5t-144 84.5t-89.5 125t-29 142.5q0 223 156.5 360.5t394.5 137.5zM786 680v37q0 74 -1 128.5t-3.5 125t-7.5 123t-13.5 109.5t-21.5 96.5t-30.5 72.5t-42 49.5t-54.5 16.5q-72 0 -104 -103
t-21 -264q4 -69 12 -122.5t28.5 -114t51 -97.5t84 -54.5t123.5 -2.5z" />
    <glyph glyph-name="colon" unicode=":" horiz-adv-x="546" 
d="M274 403q88 0 149.5 -62.5t61.5 -150.5t-61.5 -150.5t-149.5 -62.5q-89 0 -151 62.5t-62 150.5t62 150.5t151 62.5zM274 930q-89 0 -151 62.5t-62 150.5q0 89 62 151t151 62q88 0 149.5 -62t61.5 -151q0 -88 -61.5 -150.5t-149.5 -62.5z" />
    <glyph glyph-name="semicolon" unicode=";" horiz-adv-x="546" 
d="M272 403q89 0 151 -62.5t62 -150.5q0 -126 -89 -248.5t-242 -205.5l-15 24q194 98 285 281q-64 -64 -152 -64t-149.5 62.5t-61.5 150.5t61.5 150.5t149.5 62.5zM272 930q-88 0 -149.5 62.5t-61.5 150.5q0 89 61.5 151t149.5 62q89 0 151 -62t62 -151q0 -88 -62 -150.5
t-151 -62.5z" />
    <glyph glyph-name="less" unicode="&#x3c;" horiz-adv-x="446" 
d="M365 1026l-318 -348l318 -350l-15 -15l-330 365l330 362z" />
    <glyph glyph-name="equal" unicode="=" horiz-adv-x="1071" 
d="M82 829h907v-28h-907v28zM82 526v27h907v-27h-907z" />
    <glyph glyph-name="greater" unicode="&#x3e;" horiz-adv-x="446" 
d="M98 1040l328 -362l-328 -365l-16 15l317 350l-317 348z" />
    <glyph glyph-name="question" unicode="?" horiz-adv-x="1128" 
d="M475 403q88 0 149.5 -62.5t61.5 -150.5t-61.5 -150.5t-149.5 -62.5q-89 0 -151 62.5t-62 150.5t62 150.5t151 62.5zM514 1456q271 0 418 -103.5t133 -277.5q-6 -71 -35.5 -130.5t-68.5 -99t-100.5 -76.5t-110 -59t-117.5 -50q-15 -6 -23 -9q-62 -26 -92 -51.5t-24 -52.5
q7 -29 46 -39.5t74 4.5q-59 -52 -144 -52t-124 50q-37 42 -26 110t67 132q10 12 56.5 61.5t70.5 78.5t58.5 84.5t56.5 113.5q18 44 19.5 88t-10 81t-35 68.5t-55 52.5t-71.5 30.5t-82 5.5t-88.5 -25.5t-89.5 -59.5q-29 -26 -29.5 -39.5t12 -17.5t50.5 -10q26 -4 41 -6.5
t42 -10t45.5 -17t39.5 -26.5t35 -39q27 -41 33.5 -84.5t-5 -79.5t-32.5 -65.5t-48 -48.5q-69 -45 -137 -40.5t-123.5 53t-70.5 120.5q-36 164 84 291q138 145 360 145z" />
    <glyph glyph-name="at" unicode="@" horiz-adv-x="1908" 
d="M1137 1278q162 -15 287.5 -60.5t207 -116.5t131 -166t58.5 -208.5t-11 -245.5q-43 -262 -178 -387t-364 -117q-201 7 -271 154q-55 -68 -104 -92.5t-127 -24.5q-181 0 -266 133t-21 381q94 353 434 353q60 0 111 -12.5t125 -39.5q224 -77 387 -8l-96 -483q-4 -21 -12 -58
q-26 -129 -21 -167q6 -42 43 -52q18 -6 48 -1t73 30.5t83 69.5t77.5 128t56.5 195q58 329 -108.5 534t-544.5 238q-406 36 -670 -141.5t-352 -523.5q-52 -209 -10 -394.5t171 -314.5q169 -168 446.5 -209t629.5 49l6 -20q-237 -63 -455 -63q-410 0 -643 227
q-133 133 -176 324t10 407q17 71 43.5 139t71.5 142.5t102 137.5t140 119t181 92t228.5 51t278.5 1zM993 156l144 643q-9 22 -35.5 25.5t-40.5 -3.5q-57 -17 -103 -117t-79 -247q-76 -328 6 -361q49 -20 108 60z" />
    <glyph glyph-name="A" unicode="A" horiz-adv-x="1748" 
d="M1749 0h-821q2 4 5.5 11.5t10 33t7 54t-8 74t-29.5 93.5q-20 50 -88 197h-411q-19 -169 34.5 -293t172.5 -170h-621q112 98 207 239t190 367q59 139 144 346t141 344l55 138h226q489 -945 604 -1168q52 -100 97.5 -166.5t65.5 -83.5zM416 492h397l-229 497
q-33 -67 -111 -276q-41 -111 -57 -221z" />
    <glyph glyph-name="B" unicode="B" horiz-adv-x="1595" 
d="M1044 801q243 -27 366.5 -129.5t123.5 -253.5q0 -77 -21 -138.5t-70 -114.5t-127 -89t-196.5 -56t-273.5 -20h-764q3 2 8.5 7t20 25.5t25 47.5t19.5 76t9 108v903q0 59 -8.5 108.5t-20.5 77.5t-24 47.5t-21 26.5l-8 7h752q203 0 330 -38.5t181 -106t54 -169.5
q0 -107 -96.5 -196.5t-258.5 -122.5zM936 1108q0 56 -4 97t-16.5 80.5t-33.5 64.5t-57 40t-86 15v-592q61 0 102 22t60.5 65.5t27 91.5t7.5 116zM739 27q149 0 220 90.5t71 285.5q0 194 -71.5 288.5t-219.5 94.5v-759z" />
    <glyph glyph-name="C" unicode="C" horiz-adv-x="1601" 
d="M1513 408h27q-96 -210 -285 -320.5t-438 -110.5q-101 0 -205 28.5t-203 89.5t-176.5 146.5t-124.5 209t-47 266.5q0 153 46 278t124.5 209.5t187 142t229.5 83.5t255 26q116 0 297 -45q57 -14 102 -14t68 10t37.5 22.5t18.5 22.5l4 10l43 -567q-3 11 -10 30.5t-31.5 75.5
t-53 107t-75.5 113t-99 107t-123 75.5t-147 30.5q-70 0 -128 -41.5t-94.5 -112t-59.5 -163t-22.5 -194.5t17.5 -206q25 -131 82.5 -228.5t132 -150t163 -74.5t175.5 -10t169 51.5t144 102.5z" />
    <glyph glyph-name="D" unicode="D" horiz-adv-x="1722" 
d="M846 1434q166 0 302.5 -38t230.5 -104t158.5 -157.5t94 -196t29.5 -221.5t-29.5 -221.5t-94 -196t-158.5 -157.5t-230.5 -104t-302.5 -38h-764q3 2 8.5 7t20 25.5t25 47.5t19.5 76t9 108v903q0 59 -8.5 108.5t-20.5 77.5t-24 47.5t-21 26.5l-8 7h764zM739 27
q101 0 176.5 53.5t119 150t64.5 218t21 268.5t-21 267.5t-64.5 217t-119 150t-176.5 53.5v-1378z" />
    <glyph glyph-name="E" unicode="E" horiz-adv-x="1445" 
d="M836 27q66 0 124.5 17.5t102.5 47t81.5 68t63.5 81t47 85t33 81t20.5 68t11.5 47.5l3 17v-539h-1241q3 2 8.5 7t20 25.5t25 47.5t19.5 76t9 108v903q0 59 -8.5 108.5t-20.5 77.5t-24 47.5t-21 26.5l-8 7h1214v-539q-2 11 -5.5 29t-19.5 71t-37.5 101.5t-61 107t-87.5 101
t-120 71.5t-156 29h-70v-676q79 10 144 34t106 55t72 66t46.5 68.5t24.5 60.5t11 43l2 17v-713q0 6 -1.5 17t-11.5 43t-25 62t-46 68t-72 68t-106 54.5t-144 34.5v-680h97z" />
    <glyph glyph-name="F" unicode="F" horiz-adv-x="1390" 
d="M780 1405h-41v-676q79 10 143.5 34t105 55t71.5 66t46.5 68.5t24.5 60.5t11 43l2 17v-713q0 6 -1.5 17t-11.5 43t-25 62t-46 68t-71.5 68t-105 54.5t-143.5 34.5v-443q0 -59 8.5 -108t20.5 -76.5t24 -47t20 -26.5l9 -6h-739q3 2 8.5 7t20 25.5t25 47.5t19.5 76t9 108v903
q0 59 -8.5 108.5t-20.5 77.5t-24 47.5t-21 26.5l-8 7h1186v-539q-2 11 -5.5 29t-19.5 71t-37.5 101.5t-61.5 107t-88 101t-120 71.5t-156 29z" />
    <glyph glyph-name="G" unicode="G" horiz-adv-x="1722" 
d="M1030 672h631q-3 -3 -8.5 -10t-20 -33t-25 -56.5t-19.5 -82.5t-9 -111v-399q-4 2 -11.5 6t-31.5 14.5t-50 19.5t-64 18t-76 14t-84.5 3.5t-90.5 -10.5q-43 -9 -138 -38.5t-152 -29.5q-189 0 -344.5 58t-258 159t-159 235t-58.5 288q2 153 58.5 287.5t159.5 235
t258.5 158.5t343.5 58q116 0 297 -45q57 -14 109 -14t85 10t58 22.5t36 22.5l11 10l43 -567q-4 11 -10.5 30.5t-33 76t-57 108t-83 114t-111.5 107.5t-141.5 76t-172.5 31q-49 0 -89 -24t-66.5 -62.5t-46.5 -98t-31 -119t-17 -137t-8 -140t-2 -140.5q2 -87 6 -160.5t13 -161
t26 -154.5t41 -125t60.5 -89t83.5 -31q44 0 79.5 14t59.5 35.5t41.5 55t27 66.5t15 75.5t7 75.5t1.5 73q0 49 -8.5 96t-20.5 79t-24 57t-21 37z" />
    <glyph glyph-name="H" unicode="H" horiz-adv-x="1744" 
d="M1581 264q0 -59 8.5 -108t20.5 -76.5t24 -47t20 -26.5l9 -6h-739q3 2 8.5 7t20 25.5t25 47.5t19.5 76t9 108v438h-267v-438q0 -59 8.5 -108t20.5 -76.5t24 -47t20 -26.5l9 -6h-739q3 2 8.5 7t20 25.5t25 47.5t19.5 76t9 108v903q0 59 -8.5 108.5t-20.5 77.5t-24 47.5
t-21 26.5l-8 7h739q-3 -2 -8.5 -7t-20 -26t-25 -48.5t-19.5 -77t-9 -108.5v-438h267v438q0 59 -8.5 108.5t-20.5 77.5t-24 47.5t-21 26.5l-8 7h739q-3 -2 -8.5 -7t-20 -26t-25 -48.5t-19.5 -77t-9 -108.5v-903z" />
    <glyph glyph-name="I" unicode="I" horiz-adv-x="903" 
d="M739 264q0 -59 8.5 -108t20.5 -76.5t24 -47t20 -26.5l9 -6h-739q3 2 8.5 7t20 25.5t25 47.5t19.5 76t9 108v903q0 59 -8.5 108.5t-20.5 77.5t-24 47.5t-21 26.5l-8 7h739q-3 -2 -8.5 -7t-20 -26t-25 -48.5t-19.5 -77t-9 -108.5v-903z" />
    <glyph glyph-name="J" unicode="J" horiz-adv-x="884" 
d="M39 1434h784q-3 -2 -8.5 -7t-20 -26t-25 -48t-19.5 -76t-9 -108v-727q0 -111 -24 -201.5t-63.5 -152.5t-98.5 -108.5t-120 -73.5t-136.5 -43t-140.5 -21.5t-140 -5.5q-10 0 -30 1t-29 1v23q66 -3 113.5 61.5t70.5 174t23 249.5v823q0 59 -13 107.5t-32 76.5t-37.5 47.5
t-31.5 26.5z" />
    <glyph glyph-name="K" unicode="K" horiz-adv-x="1771" 
d="M1536 264q27 -54 59.5 -101t59 -75.5t49 -49.5t34.5 -30l13 -8h-758q2 2 5 7.5t7.5 26.5t2.5 48t-16.5 76t-41.5 106l-186 391l-25 -26v-365q0 -59 8.5 -108t20.5 -76.5t24 -47t20 -26.5l9 -6h-739q3 2 8.5 7t20 25.5t25 47.5t19.5 76t9 108v903q0 59 -8.5 108.5
t-20.5 77.5t-24 47.5t-21 26.5l-8 7h739q-3 -2 -8.5 -7t-20 -26t-25 -48.5t-19.5 -77t-9 -108.5v-508q242 266 346 379q40 43 48.5 104.5t-10 118.5t-59.5 105.5t-93 67.5h622q-143 -71 -249 -156t-216 -211z" />
    <glyph glyph-name="L" unicode="L" horiz-adv-x="1312" 
d="M762 27q84 0 156.5 28t121 73.5t87.5 100t61.5 109t37.5 100t20 73.5l5 28v-539h-1169q3 2 8.5 7t20 25.5t25 47.5t19.5 76t9 108v903q0 59 -8.5 108.5t-20.5 77.5t-24 47.5t-21 26.5l-8 7h739q-3 -2 -8.5 -7t-20 -26t-25 -48.5t-19.5 -77t-9 -108.5v-1140h23z" />
    <glyph glyph-name="M" unicode="M" horiz-adv-x="1998" 
d="M1835 264q0 -59 8.5 -107.5t20.5 -76t24 -47t20 -26.5l9 -7h-739q3 2 8.5 7t20 26t25 47.5t19.5 75.5t9 108v1104l-467 -1368q-488 1206 -492 1212v-718q0 -193 70 -312.5t229 -181.5h-620q159 62 227.5 181t68.5 313v761q-25 41 -55.5 74.5t-56.5 52t-49 31.5t-36 17
l-13 4h825q-2 -2 -5.5 -6.5t-8.5 -23.5t-5.5 -44t8.5 -71.5t29 -102.5l140 -379l211 627h657q-3 -2 -8.5 -7t-20 -26t-25 -48.5t-19.5 -77t-9 -108.5v-903z" />
    <glyph glyph-name="N" unicode="N" horiz-adv-x="1665" 
d="M1065 1434h621q-159 -61 -228 -181.5t-69 -312.5v-940h-338l-736 1075v-581q0 -192 69.5 -312.5t229.5 -181.5h-620q161 62 229 178.5t68 315.5v616l-150 221q-40 55 -68.5 74t-92.5 29h862q-1 -2 -2 -6.5t1 -23.5t10 -43t31 -68t58 -97l424 -594v338q0 192 -69.5 312.5
t-229.5 181.5z" />
    <glyph glyph-name="O" unicode="O" horiz-adv-x="1798" 
d="M899 1456q188 -1 346 -59t264.5 -158t166.5 -234.5t61 -287.5q-1 -153 -61 -287.5t-166.5 -234.5t-264.5 -158.5t-346 -59.5q-188 1 -346.5 59.5t-265 158.5t-166 234.5t-60.5 287.5q1 153 60.5 287.5t166 234.5t265 158t346.5 59zM899 -4q69 0 121 64t80 171.5t41.5 229
t13.5 256.5q0 134 -13.5 255.5t-41.5 229.5t-80 172t-121 64t-121 -64t-81 -171.5t-42.5 -229.5t-13.5 -256q0 -135 13.5 -257t42.5 -229t81 -171t121 -64z" />
    <glyph glyph-name="P" unicode="P" horiz-adv-x="1593" 
d="M846 1434q150 0 268 -25t194.5 -67.5t127 -102.5t72.5 -124.5t24 -139.5q-2 -75 -24 -139.5t-72.5 -124t-127 -101.5t-194.5 -67t-268 -25q-6 0 -53.5 -1t-53.5 -1v-252q0 -59 8.5 -107.5t20.5 -76t24 -47t20 -26.5l9 -7h-739q3 2 8.5 7t20 26t25 47.5t19.5 75.5t9 108
v903q0 59 -8.5 108.5t-20.5 77.5t-24 47.5t-21 26.5l-8 7h764zM739 545q144 0 216.5 114.5t72.5 315.5q0 202 -72.5 316t-216.5 114v-860z" />
    <glyph glyph-name="Q" unicode="Q" horiz-adv-x="1798" 
d="M825 -129q60 -27 145 -48t189 -28t202 4.5t188 56.5t143 121q60 -193 -1 -347t-214 -191q-67 -17 -131 -9t-117.5 30t-105.5 58.5t-93.5 76.5t-82.5 84.5t-72.5 81.5t-62.5 68t-54 44q-60 33 -121 40t-131 -1q-30 -15 -111.5 -34t-118.5 -21q-17 0 -20 12q-3 15 8 22
q20 13 105.5 30.5t132.5 19.5q20 5 152 21t235 34q57 11 100.5 45t72 88.5t47.5 117.5t29 145.5t13.5 157.5t3.5 167q0 133 -13.5 254t-41.5 229.5t-80 173t-121 64.5q-56 0 -100.5 -44.5t-73 -116t-47.5 -167.5t-27 -193.5t-8 -199.5q0 -130 13.5 -244t42 -213t80 -157
t120.5 -58v-18q-253 1 -443 88.5t-291.5 243t-103.5 358.5q1 153 61 287.5t166 234.5t264.5 158t346.5 59q188 -1 346.5 -59t264.5 -158t166 -234.5t61 -287.5q-3 -311 -218 -505.5t-626 -238.5q-25 -3 -70.5 -7.5t-87.5 -9t-84 -9.5q-15 -3 -33 -6q32 -4 64.5 -13t47 -14.5
t53 -23t42.5 -19.5z" />
    <glyph glyph-name="R" unicode="R" horiz-adv-x="1695" 
d="M1567 238q20 -38 47 -58t52 -21t50 7q-59 -111 -161.5 -154t-225.5 -30q-143 13 -241.5 100.5t-129.5 259.5q-29 162 -78 223.5t-141 61.5v-363q0 -59 8.5 -107.5t20.5 -76t24 -47t20 -26.5l9 -7h-739q3 2 9 7t20.5 26t25.5 47.5t20 75.5t9 108v905q0 59 -8.5 107.5
t-21 76.5t-25 47.5t-21.5 26.5l-8 7h766q151 0 268 -19.5t194.5 -54t127.5 -86t72 -111t24 -133.5q-5 -151 -101 -249t-311 -134q166 -11 236 -63q64 -45 98 -99.5t61.5 -130.5t49.5 -116zM739 655q150 0 220.5 90.5t70.5 284.5q0 196 -70.5 286.5t-220.5 90.5v-752z" />
    <glyph glyph-name="S" unicode="S" horiz-adv-x="1396" 
d="M1161 795q72 -49 118.5 -114.5t63 -136.5t9.5 -144.5t-39 -141.5q-30 -65 -84 -116.5t-113 -81.5t-127.5 -49.5t-123 -26.5t-103.5 -7q-68 0 -216.5 27t-240.5 35q-56 5 -103 -12.5t-66 -37.5l-19 -20v570q6 -11 17.5 -30.5t48.5 -76t76.5 -108t99.5 -114t120 -107.5
t134.5 -76t146.5 -31q60 0 91 31t34 86q10 147 -217 268q-18 10 -98 51.5t-115.5 62t-98 59t-108 77.5t-84.5 82q-74 82 -94 187.5t7.5 201.5t90.5 170q75 88 206 136t298 48q81 0 158 -11t214 -46q38 -9 65.5 -7t45 11.5t28.5 19.5t15 19l4 8v-555q-3 11 -9.5 30.5
t-29.5 76t-49 108t-68.5 114t-88 107.5t-107.5 76t-127 31q-94 0 -146 -65t-26 -163q16 -63 91 -125t160 -103.5t195 -95.5t164 -91z" />
    <glyph glyph-name="T" unicode="T" horiz-adv-x="1531" 
d="M41 1434h1450v-539q-1 10 -4.5 27t-18 66.5t-34 95t-55 102.5t-78.5 100t-107.5 76t-138.5 41v-1139q0 -59 8.5 -107.5t20.5 -76t24 -47t20 -26.5l9 -7h-740q3 2 8.5 7t20 26t25 47.5t19.5 75.5t9 108v1139q-75 -8 -139.5 -40.5t-108 -77.5t-78.5 -98t-55.5 -104.5
t-34 -93.5t-17.5 -68l-5 -26v539z" />
    <glyph glyph-name="U" unicode="U" horiz-adv-x="1513" 
d="M1094 1434h358q-30 -40 -48.5 -93.5t-25.5 -136t-8.5 -139t-1.5 -172.5v-45v-279q0 -49 -4.5 -96.5t-19 -106t-37 -109t-61.5 -101t-90 -87t-125.5 -61.5t-164.5 -31q-59 -6 -121 -1t-124 13t-121.5 31t-112.5 53t-98 79t-77.5 109t-50.5 142.5t-18 180.5v583
q0 59 -8.5 108.5t-20.5 77.5t-24 47.5t-20 26.5l-9 7h740q-3 -2 -8.5 -7t-20 -26t-25 -48.5t-19.5 -77t-9 -108.5v-682q0 -159 69.5 -268.5t178.5 -126.5q107 -19 195 45.5t134.5 179.5t46.5 250v283q0 217 -56.5 367.5t-192.5 218.5z" />
    <glyph glyph-name="V" unicode="V" horiz-adv-x="1708" 
d="M1108 1434h621q-112 -96 -208.5 -238t-191.5 -367q-58 -139 -142.5 -346.5t-140.5 -344.5l-55 -138h-225q-489 946 -606 1169q-32 62 -62.5 112.5t-51 77.5t-36 45.5t-22.5 23.5l-8 6h821q-2 -4 -6 -11.5t-10.5 -33t-7.5 -54t7.5 -73.5t28.5 -93q33 -76 116 -257
t149 -324l67 -144q32 68 110 279q60 164 64 311t-50 253t-161 147z" />
    <glyph glyph-name="W" unicode="W" horiz-adv-x="2578" 
d="M1978 1434h621q-112 -96 -208 -237.5t-191 -367.5q-59 -139 -144 -346.5t-140 -344.5l-56 -138h-226q-188 367 -360 696l-283 -696h-219q-495 946 -610 1169q-33 62 -63.5 112.5t-51 77.5t-36.5 45.5t-23 23.5l-8 6h821q-2 -4 -6 -11.5t-10 -33t-7 -54t7.5 -73.5
t29.5 -93q32 -76 119.5 -245t159.5 -300l71 -132q12 20 90 231q0 1 1 3t1 3q-56 110 -137 265.5t-90 174.5q-33 62 -63.5 112.5t-51 77.5t-36.5 45.5t-23 23.5l-8 6h821q-2 -4 -6 -11.5t-10 -33t-7 -54t7.5 -73.5t29.5 -93q32 -76 114.5 -257t148.5 -324l67 -144
q33 68 111 279q61 164 65.5 311t-50 253t-161.5 147z" />
    <glyph glyph-name="X" unicode="X" horiz-adv-x="1699" 
d="M1430 264q50 -76 112.5 -142t99.5 -94l37 -28h-766q1 3 2 10t-1 31t-9 52t-27.5 74.5t-52.5 96.5l-182 289q-37 -16 -82 -61q-60 -60 -82 -131.5t-8 -138t59 -125.5t115 -97h-620q55 43 132 114t154.5 147.5t141 141t116.5 119.5t56 58l-375 587q-47 68 -109.5 134.5
t-101.5 99.5l-39 33h766q-1 -3 -2.5 -10t-0.5 -31t8 -52.5t28.5 -75t54.5 -98.5q144 -227 164 -260q27 13 45 33q58 61 79.5 133t8.5 138t-57.5 125t-114.5 98h623q-71 -44 -167 -131t-192 -189t-135.5 -145.5t-73.5 -83.5z" />
    <glyph glyph-name="Y" unicode="Y" horiz-adv-x="1656" 
d="M1657 1434q-137 -83 -244 -200.5t-217 -293.5l-115 -182v-494q0 -59 8.5 -107.5t21 -76t25 -47t20.5 -26.5l9 -7h-741q3 2 9 7t20.5 26t25.5 47.5t20 75.5t9 108v338l-318 565q-57 93 -115 159.5t-87 87.5l-29 20h850q-3 -3 -6.5 -8t-10 -25t-7 -43.5t9.5 -63.5t32 -84
l242 -430q32 51 100 160q50 80 63 157t-8.5 139.5t-70 113.5t-119.5 84h623z" />
    <glyph glyph-name="Z" unicode="Z" horiz-adv-x="1425" 
d="M834 27q84 0 158.5 28t127 73.5t96 100t70 109t45 100t25.5 73.5l8 28l-43 -539h-1301l717 1405h-159q-84 0 -159 -28t-127 -73t-95.5 -99.5t-70.5 -109t-45.5 -99.5t-26.5 -73l-7 -28l43 539h1253l-716 -1407h207z" />
    <glyph glyph-name="bracketleft" unicode="[" horiz-adv-x="499" 
d="M479 1497h-123v-1560h123v-27h-397v1614h397v-27z" />
    <glyph glyph-name="backslash" unicode="\" horiz-adv-x="696" 
d="M88 1524l547 -1614h-27l-547 1614h27z" />
    <glyph glyph-name="bracketright" unicode="]" horiz-adv-x="499" 
d="M20 1524h398v-1614h-398v27h123v1560h-123v27z" />
    <glyph glyph-name="asciicircum" unicode="^" horiz-adv-x="720" 
d="M360 1554l340 -376l-340 155l-340 -155z" />
    <glyph glyph-name="underscore" unicode="_" horiz-adv-x="1081" 
d="M61 0h959v-29h-959v29z" />
    <glyph glyph-name="grave" unicode="`" horiz-adv-x="557" 
d="M117 1903q43 39 93 36.5t87 -38.5q52 -50 96.5 -135t62.5 -145l19 -60q-9 2 -25.5 6t-62.5 18.5t-87.5 31t-90.5 45t-82 60.5q-37 36 -42.5 86t32.5 95z" />
    <glyph glyph-name="a" unicode="a" horiz-adv-x="1396" 
d="M1253 264q0 -59 8.5 -107.5t20.5 -76t24 -47t20 -26.5l9 -7h-430q-84 0 -122 32.5t-50 108.5q-23 -46 -73 -82t-113 -54.5t-133 -25.5t-136 6.5t-119 39.5t-85.5 75t-32.5 113q0 76 32 133t82.5 91t124 65.5t145 53.5t158 58t150.5 76q-1 70 -8 129t-23 110.5t-44.5 81
t-67.5 29.5q-150 0 -84 -159q21 -49 25 -91.5t-5.5 -72t-29 -52.5t-43.5 -35.5t-52 -17.5q-33 -4 -66.5 -4t-64.5 12t-54 31.5t-36.5 55t-11.5 81.5q3 74 41 128t101.5 84t136 43.5t155.5 13.5q60 0 114 -3.5t122 -15t124 -31t111.5 -54t94 -80t62 -114t23.5 -151.5v-344z
M733 238v424q-77 -34 -127.5 -103t-64.5 -144.5t-9 -147.5t33 -121t68 -56q41 -6 70.5 38t29.5 110z" />
    <glyph glyph-name="b" unicode="b" horiz-adv-x="1470" 
d="M936 1057q102 0 190.5 -33.5t157 -98t107.5 -169t39 -238.5t-39 -239t-108 -170t-157.5 -98.5t-191.5 -33.5q-60 0 -236 22t-264 30q-123 8 -206 1.5t-125 -18.5l-42 -12q3 2 8.5 7.5t20 27t25 49t19.5 76.5t9 108v1004q0 59 -8.5 108t-20.5 77t-24 47.5t-20 26.5l-9 7
h603v-606q83 125 272 125zM664 29q24 -13 53 -17q51 -4 86 37t53 118t25.5 161.5t7.5 189.5q0 439 -127 459q-36 5 -67 -30t-31 -99v-819z" />
    <glyph glyph-name="c" unicode="c" 
d="M1186 293h20q-71 -152 -217 -233t-336 -83q-98 0 -188 21t-167.5 65t-134.5 107t-89.5 152t-32.5 194q0 112 36 203.5t97 153.5t144 104t174.5 61t191.5 19q80 0 215 -33q74 -16 120.5 -8t67.5 26l21 19l37 -486q-3 10 -9.5 26.5t-28 65t-46 93t-63 98t-79.5 92.5
t-94.5 65.5t-109.5 26.5q-63 0 -109 -47.5t-66.5 -123t-20.5 -169.5t24 -186q27 -102 85 -176.5t130 -109t149.5 -41t151 21t127.5 82.5z" />
    <glyph glyph-name="d" unicode="d" horiz-adv-x="1470" 
d="M1327 264q0 -59 8.5 -108t20.5 -76.5t24 -47t20 -26.5l9 -6h-430q-75 0 -113 26.5t-53 84.5q-103 -134 -276 -134q-104 0 -192.5 34t-157 99t-107.5 170t-39 238t39 237.5t108 169.5t157.5 98.5t191.5 33.5q190 0 270 -125v340q0 59 -8.5 108t-20.5 77t-24 47.5t-20 26.5
l-9 7h602v-1274zM807 557v301q0 48 -23.5 82.5t-52.5 28.5q-66 -15 -107.5 -145.5t-41.5 -305.5q0 -115 12 -212.5t40.5 -168t70.5 -78.5q50 -10 102 80v418z" />
    <glyph glyph-name="e" unicode="e" 
d="M1186 293h20q-69 -152 -215.5 -233t-335.5 -83q-98 0 -188 21.5t-168 65.5t-135.5 107.5t-90 152.5t-32.5 194q1 91 22.5 170t69 147.5t117.5 117.5t172.5 76.5t228.5 27.5q128 0 224.5 -28t156.5 -75.5t97.5 -118t52.5 -146.5t16 -171h-659q20 -85 64.5 -151
t100.5 -104.5t122 -57.5t130 -14.5t124.5 30.5t105.5 72zM641 1042q-57 0 -93.5 -63.5t-42 -173.5t26.5 -260h236q12 81 10 169t-13.5 161t-43.5 120t-80 47z" />
    <glyph glyph-name="f" unicode="f" horiz-adv-x="829" 
d="M760 1772q101 0 188 -27t144 -76.5t77 -119.5t-12 -156q-16 -41 -45.5 -70.5t-64.5 -43t-74.5 -17t-75.5 7.5t-67.5 30t-51 51.5t-25.5 71.5t9 90q7 23 23.5 48t29.5 40t34 38q19 20 26.5 29t16 23t6 21.5t-13 15.5t-32.5 13q-62 16 -105 -36t-63 -152.5t-20 -239.5v-281
h315v-28h-315v-740q0 -59 8.5 -107.5t20 -76t23.5 -47t20 -26.5l9 -7h-684q3 2 8.5 7t20 26t25 47.5t19.5 75.5t9 108v740h-82v28h82v191q0 101 20 183t52.5 138t81.5 98.5t100.5 66.5t117 38.5t122 19.5t123.5 5z" />
    <glyph glyph-name="g" unicode="g" horiz-adv-x="1259" 
d="M1147 1022q-52 0 -91.5 16.5t-59.5 41t-34.5 53t-21 52t-13 38.5t-15.5 13t-25 -26q-31 -44 -76 -174q176 -42 274.5 -155.5t100.5 -264.5q-2 -191 -153.5 -316.5t-409.5 -125.5q-235 0 -383 107q-8 -44 16 -86q35 -66 157 -94t335 -31q145 -1 246 -29t154.5 -78.5
t73.5 -114t11 -143.5q-10 -93 -66.5 -162t-145 -107.5t-188.5 -56.5t-212 -18q-82 0 -150.5 2.5t-150 9.5t-142.5 21.5t-113.5 36t-79 55.5t-24.5 78q3 47 39 75.5t87 37.5t118 6q-105 66 -151.5 189t-4.5 239q43 116 174 180q-161 127 -164 325q2 189 154 315t410 126
q84 0 174 -17l20 62q92 260 252 287q53 8 101.5 -2.5t87 -42.5t53.5 -82q28 -92 -23 -166t-141 -74zM602 -416q-224 12 -373 84q-30 -41 -26 -81.5t43.5 -78.5t95.5 -67t129.5 -46.5t146.5 -17.5q102 0 171.5 10t103 28t46.5 37.5t11 43.5q-2 45 -49 61q-42 14 -216 23
q-61 3 -83 4zM623 190q27 0 48 18t34 53t22.5 73t14 91.5t7 95t3.5 95.5q-1 53 -3.5 94.5t-7 94.5t-14 91.5t-22.5 73t-34 52.5t-48 18t-48.5 -18t-34.5 -53t-22 -72.5t-14 -91.5t-7 -94t-3 -95q1 -55 3 -95.5t7 -94.5t14 -92t22 -73t34.5 -53t48.5 -18z" />
    <glyph glyph-name="h" unicode="h" horiz-adv-x="1546" 
d="M801 0q3 2 8.5 7t20 26t25 47.5t19.5 75.5t9 108v410q0 55 -3 96t-13 87t-32.5 71t-56.5 26q-44 2 -79 -49.5t-35 -124.5v-516q0 -59 8.5 -107.5t20 -76t23.5 -47t20 -26.5l9 -7h-684q3 2 8.5 7t20 26t25 47.5t19.5 75.5t9 108v1010q0 59 -8.5 107.5t-20.5 76t-24 47
t-20 26.5l-9 7h603v-645q80 164 325 164q106 0 187 -31t129.5 -86t73 -127t24.5 -158v-391q0 -59 8.5 -107.5t20.5 -76t24 -47t20 -26.5l9 -7h-684z" />
    <glyph glyph-name="i" unicode="i" horiz-adv-x="806" 
d="M664 264q0 -59 8.5 -107.5t20 -76t23.5 -47t20 -26.5l9 -7h-684q3 2 8.5 7t20 26t25 47.5t19.5 75.5t9 108v504q0 59 -8.5 107.5t-20.5 76t-24 47t-20 26.5l-9 7h684q-3 -2 -8.5 -7t-19.5 -26t-24.5 -47.5t-19.5 -75.5t-9 -108v-504zM403 1085q-114 0 -194 73t-80 177
q0 103 80 175.5t194 72.5t193.5 -72.5t79.5 -175.5q0 -104 -79.5 -177t-193.5 -73z" />
    <glyph glyph-name="j" unicode="j" horiz-adv-x="794" 
d="M49 1032h684q-3 -2 -8.5 -7t-20 -26t-25 -48t-19.5 -76.5t-9 -108.5v-959q0 -101 -19.5 -182.5t-52 -137.5t-81.5 -97.5t-100.5 -66t-116.5 -39t-121.5 -19t-124.5 -4.5q-45 0 -68 2v22q81 -1 122.5 116.5t41.5 317.5v1047q0 59 -8.5 108t-20.5 77t-24 47.5t-20 26.5z
M391 1085q-114 0 -193 72.5t-79 175.5t79.5 176.5t192.5 73.5q114 0 194.5 -73.5t80.5 -176.5t-80.5 -175.5t-194.5 -72.5z" />
    <glyph glyph-name="k" unicode="k" horiz-adv-x="1490" 
d="M1272 264q47 -86 96.5 -152t75.5 -89l26 -23h-659q2 2 4.5 7.5t6 26.5t1 48t-17 76t-41.5 106l-92 193l-8 -11v-182q0 -59 8.5 -107.5t20 -76t23.5 -47t20 -26.5l9 -7h-684q3 2 8.5 7t20 26t25 47.5t19.5 75.5t9 108v1008q0 59 -8.5 108t-20.5 77t-24 47.5t-20 26.5l-9 7
h684q-3 -2 -8.5 -7t-19.5 -26t-24.5 -48t-19.5 -76.5t-9 -108.5v-795l223 244q107 121 108.5 195t-106.5 116h528q-329 -78 -440 -231z" />
    <glyph glyph-name="l" unicode="l" horiz-adv-x="806" 
d="M664 264q0 -59 8.5 -107.5t20 -76t23.5 -47t20 -26.5l9 -7h-684q3 2 8.5 7t20 26t25 47.5t19.5 75.5t9 108v1008q0 59 -8.5 108t-20.5 77t-24 47.5t-20 26.5l-9 7h684q-3 -2 -8.5 -7t-19.5 -26t-24.5 -48t-19.5 -76.5t-9 -108.5v-1008z" />
    <glyph glyph-name="m" unicode="m" horiz-adv-x="2248" 
d="M1503 0q3 2 8.5 7t20 26t25 47.5t19.5 75.5t9 108v412q0 42 -1 72.5t-6.5 69.5t-15 64.5t-27 46t-42.5 25.5q-42 9 -75.5 -46.5t-33.5 -127.5v-516q0 -59 8.5 -107.5t20.5 -76t24 -47t21 -26.5l8 -7h-684q3 2 8.5 7t20 26t25 47.5t19.5 75.5t9 108v410q0 274 -94 280
q-43 3 -74.5 -48t-31.5 -126v-516q0 -59 8.5 -107.5t20 -76t23.5 -47t20 -26.5l9 -7h-684q3 2 8.5 7t20 26t25 47.5t19.5 75.5t9 108v504q0 59 -8.5 107.5t-20.5 76t-24 47t-20 26.5l-9 7h549l54 -139q80 164 317 164q307 0 379 -226h10q12 57 41 100t63 66.5t79 37.5
t79.5 18t73.5 4q106 0 184.5 -31t124.5 -87t68 -126.5t22 -157.5v-391q0 -59 8.5 -107.5t20.5 -76t24 -47t20 -26.5l9 -7h-684z" />
    <glyph glyph-name="n" unicode="n" horiz-adv-x="1546" 
d="M799 0q3 2 8.5 7t20 26t25 47.5t19.5 75.5t9 108v410q0 56 -3 96t-12.5 86.5t-32 71.5t-57.5 26q-43 2 -77.5 -49.5t-34.5 -124.5v-516q0 -59 8.5 -107.5t20 -76t23.5 -47t20 -26.5l9 -7h-684q3 2 8.5 7t20 26t25 47.5t19.5 75.5t9 108v502q0 59 -8.5 108t-20.5 77
t-24 47.5t-20 26.5l-9 7h547l56 -139q79 164 325 164q105 0 185.5 -31t129.5 -86t73 -127t24 -158v-391q0 -59 8.5 -107.5t21 -76t25 -47t20.5 -26.5l9 -7h-686z" />
    <glyph glyph-name="o" unicode="o" horiz-adv-x="1411" 
d="M707 1057q158 0 285 -42.5t208.5 -116t125 -171.5t44.5 -211q-1 -112 -44.5 -209.5t-125 -171t-208.5 -116t-285 -42.5q-159 0 -286.5 42.5t-209.5 116t-125.5 171t-44.5 209.5q1 113 44.5 211t125.5 171.5t209.5 116t286.5 42.5zM707 -6q25 0 45.5 12.5t35 39t25 54
t17.5 73.5t11.5 80t7 89.5t3.5 86.5t2 87q-1 56 -2 87.5t-3.5 87.5t-7 90t-11.5 79.5t-17.5 73.5t-25 54.5t-35 39t-45.5 12.5t-46 -12.5t-35.5 -39t-26 -54.5t-18.5 -73t-11.5 -80t-7 -90t-3.5 -87.5t-2 -87.5q1 -54 2 -86.5t3.5 -87t7 -89.5t11.5 -80t18.5 -73t26 -54.5
t35.5 -39t46 -12.5z" />
    <glyph glyph-name="p" unicode="p" horiz-adv-x="1452" 
d="M915 1057q155 0 268.5 -71.5t170.5 -193t57 -276.5q0 -133 -39 -237.5t-108 -169.5t-157.5 -98.5t-191.5 -33.5q-190 0 -270 125v-340q0 -59 8.5 -108t20.5 -76.5t24 -47t20 -26.5l9 -6h-686q3 2 9 7t20.5 25.5t25.5 47.5t20 76t9 108v1008q0 59 -8.5 108t-20.5 76
t-24 46t-20 26l-9 6h547l49 -108q103 133 276 133zM721 66q65 15 107 145.5t42 304.5q0 116 -11.5 213t-40 167.5t-70.5 78.5q-28 5 -50 -13.5t-53 -60.5v-424v-301q0 -47 23.5 -81.5t52.5 -28.5z" />
    <glyph glyph-name="q" unicode="q" horiz-adv-x="1470" 
d="M1327 -238q0 -59 8.5 -108t20.5 -76.5t24 -47t20 -26.5l9 -6h-684q3 2 8.5 7t20 25.5t25 47.5t19.5 76t9 108v340q-83 -125 -272 -125q-102 0 -190.5 33.5t-157 98.5t-107.5 169.5t-39 237.5q0 134 39 239t108 170t157.5 98.5t191.5 33.5q59 0 232.5 -21t266.5 -28
q123 -9 206 -3.5t125 17.5l42 12q-3 -2 -8.5 -7.5t-20 -26.5t-25 -48.5t-19.5 -77t-9 -108.5v-1004zM709 57q36 -5 67 30t31 99v822q-32 14 -53 14q-51 4 -86 -36.5t-53 -117.5t-25.5 -162t-7.5 -190q0 -439 127 -459z" />
    <glyph glyph-name="r" unicode="r" horiz-adv-x="1277" 
d="M1235 952q46 -107 -5.5 -203t-160.5 -110q-63 -7 -112.5 7.5t-77.5 41.5t-49.5 59t-32.5 60t-21 45.5t-20.5 13.5t-26.5 -35q-65 -124 -65 -303v-264q0 -59 8.5 -107.5t20 -76t23.5 -47t20 -26.5l9 -7h-684q3 2 8.5 7t20 26t25 47.5t19.5 75.5t9 108v502q0 59 -8.5 108
t-20.5 77t-24 47.5t-20 26.5l-9 7h547l56 -334q12 54 25.5 96.5t35.5 90t48.5 82t65 63t85.5 41.5q65 17 125 13t110.5 -38.5t75.5 -93.5z" />
    <glyph glyph-name="s" unicode="s" horiz-adv-x="1017" 
d="M840 582q67 -51 101.5 -122.5t33 -142.5t-30.5 -141q-27 -59 -78.5 -101t-112 -62t-111 -28t-97.5 -8q-53 0 -163.5 21t-172.5 27q-42 4 -76.5 -9t-48.5 -28l-14 -15v416l11 -22t31.5 -54t51 -76.5t67.5 -81.5t82.5 -77t94.5 -54t106 -22q40 0 50 38q14 56 -57 133
q-35 37 -87 73q-10 7 -55 37.5t-58.5 40t-49 35.5t-55 42.5t-47 42.5t-51.5 52q-75 80 -72.5 206t79.5 213q58 65 152.5 103.5t213.5 38.5q110 0 275 -41q45 -9 71 -0.5t35 22.5l10 15v-408q-3 8 -8 22t-23.5 55t-38.5 77.5t-52 82t-65.5 78t-77.5 54.5t-89 22
q-52 0 -71 -38t12 -105q22 -45 84.5 -96t161.5 -117.5t139 -97.5z" />
    <glyph glyph-name="t" unicode="t" horiz-adv-x="907" 
d="M868 221h19q-23 -39 -57 -77t-84.5 -78t-121.5 -64.5t-149 -24.5q-89 0 -161 25t-130.5 78.5t-90.5 147t-32 221.5v557h-81v26h81q73 0 143 16.5t143 54t135 108.5t100 169v-348h225v-26h-225v-639q0 -77 27 -127.5t68.5 -66t92 -3.5t98.5 51z" />
    <glyph glyph-name="u" unicode="u" horiz-adv-x="1505" 
d="M1362 264q0 -59 8.5 -107.5t20.5 -76t24 -47t21 -26.5l8 -7h-430q-84 0 -122 32t-50 105q-79 -164 -326 -164q-106 0 -187 31t-129.5 87t-73 128.5t-24.5 159.5v387q0 59 -8.5 108t-20.5 77t-24 47.5t-21 26.5l-8 7h603v-674q0 -57 3 -97.5t12.5 -87t32 -71.5t56.5 -26
q44 0 79.5 51t35.5 125v514q0 59 -8.5 108t-20.5 77t-24 47.5t-21 26.5l-8 7h602v-768z" />
    <glyph glyph-name="v" unicode="v" horiz-adv-x="1300" 
d="M854 1032h446q-80 -70 -148.5 -171.5t-137.5 -262.5q-43 -101 -104 -250.5t-100 -248.5l-40 -99h-244q-352 680 -436 842q-37 72 -70 119.5t-47 58.5l-14 12h674q-5 -8 -10.5 -22.5t-4.5 -63.5t25 -104q23 -55 82.5 -185.5t107.5 -234.5l48 -103q23 49 80 201
q67 178 38.5 322.5t-145.5 189.5z" />
    <glyph glyph-name="w" unicode="w" horiz-adv-x="2004" 
d="M1559 1032h446q-163 -143 -287 -434q-43 -101 -103.5 -250.5t-100.5 -248.5l-39 -99h-244q-135 262 -258 500l-207 -500h-238q-356 686 -440 842q-38 71 -71 118.5t-47 59.5l-13 12h674q-5 -8 -10.5 -22.5t-5 -63.5t23.5 -104q24 -55 86 -180t112 -222l50 -98
q16 26 71 178q0 1 3 4q-39 73 -95.5 183t-70.5 135q-37 72 -70 119.5t-47 58.5l-14 12h673q-2 -3 -4.5 -8t-6.5 -23.5t-5 -38.5t5.5 -53t21.5 -67q23 -55 82 -185.5t107 -234.5l48 -103q23 49 80 201q68 178 39.5 322.5t-145.5 189.5z" />
    <glyph glyph-name="x" unicode="x" horiz-adv-x="1277" 
d="M1081 190q33 -54 77 -101.5t72 -68.5l27 -20h-659q1 2 1.5 7t0 22t-5.5 37.5t-19 53.5t-36 70l-123 197q-33 -31 -35 -33q-57 -62 -66 -131t25 -127.5t102 -95.5h-446q59 42 155.5 137t176 180t80.5 86q-205 331 -271 437q-30 48 -74.5 96t-74.5 72l-29 24h659
q-2 -7 -3.5 -20.5t13 -63t50.5 -108.5l104 -168q4 4 6 4q85 97 64 198t-125 158h447q-37 -26 -89.5 -74t-101 -97.5t-91.5 -95.5t-71.5 -76.5t-29.5 -31.5q214 -346 290 -467z" />
    <glyph glyph-name="y" unicode="y" horiz-adv-x="1466" 
d="M1466 1032q-138 -53 -232.5 -168.5t-189.5 -349.5l-194 -514q-15 -35 -111 -268q-170 -387 -463 -283q-65 23 -104 74t-42.5 109.5t17 114t77 94t134.5 42.5q49 2 92.5 -15t71 -41.5t53 -50.5t45 -40t41.5 -11t47.5 36.5t57.5 103.5q11 20 59 135h-352q-231 584 -305 766
q-21 52 -48 98t-50.5 75.5t-44.5 51.5t-33 31l-12 10h737q-2 -2 -5.5 -7.5t-9.5 -27t-7.5 -49t6.5 -76.5t26 -106l186 -528q31 57 60 145q181 535 -127 649h620z" />
    <glyph glyph-name="z" unicode="z" horiz-adv-x="1146" 
d="M705 27q60 0 113.5 20t91 51.5t68.5 70t50.5 77t32.5 70t19 51.5l5 20l-30 -387h-1035l523 1006h-113q-60 0 -113.5 -20t-91 -51.5t-68.5 -70t-50 -77.5t-32 -70.5t-19 -51.5l-5 -20l29 387h999l-520 -1005h146z" />
    <glyph glyph-name="braceleft" unicode="{" horiz-adv-x="624" 
d="M604 1522q-38 -4 -66 -17.5t-48 -43t-32 -68.5t-19 -100.5t-9.5 -131.5t-1.5 -170q0 -61 -13.5 -110.5t-35.5 -82t-54.5 -57t-63.5 -37.5t-70.5 -21t-68 -10t-61.5 -3q48 -1 89 -6t95.5 -24.5t92 -52t64.5 -95t26 -146.5q-1 -120 3 -199.5t14.5 -145t30.5 -102.5t51 -58
t77 -25v-17q-117 0 -205.5 20t-141 51t-85.5 79.5t-44.5 95t-12 107.5t6 107.5t14.5 105t9 90.5q4 56 -9 97.5t-35.5 62t-43 29.5t-37.5 9v33q17 0 37.5 9t43 29.5t35.5 62t9 96.5q-1 32 -9 90.5t-14.5 105t-6 107.5t12 107.5t44.5 94.5t85.5 79t141 51t205.5 20v-16z" />
    <glyph glyph-name="bar" unicode="|" horiz-adv-x="192" 
d="M82 1645h29v-1858h-29v1858z" />
    <glyph glyph-name="braceright" unicode="}" horiz-adv-x="622" 
d="M20 1522v16q117 0 205.5 -20t141 -51t85.5 -79t44 -94.5t12 -107.5t-6 -107.5t-15 -105.5t-10 -90q-3 -55 10.5 -96.5t35.5 -62t42 -29.5t37 -9v-33q-17 0 -37 -9t-42 -29t-35.5 -62t-10.5 -98q2 -31 10 -90t15 -105.5t6 -107.5t-12 -107.5t-44 -95t-85.5 -79.5t-141 -51
t-205.5 -20v17q109 10 143 122.5t34 407.5q0 61 13.5 110.5t35 82.5t54 57.5t64 38t70.5 22t67.5 10.5t61.5 3q-33 1 -61.5 3t-67.5 10t-70 21t-64 37.5t-54.5 57t-35 82t-13.5 110.5q0 296 -34.5 408.5t-142.5 122.5z" />
    <glyph glyph-name="asciitilde" unicode="~" horiz-adv-x="1067" 
d="M799 676q-19 0 -27 2q-96 6 -229 67q-48 22 -69.5 31t-62 20.5t-77.5 14.5q-90 5 -165 -29t-112 -75l-16 16q40 42 119 79t174 32q39 -3 82 -14.5t67 -21.5t70 -30q43 -20 69 -31t68 -22.5t82 -14.5q91 -7 151 24.5t83 80.5l20 -10q-25 -50 -82.5 -84.5t-144.5 -34.5z
" />
    <glyph glyph-name="exclamdown" unicode="&#xa1;" horiz-adv-x="608" 
d="M305 557q-89 0 -151 62.5t-62 150.5t62 150.5t151 62.5q88 0 149.5 -62.5t61.5 -150.5t-61.5 -150.5t-149.5 -62.5zM305 496q10 -16 26 -44.5t58 -114t74 -168t58 -191t26 -197.5q0 -102 -66 -179t-176 -77q-111 0 -177.5 77t-66.5 179q0 89 25 195.5t61 195t72 164
t61 118.5z" />
    <glyph glyph-name="cent" unicode="&#xa2;" horiz-adv-x="1306" 
d="M1245 291q-63 -135 -191.5 -215t-293.5 -94v-195h-29v193q-21 -3 -47 -3q-124 0 -234.5 34.5t-198 99.5t-139 169.5t-51.5 235.5q0 112 37 204t99.5 153.5t147.5 103.5t177.5 61t192.5 19h16v215h29v-217q64 -4 170 -33q76 -15 124 -6.5t70 26.5l23 19l39 -486
q-4 9 -10.5 25t-29 62t-47 88.5t-63.5 95t-79 92t-92 68.5t-105 34v-790q113 -73 245 -61t220 102h20zM573 516q44 -162 158 -248v772q-61 -1 -104.5 -49t-62 -123t-17 -168t25.5 -184z" />
    <glyph glyph-name="sterling" unicode="&#xa3;" horiz-adv-x="1308" 
d="M1227 549v-242q0 -330 -332 -330q-100 0 -214.5 23.5t-194.5 46.5t-155 35.5t-127 -12t-81 -93.5q-6 46 -6 103q-5 219 87.5 316.5t291.5 82.5q8 -1 23.5 -3t23.5 -3q11 51 -15.5 87t-85.5 71h-260v28h211q-119 64 -160 94q-144 104 -149 267v16q0 191 163 305.5
t443 114.5q226 0 357 -88q195 -126 176 -340q-10 -117 -88 -173.5t-179 -45.5q-70 8 -120.5 58t-61 116t20.5 137q19 39 56.5 72.5t63.5 48t71 36.5q29 14 40.5 20.5t22.5 17.5t4.5 19t-25.5 20t-57 26q-63 24 -124.5 26.5t-112.5 -16t-94.5 -51.5t-71 -83t-41.5 -108.5
t-7.5 -130t33.5 -145.5q40 -116 43 -213h414v-28h-414q0 -67 -27 -150q-1 -2 -2 -6t-2 -6q29 -4 92.5 -15.5t102 -16.5t98.5 -10.5t103.5 -0.5t93.5 16.5t93 39t79 67.5z" />
    <glyph glyph-name="currency" unicode="&#xa4;" horiz-adv-x="1069" 
d="M920 528q0 -159 -103 -262l211 -213l-18 -16l-213 213q-98 -82 -252 -82q-162 0 -262 90l-224 -221l-18 16l223 223q-94 98 -94 252q0 156 94 254l-223 224l18 16l224 -221q100 90 262 90q154 0 252 -82l213 213l18 -16l-211 -213q103 -103 103 -265zM545 176
q90 0 90 352q0 355 -90 355q-91 0 -90 -344v-4v-3v-4q0 -225 34 -303q22 -49 56 -49z" />
    <glyph glyph-name="yen" unicode="&#xa5;" horiz-adv-x="1656" 
d="M1657 1434q-137 -83 -244 -200.5t-217 -293.5q-9 -14 -28.5 -44.5t-28.5 -45.5h276v-29h-293l-41 -63v-140h334v-26h-334v-328q0 -59 8.5 -107.5t20.5 -76t24 -47t20 -26.5l9 -7h-739q3 2 8.5 7t20 26t25 47.5t19.5 75.5t9 108v328h-332v26h324l-115 203h-209v29h195
l-179 319q-36 58 -73 106.5t-64.5 76.5t-49 48t-33.5 27l-11 7h850q-3 -3 -6.5 -8t-10 -25t-7 -43.5t9.5 -63.5t32 -84l242 -430q32 51 100 160q50 80 63 157t-9 139.5t-70 113.5t-119 84h623z" />
    <glyph glyph-name="brokenbar" unicode="&#xa6;" horiz-adv-x="190" 
d="M82 -213v672h27v-672h-27zM82 1647h27v-672h-27v672z" />
    <glyph glyph-name="section" unicode="&#xa7;" horiz-adv-x="1386" 
d="M1169 1036q95 -103 132 -210.5t17.5 -201t-87.5 -169.5q-48 -54 -114 -81t-159 -40q71 -72 110 -156.5t34.5 -176t-60.5 -167.5q-52 -72 -153.5 -118t-197 -61t-193.5 -15q-146 0 -260 64.5t-136 154.5q-26 103 25.5 168.5t146.5 62.5q106 -3 150.5 -77t3.5 -163
q-50 -113 -38 -151t91 -41q53 -3 108 42.5t74.5 111.5t-22.5 139q-44 65 -117.5 137t-168.5 157t-156 152q-96 103 -133.5 210.5t-17.5 201.5t89 170q87 95 273 121q-71 72 -107.5 157.5t-30.5 178.5t62 170q39 55 104.5 94t142.5 58.5t147 27.5t142 8q145 0 259.5 -65
t136.5 -154q26 -104 -26 -169.5t-148 -62.5q-52 1 -91.5 22.5t-58 55.5t-21.5 76.5t19 85.5q50 113 38 150.5t-91 42.5q-54 2 -109 -43.5t-74 -111t23 -138.5q43 -66 116.5 -138t169.5 -158t156 -151zM926 367q37 27 46.5 68t-11.5 94t-74 108q-65 67 -222 215.5t-223 214.5
q-37 -27 -47 -68.5t10.5 -94.5t73.5 -107q64 -65 219 -211.5t228 -218.5z" />
    <glyph glyph-name="dieresis" unicode="&#xa8;" horiz-adv-x="872" 
d="M229 1446q69 0 118.5 -49.5t49.5 -118.5t-49.5 -118.5t-118.5 -49.5t-118.5 49.5t-49.5 118.5t49.5 118.5t118.5 49.5zM643 1446q70 0 119 -49.5t49 -118.5t-49 -118.5t-119 -49.5q-69 0 -117.5 49.5t-48.5 118.5t48.5 118.5t117.5 49.5z" />
    <glyph glyph-name="guillemotleft" unicode="&#xab;" horiz-adv-x="737" 
d="M397 1012l-155 -338l155 -340l-377 340zM676 1012l-156 -338l156 -340l-379 340z" />
    <glyph glyph-name="macron" unicode="&#xaf;" horiz-adv-x="1048" 
d="M82 1241h885v-29h-885v29z" />
    <glyph glyph-name="degree" unicode="&#xb0;" horiz-adv-x="645" 
d="M324 1638q135 -1 207.5 -79t72.5 -193q0 -114 -73 -192t-207 -78q-136 0 -209.5 78t-73.5 192q0 115 73.5 193t209.5 79zM324 1102q65 0 65 264q0 266 -65 266q-68 0 -68 -266q0 -264 68 -264z" />
    <glyph glyph-name="plusminus" unicode="&#xb1;" horiz-adv-x="1073" 
d="M82 223v27h909v-27h-909zM549 825h442v-26h-442v-441h-27v441h-440v26h440v443h27v-443z" />
    <glyph glyph-name="acute" unicode="&#xb4;" horiz-adv-x="557" 
d="M440 1473q38 -45 32.5 -95t-42.5 -86q-52 -50 -139 -90.5t-148 -55.5l-61 -16q2 9 7 25t22 61.5t36 86t49.5 88t63.5 79.5q38 36 87 39t93 -36z" />
    <glyph glyph-name="paragraph" unicode="&#xb6;" horiz-adv-x="837" 
d="M899 1647v-27h-199v-1833h-26v1833h-238v-1833h-26q-6 788 0 788q-119 0 -204 74t-125 193t-40 268q0 73 11.5 145.5t39.5 144t69.5 126t105.5 88t143 33.5h489z" />
    <glyph glyph-name="periodcentered" unicode="&#xb7;" horiz-adv-x="548" 
d="M274 887q88 0 150.5 -62.5t62.5 -150.5q0 -89 -62.5 -151t-150.5 -62q-89 0 -151 62t-62 151q0 88 62 150.5t151 62.5z" />
    <glyph glyph-name="cedilla" unicode="&#xb8;" horiz-adv-x="604" 
d="M381 -80q64 -13 103 -51.5t36 -101.5q-8 -144 -229 -144q-63 0 -120.5 13t-88.5 34v103q18 -45 45.5 -79t52.5 -40q45 -8 78.5 17t44.5 89q16 109 -53 129q-36 10 -84 7l63 104h13l-31 -76q26 6 79.5 5.5t90.5 -9.5z" />
    <glyph glyph-name="ordmasculine" unicode="&#xba;" horiz-adv-x="735" 
d="M367 1741q127 0 217 -90.5t90 -216.5t-90 -216t-217 -90q-126 0 -216 90t-90 216t90 216.5t216 90.5zM367 1151q118 0 201 83t83 200t-83 199.5t-201 82.5q-117 0 -200 -82.5t-83 -199.5t83 -200t200 -83z" />
    <glyph glyph-name="guillemotright" unicode="&#xbb;" horiz-adv-x="778" 
d="M358 1012l379 -338l-379 -340l158 340zM459 674l-377 -340l156 340l-156 338z" />
    <glyph glyph-name="questiondown" unicode="&#xbf;" horiz-adv-x="1150" 
d="M676 557q-89 0 -151 62.5t-62 150.5t62 150.5t151 62.5q88 0 150.5 -62.5t62.5 -150.5t-62.5 -150.5t-150.5 -62.5zM1079 -59q19 -78 -3 -154.5t-79 -136.5q-136 -146 -362 -146q-270 0 -417.5 103t-133.5 276q5 71 36.5 131.5t65.5 98t103.5 78.5t105.5 57t118 50
q17 7 26 11q130 54 116 105q-7 29 -45 39.5t-75 -4.5q59 52 144.5 52t125.5 -50q36 -43 25.5 -111.5t-66.5 -130.5q-10 -11 -46 -49t-55 -60.5t-48.5 -61t-52.5 -80.5t-42 -89q-17 -44 -18.5 -88t10 -81.5t35.5 -68.5t55.5 -52t71.5 -30.5t82 -5.5t88.5 26t89.5 60
q22 19 29 30.5t-1.5 18.5t-21 10t-39.5 7q-26 4 -41 6.5t-42.5 10.5t-46.5 17.5t-40 26.5t-35 39q-37 56 -34.5 111.5t26 98.5t60.5 69q70 45 138 40t123 -53.5t70 -119.5z" />
    <glyph glyph-name="Agrave" unicode="&#xc0;" horiz-adv-x="1748" 
d="M1749 0h-821q2 4 5.5 11.5t10 33t7 54t-8 74t-29.5 93.5q-20 50 -88 197h-411q-19 -169 34.5 -293t172.5 -170h-621q112 98 207 239t190 367q59 139 144 346t141 344l55 138h226q489 -945 604 -1168q52 -100 97.5 -166.5t65.5 -83.5zM416 492h397l-229 497
q-33 -67 -111 -276q-41 -111 -57 -221zM545 1882q43 39 93 36.5t87 -38.5q52 -50 96.5 -135t62.5 -145l19 -60q-9 2 -25.5 6t-62.5 18.5t-87.5 31.5t-90.5 45.5t-82 60.5q-38 36 -42.5 85.5t32.5 94.5z" />
    <glyph glyph-name="Aacute" unicode="&#xc1;" horiz-adv-x="1748" 
d="M1749 0h-821q2 4 5.5 11.5t10 33t7 54t-8 74t-29.5 93.5q-20 50 -88 197h-411q-19 -169 34.5 -293t172.5 -170h-621q112 98 207 239t190 367q59 139 144 346t141 344l55 138h226q489 -945 604 -1168q52 -100 97.5 -166.5t65.5 -83.5zM416 492h397l-229 497
q-33 -67 -111 -276q-41 -111 -57 -221zM1178 1882q37 -45 32 -94.5t-43 -85.5q-52 -50 -139 -90.5t-148 -55.5l-61 -16q2 9 7 25t22 61.5t36 86t49.5 88t63.5 79.5q37 36 87.5 38.5t93.5 -36.5z" />
    <glyph glyph-name="Acircumflex" unicode="&#xc2;" horiz-adv-x="1748" 
d="M1749 0h-821q2 4 5.5 11.5t10 33t7 54t-8 74t-29.5 93.5q-20 50 -88 197h-411q-19 -169 34.5 -293t172.5 -170h-621q112 98 207 239t190 367q59 139 144 346t141 344l55 138h226q489 -945 604 -1168q52 -100 97.5 -166.5t65.5 -83.5zM416 492h397l-229 497
q-33 -67 -111 -276q-41 -111 -57 -221zM852 1890l338 -350l-338 111l-340 -111z" />
    <glyph glyph-name="Atilde" unicode="&#xc3;" horiz-adv-x="1748" 
d="M1749 0h-821q2 4 5.5 11.5t10 33t7 54t-8 74t-29.5 93.5q-20 50 -88 197h-411q-19 -169 34.5 -293t172.5 -170h-621q112 98 207 239t190 367q59 139 144 346t141 344l55 138h226q489 -945 604 -1168q52 -100 97.5 -166.5t65.5 -83.5zM416 492h397l-229 497
q-33 -67 -111 -276q-41 -111 -57 -221zM1233 1812q0 -21 -3.5 -47.5t-16.5 -64.5t-33.5 -69.5t-58.5 -56.5t-87 -32q-39 -5 -89.5 5t-79.5 20.5t-85.5 36t-64.5 28.5q-156 62 -244 -28q15 99 76 170.5t139 80.5q63 8 126.5 -10t125 -46.5t92.5 -35.5q62 -14 118 -1.5
t85 50.5z" />
    <glyph glyph-name="Adieresis" unicode="&#xc4;" horiz-adv-x="1748" 
d="M1749 0h-821q2 4 5.5 11.5t10 33t7 54t-8 74t-29.5 93.5q-20 50 -88 197h-411q-19 -169 34.5 -293t172.5 -170h-621q112 98 207 239t190 367q59 139 144 346t141 344l55 138h226q489 -945 604 -1168q52 -100 97.5 -166.5t65.5 -83.5zM416 492h397l-229 497
q-33 -67 -111 -276q-41 -111 -57 -221zM647 1855q69 0 118.5 -49t49.5 -118t-49.5 -118.5t-118.5 -49.5t-118.5 49.5t-49.5 118.5t49.5 118t118.5 49zM1061 1855q70 0 119 -49t49 -118t-49 -118.5t-119 -49.5q-69 0 -117.5 49.5t-48.5 118.5t48.5 118t117.5 49z" />
    <glyph glyph-name="Aring" unicode="&#xc5;" horiz-adv-x="1748" 
d="M1749 0h-821q2 4 5.5 11.5t10 33t7 54t-8 74t-29.5 93.5q-20 50 -88 197h-411q-19 -169 34.5 -293t172.5 -170h-621q112 98 207 239t190 367q59 139 144 346t141 344l55 138h226q489 -945 604 -1168q52 -100 97.5 -166.5t65.5 -83.5zM416 492h397l-229 497
q-33 -67 -111 -276q-41 -111 -57 -221zM852 1898q112 0 172.5 -54t60.5 -134t-60.5 -134.5t-172.5 -55.5q-113 1 -174.5 55.5t-61.5 134.5t61.5 134t174.5 54zM852 1534q55 0 55 176q0 174 -55 174q-57 0 -57 -174q0 -176 57 -176z" />
    <glyph glyph-name="AE" unicode="&#xc6;" horiz-adv-x="2183" 
d="M1573 27q66 0 124.5 17.5t102.5 47t81.5 68t63.5 81t47 85t33 81t20.5 68t11.5 47.5l3 17v-539h-1241q3 2 8.5 7t20 26t25 47.5t19.5 75.5t9 108v305h-360q-17 -26 -58 -100q-55 -98 -60 -189.5t45 -165.5t153 -114h-621q243 94 467 494l430 759q-8 62 -27.5 107
t-35.5 60l-15 14h1213v-539q-2 11 -5.5 29t-19.5 71t-37 101.5t-61 107t-88 101t-120.5 71.5t-156.5 29h-67v-676q79 10 143.5 34t105 55t71.5 66t46 68.5t24 60.5t11 43l2 17v-713q0 6 -1.5 17t-11 43t-24.5 62t-46 68t-71.5 68t-105 54.5t-143.5 34.5v-680h96zM901 598
q0 602 -2 616l-344 -616h346z" />
    <glyph glyph-name="Ccedilla" unicode="&#xc7;" horiz-adv-x="1601" 
d="M817 -23h-20l-31 -53q28 6 80.5 5.5t89.5 -9.5q66 -15 104.5 -53t34.5 -100q-5 -144 -229 -144q-61 0 -118.5 13t-90.5 32v105q18 -45 45.5 -79t52.5 -40q45 -8 79 16.5t44 87.5q19 110 -53 131q-29 9 -84 5l51 86q-99 6 -197.5 38t-191.5 94t-164.5 146t-114.5 203
t-43 256q0 153 46 278t124.5 209t187 141.5t229.5 83t255 25.5q124 0 297 -43q57 -14 102 -14t68 10t37.5 22.5t18.5 22.5l4 10l43 -567q-3 11 -10 30.5t-31.5 75.5t-53 107t-75.5 113t-99 107t-123 75.5t-147 30.5q-70 0 -128 -41.5t-94.5 -112t-59.5 -163t-22.5 -194.5
t17.5 -206q25 -131 82.5 -228t132 -149.5t163 -74.5t175.5 -10.5t169 51t144 102.5l27 2q-97 -211 -285.5 -322t-437.5 -111z" />
    <glyph glyph-name="Egrave" unicode="&#xc8;" horiz-adv-x="1445" 
d="M836 27q66 0 124.5 17.5t102.5 47t81.5 68t63.5 81t47 85t33 81t20.5 68t11.5 47.5l3 17v-539h-1241q3 2 8.5 7t20 25.5t25 47.5t19.5 76t9 108v903q0 59 -8.5 108.5t-20.5 77.5t-24 47.5t-21 26.5l-8 7h1214v-539q-2 11 -5.5 29t-19.5 71t-37.5 101.5t-61 107t-87.5 101
t-120 71.5t-156 29h-70v-676q79 10 144 34t106 55t72 66t46.5 68.5t24.5 60.5t11 43l2 17v-713q0 6 -1.5 17t-11.5 43t-25 62t-46 68t-72 68t-106 54.5t-144 34.5v-680h97zM588 1882q43 39 93 36.5t87 -38.5q52 -50 96.5 -135t63.5 -145l18 -60q-9 2 -25.5 6t-62.5 18.5
t-87.5 31.5t-90.5 45.5t-82 60.5q-38 36 -42.5 85.5t32.5 94.5z" />
    <glyph glyph-name="Eacute" unicode="&#xc9;" horiz-adv-x="1445" 
d="M836 27q66 0 124.5 17.5t102.5 47t81.5 68t63.5 81t47 85t33 81t20.5 68t11.5 47.5l3 17v-539h-1241q3 2 8.5 7t20 25.5t25 47.5t19.5 76t9 108v903q0 59 -8.5 108.5t-20.5 77.5t-24 47.5t-21 26.5l-8 7h1214v-539q-2 11 -5.5 29t-19.5 71t-37.5 101.5t-61 107t-87.5 101
t-120 71.5t-156 29h-70v-676q79 10 144 34t106 55t72 66t46.5 68.5t24.5 60.5t11 43l2 17v-713q0 6 -1.5 17t-11.5 43t-25 62t-46 68t-72 68t-106 54.5t-144 34.5v-680h97zM895 1882q37 -45 32.5 -94.5t-42.5 -85.5q-52 -50 -139 -90.5t-148 -55.5l-61 -16q2 9 7 25t22 61.5
t36 86t49.5 88t63.5 79.5q37 36 87 38.5t93 -36.5z" />
    <glyph glyph-name="Ecircumflex" unicode="&#xca;" horiz-adv-x="1445" 
d="M836 27q66 0 124.5 17.5t102.5 47t81.5 68t63.5 81t47 85t33 81t20.5 68t11.5 47.5l3 17v-539h-1241q3 2 8.5 7t20 25.5t25 47.5t19.5 76t9 108v903q0 59 -8.5 108.5t-20.5 77.5t-24 47.5t-21 26.5l-8 7h1214v-539q-2 11 -5.5 29t-19.5 71t-37.5 101.5t-61 107t-87.5 101
t-120 71.5t-156 29h-70v-676q79 10 144 34t106 55t72 66t46.5 68.5t24.5 60.5t11 43l2 17v-713q0 6 -1.5 17t-11.5 43t-25 62t-46 68t-72 68t-106 54.5t-144 34.5v-680h97zM741 1890l338 -350l-338 111l-340 -111z" />
    <glyph glyph-name="Edieresis" unicode="&#xcb;" horiz-adv-x="1445" 
d="M836 27q66 0 124.5 17.5t102.5 47t81.5 68t63.5 81t47 85t33 81t20.5 68t11.5 47.5l3 17v-539h-1241q3 2 8.5 7t20 25.5t25 47.5t19.5 76t9 108v903q0 59 -8.5 108.5t-20.5 77.5t-24 47.5t-21 26.5l-8 7h1214v-539q-2 11 -5.5 29t-19.5 71t-37.5 101.5t-61 107t-87.5 101
t-120 71.5t-156 29h-70v-676q79 10 144 34t106 55t72 66t46.5 68.5t24.5 60.5t11 43l2 17v-713q0 6 -1.5 17t-11.5 43t-25 62t-46 68t-72 68t-106 54.5t-144 34.5v-680h97zM532 1855q69 0 118.5 -49t49.5 -118t-49.5 -118.5t-118.5 -49.5t-118 49.5t-49 118.5t49 118t118 49
zM946 1855q70 0 119 -49t49 -118t-49 -118.5t-119 -49.5q-69 0 -117.5 49.5t-48.5 118.5t48.5 118t117.5 49z" />
    <glyph glyph-name="Igrave" unicode="&#xcc;" horiz-adv-x="903" 
d="M739 264q0 -59 8.5 -108t20.5 -76.5t24 -47t20 -26.5l9 -6h-739q3 2 8.5 7t20 25.5t25 47.5t19.5 76t9 108v903q0 59 -8.5 108.5t-20.5 77.5t-24 47.5t-21 26.5l-8 7h739q-3 -2 -8.5 -7t-20 -26t-25 -48.5t-19.5 -77t-9 -108.5v-903zM238 1882q43 39 93 36.5t87 -38.5
q52 -50 96.5 -135t63.5 -145l18 -60q-9 2 -25.5 6t-62.5 18.5t-87.5 31.5t-90.5 45.5t-82 60.5q-38 36 -42.5 85.5t32.5 94.5z" />
    <glyph glyph-name="Iacute" unicode="&#xcd;" horiz-adv-x="903" 
d="M739 264q0 -59 8.5 -108t20.5 -76.5t24 -47t20 -26.5l9 -6h-739q3 2 8.5 7t20 25.5t25 47.5t19.5 76t9 108v903q0 59 -8.5 108.5t-20.5 77.5t-24 47.5t-21 26.5l-8 7h739q-3 -2 -8.5 -7t-20 -26t-25 -48.5t-19.5 -77t-9 -108.5v-903zM666 1882q37 -45 32 -94.5t-43 -85.5
q-52 -50 -139 -90.5t-148 -55.5l-61 -16q2 9 7 25t22 61.5t36 86t49.5 88t63.5 79.5q37 36 87.5 38.5t93.5 -36.5z" />
    <glyph glyph-name="Icircumflex" unicode="&#xce;" horiz-adv-x="903" 
d="M739 264q0 -59 8.5 -108t20.5 -76.5t24 -47t20 -26.5l9 -6h-739q3 2 8.5 7t20 25.5t25 47.5t19.5 76t9 108v903q0 59 -8.5 108.5t-20.5 77.5t-24 47.5t-21 26.5l-8 7h739q-3 -2 -8.5 -7t-20 -26t-25 -48.5t-19.5 -77t-9 -108.5v-903zM453 1890l338 -350l-338 111
l-340 -111z" />
    <glyph glyph-name="Idieresis" unicode="&#xcf;" horiz-adv-x="901" 
d="M737 264q0 -59 8.5 -108t20.5 -76.5t24 -47t20 -26.5l9 -6h-739q3 2 8.5 7t20 25.5t25 47.5t19.5 76t9 108v903q0 59 -8.5 108.5t-20.5 77.5t-24 47.5t-21 26.5l-8 7h739q-3 -2 -8.5 -7t-20 -26t-25 -48.5t-19.5 -77t-9 -108.5v-903zM244 1855q69 0 118.5 -49t49.5 -118
t-49.5 -118.5t-118.5 -49.5t-118.5 49.5t-49.5 118.5t49.5 118t118.5 49zM657 1855q70 0 119 -49t49 -118t-49 -118.5t-119 -49.5q-69 0 -117 49.5t-48 118.5t48 118t117 49z" />
    <glyph glyph-name="Eth" unicode="&#xd0;" horiz-adv-x="1722" 
d="M846 1434q166 0 302 -38t230 -104t158.5 -157t94.5 -196t30 -222t-30 -222t-94.5 -196t-158.5 -157t-230 -104t-302 -38h-764q3 2 8.5 7t20 26t25 47.5t19.5 75.5t9 108v438h-82v27h82v438q0 59 -8.5 108.5t-20.5 77.5t-24 47.5t-21 26.5l-8 7h764zM739 27
q101 0 176.5 53.5t119 150t64.5 218t21 268.5t-21 267.5t-64.5 217t-119 150t-176.5 53.5v-676h201v-27h-201v-675z" />
    <glyph glyph-name="Ntilde" unicode="&#xd1;" horiz-adv-x="1665" 
d="M1065 1434h621q-159 -61 -228 -181.5t-69 -312.5v-940h-338l-736 1075v-581q0 -192 69.5 -312.5t229.5 -181.5h-620q161 62 229 178.5t68 315.5v616l-150 221q-40 55 -68.5 74t-92.5 29h862q-1 -2 -2 -6.5t1 -23.5t10 -43t31 -68t58 -97l424 -594v338q0 192 -69.5 312.5
t-229.5 181.5zM1221 1812q0 -21 -3.5 -47.5t-16.5 -64.5t-33.5 -69.5t-58.5 -56.5t-87 -32q-39 -5 -89.5 5t-79.5 20.5t-86.5 36t-64.5 28.5q-156 62 -243 -28q15 99 76 170.5t139 80.5q63 8 126.5 -10t125 -46.5t92.5 -35.5q62 -14 118 -1.5t85 50.5z" />
    <glyph glyph-name="Ograve" unicode="&#xd2;" horiz-adv-x="1798" 
d="M899 1456q188 -1 346 -59t264.5 -158t166.5 -234.5t61 -287.5q-1 -153 -61 -287.5t-166.5 -234.5t-264.5 -158.5t-346 -59.5q-188 1 -346.5 59.5t-265 158.5t-166 234.5t-60.5 287.5q1 153 60.5 287.5t166 234.5t265 158t346.5 59zM899 -4q69 0 121 64t80 171.5t41.5 229
t13.5 256.5q0 134 -13.5 255.5t-41.5 229.5t-80 172t-121 64t-121 -64t-81 -171.5t-42.5 -229.5t-13.5 -256q0 -135 13.5 -257t42.5 -229t81 -171t121 -64zM582 1882q43 39 93 36.5t87 -38.5q52 -50 96.5 -135t63.5 -145l18 -60q-9 2 -25.5 6t-62.5 18.5t-87.5 31.5
t-90.5 45.5t-82 60.5q-38 36 -42.5 85.5t32.5 94.5z" />
    <glyph glyph-name="Oacute" unicode="&#xd3;" horiz-adv-x="1798" 
d="M899 1456q188 -1 346 -59t264.5 -158t166.5 -234.5t61 -287.5q-1 -153 -61 -287.5t-166.5 -234.5t-264.5 -158.5t-346 -59.5q-188 1 -346.5 59.5t-265 158.5t-166 234.5t-60.5 287.5q1 153 60.5 287.5t166 234.5t265 158t346.5 59zM899 -4q69 0 121 64t80 171.5t41.5 229
t13.5 256.5q0 134 -13.5 255.5t-41.5 229.5t-80 172t-121 64t-121 -64t-81 -171.5t-42.5 -229.5t-13.5 -256q0 -135 13.5 -257t42.5 -229t81 -171t121 -64zM1214 1882q37 -45 32.5 -94.5t-42.5 -85.5q-52 -50 -139 -90.5t-148 -55.5l-61 -16q2 9 7 25t22 61.5t36 86t49.5 88
t63.5 79.5q37 36 87 38.5t93 -36.5z" />
    <glyph glyph-name="Ocircumflex" unicode="&#xd4;" horiz-adv-x="1798" 
d="M899 1456q188 -1 346 -59t264.5 -158t166.5 -234.5t61 -287.5q-1 -153 -61 -287.5t-166.5 -234.5t-264.5 -158.5t-346 -59.5q-188 1 -346.5 59.5t-265 158.5t-166 234.5t-60.5 287.5q1 153 60.5 287.5t166 234.5t265 158t346.5 59zM899 -4q69 0 121 64t80 171.5t41.5 229
t13.5 256.5q0 134 -13.5 255.5t-41.5 229.5t-80 172t-121 64t-121 -64t-81 -171.5t-42.5 -229.5t-13.5 -256q0 -135 13.5 -257t42.5 -229t81 -171t121 -64zM899 1890l338 -350l-338 111l-340 -111z" />
    <glyph glyph-name="Otilde" unicode="&#xd5;" horiz-adv-x="1798" 
d="M899 1456q188 -1 346 -59t264.5 -158t166.5 -234.5t61 -287.5q-1 -153 -61 -287.5t-166.5 -234.5t-264.5 -158.5t-346 -59.5q-188 1 -346.5 59.5t-265 158.5t-166 234.5t-60.5 287.5q1 153 60.5 287.5t166 234.5t265 158t346.5 59zM899 -4q69 0 121 64t80 171.5t41.5 229
t13.5 256.5q0 134 -13.5 255.5t-41.5 229.5t-80 172t-121 64t-121 -64t-81 -171.5t-42.5 -229.5t-13.5 -256q0 -135 13.5 -257t42.5 -229t81 -171t121 -64zM1280 1812q0 -21 -3.5 -47.5t-16.5 -64.5t-33.5 -69.5t-58.5 -56.5t-87 -32q-39 -5 -89.5 5t-79.5 20.5t-85.5 36
t-64.5 28.5q-156 62 -244 -28q15 99 76 170.5t139 80.5q63 8 126.5 -10t125 -46.5t92.5 -35.5q62 -14 118 -1.5t85 50.5z" />
    <glyph glyph-name="Odieresis" unicode="&#xd6;" horiz-adv-x="1798" 
d="M899 1456q188 -1 346 -59t264.5 -158t166.5 -234.5t61 -287.5q-1 -153 -61 -287.5t-166.5 -234.5t-264.5 -158.5t-346 -59.5q-188 1 -346.5 59.5t-265 158.5t-166 234.5t-60.5 287.5q1 153 60.5 287.5t166 234.5t265 158t346.5 59zM899 -4q69 0 121 64t80 171.5t41.5 229
t13.5 256.5q0 134 -13.5 255.5t-41.5 229.5t-80 172t-121 64t-121 -64t-81 -171.5t-42.5 -229.5t-13.5 -256q0 -135 13.5 -257t42.5 -229t81 -171t121 -64zM692 1855q69 0 118.5 -49t49.5 -118t-49.5 -118.5t-118.5 -49.5t-118.5 49.5t-49.5 118.5t49.5 118t118.5 49z
M1106 1855q70 0 119 -49t49 -118t-49 -118.5t-119 -49.5q-69 0 -117.5 49.5t-48.5 118.5t48.5 118t117.5 49z" />
    <glyph glyph-name="multiply" unicode="&#xd7;" horiz-adv-x="825" 
d="M743 989l-311 -311l311 -311l-20 -21l-311 311l-312 -311l-18 21l311 311l-311 311l18 19l312 -312l311 312z" />
    <glyph glyph-name="Oslash" unicode="&#xd8;" horiz-adv-x="1798" 
d="M1167 1524h29l-35 -101q264 -70 418.5 -262t157.5 -444q-1 -153 -61 -287.5t-166.5 -234.5t-264.5 -158.5t-346 -59.5q-91 0 -221 23l-31 -90h-26l32 96q-273 65 -431.5 259.5t-160.5 451.5q1 153 60.5 287.5t166 234.5t265 158t346.5 59q116 0 236 -26zM641 717
q0 -333 72 -535l366 1080q-68 176 -180 176q-69 0 -121 -64t-81 -171.5t-42.5 -229.5t-13.5 -256zM899 -4q69 0 121 64t80 171.5t41.5 229t13.5 256.5q0 307 -61 504l-367 -1074q67 -151 172 -151z" />
    <glyph glyph-name="Ugrave" unicode="&#xd9;" horiz-adv-x="1513" 
d="M1094 1434h358q-30 -40 -48.5 -93.5t-25.5 -136t-8.5 -139t-1.5 -172.5v-45v-279q0 -49 -4.5 -96.5t-19 -106t-37 -109t-61.5 -101t-90 -87t-125.5 -61.5t-164.5 -31q-59 -6 -121 -1t-124 13t-121.5 31t-112.5 53t-98 79t-77.5 109t-50.5 142.5t-18 180.5v583
q0 59 -8.5 108.5t-20.5 77.5t-24 47.5t-20 26.5l-9 7h740q-3 -2 -8.5 -7t-20 -26t-25 -48.5t-19.5 -77t-9 -108.5v-682q0 -159 69.5 -268.5t178.5 -126.5q107 -19 195 45.5t134.5 179.5t46.5 250v283q0 217 -56.5 367.5t-192.5 218.5zM707 1882q43 39 93 36.5t87 -38.5
q52 -50 96.5 -135t62.5 -145l19 -60q-9 2 -25.5 6t-62.5 18.5t-87.5 31.5t-90.5 45.5t-82 60.5q-38 36 -42.5 85.5t32.5 94.5z" />
    <glyph glyph-name="Uacute" unicode="&#xda;" horiz-adv-x="1513" 
d="M1094 1434h358q-30 -40 -48.5 -93.5t-25.5 -136t-8.5 -139t-1.5 -172.5v-45v-279q0 -49 -4.5 -96.5t-19 -106t-37 -109t-61.5 -101t-90 -87t-125.5 -61.5t-164.5 -31q-59 -6 -121 -1t-124 13t-121.5 31t-112.5 53t-98 79t-77.5 109t-50.5 142.5t-18 180.5v583
q0 59 -8.5 108.5t-20.5 77.5t-24 47.5t-20 26.5l-9 7h740q-3 -2 -8.5 -7t-20 -26t-25 -48.5t-19.5 -77t-9 -108.5v-682q0 -159 69.5 -268.5t178.5 -126.5q107 -19 195 45.5t134.5 179.5t46.5 250v283q0 217 -56.5 367.5t-192.5 218.5zM1012 1882q37 -45 32 -94.5t-43 -85.5
q-52 -50 -139 -90.5t-148 -55.5l-61 -16q2 9 7 25t22 61.5t36 86t49.5 88t63.5 79.5q37 36 87.5 38.5t93.5 -36.5z" />
    <glyph glyph-name="Ucircumflex" unicode="&#xdb;" horiz-adv-x="1513" 
d="M1094 1434h358q-30 -40 -48.5 -93.5t-25.5 -136t-8.5 -139t-1.5 -172.5v-45v-279q0 -49 -4.5 -96.5t-19 -106t-37 -109t-61.5 -101t-90 -87t-125.5 -61.5t-164.5 -31q-59 -6 -121 -1t-124 13t-121.5 31t-112.5 53t-98 79t-77.5 109t-50.5 142.5t-18 180.5v583
q0 59 -8.5 108.5t-20.5 77.5t-24 47.5t-20 26.5l-9 7h740q-3 -2 -8.5 -7t-20 -26t-25 -48.5t-19.5 -77t-9 -108.5v-682q0 -159 69.5 -268.5t178.5 -126.5q107 -19 195 45.5t134.5 179.5t46.5 250v283q0 217 -56.5 367.5t-192.5 218.5zM901 1890l338 -350l-338 111l-340 -111
z" />
    <glyph glyph-name="Udieresis" unicode="&#xdc;" horiz-adv-x="1513" 
d="M1094 1434h358q-30 -40 -48.5 -93.5t-25.5 -136t-8.5 -139t-1.5 -172.5v-45v-279q0 -49 -4.5 -96.5t-19 -106t-37 -109t-61.5 -101t-90 -87t-125.5 -61.5t-164.5 -31q-59 -6 -121 -1t-124 13t-121.5 31t-112.5 53t-98 79t-77.5 109t-50.5 142.5t-18 180.5v583
q0 59 -8.5 108.5t-20.5 77.5t-24 47.5t-20 26.5l-9 7h740q-3 -2 -8.5 -7t-20 -26t-25 -48.5t-19.5 -77t-9 -108.5v-682q0 -159 69.5 -268.5t178.5 -126.5q107 -19 195 45.5t134.5 179.5t46.5 250v283q0 217 -56.5 367.5t-192.5 218.5zM694 1855q69 0 118.5 -49t49.5 -118
t-49.5 -118.5t-118.5 -49.5t-118.5 49.5t-49.5 118.5t49.5 118t118.5 49zM1108 1855q70 0 119 -49t49 -118t-49 -118.5t-119 -49.5q-69 0 -117.5 49.5t-48.5 118.5t48.5 118t117.5 49z" />
    <glyph glyph-name="Yacute" unicode="&#xdd;" horiz-adv-x="1677" 
d="M1657 1434q-137 -83 -244 -200.5t-217 -293.5l-115 -182v-494q0 -59 8.5 -107.5t21 -76t25 -47t20.5 -26.5l9 -7h-741q3 2 9 7t20.5 26t25.5 47.5t20 75.5t9 108v338l-318 565q-57 93 -115 159.5t-87 87.5l-29 20h850q-3 -3 -6.5 -8t-10 -25t-7 -43.5t9.5 -63.5t32 -84
l242 -430q32 51 100 160q50 80 63 157t-8.5 139.5t-70 113.5t-119.5 84h623zM961 1882q37 -45 32 -94.5t-43 -85.5q-52 -50 -139 -90.5t-148 -55.5l-61 -16q2 9 7 25t22 61.5t36 86t49.5 88t63.5 79.5q37 36 87.5 38.5t93.5 -36.5z" />
    <glyph glyph-name="Thorn" unicode="&#xde;" horiz-adv-x="1595" 
d="M846 1174q150 0 268.5 -25t195 -67t127 -101.5t72.5 -124t25 -139.5q-3 -75 -25 -139.5t-72.5 -124.5t-127 -102.5t-195 -67.5t-268.5 -25h-107q1 -57 9.5 -105t20.5 -75t23.5 -46t19.5 -26l9 -6h-739q3 2 8.5 7t20 26t25 47.5t19.5 75.5t9 108v903q0 59 -8.5 108.5
t-20.5 77.5t-24 47.5t-21 26.5l-8 7h739q-3 -2 -8.5 -7t-19.5 -25.5t-24.5 -47t-19.5 -75t-10 -105.5h107zM739 287q144 0 217.5 114t73.5 316q0 201 -73.5 315.5t-217.5 114.5v-860z" />
    <glyph glyph-name="germandbls" unicode="&#xdf;" horiz-adv-x="1796" 
d="M1634 514q61 -56 85 -128.5t10 -142t-60 -122.5q-119 -137 -422 -137q-70 0 -225 30q-75 12 -113 4t-49 -24l-10 -17v414q1 -5 2.5 -13.5t9 -35.5t17 -53t27 -61t37.5 -65t50.5 -61t65 -53t80.5 -35.5t98 -13.5q43 0 65.5 27t16 70.5t-42.5 88.5q-48 57 -143.5 135
t-139.5 119q-63 58 -82 138.5t15.5 172t122.5 167.5l131 106q67 61 100 127t18 109q-16 43 -78 70t-142 22t-157 -37.5t-129.5 -120.5t-52.5 -215v-979h-657q3 2 8.5 7t20 25.5t25 47.5t19.5 76t9 108v553q0 102 16.5 185.5t44.5 144t72 106.5t94 75t115.5 48.5t129.5 29
t144 13.5q185 10 336 -29t189 -102q12 -22 15 -43.5t-3.5 -46.5t-18 -50t-32.5 -61q-30 -50 -40 -85t3 -75t57 -83q39 -38 97 -93t133.5 -126t117.5 -111z" />
    <glyph glyph-name="agrave" unicode="&#xe0;" horiz-adv-x="1396" 
d="M1253 264q0 -59 8.5 -107.5t20.5 -76t24 -47t20 -26.5l9 -7h-430q-84 0 -122 32.5t-50 108.5q-23 -46 -73 -82t-113 -54.5t-133 -25.5t-136 6.5t-119 39.5t-85.5 75t-32.5 113q0 76 32 133t82.5 91t124 65.5t145 53.5t158 58t150.5 76q-1 70 -8 129t-23 110.5t-44.5 81
t-67.5 29.5q-150 0 -84 -159q21 -49 25 -91.5t-5.5 -72t-29 -52.5t-43.5 -35.5t-52 -17.5q-33 -4 -66.5 -4t-64.5 12t-54 31.5t-36.5 55t-11.5 81.5q3 74 41 128t101.5 84t136 43.5t155.5 13.5q60 0 114 -3.5t122 -15t124 -31t111.5 -54t94 -80t62 -114t23.5 -151.5v-344z
M733 238v424q-77 -34 -127.5 -103t-64.5 -144.5t-9 -147.5t33 -121t68 -56q41 -6 70.5 38t29.5 110zM453 1473q44 39 93 36t87 -39q52 -50 96.5 -135t62.5 -145l19 -60q-9 2 -25.5 6t-62.5 18.5t-87.5 31.5t-90.5 45.5t-82 60.5q-37 36 -42.5 86t32.5 95z" />
    <glyph glyph-name="aacute" unicode="&#xe1;" horiz-adv-x="1396" 
d="M1253 264q0 -59 8.5 -107.5t20.5 -76t24 -47t20 -26.5l9 -7h-430q-84 0 -122 32.5t-50 108.5q-23 -46 -73 -82t-113 -54.5t-133 -25.5t-136 6.5t-119 39.5t-85.5 75t-32.5 113q0 76 32 133t82.5 91t124 65.5t145 53.5t158 58t150.5 76q-1 70 -8 129t-23 110.5t-44.5 81
t-67.5 29.5q-150 0 -84 -159q21 -49 25 -91.5t-5.5 -72t-29 -52.5t-43.5 -35.5t-52 -17.5q-33 -4 -66.5 -4t-64.5 12t-54 31.5t-36.5 55t-11.5 81.5q3 74 41 128t101.5 84t136 43.5t155.5 13.5q60 0 114 -3.5t122 -15t124 -31t111.5 -54t94 -80t62 -114t23.5 -151.5v-344z
M733 238v424q-77 -34 -127.5 -103t-64.5 -144.5t-9 -147.5t33 -121t68 -56q41 -6 70.5 38t29.5 110zM965 1473q37 -45 32 -95t-43 -86q-52 -50 -139 -90.5t-148 -55.5l-61 -16q2 9 7 25t22 61.5t36 86t49.5 88t63.5 79.5q38 36 87.5 39t93.5 -36z" />
    <glyph glyph-name="acircumflex" unicode="&#xe2;" horiz-adv-x="1396" 
d="M1253 264q0 -59 8.5 -107.5t20.5 -76t24 -47t20 -26.5l9 -7h-430q-84 0 -122 32.5t-50 108.5q-23 -46 -73 -82t-113 -54.5t-133 -25.5t-136 6.5t-119 39.5t-85.5 75t-32.5 113q0 76 32 133t82.5 91t124 65.5t145 53.5t158 58t150.5 76q-1 70 -8 129t-23 110.5t-44.5 81
t-67.5 29.5q-150 0 -84 -159q21 -49 25 -91.5t-5.5 -72t-29 -52.5t-43.5 -35.5t-52 -17.5q-33 -4 -66.5 -4t-64.5 12t-54 31.5t-36.5 55t-11.5 81.5q3 74 41 128t101.5 84t136 43.5t155.5 13.5q60 0 114 -3.5t122 -15t124 -31t111.5 -54t94 -80t62 -114t23.5 -151.5v-344z
M733 238v424q-77 -34 -127.5 -103t-64.5 -144.5t-9 -147.5t33 -121t68 -56q41 -6 70.5 38t29.5 110zM690 1481l338 -351l-338 111l-340 -111z" />
    <glyph glyph-name="atilde" unicode="&#xe3;" horiz-adv-x="1396" 
d="M1253 264q0 -59 8.5 -107.5t20.5 -76t24 -47t20 -26.5l9 -7h-430q-84 0 -122 32.5t-50 108.5q-23 -46 -73 -82t-113 -54.5t-133 -25.5t-136 6.5t-119 39.5t-85.5 75t-32.5 113q0 76 32 133t82.5 91t124 65.5t145 53.5t158 58t150.5 76q-1 70 -8 129t-23 110.5t-44.5 81
t-67.5 29.5q-150 0 -84 -159q21 -49 25 -91.5t-5.5 -72t-29 -52.5t-43.5 -35.5t-52 -17.5q-33 -4 -66.5 -4t-64.5 12t-54 31.5t-36.5 55t-11.5 81.5q3 74 41 128t101.5 84t136 43.5t155.5 13.5q60 0 114 -3.5t122 -15t124 -31t111.5 -54t94 -80t62 -114t23.5 -151.5v-344z
M733 238v424q-77 -34 -127.5 -103t-64.5 -144.5t-9 -147.5t33 -121t68 -56q41 -6 70.5 38t29.5 110zM1090 1403q0 -21 -3.5 -47.5t-16.5 -64.5t-33.5 -69.5t-58.5 -56.5t-87 -32q-39 -5 -89.5 5t-79.5 20.5t-86.5 36t-64.5 28.5q-155 62 -243 -29q15 99 76 171t139 81
q63 8 126.5 -10t125 -46.5t92.5 -35.5q62 -14 118 -1.5t85 50.5z" />
    <glyph glyph-name="adieresis" unicode="&#xe4;" horiz-adv-x="1396" 
d="M1253 264q0 -59 8.5 -107.5t20.5 -76t24 -47t20 -26.5l9 -7h-430q-84 0 -122 32.5t-50 108.5q-23 -46 -73 -82t-113 -54.5t-133 -25.5t-136 6.5t-119 39.5t-85.5 75t-32.5 113q0 76 32 133t82.5 91t124 65.5t145 53.5t158 58t150.5 76q-1 70 -8 129t-23 110.5t-44.5 81
t-67.5 29.5q-150 0 -84 -159q21 -49 25 -91.5t-5.5 -72t-29 -52.5t-43.5 -35.5t-52 -17.5q-33 -4 -66.5 -4t-64.5 12t-54 31.5t-36.5 55t-11.5 81.5q3 74 41 128t101.5 84t136 43.5t155.5 13.5q60 0 114 -3.5t122 -15t124 -31t111.5 -54t94 -80t62 -114t23.5 -151.5v-344z
M733 238v424q-77 -34 -127.5 -103t-64.5 -144.5t-9 -147.5t33 -121t68 -56q41 -6 70.5 38t29.5 110zM522 1446q69 0 118.5 -49.5t49.5 -118.5t-49.5 -118.5t-118.5 -49.5t-118.5 49.5t-49.5 118.5t49.5 118.5t118.5 49.5zM936 1446q70 0 119 -49.5t49 -118.5t-49 -118.5
t-119 -49.5q-69 0 -117.5 49.5t-48.5 118.5t48.5 118.5t117.5 49.5z" />
    <glyph glyph-name="aring" unicode="&#xe5;" horiz-adv-x="1396" 
d="M1253 264q0 -59 8.5 -107.5t20.5 -76t24 -47t20 -26.5l9 -7h-430q-84 0 -122 32.5t-50 108.5q-23 -46 -73 -82t-113 -54.5t-133 -25.5t-136 6.5t-119 39.5t-85.5 75t-32.5 113q0 76 32 133t82.5 91t124 65.5t145 53.5t158 58t150.5 76q-1 70 -8 129t-23 110.5t-44.5 81
t-67.5 29.5q-150 0 -84 -159q21 -49 25 -91.5t-5.5 -72t-29 -52.5t-43.5 -35.5t-52 -17.5q-33 -4 -66.5 -4t-64.5 12t-54 31.5t-36.5 55t-11.5 81.5q3 74 41 128t101.5 84t136 43.5t155.5 13.5q60 0 114 -3.5t122 -15t124 -31t111.5 -54t94 -80t62 -114t23.5 -151.5v-344z
M733 238v424q-77 -34 -127.5 -103t-64.5 -144.5t-9 -147.5t33 -121t68 -56q41 -6 70.5 38t29.5 110zM731 1489q112 0 173 -54.5t61 -134.5t-61 -134.5t-173 -55.5q-113 1 -174 55.5t-61 134.5t61 134.5t174 54.5zM731 1124q55 0 55 176q0 175 -55 175q-57 0 -57 -175
q0 -176 57 -176z" />
    <glyph glyph-name="ae" unicode="&#xe6;" horiz-adv-x="2072" 
d="M2011 293h21q-71 -152 -217 -233t-336 -83q-134 0 -251.5 41.5t-212.5 135.5t-134 229q-11 -80 -32.5 -143t-48 -105t-65.5 -72.5t-74.5 -46.5t-85.5 -25t-88.5 -11.5t-93.5 -2.5q-143 0 -247.5 66t-104.5 172q0 75 41.5 132.5t107 91t155.5 65t176.5 53.5t182 58
t160.5 77q-1 70 -8 129t-23 110.5t-44.5 81t-67.5 29.5q-149 0 -82 -161q36 -83 23 -141t-46.5 -88.5t-80.5 -39.5q-42 -9 -84.5 -2.5t-77 23.5t-55.5 57.5t-19 97.5q3 74 41 128.5t101.5 84.5t136 44t155.5 14q265 0 402 -70q143 70 342 70q128 0 224.5 -28t156 -75.5
t97 -118.5t51.5 -147.5t15 -171.5h-274h-158h-225q29 -125 110 -207.5t176.5 -107t194.5 -2t166 91.5zM1466 1042q-58 0 -94 -63t-41 -173.5t27 -260.5h235q12 81 10 169t-13.5 161t-43.5 120t-80 47zM866 459v203q-78 -34 -142 -98.5t-99 -136t-50.5 -141.5t-4 -122.5
t47.5 -71.5q52 -28 110 10.5t91 126.5q47 120 47 230z" />
    <glyph glyph-name="ccedilla" unicode="&#xe7;" 
d="M655 -23q-26 0 -47 3l-33 -56q28 6 81.5 5.5t88.5 -9.5q66 -15 105.5 -53t36.5 -100q-8 -144 -230 -144q-134 0 -211 45v105q20 -46 47.5 -79.5t53.5 -39.5q45 -8 78 16.5t43 87.5q19 110 -52 131q-30 8 -86 5l54 86q-112 10 -209 48t-172 103.5t-118.5 164t-43.5 220.5
q0 111 36 202.5t97.5 153.5t144.5 104.5t174.5 61.5t190.5 19q82 0 217 -35q74 -15 120.5 -6.5t67.5 26.5l21 19l37 -486q-3 10 -9.5 26.5t-28.5 65t-46.5 92.5t-63 97.5t-79 92t-94.5 65t-109 26.5q-63 0 -109 -47.5t-66.5 -122.5t-20.5 -168.5t24 -185.5
q27 -103 85 -177.5t130 -109t149.5 -41t151 20.5t127.5 82h18q-69 -152 -215 -233t-336 -81z" />
    <glyph glyph-name="egrave" unicode="&#xe8;" 
d="M1186 293h20q-69 -152 -215.5 -233t-335.5 -83q-98 0 -188 21.5t-168 65.5t-135.5 107.5t-90 152.5t-32.5 194q1 91 22.5 170t69 147.5t117.5 117.5t172.5 76.5t228.5 27.5q128 0 224.5 -28t156.5 -75.5t97.5 -118t52.5 -146.5t16 -171h-659q20 -85 64.5 -151
t100.5 -104.5t122 -57.5t130 -14.5t124.5 30.5t105.5 72zM641 1042q-57 0 -93.5 -63.5t-42 -173.5t26.5 -260h236q12 81 10 169t-13.5 161t-43.5 120t-80 47zM369 1473q44 39 93 36t87 -39q52 -50 96.5 -135t62.5 -145l19 -60q-9 2 -25.5 6t-62.5 18.5t-87.5 31.5
t-90.5 45.5t-82 60.5q-37 36 -42.5 86t32.5 95z" />
    <glyph glyph-name="eacute" unicode="&#xe9;" 
d="M1186 293h20q-69 -152 -215.5 -233t-335.5 -83q-98 0 -188 21.5t-168 65.5t-135.5 107.5t-90 152.5t-32.5 194q1 91 22.5 170t69 147.5t117.5 117.5t172.5 76.5t228.5 27.5q128 0 224.5 -28t156.5 -75.5t97.5 -118t52.5 -146.5t16 -171h-659q20 -85 64.5 -151
t100.5 -104.5t122 -57.5t130 -14.5t124.5 30.5t105.5 72zM641 1042q-57 0 -93.5 -63.5t-42 -173.5t26.5 -260h236q12 81 10 169t-13.5 161t-43.5 120t-80 47zM899 1473q38 -45 32.5 -95t-42.5 -86q-52 -50 -139 -90.5t-148 -55.5l-61 -16q2 9 7 25t22 61.5t36 86t49.5 88
t63.5 79.5q38 36 87 39t93 -36z" />
    <glyph glyph-name="ecircumflex" unicode="&#xea;" 
d="M1186 293h20q-69 -152 -215.5 -233t-335.5 -83q-98 0 -188 21.5t-168 65.5t-135.5 107.5t-90 152.5t-32.5 194q1 91 22.5 170t69 147.5t117.5 117.5t172.5 76.5t228.5 27.5q128 0 224.5 -28t156.5 -75.5t97.5 -118t52.5 -146.5t16 -171h-659q20 -85 64.5 -151
t100.5 -104.5t122 -57.5t130 -14.5t124.5 30.5t105.5 72zM641 1042q-57 0 -93.5 -63.5t-42 -173.5t26.5 -260h236q12 81 10 169t-13.5 161t-43.5 120t-80 47zM625 1481l338 -351l-338 111l-340 -111z" />
    <glyph glyph-name="edieresis" unicode="&#xeb;" 
d="M1186 293h20q-69 -152 -215.5 -233t-335.5 -83q-98 0 -188 21.5t-168 65.5t-135.5 107.5t-90 152.5t-32.5 194q1 91 22.5 170t69 147.5t117.5 117.5t172.5 76.5t228.5 27.5q128 0 224.5 -28t156.5 -75.5t97.5 -118t52.5 -146.5t16 -171h-659q20 -85 64.5 -151
t100.5 -104.5t122 -57.5t130 -14.5t124.5 30.5t105.5 72zM641 1042q-57 0 -93.5 -63.5t-42 -173.5t26.5 -260h236q12 81 10 169t-13.5 161t-43.5 120t-80 47zM418 1446q69 0 118.5 -49.5t49.5 -118.5t-49.5 -118.5t-118.5 -49.5t-118.5 49.5t-49.5 118.5t49.5 118.5
t118.5 49.5zM831 1446q70 0 119 -49.5t49 -118.5t-49 -118.5t-119 -49.5q-69 0 -117 49.5t-48 118.5t48 118.5t117 49.5z" />
    <glyph glyph-name="igrave" unicode="&#xec;" horiz-adv-x="806" 
d="M664 264q0 -59 8.5 -107.5t20 -76t23.5 -47t20 -26.5l9 -7h-684q3 2 8.5 7t20 26t25 47.5t19.5 75.5t9 108v504q0 59 -8.5 107.5t-20.5 76t-24 47t-20 26.5l-9 7h684q-3 -2 -8.5 -7t-19.5 -26t-24.5 -47.5t-19.5 -75.5t-9 -108v-504zM188 1473q44 39 93.5 36t87.5 -39
q52 -50 96.5 -135t62.5 -145l19 -60q-9 2 -25.5 6t-62.5 18.5t-87.5 31.5t-90.5 45.5t-82 60.5q-38 36 -43 86t32 95z" />
    <glyph glyph-name="iacute" unicode="&#xed;" horiz-adv-x="806" 
d="M664 264q0 -59 8.5 -107.5t20 -76t23.5 -47t20 -26.5l9 -7h-684q3 2 8.5 7t20 26t25 47.5t19.5 75.5t9 108v504q0 59 -8.5 107.5t-20.5 76t-24 47t-20 26.5l-9 7h684q-3 -2 -8.5 -7t-19.5 -26t-24.5 -47.5t-19.5 -75.5t-9 -108v-504zM618 1473q38 -45 32.5 -95t-42.5 -86
q-52 -50 -139 -90.5t-148 -55.5l-61 -16q2 9 7 25t22 61.5t36 86t49.5 88t63.5 79.5q38 36 87 39t93 -36z" />
    <glyph glyph-name="icircumflex" unicode="&#xee;" horiz-adv-x="806" 
d="M664 264q0 -59 8.5 -107.5t20 -76t23.5 -47t20 -26.5l9 -7h-684q3 2 8.5 7t20 26t25 47.5t19.5 75.5t9 108v504q0 59 -8.5 107.5t-20.5 76t-24 47t-20 26.5l-9 7h684q-3 -2 -8.5 -7t-19.5 -26t-24.5 -47.5t-19.5 -75.5t-9 -108v-504zM406 1481l337 -351l-337 111
l-340 -111z" />
    <glyph glyph-name="idieresis" unicode="&#xef;" horiz-adv-x="811" 
d="M666 264q0 -59 8.5 -107.5t20.5 -76t24 -47t21 -26.5l8 -7h-685q3 2 8.5 7t20 26t25 47.5t19.5 75.5t9 108v504q0 59 -8.5 107.5t-20.5 76t-24 47t-20 26.5l-9 7h685q-3 -2 -8.5 -7t-20 -26t-25 -47.5t-19.5 -75.5t-9 -108v-504zM199 1446q69 0 118.5 -49.5t49.5 -118.5
t-49.5 -118.5t-118.5 -49.5t-118.5 49.5t-49.5 118.5t49.5 118.5t118.5 49.5zM612 1446q70 0 119 -49.5t49 -118.5t-49 -118.5t-119 -49.5q-69 0 -117.5 49.5t-48.5 118.5t48.5 118.5t117.5 49.5z" />
    <glyph glyph-name="eth" unicode="&#xf0;" horiz-adv-x="1462" 
d="M1397 686q29 -317 -142.5 -513t-488.5 -196q-171 0 -307 42.5t-221.5 117t-130.5 171.5t-46 210q1 92 26.5 170.5t84 147.5t146 117.5t218.5 76.5t295 29q-26 120 -106 223l-250 -86l-10 27l242 82q-62 74 -143.5 126t-164.5 76q280 0 525 -127l225 78l8 -26l-203 -70
q186 -106 304 -278t139 -398zM727 -6q65 0 102 120.5t42.5 291.5t-5 344t-32.5 292q-53 0 -95 -22.5t-69 -64.5t-45.5 -90.5t-28 -112.5t-13.5 -117t-5 -117q1 -53 2 -87t3.5 -88t7 -89.5t12 -80t18.5 -73t25.5 -55t35 -39t45.5 -12.5z" />
    <glyph glyph-name="ntilde" unicode="&#xf1;" horiz-adv-x="1546" 
d="M799 0q3 2 8.5 7t20 26t25 47.5t19.5 75.5t9 108v410q0 56 -3 96t-12.5 86.5t-32 71.5t-57.5 26q-43 2 -77.5 -49.5t-34.5 -124.5v-516q0 -59 8.5 -107.5t20 -76t23.5 -47t20 -26.5l9 -7h-684q3 2 8.5 7t20 26t25 47.5t19.5 75.5t9 108v502q0 59 -8.5 108t-20.5 77
t-24 47.5t-20 26.5l-9 7h547l56 -139q79 164 325 164q105 0 185.5 -31t129.5 -86t73 -127t24 -158v-391q0 -59 8.5 -107.5t21 -76t25 -47t20.5 -26.5l9 -7h-686zM1155 1403q0 -21 -3.5 -47.5t-16.5 -64.5t-33.5 -69.5t-58.5 -56.5t-87 -32q-39 -5 -89.5 5t-79.5 20.5
t-85.5 36t-64.5 28.5q-156 62 -244 -29q15 99 76 171t139 81q63 8 126.5 -10t125 -46.5t92.5 -35.5q62 -14 118 -1.5t85 50.5z" />
    <glyph glyph-name="ograve" unicode="&#xf2;" horiz-adv-x="1411" 
d="M707 1057q158 0 285 -42.5t208.5 -116t125 -171.5t44.5 -211q-1 -112 -44.5 -209.5t-125 -171t-208.5 -116t-285 -42.5q-159 0 -286.5 42.5t-209.5 116t-125.5 171t-44.5 209.5q1 113 44.5 211t125.5 171.5t209.5 116t286.5 42.5zM707 -6q25 0 45.5 12.5t35 39t25 54
t17.5 73.5t11.5 80t7 89.5t3.5 86.5t2 87q-1 56 -2 87.5t-3.5 87.5t-7 90t-11.5 79.5t-17.5 73.5t-25 54.5t-35 39t-45.5 12.5t-46 -12.5t-35.5 -39t-26 -54.5t-18.5 -73t-11.5 -80t-7 -90t-3.5 -87.5t-2 -87.5q1 -54 2 -86.5t3.5 -87t7 -89.5t11.5 -80t18.5 -73t26 -54.5
t35.5 -39t46 -12.5zM408 1473q44 39 93 36t87 -39q52 -50 96.5 -135t63.5 -145l18 -60q-9 2 -25.5 6t-62.5 18.5t-87.5 31.5t-90.5 45.5t-82 60.5q-37 36 -42.5 86t32.5 95z" />
    <glyph glyph-name="oacute" unicode="&#xf3;" horiz-adv-x="1411" 
d="M707 1057q158 0 285 -42.5t208.5 -116t125 -171.5t44.5 -211q-1 -112 -44.5 -209.5t-125 -171t-208.5 -116t-285 -42.5q-159 0 -286.5 42.5t-209.5 116t-125.5 171t-44.5 209.5q1 113 44.5 211t125.5 171.5t209.5 116t286.5 42.5zM707 -6q25 0 45.5 12.5t35 39t25 54
t17.5 73.5t11.5 80t7 89.5t3.5 86.5t2 87q-1 56 -2 87.5t-3.5 87.5t-7 90t-11.5 79.5t-17.5 73.5t-25 54.5t-35 39t-45.5 12.5t-46 -12.5t-35.5 -39t-26 -54.5t-18.5 -73t-11.5 -80t-7 -90t-3.5 -87.5t-2 -87.5q1 -54 2 -86.5t3.5 -87t7 -89.5t11.5 -80t18.5 -73t26 -54.5
t35.5 -39t46 -12.5zM1001 1473q38 -45 32.5 -95t-42.5 -86q-52 -50 -139 -90.5t-148 -55.5l-61 -16q2 9 7 25t22 61.5t36 86t49.5 88t63.5 79.5q38 36 87 39t93 -36z" />
    <glyph glyph-name="ocircumflex" unicode="&#xf4;" horiz-adv-x="1411" 
d="M707 1057q158 0 285 -42.5t208.5 -116t125 -171.5t44.5 -211q-1 -112 -44.5 -209.5t-125 -171t-208.5 -116t-285 -42.5q-159 0 -286.5 42.5t-209.5 116t-125.5 171t-44.5 209.5q1 113 44.5 211t125.5 171.5t209.5 116t286.5 42.5zM707 -6q25 0 45.5 12.5t35 39t25 54
t17.5 73.5t11.5 80t7 89.5t3.5 86.5t2 87q-1 56 -2 87.5t-3.5 87.5t-7 90t-11.5 79.5t-17.5 73.5t-25 54.5t-35 39t-45.5 12.5t-46 -12.5t-35.5 -39t-26 -54.5t-18.5 -73t-11.5 -80t-7 -90t-3.5 -87.5t-2 -87.5q1 -54 2 -86.5t3.5 -87t7 -89.5t11.5 -80t18.5 -73t26 -54.5
t35.5 -39t46 -12.5zM707 1481l337 -351l-337 111l-340 -111z" />
    <glyph glyph-name="otilde" unicode="&#xf5;" horiz-adv-x="1411" 
d="M707 1057q158 0 285 -42.5t208.5 -116t125 -171.5t44.5 -211q-1 -112 -44.5 -209.5t-125 -171t-208.5 -116t-285 -42.5q-159 0 -286.5 42.5t-209.5 116t-125.5 171t-44.5 209.5q1 113 44.5 211t125.5 171.5t209.5 116t286.5 42.5zM707 -6q25 0 45.5 12.5t35 39t25 54
t17.5 73.5t11.5 80t7 89.5t3.5 86.5t2 87q-1 56 -2 87.5t-3.5 87.5t-7 90t-11.5 79.5t-17.5 73.5t-25 54.5t-35 39t-45.5 12.5t-46 -12.5t-35.5 -39t-26 -54.5t-18.5 -73t-11.5 -80t-7 -90t-3.5 -87.5t-2 -87.5q1 -54 2 -86.5t3.5 -87t7 -89.5t11.5 -80t18.5 -73t26 -54.5
t35.5 -39t46 -12.5zM1087 1403q0 -21 -3.5 -47.5t-16.5 -64.5t-33 -69.5t-58 -56.5t-87 -32q-39 -5 -89.5 5t-79.5 20.5t-86.5 36t-64.5 28.5q-155 62 -243 -29q15 99 76 171t139 81q63 8 126.5 -10t125 -46.5t92.5 -35.5q62 -14 117.5 -1.5t84.5 50.5z" />
    <glyph glyph-name="odieresis" unicode="&#xf6;" horiz-adv-x="1411" 
d="M707 1057q158 0 285 -42.5t208.5 -116t125 -171.5t44.5 -211q-1 -112 -44.5 -209.5t-125 -171t-208.5 -116t-285 -42.5q-159 0 -286.5 42.5t-209.5 116t-125.5 171t-44.5 209.5q1 113 44.5 211t125.5 171.5t209.5 116t286.5 42.5zM707 -6q25 0 45.5 12.5t35 39t25 54
t17.5 73.5t11.5 80t7 89.5t3.5 86.5t2 87q-1 56 -2 87.5t-3.5 87.5t-7 90t-11.5 79.5t-17.5 73.5t-25 54.5t-35 39t-45.5 12.5t-46 -12.5t-35.5 -39t-26 -54.5t-18.5 -73t-11.5 -80t-7 -90t-3.5 -87.5t-2 -87.5q1 -54 2 -86.5t3.5 -87t7 -89.5t11.5 -80t18.5 -73t26 -54.5
t35.5 -39t46 -12.5zM500 1446q69 0 118.5 -49.5t49.5 -118.5t-49.5 -118.5t-118.5 -49.5t-118.5 49.5t-49.5 118.5t49.5 118.5t118.5 49.5zM913 1446q70 0 119 -49.5t49 -118.5t-49 -118.5t-119 -49.5q-69 0 -117 49.5t-48 118.5t48 118.5t117 49.5z" />
    <glyph glyph-name="divide" unicode="&#xf7;" horiz-adv-x="1032" 
d="M61 690h910v-26h-910v26zM516 872q-88 0 -150.5 62.5t-62.5 150.5q0 89 62.5 151t150.5 62t150.5 -62t62.5 -151q0 -88 -62.5 -150.5t-150.5 -62.5zM516 479q88 0 150.5 -61.5t62.5 -149.5q0 -89 -62.5 -151t-150.5 -62t-150.5 62t-62.5 151q0 88 62.5 149.5t150.5 61.5z
" />
    <glyph glyph-name="oslash" unicode="&#xf8;" horiz-adv-x="1411" 
d="M920 1036q216 -50 332 -189.5t118 -328.5q-1 -112 -44.5 -210t-125 -172t-209.5 -116.5t-286 -42.5q-99 0 -189 19l-35 -90h-26l37 96q-216 48 -332.5 187.5t-118.5 328.5q1 113 44.5 211t125.5 171.5t209 116t285 42.5q97 0 190 -19l35 90h26zM557 518q0 -178 16 -303
l256 655q-34 172 -124 172q-25 0 -45.5 -12.5t-35 -39t-25.5 -54.5t-18 -73t-11.5 -80t-7 -90t-3.5 -87.5t-2 -87.5zM705 -6q25 0 46 12.5t35.5 39t25.5 54.5t18 73.5t11.5 79.5t7 90t3.5 87.5t2 87.5q-4 212 -16 303l-256 -655q34 -172 123 -172z" />
    <glyph glyph-name="ugrave" unicode="&#xf9;" horiz-adv-x="1505" 
d="M1362 264q0 -59 8.5 -107.5t20.5 -76t24 -47t21 -26.5l8 -7h-430q-84 0 -122 32t-50 105q-79 -164 -326 -164q-106 0 -187 31t-129.5 87t-73 128.5t-24.5 159.5v387q0 59 -8.5 108t-20.5 77t-24 47.5t-21 26.5l-8 7h603v-674q0 -57 3 -97.5t12.5 -87t32 -71.5t56.5 -26
q44 0 79.5 51t35.5 125v514q0 59 -8.5 108t-20.5 77t-24 47.5t-21 26.5l-8 7h602v-768zM477 1473q44 39 93 36t87 -39q52 -50 96.5 -135t63.5 -145l19 -60q-9 2 -25.5 6t-63 18.5t-88 31.5t-90.5 45.5t-82 60.5q-37 36 -42.5 86t32.5 95z" />
    <glyph glyph-name="uacute" unicode="&#xfa;" horiz-adv-x="1505" 
d="M1362 264q0 -59 8.5 -107.5t20.5 -76t24 -47t21 -26.5l8 -7h-430q-84 0 -122 32t-50 105q-79 -164 -326 -164q-106 0 -187 31t-129.5 87t-73 128.5t-24.5 159.5v387q0 59 -8.5 108t-20.5 77t-24 47.5t-21 26.5l-8 7h603v-674q0 -57 3 -97.5t12.5 -87t32 -71.5t56.5 -26
q44 0 79.5 51t35.5 125v514q0 59 -8.5 108t-20.5 77t-24 47.5t-21 26.5l-8 7h602v-768zM987 1473q38 -45 32.5 -95t-42.5 -86q-52 -50 -139 -90.5t-148 -55.5l-61 -16q2 9 7 25t22 61.5t36 86t49.5 88t63.5 79.5q38 36 87 39t93 -36z" />
    <glyph glyph-name="ucircumflex" unicode="&#xfb;" horiz-adv-x="1505" 
d="M1362 264q0 -59 8.5 -107.5t20.5 -76t24 -47t21 -26.5l8 -7h-430q-84 0 -122 32t-50 105q-79 -164 -326 -164q-106 0 -187 31t-129.5 87t-73 128.5t-24.5 159.5v387q0 59 -8.5 108t-20.5 77t-24 47.5t-21 26.5l-8 7h603v-674q0 -57 3 -97.5t12.5 -87t32 -71.5t56.5 -26
q44 0 79.5 51t35.5 125v514q0 59 -8.5 108t-20.5 77t-24 47.5t-21 26.5l-8 7h602v-768zM733 1481l338 -351l-338 111l-340 -111z" />
    <glyph glyph-name="udieresis" unicode="&#xfc;" horiz-adv-x="1505" 
d="M1362 264q0 -59 8.5 -107.5t20.5 -76t24 -47t21 -26.5l8 -7h-430q-84 0 -122 32t-50 105q-79 -164 -326 -164q-106 0 -187 31t-129.5 87t-73 128.5t-24.5 159.5v387q0 59 -8.5 108t-20.5 77t-24 47.5t-21 26.5l-8 7h603v-674q0 -57 3 -97.5t12.5 -87t32 -71.5t56.5 -26
q44 0 79.5 51t35.5 125v514q0 59 -8.5 108t-20.5 77t-24 47.5t-21 26.5l-8 7h602v-768zM526 1446q69 0 118.5 -49.5t49.5 -118.5t-49.5 -118.5t-118.5 -49.5t-118.5 49.5t-49.5 118.5t49.5 118.5t118.5 49.5zM940 1446q70 0 119 -49.5t49 -118.5t-49 -118.5t-119 -49.5
q-69 0 -117.5 49.5t-48.5 118.5t48.5 118.5t117.5 49.5z" />
    <glyph glyph-name="yacute" unicode="&#xfd;" horiz-adv-x="1466" 
d="M1466 1032q-138 -53 -232.5 -168.5t-189.5 -349.5l-194 -514q-15 -35 -111 -268q-170 -387 -463 -283q-65 23 -104 74t-42.5 109.5t17 114t77 94t134.5 42.5q49 2 92.5 -15t71 -41.5t53 -50.5t45 -40t41.5 -11t47.5 36.5t57.5 103.5q11 20 59 135h-352q-231 584 -305 766
q-21 52 -48 98t-50.5 75.5t-44.5 51.5t-33 31l-12 10h737q-2 -2 -5.5 -7.5t-9.5 -27t-7.5 -49t6.5 -76.5t26 -106l186 -528q31 57 60 145q181 535 -127 649h620zM1028 1473q38 -45 32.5 -95t-42.5 -86q-52 -50 -139 -90.5t-148 -55.5l-61 -16q2 9 7 25t22 61.5t36 86
t49.5 88t63.5 79.5q38 36 87 39t93 -36z" />
    <glyph glyph-name="thorn" unicode="&#xfe;" horiz-adv-x="1452" 
d="M915 805q103 0 191.5 -33.5t157.5 -98t108 -169t39 -238.5t-39 -238.5t-108 -169.5t-157.5 -98.5t-191.5 -33.5q-190 0 -270 124v-88q0 -59 8.5 -107.5t20.5 -76t24 -47t20 -26.5l9 -7h-686q3 2 9 7t20.5 26t25.5 47.5t20 75.5t9 108v1006q0 59 -8.5 107.5t-21 76t-25 47
t-20.5 26.5l-9 7h686q-3 -2 -8.5 -7t-20 -26t-25 -47.5t-19.5 -75.5t-9 -108v-88q80 125 270 125zM645 -113q99 -149 162 -28q55 106 62 354l1 53q0 242 -49 373q-52 141 -139 52q-18 -19 -37 -48v-756z" />
    <glyph glyph-name="ydieresis" unicode="&#xff;" horiz-adv-x="1466" 
d="M1466 1032q-138 -53 -232.5 -168.5t-189.5 -349.5l-194 -514q-15 -35 -111 -268q-170 -387 -463 -283q-65 23 -104 74t-42.5 109.5t17 114t77 94t134.5 42.5q49 2 92.5 -15t71 -41.5t53 -50.5t45 -40t41.5 -11t47.5 36.5t57.5 103.5q11 20 59 135h-352q-231 584 -305 766
q-21 52 -48 98t-50.5 75.5t-44.5 51.5t-33 31l-12 10h737q-2 -2 -5.5 -7.5t-9.5 -27t-7.5 -49t6.5 -76.5t26 -106l186 -528q31 57 60 145q181 535 -127 649h620zM588 1446q69 0 118.5 -49.5t49.5 -118.5t-49.5 -118.5t-118.5 -49.5t-118.5 49.5t-49.5 118.5t49.5 118.5
t118.5 49.5zM1001 1446q70 0 119 -49.5t49 -118.5t-49 -118.5t-119 -49.5q-69 0 -117 49.5t-48 118.5t48 118.5t117 49.5z" />
    <glyph glyph-name="Amacron" unicode="&#x100;" horiz-adv-x="1748" 
d="M1749 0h-821q2 4 5.5 11.5t10 33t7 54t-8 74t-29.5 93.5q-20 50 -88 197h-411q-19 -169 34.5 -293t172.5 -170h-621q112 98 207 239t190 367q59 139 144 346t141 344l55 138h226q489 -945 604 -1168q52 -100 97.5 -166.5t65.5 -83.5zM416 492h397l-229 497
q-33 -67 -111 -276q-41 -111 -57 -221zM412 1651h884v-29h-884v29z" />
    <glyph glyph-name="amacron" unicode="&#x101;" horiz-adv-x="1396" 
d="M1253 264q0 -59 8.5 -107.5t20.5 -76t24 -47t20 -26.5l9 -7h-430q-84 0 -122 32.5t-50 108.5q-23 -46 -73 -82t-113 -54.5t-133 -25.5t-136 6.5t-119 39.5t-85.5 75t-32.5 113q0 76 32 133t82.5 91t124 65.5t145 53.5t158 58t150.5 76q-1 70 -8 129t-23 110.5t-44.5 81
t-67.5 29.5q-150 0 -84 -159q21 -49 25 -91.5t-5.5 -72t-29 -52.5t-43.5 -35.5t-52 -17.5q-33 -4 -66.5 -4t-64.5 12t-54 31.5t-36.5 55t-11.5 81.5q3 74 41 128t101.5 84t136 43.5t155.5 13.5q60 0 114 -3.5t122 -15t124 -31t111.5 -54t94 -80t62 -114t23.5 -151.5v-344z
M733 238v424q-77 -34 -127.5 -103t-64.5 -144.5t-9 -147.5t33 -121t68 -56q41 -6 70.5 38t29.5 110zM287 1241h884v-29h-884v29z" />
    <glyph glyph-name="Abreve" unicode="&#x102;" horiz-adv-x="1748" 
d="M1749 0h-821q2 4 5.5 11.5t10 33t7 54t-8 74t-29.5 93.5q-20 50 -88 197h-411q-19 -169 34.5 -293t172.5 -170h-621q112 98 207 239t190 367q59 139 144 346t141 344l55 138h226q489 -945 604 -1168q52 -100 97.5 -166.5t65.5 -83.5zM416 492h397l-229 497
q-33 -67 -111 -276q-41 -111 -57 -221zM903 1710h178q0 -80 -60.5 -134.5t-172.5 -55.5q-113 1 -173.5 55.5t-60.5 134.5h177q0 -176 57 -176q55 0 55 176z" />
    <glyph glyph-name="abreve" unicode="&#x103;" horiz-adv-x="1396" 
d="M1253 264q0 -59 8.5 -107.5t20.5 -76t24 -47t20 -26.5l9 -7h-430q-84 0 -122 32.5t-50 108.5q-23 -46 -73 -82t-113 -54.5t-133 -25.5t-136 6.5t-119 39.5t-85.5 75t-32.5 113q0 76 32 133t82.5 91t124 65.5t145 53.5t158 58t150.5 76q-1 70 -8 129t-23 110.5t-44.5 81
t-67.5 29.5q-150 0 -84 -159q21 -49 25 -91.5t-5.5 -72t-29 -52.5t-43.5 -35.5t-52 -17.5q-33 -4 -66.5 -4t-64.5 12t-54 31.5t-36.5 55t-11.5 81.5q3 74 41 128t101.5 84t136 43.5t155.5 13.5q60 0 114 -3.5t122 -15t124 -31t111.5 -54t94 -80t62 -114t23.5 -151.5v-344z
M733 238v424q-77 -34 -127.5 -103t-64.5 -144.5t-9 -147.5t33 -121t68 -56q41 -6 70.5 38t29.5 110zM788 1300h179q0 -80 -61 -134.5t-173 -55.5q-113 1 -173 55.5t-60 134.5h176q0 -176 57 -176q55 0 55 176z" />
    <glyph glyph-name="Aogonek" unicode="&#x104;" horiz-adv-x="1748" 
d="M1618 0q-23 -15 -31.5 -57t-1 -87.5t27.5 -87.5t55 -58t81 3q-60 -63 -146.5 -82.5t-154.5 15.5t-78 114q-6 50 13.5 94.5t55.5 73.5t77 47.5t81 24.5h-669q2 4 5.5 11.5t10 33t7.5 54t-7.5 74t-28.5 93.5q-77 172 -88 197h-413q-19 -168 35 -292t172 -171h-621
q113 98 208.5 239.5t190.5 366.5q59 139 143.5 346t139.5 344l55 138h226q489 -945 606 -1168q51 -100 96 -166.5t65 -83.5l19 -16h-131zM418 492h397l-231 497q-31 -67 -109 -276q-46 -123 -57 -221z" />
    <glyph glyph-name="aogonek" unicode="&#x105;" horiz-adv-x="1398" 
d="M1204 0q-22 -16 -30.5 -58t-1 -88t27.5 -87.5t55 -57.5t82 2q-61 -62 -148 -81.5t-155 15t-78 113.5q-6 50 13.5 94.5t55 74t76.5 48.5t81 25h-277q-84 0 -122 32.5t-50 108.5q-27 -53 -90 -92.5t-139 -57t-158.5 -13.5t-150 28.5t-111 78.5t-43.5 128q0 76 32 133
t82.5 91t124 65.5t145 53.5t158 58t150.5 76q-1 70 -8 129t-23 110.5t-44.5 81t-67.5 29.5q-148 0 -84 -159q37 -84 24.5 -142t-46.5 -88.5t-81 -38.5q-34 -5 -67.5 -5t-64.5 12t-54.5 31.5t-37 54.5t-11.5 81q3 74 41 129t101.5 84.5t136 43.5t155.5 14q653 0 653 -449
v-344q0 -59 8.5 -108t20.5 -76.5t24 -47t20 -26.5l9 -6h-133zM633 90q41 -6 70.5 37.5t29.5 110.5v424q-77 -34 -127.5 -103t-64.5 -144.5t-9 -147.5t33 -121t68 -56z" />
    <glyph glyph-name="Cacute" unicode="&#x106;" horiz-adv-x="1601" 
d="M1513 408h27q-96 -210 -285 -320.5t-438 -110.5q-101 0 -205 28.5t-203 89.5t-176.5 146.5t-124.5 209t-47 266.5q0 153 46 278t124.5 209.5t187 142t229.5 83.5t255 26q116 0 297 -45q57 -14 102 -14t68 10t37.5 22.5t18.5 22.5l4 10l43 -567q-3 11 -10 30.5t-31.5 75.5
t-53 107t-75.5 113t-99 107t-123 75.5t-147 30.5q-70 0 -128 -41.5t-94.5 -112t-59.5 -163t-22.5 -194.5t17.5 -206q25 -131 82.5 -228.5t132 -150t163 -74.5t175.5 -10t169 51.5t144 102.5zM1075 1882q37 -45 32.5 -94.5t-42.5 -85.5q-52 -50 -139 -90.5t-148 -55.5
l-61 -16q2 9 7 25t22 61.5t36 86t49.5 88t63.5 79.5q37 36 87 38.5t93 -36.5z" />
    <glyph glyph-name="cacute" unicode="&#x107;" 
d="M1186 293h20q-71 -152 -217 -233t-336 -83q-98 0 -188 21t-167.5 65t-134.5 107t-89.5 152t-32.5 194q0 112 36 203.5t97 153.5t144 104t174.5 61t191.5 19q80 0 215 -33q74 -16 120.5 -8t67.5 26l21 19l37 -486q-3 10 -9.5 26.5t-28 65t-46 93t-63 98t-79.5 92.5
t-94.5 65.5t-109.5 26.5q-63 0 -109 -47.5t-66.5 -123t-20.5 -169.5t24 -186q27 -102 85 -176.5t130 -109t149.5 -41t151 21t127.5 82.5zM899 1473q38 -45 32.5 -95t-42.5 -86q-52 -50 -139 -90.5t-148 -55.5l-61 -16q2 9 7 25t22 61.5t36 86t49.5 88t63.5 79.5q38 36 87 39
t93 -36z" />
    <glyph glyph-name="Ccircumflex" unicode="&#x108;" horiz-adv-x="1601" 
d="M1513 408h27q-96 -210 -285 -320.5t-438 -110.5q-101 0 -205 28.5t-203 89.5t-176.5 146.5t-124.5 209t-47 266.5q0 153 46 278t124.5 209.5t187 142t229.5 83.5t255 26q116 0 297 -45q57 -14 102 -14t68 10t37.5 22.5t18.5 22.5l4 10l43 -567q-3 11 -10 30.5t-31.5 75.5
t-53 107t-75.5 113t-99 107t-123 75.5t-147 30.5q-70 0 -128 -41.5t-94.5 -112t-59.5 -163t-22.5 -194.5t17.5 -206q25 -131 82.5 -228.5t132 -150t163 -74.5t175.5 -10t169 51.5t144 102.5zM883 1890l338 -350l-338 111l-340 -111z" />
    <glyph glyph-name="ccircumflex" unicode="&#x109;" 
d="M1186 293h20q-71 -152 -217 -233t-336 -83q-98 0 -188 21t-167.5 65t-134.5 107t-89.5 152t-32.5 194q0 112 36 203.5t97 153.5t144 104t174.5 61t191.5 19q80 0 215 -33q74 -16 120.5 -8t67.5 26l21 19l37 -486q-3 10 -9.5 26.5t-28 65t-46 93t-63 98t-79.5 92.5
t-94.5 65.5t-109.5 26.5q-63 0 -109 -47.5t-66.5 -123t-20.5 -169.5t24 -186q27 -102 85 -176.5t130 -109t149.5 -41t151 21t127.5 82.5zM686 1481l338 -351l-338 111l-340 -111z" />
    <glyph glyph-name="Cdotaccent" unicode="&#x10a;" horiz-adv-x="1601" 
d="M1513 408h27q-96 -210 -285 -320.5t-438 -110.5q-101 0 -205 28.5t-203 89.5t-176.5 146.5t-124.5 209t-47 266.5q0 153 46 278t124.5 209.5t187 142t229.5 83.5t255 26q116 0 297 -45q57 -14 102 -14t68 10t37.5 22.5t18.5 22.5l4 10l43 -567q-3 11 -10 30.5t-31.5 75.5
t-53 107t-75.5 113t-99 107t-123 75.5t-147 30.5q-70 0 -128 -41.5t-94.5 -112t-59.5 -163t-22.5 -194.5t17.5 -206q25 -131 82.5 -228.5t132 -150t163 -74.5t175.5 -10t169 51.5t144 102.5zM903 1855q69 0 118.5 -49t49.5 -118t-49.5 -118.5t-118.5 -49.5t-118.5 49.5
t-49.5 118.5t49.5 118t118.5 49z" />
    <glyph glyph-name="cdotaccent" unicode="&#x10b;" 
d="M1186 293h20q-71 -152 -217 -233t-336 -83q-98 0 -188 21t-167.5 65t-134.5 107t-89.5 152t-32.5 194q0 112 36 203.5t97 153.5t144 104t174.5 61t191.5 19q80 0 215 -33q74 -16 120.5 -8t67.5 26l21 19l37 -486q-3 10 -9.5 26.5t-28 65t-46 93t-63 98t-79.5 92.5
t-94.5 65.5t-109.5 26.5q-63 0 -109 -47.5t-66.5 -123t-20.5 -169.5t24 -186q27 -102 85 -176.5t130 -109t149.5 -41t151 21t127.5 82.5zM666 1446q69 0 118.5 -49.5t49.5 -118.5t-49.5 -118.5t-118.5 -49.5t-118.5 49.5t-49.5 118.5t49.5 118.5t118.5 49.5z" />
    <glyph glyph-name="Ccaron" unicode="&#x10c;" horiz-adv-x="1601" 
d="M1513 408h27q-96 -210 -285 -320.5t-438 -110.5q-101 0 -205 28.5t-203 89.5t-176.5 146.5t-124.5 209t-47 266.5q0 153 46 278t124.5 209.5t187 142t229.5 83.5t255 26q116 0 297 -45q57 -14 102 -14t68 10t37.5 22.5t18.5 22.5l4 10l43 -567q-3 11 -10 30.5t-31.5 75.5
t-53 107t-75.5 113t-99 107t-123 75.5t-147 30.5q-70 0 -128 -41.5t-94.5 -112t-59.5 -163t-22.5 -194.5t17.5 -206q25 -131 82.5 -228.5t132 -150t163 -74.5t175.5 -10t169 51.5t144 102.5zM901 1780l340 110l-340 -350l-338 350z" />
    <glyph glyph-name="ccaron" unicode="&#x10d;" 
d="M1186 293h20q-71 -152 -217 -233t-336 -83q-98 0 -188 21t-167.5 65t-134.5 107t-89.5 152t-32.5 194q0 112 36 203.5t97 153.5t144 104t174.5 61t191.5 19q80 0 215 -33q74 -16 120.5 -8t67.5 26l21 19l37 -486q-3 10 -9.5 26.5t-28 65t-46 93t-63 98t-79.5 92.5
t-94.5 65.5t-109.5 26.5q-63 0 -109 -47.5t-66.5 -123t-20.5 -169.5t24 -186q27 -102 85 -176.5t130 -109t149.5 -41t151 21t127.5 82.5zM664 1370l340 111l-340 -351l-338 351z" />
    <glyph glyph-name="Dcaron" unicode="&#x10e;" horiz-adv-x="1722" 
d="M846 1434q166 0 302.5 -38t230.5 -104t158.5 -157.5t94 -196t29.5 -221.5t-29.5 -221.5t-94 -196t-158.5 -157.5t-230.5 -104t-302.5 -38h-764q3 2 8.5 7t20 25.5t25 47.5t19.5 76t9 108v903q0 59 -8.5 108.5t-20.5 77.5t-24 47.5t-21 26.5l-8 7h764zM739 27
q101 0 176.5 53.5t119 150t64.5 218t21 268.5t-21 267.5t-64.5 217t-119 150t-176.5 53.5v-1378zM739 1780l340 110l-340 -350l-338 350z" />
    <glyph glyph-name="dcaron" unicode="&#x10f;" horiz-adv-x="1869" 
d="M1327 264q0 -59 8.5 -108t20.5 -76.5t24 -47t20 -26.5l9 -6h-430q-75 0 -113 26.5t-53 84.5q-103 -134 -276 -134q-104 0 -192.5 34t-157 99t-107.5 170t-39 238t39 237.5t108 169.5t157.5 98.5t191.5 33.5q190 0 270 -125v340q0 59 -8.5 108t-20.5 77t-24 47.5t-20 26.5
l-9 7h602v-1274zM807 557v301q0 48 -23.5 82.5t-52.5 28.5q-66 -15 -107.5 -145.5t-41.5 -305.5q0 -115 12 -212.5t40.5 -168t70.5 -78.5q50 -10 102 80v418zM1595 1296q88 0 150.5 -62.5t62.5 -150.5q0 -126 -89.5 -249t-241.5 -205l-17 24q198 99 287 281
q-64 -64 -152 -64q-89 0 -151 62t-62 151q0 88 62 150.5t151 62.5z" />
    <glyph glyph-name="Dcroat" unicode="&#x110;" horiz-adv-x="1722" 
d="M846 1434q166 0 302 -38t230 -104t158.5 -157t94.5 -196t30 -222t-30 -222t-94.5 -196t-158.5 -157t-230 -104t-302 -38h-764q3 2 8.5 7t20 26t25 47.5t19.5 75.5t9 108v438h-82v27h82v438q0 59 -8.5 108.5t-20.5 77.5t-24 47.5t-21 26.5l-8 7h764zM739 27
q101 0 176.5 53.5t119 150t64.5 218t21 268.5t-21 267.5t-64.5 217t-119 150t-176.5 53.5v-676h201v-27h-201v-675z" />
    <glyph glyph-name="dcroat" unicode="&#x111;" horiz-adv-x="1470" 
d="M1409 1274h-82v-1010q0 -59 8.5 -107.5t20.5 -76t24 -47t20 -26.5l9 -7h-430q-75 0 -113 26.5t-53 84.5q-103 -134 -276 -134q-103 0 -191.5 33.5t-157.5 98.5t-108 170t-39 239t39 239t108 170t157.5 98.5t191.5 33.5q187 0 270 -125v340h-254v26h254q-2 53 -11.5 96.5
t-21 68.5t-23 42.5t-19.5 24.5l-7 6h602v-238h82v-26zM807 557v301q0 49 -23.5 83t-52.5 28q-66 -13 -107.5 -144t-41.5 -307q0 -181 30.5 -313.5t92.5 -145.5q52 -8 102 82v416z" />
    <glyph glyph-name="Emacron" unicode="&#x112;" horiz-adv-x="1445" 
d="M836 27q66 0 124.5 17.5t102.5 47t81.5 68t63.5 81t47 85t33 81t20.5 68t11.5 47.5l3 17v-539h-1241q3 2 8.5 7t20 25.5t25 47.5t19.5 76t9 108v903q0 59 -8.5 108.5t-20.5 77.5t-24 47.5t-21 26.5l-8 7h1214v-539q-2 11 -5.5 29t-19.5 71t-37.5 101.5t-61 107t-87.5 101
t-120 71.5t-156 29h-70v-676q79 10 144 34t106 55t72 66t46.5 68.5t24.5 60.5t11 43l2 17v-713q0 6 -1.5 17t-11.5 43t-25 62t-46 68t-72 68t-106 54.5t-144 34.5v-680h97zM270 1651h885v-29h-885v29z" />
    <glyph glyph-name="emacron" unicode="&#x113;" 
d="M1186 293h20q-69 -152 -215.5 -233t-335.5 -83q-98 0 -188 21.5t-168 65.5t-135.5 107.5t-90 152.5t-32.5 194q1 91 22.5 170t69 147.5t117.5 117.5t172.5 76.5t228.5 27.5q128 0 224.5 -28t156.5 -75.5t97.5 -118t52.5 -146.5t16 -171h-659q20 -85 64.5 -151
t100.5 -104.5t122 -57.5t130 -14.5t124.5 30.5t105.5 72zM641 1042q-57 0 -93.5 -63.5t-42 -173.5t26.5 -260h236q12 81 10 169t-13.5 161t-43.5 120t-80 47zM182 1241h885v-29h-885v29z" />
    <glyph glyph-name="Ebreve" unicode="&#x114;" horiz-adv-x="1445" 
d="M836 27q66 0 124.5 17.5t102.5 47t81.5 68t63.5 81t47 85t33 81t20.5 68t11.5 47.5l3 17v-539h-1241q3 2 8.5 7t20 25.5t25 47.5t19.5 76t9 108v903q0 59 -8.5 108.5t-20.5 77.5t-24 47.5t-21 26.5l-8 7h1214v-539q-2 11 -5.5 29t-19.5 71t-37.5 101.5t-61 107t-87.5 101
t-120 71.5t-156 29h-70v-676q79 10 144 34t106 55t72 66t46.5 68.5t24.5 60.5t11 43l2 17v-713q0 6 -1.5 17t-11.5 43t-25 62t-46 68t-72 68t-106 54.5t-144 34.5v-680h97zM795 1710h178q0 -80 -61 -134.5t-173 -55.5q-113 1 -173 55.5t-60 134.5h176q0 -176 57 -176
q56 0 56 176z" />
    <glyph glyph-name="ebreve" unicode="&#x115;" 
d="M1186 293h20q-69 -152 -215.5 -233t-335.5 -83q-98 0 -188 21.5t-168 65.5t-135.5 107.5t-90 152.5t-32.5 194q1 91 22.5 170t69 147.5t117.5 117.5t172.5 76.5t228.5 27.5q128 0 224.5 -28t156.5 -75.5t97.5 -118t52.5 -146.5t16 -171h-659q20 -85 64.5 -151
t100.5 -104.5t122 -57.5t130 -14.5t124.5 30.5t105.5 72zM641 1042q-57 0 -93.5 -63.5t-42 -173.5t26.5 -260h236q12 81 10 169t-13.5 161t-43.5 120t-80 47zM680 1300h178q0 -80 -60.5 -134.5t-172.5 -55.5q-113 1 -173.5 55.5t-60.5 134.5h176q0 -176 58 -176q55 0 55 176
z" />
    <glyph glyph-name="Edotaccent" unicode="&#x116;" horiz-adv-x="1445" 
d="M836 27q66 0 124.5 17.5t102.5 47t81.5 68t63.5 81t47 85t33 81t20.5 68t11.5 47.5l3 17v-539h-1241q3 2 8.5 7t20 25.5t25 47.5t19.5 76t9 108v903q0 59 -8.5 108.5t-20.5 77.5t-24 47.5t-21 26.5l-8 7h1214v-539q-2 11 -5.5 29t-19.5 71t-37.5 101.5t-61 107t-87.5 101
t-120 71.5t-156 29h-70v-676q79 10 144 34t106 55t72 66t46.5 68.5t24.5 60.5t11 43l2 17v-713q0 6 -1.5 17t-11.5 43t-25 62t-46 68t-72 68t-106 54.5t-144 34.5v-680h97zM739 1855q69 0 118.5 -49t49.5 -118t-49.5 -118.5t-118.5 -49.5t-118.5 49.5t-49.5 118.5t49.5 118
t118.5 49z" />
    <glyph glyph-name="edotaccent" unicode="&#x117;" 
d="M1186 293h20q-69 -152 -215.5 -233t-335.5 -83q-98 0 -188 21.5t-168 65.5t-135.5 107.5t-90 152.5t-32.5 194q1 91 22.5 170t69 147.5t117.5 117.5t172.5 76.5t228.5 27.5q128 0 224.5 -28t156.5 -75.5t97.5 -118t52.5 -146.5t16 -171h-659q20 -85 64.5 -151
t100.5 -104.5t122 -57.5t130 -14.5t124.5 30.5t105.5 72zM641 1042q-57 0 -93.5 -63.5t-42 -173.5t26.5 -260h236q12 81 10 169t-13.5 161t-43.5 120t-80 47zM625 1446q69 0 118.5 -49.5t49.5 -118.5t-49.5 -118.5t-118.5 -49.5t-118.5 49.5t-49.5 118.5t49.5 118.5
t118.5 49.5z" />
    <glyph glyph-name="Eogonek" unicode="&#x118;" horiz-adv-x="1445" 
d="M1190 0q-22 -16 -30.5 -58t-1 -88t27.5 -87.5t55 -57.5t82 2q-60 -62 -147 -81.5t-155.5 15t-78.5 113.5q-6 50 13.5 94.5t55.5 74t77.5 48.5t82.5 25h-1089q3 2 8.5 7t20 26t25 47.5t19.5 75.5t9 108v903q0 59 -8.5 108.5t-20.5 77.5t-24 47.5t-21 26.5l-8 7h1214v-539
q-2 11 -5.5 29t-19.5 71t-37.5 101.5t-61 107t-87.5 101t-120 71.5t-156 29h-70v-676q79 10 143.5 34t105.5 55t72 66t46.5 68.5t25 60.5t11.5 43l2 17v-713q0 6 -2 17t-11.5 43t-24.5 62t-46.5 68t-72.5 68t-105.5 54.5t-143.5 34.5v-680h97q66 0 124.5 17.5t102.5 47
t81.5 68t63.5 81t47 85t33 81t20.5 68t11.5 47.5l3 17v-539h-133z" />
    <glyph glyph-name="eogonek" unicode="&#x119;" horiz-adv-x="1245" 
d="M1204 291q-60 -132 -181 -211t-280 -98q-15 -24 -18 -66t7 -84t31 -78t54 -48t76 5q-61 -62 -148 -81.5t-155 15t-78 113.5q-8 62 25 110.5t83 74t115 39.5q-67 -5 -82 -5q-98 0 -188 21t-167.5 65.5t-134.5 107.5t-89.5 152t-32.5 195q1 115 36 210t106 170t190 117
t276 42q128 0 224.5 -28t157 -75.5t98 -118t52 -146.5t15.5 -171h-659q20 -85 64.5 -151t100.5 -104.5t122.5 -57.5t131 -15t125 30t105.5 71h18zM641 1040q-58 0 -94 -63t-41.5 -173t24.5 -259h238q12 81 10 168t-14 160t-44 120t-79 47z" />
    <glyph glyph-name="Ecaron" unicode="&#x11a;" horiz-adv-x="1445" 
d="M836 27q66 0 124.5 17.5t102.5 47t81.5 68t63.5 81t47 85t33 81t20.5 68t11.5 47.5l3 17v-539h-1241q3 2 8.5 7t20 25.5t25 47.5t19.5 76t9 108v903q0 59 -8.5 108.5t-20.5 77.5t-24 47.5t-21 26.5l-8 7h1214v-539q-2 11 -5.5 29t-19.5 71t-37.5 101.5t-61 107t-87.5 101
t-120 71.5t-156 29h-70v-676q79 10 144 34t106 55t72 66t46.5 68.5t24.5 60.5t11 43l2 17v-713q0 6 -1.5 17t-11.5 43t-25 62t-46 68t-72 68t-106 54.5t-144 34.5v-680h97zM739 1780l340 110l-340 -350l-338 350z" />
    <glyph glyph-name="ecaron" unicode="&#x11b;" 
d="M1186 293h20q-69 -152 -215.5 -233t-335.5 -83q-98 0 -188 21.5t-168 65.5t-135.5 107.5t-90 152.5t-32.5 194q1 91 22.5 170t69 147.5t117.5 117.5t172.5 76.5t228.5 27.5q128 0 224.5 -28t156.5 -75.5t97.5 -118t52.5 -146.5t16 -171h-659q20 -85 64.5 -151
t100.5 -104.5t122 -57.5t130 -14.5t124.5 30.5t105.5 72zM641 1042q-57 0 -93.5 -63.5t-42 -173.5t26.5 -260h236q12 81 10 169t-13.5 161t-43.5 120t-80 47zM623 1370l340 111l-340 -351l-338 351z" />
    <glyph glyph-name="Gcircumflex" unicode="&#x11c;" horiz-adv-x="1722" 
d="M1030 672h631q-3 -3 -8.5 -10t-20 -33t-25 -56.5t-19.5 -82.5t-9 -111v-399q-4 2 -11.5 6t-31.5 14.5t-50 19.5t-64 18t-76 14t-84.5 3.5t-90.5 -10.5q-43 -9 -138 -38.5t-152 -29.5q-189 0 -344.5 58t-258 159t-159 235t-58.5 288q2 153 58.5 287.5t159.5 235
t258.5 158.5t343.5 58q116 0 297 -45q57 -14 109 -14t85 10t58 22.5t36 22.5l11 10l43 -567q-4 11 -10.5 30.5t-33 76t-57 108t-83 114t-111.5 107.5t-141.5 76t-172.5 31q-49 0 -89 -24t-66.5 -62.5t-46.5 -98t-31 -119t-17 -137t-8 -140t-2 -140.5q2 -87 6 -160.5t13 -161
t26 -154.5t41 -125t60.5 -89t83.5 -31q44 0 79.5 14t59.5 35.5t41.5 55t27 66.5t15 75.5t7 75.5t1.5 73q0 49 -8.5 96t-20.5 79t-24 57t-21 37zM903 1890l338 -350l-338 111l-340 -111z" />
    <glyph glyph-name="gcircumflex" unicode="&#x11d;" horiz-adv-x="1259" 
d="M1147 1022q-52 0 -91.5 16.5t-59.5 41t-34.5 53t-21 52t-13 38.5t-15.5 13t-25 -26q-31 -44 -76 -174q176 -42 274.5 -155.5t100.5 -264.5q-2 -191 -153.5 -316.5t-409.5 -125.5q-235 0 -383 107q-8 -44 16 -86q35 -66 157 -94t335 -31q145 -1 246 -29t154.5 -78.5
t73.5 -114t11 -143.5q-10 -93 -66.5 -162t-145 -107.5t-188.5 -56.5t-212 -18q-82 0 -150.5 2.5t-150 9.5t-142.5 21.5t-113.5 36t-79 55.5t-24.5 78q3 47 39 75.5t87 37.5t118 6q-105 66 -151.5 189t-4.5 239q43 116 174 180q-161 127 -164 325q2 189 154 315t410 126
q84 0 174 -17l20 62q92 260 252 287q53 8 101.5 -2.5t87 -42.5t53.5 -82q28 -92 -23 -166t-141 -74zM602 -416q-224 12 -373 84q-30 -41 -26 -81.5t43.5 -78.5t95.5 -67t129.5 -46.5t146.5 -17.5q102 0 171.5 10t103 28t46.5 37.5t11 43.5q-2 45 -49 61q-42 14 -216 23
q-61 3 -83 4zM623 190q27 0 48 18t34 53t22.5 73t14 91.5t7 95t3.5 95.5q-1 53 -3.5 94.5t-7 94.5t-14 91.5t-22.5 73t-34 52.5t-48 18t-48.5 -18t-34.5 -53t-22 -72.5t-14 -91.5t-7 -94t-3 -95q1 -55 3 -95.5t7 -94.5t14 -92t22 -73t34.5 -53t48.5 -18zM600 1481l338 -351
l-338 111l-340 -111z" />
    <glyph glyph-name="Gbreve" unicode="&#x11e;" horiz-adv-x="1722" 
d="M1030 672h631q-3 -3 -8.5 -10t-20 -33t-25 -56.5t-19.5 -82.5t-9 -111v-399q-4 2 -11.5 6t-31.5 14.5t-50 19.5t-64 18t-76 14t-84.5 3.5t-90.5 -10.5q-43 -9 -138 -38.5t-152 -29.5q-189 0 -344.5 58t-258 159t-159 235t-58.5 288q2 153 58.5 287.5t159.5 235
t258.5 158.5t343.5 58q116 0 297 -45q57 -14 109 -14t85 10t58 22.5t36 22.5l11 10l43 -567q-4 11 -10.5 30.5t-33 76t-57 108t-83 114t-111.5 107.5t-141.5 76t-172.5 31q-49 0 -89 -24t-66.5 -62.5t-46.5 -98t-31 -119t-17 -137t-8 -140t-2 -140.5q2 -87 6 -160.5t13 -161
t26 -154.5t41 -125t60.5 -89t83.5 -31q44 0 79.5 14t59.5 35.5t41.5 55t27 66.5t15 75.5t7 75.5t1.5 73q0 49 -8.5 96t-20.5 79t-24 57t-21 37zM956 1710h179q0 -80 -61 -134.5t-173 -55.5q-113 1 -173 55.5t-60 134.5h176q0 -176 57 -176q55 0 55 176z" />
    <glyph glyph-name="gbreve" unicode="&#x11f;" horiz-adv-x="1259" 
d="M1147 1022q-52 0 -91.5 16.5t-59.5 41t-34.5 53t-21 52t-13 38.5t-15.5 13t-25 -26q-31 -44 -76 -174q176 -42 274.5 -155.5t100.5 -264.5q-2 -191 -153.5 -316.5t-409.5 -125.5q-235 0 -383 107q-8 -44 16 -86q35 -66 157 -94t335 -31q145 -1 246 -29t154.5 -78.5
t73.5 -114t11 -143.5q-10 -93 -66.5 -162t-145 -107.5t-188.5 -56.5t-212 -18q-82 0 -150.5 2.5t-150 9.5t-142.5 21.5t-113.5 36t-79 55.5t-24.5 78q3 47 39 75.5t87 37.5t118 6q-105 66 -151.5 189t-4.5 239q43 116 174 180q-161 127 -164 325q2 189 154 315t410 126
q84 0 174 -17l20 62q92 260 252 287q53 8 101.5 -2.5t87 -42.5t53.5 -82q28 -92 -23 -166t-141 -74zM602 -416q-224 12 -373 84q-30 -41 -26 -81.5t43.5 -78.5t95.5 -67t129.5 -46.5t146.5 -17.5q102 0 171.5 10t103 28t46.5 37.5t11 43.5q-2 45 -49 61q-42 14 -216 23
q-61 3 -83 4zM623 190q27 0 48 18t34 53t22.5 73t14 91.5t7 95t3.5 95.5q-1 53 -3.5 94.5t-7 94.5t-14 91.5t-22.5 73t-34 52.5t-48 18t-48.5 -18t-34.5 -53t-22 -72.5t-14 -91.5t-7 -94t-3 -95q1 -55 3 -95.5t7 -94.5t14 -92t22 -73t34.5 -53t48.5 -18zM676 1300h178
q0 -80 -60.5 -134.5t-172.5 -55.5q-113 1 -173.5 55.5t-60.5 134.5h176q0 -176 58 -176q55 0 55 176z" />
    <glyph glyph-name="Gdotaccent" unicode="&#x120;" horiz-adv-x="1722" 
d="M1030 672h631q-3 -3 -8.5 -10t-20 -33t-25 -56.5t-19.5 -82.5t-9 -111v-399q-4 2 -11.5 6t-31.5 14.5t-50 19.5t-64 18t-76 14t-84.5 3.5t-90.5 -10.5q-43 -9 -138 -38.5t-152 -29.5q-189 0 -344.5 58t-258 159t-159 235t-58.5 288q2 153 58.5 287.5t159.5 235
t258.5 158.5t343.5 58q116 0 297 -45q57 -14 109 -14t85 10t58 22.5t36 22.5l11 10l43 -567q-4 11 -10.5 30.5t-33 76t-57 108t-83 114t-111.5 107.5t-141.5 76t-172.5 31q-49 0 -89 -24t-66.5 -62.5t-46.5 -98t-31 -119t-17 -137t-8 -140t-2 -140.5q2 -87 6 -160.5t13 -161
t26 -154.5t41 -125t60.5 -89t83.5 -31q44 0 79.5 14t59.5 35.5t41.5 55t27 66.5t15 75.5t7 75.5t1.5 73q0 49 -8.5 96t-20.5 79t-24 57t-21 37zM903 1855q69 0 118.5 -49t49.5 -118t-49.5 -118.5t-118.5 -49.5t-118.5 49.5t-49.5 118.5t49.5 118t118.5 49z" />
    <glyph glyph-name="gdotaccent" unicode="&#x121;" horiz-adv-x="1259" 
d="M1147 1022q-52 0 -91.5 16.5t-59.5 41t-34.5 53t-21 52t-13 38.5t-15.5 13t-25 -26q-31 -44 -76 -174q176 -42 274.5 -155.5t100.5 -264.5q-2 -191 -153.5 -316.5t-409.5 -125.5q-235 0 -383 107q-8 -44 16 -86q35 -66 157 -94t335 -31q145 -1 246 -29t154.5 -78.5
t73.5 -114t11 -143.5q-10 -93 -66.5 -162t-145 -107.5t-188.5 -56.5t-212 -18q-82 0 -150.5 2.5t-150 9.5t-142.5 21.5t-113.5 36t-79 55.5t-24.5 78q3 47 39 75.5t87 37.5t118 6q-105 66 -151.5 189t-4.5 239q43 116 174 180q-161 127 -164 325q2 189 154 315t410 126
q84 0 174 -17l20 62q92 260 252 287q53 8 101.5 -2.5t87 -42.5t53.5 -82q28 -92 -23 -166t-141 -74zM602 -416q-224 12 -373 84q-30 -41 -26 -81.5t43.5 -78.5t95.5 -67t129.5 -46.5t146.5 -17.5q102 0 171.5 10t103 28t46.5 37.5t11 43.5q-2 45 -49 61q-42 14 -216 23
q-61 3 -83 4zM623 190q27 0 48 18t34 53t22.5 73t14 91.5t7 95t3.5 95.5q-1 53 -3.5 94.5t-7 94.5t-14 91.5t-22.5 73t-34 52.5t-48 18t-48.5 -18t-34.5 -53t-22 -72.5t-14 -91.5t-7 -94t-3 -95q1 -55 3 -95.5t7 -94.5t14 -92t22 -73t34.5 -53t48.5 -18zM641 1446
q69 0 118.5 -49.5t49.5 -118.5t-49.5 -118.5t-118.5 -49.5t-118.5 49.5t-49.5 118.5t49.5 118.5t118.5 49.5z" />
    <glyph glyph-name="Gcommaaccent" unicode="&#x122;" horiz-adv-x="1722" 
d="M1030 672h631q-3 -3 -8.5 -10t-20 -33t-25 -56.5t-19.5 -82.5t-9 -111v-399q-4 2 -11.5 6t-31.5 14.5t-50 19.5t-64 18t-76 14t-84.5 3.5t-90.5 -10.5q-43 -9 -138 -38.5t-152 -29.5q-189 0 -344.5 58t-258 159t-159 235t-58.5 288q2 153 58.5 287.5t159.5 235
t258.5 158.5t343.5 58q116 0 297 -45q57 -14 109 -14t85 10t58 22.5t36 22.5l11 10l43 -567q-4 11 -10.5 30.5t-33 76t-57 108t-83 114t-111.5 107.5t-141.5 76t-172.5 31q-49 0 -89 -24t-66.5 -62.5t-46.5 -98t-31 -119t-17 -137t-8 -140t-2 -140.5q2 -87 6 -160.5t13 -161
t26 -154.5t41 -125t60.5 -89t83.5 -31q44 0 79.5 14t59.5 35.5t41.5 55t27 66.5t15 75.5t7 75.5t1.5 73q0 49 -8.5 96t-20.5 79t-24 57t-21 37zM918 -137q70 0 121 -50.5t51 -121.5q0 -103 -72.5 -202.5t-196.5 -166.5l-12 19q162 84 229 229q-45 -51 -120 -51
q-72 0 -122.5 50.5t-50.5 121.5t50.5 121.5t122.5 50.5z" />
    <glyph glyph-name="gcommaaccent" unicode="&#x123;" horiz-adv-x="1259" 
d="M1147 1022q-52 0 -91.5 16.5t-59.5 41t-34.5 53t-21 52t-13 38.5t-15.5 13t-25 -26q-31 -44 -76 -174q176 -42 274.5 -155.5t100.5 -264.5q-2 -191 -153.5 -316.5t-409.5 -125.5q-235 0 -383 107q-8 -44 16 -86q35 -66 157 -94t335 -31q145 -1 246 -29t154.5 -78.5
t73.5 -114t11 -143.5q-10 -93 -66.5 -162t-145 -107.5t-188.5 -56.5t-212 -18q-82 0 -150.5 2.5t-150 9.5t-142.5 21.5t-113.5 36t-79 55.5t-24.5 78q3 47 39 75.5t87 37.5t118 6q-105 66 -151.5 189t-4.5 239q43 116 174 180q-161 127 -164 325q2 189 154 315t410 126
q84 0 174 -17l20 62q92 260 252 287q53 8 101.5 -2.5t87 -42.5t53.5 -82q28 -92 -23 -166t-141 -74zM602 -416q-224 12 -373 84q-30 -41 -26 -81.5t43.5 -78.5t95.5 -67t129.5 -46.5t146.5 -17.5q102 0 171.5 10t103 28t46.5 37.5t11 43.5q-2 45 -49 61q-42 14 -216 23
q-61 3 -83 4zM623 190q27 0 48 18t34 53t22.5 73t14 91.5t7 95t3.5 95.5q-1 53 -3.5 94.5t-7 94.5t-14 91.5t-22.5 73t-34 52.5t-48 18t-48.5 -18t-34.5 -53t-22 -72.5t-14 -91.5t-7 -94t-3 -95q1 -55 3 -95.5t7 -94.5t14 -92t22 -73t34.5 -53t48.5 -18zM639 1516
q88 0 150.5 -62t62.5 -151q0 -88 -62.5 -149.5t-150.5 -61.5t-150.5 61.5t-62.5 149.5q0 126 89.5 249.5t242.5 206.5l14 -26q-194 -96 -285 -281q64 64 152 64z" />
    <glyph glyph-name="Hcircumflex" unicode="&#x124;" horiz-adv-x="1744" 
d="M1581 264q0 -59 8.5 -108t20.5 -76.5t24 -47t20 -26.5l9 -6h-739q3 2 8.5 7t20 25.5t25 47.5t19.5 76t9 108v438h-267v-438q0 -59 8.5 -108t20.5 -76.5t24 -47t20 -26.5l9 -6h-739q3 2 8.5 7t20 25.5t25 47.5t19.5 76t9 108v903q0 59 -8.5 108.5t-20.5 77.5t-24 47.5
t-21 26.5l-8 7h739q-3 -2 -8.5 -7t-20 -26t-25 -48.5t-19.5 -77t-9 -108.5v-438h267v438q0 59 -8.5 108.5t-20.5 77.5t-24 47.5t-21 26.5l-8 7h739q-3 -2 -8.5 -7t-20 -26t-25 -48.5t-19.5 -77t-9 -108.5v-903zM872 1890l338 -350l-338 111l-340 -111z" />
    <glyph glyph-name="hcircumflex" unicode="&#x125;" horiz-adv-x="1533" 
d="M788 0q3 2 8.5 7t20 26t25 47.5t19.5 75.5t9 108v410q0 56 -3 96.5t-12.5 86.5t-32 71t-56.5 26q-44 2 -79.5 -49.5t-35.5 -124.5v-516q0 -59 8.5 -107.5t20.5 -76t24 -47t20 -26.5l9 -7h-684q3 2 8.5 7t20 26t25 47.5t19.5 75.5t9 108v1010q0 59 -8.5 107.5t-20.5 76
t-24 47t-20 26.5l-9 7h602v-645q80 164 326 164q106 0 187 -31t129.5 -86t73 -127t24.5 -158v-391q0 -59 8.5 -107.5t20.5 -76t24 -47t20 -26.5l9 -7h-685zM360 1952l338 -350l-338 110l-340 -110z" />
    <glyph glyph-name="Hbar" unicode="&#x126;" horiz-adv-x="1744" 
d="M1663 1022h-92v-758q0 -59 8.5 -107.5t20.5 -76t24 -47t20 -26.5l9 -7h-740q3 2 8.5 7t20 26t25 47.5t19.5 75.5t9 108v438h-245v-438q0 -59 8.5 -107.5t20 -76t23.5 -47t20 -26.5l9 -7h-739q3 2 8.5 7t20 26t25 47.5t19.5 75.5t9 108v758h-92v29h92v116q0 59 -8.5 108.5
t-20.5 77.5t-24 47.5t-21 26.5l-8 7h739q-3 -2 -8.5 -7t-19.5 -26t-24.5 -48.5t-19.5 -77t-9 -108.5v-116h245v116q0 59 -8.5 108.5t-20.5 77.5t-24 47.5t-20 26.5l-9 7h740q-3 -2 -8.5 -7t-20 -26t-25 -48.5t-19.5 -77t-9 -108.5v-116h92v-29zM995 729v293h-245v-293h245z
" />
    <glyph glyph-name="hbar" unicode="&#x127;" horiz-adv-x="1546" 
d="M801 0q3 2 8.5 7t20 26t25 48t19.5 76.5t9 108.5v408q0 56 -3 97.5t-13 87.5t-32.5 71t-56.5 26q-44 0 -79 -51t-35 -125v-514q0 -59 8.5 -108t20 -77t23.5 -47.5t20 -26.5l9 -7h-684q3 2 8.5 7t20 26t25 48t19.5 76.5t9 108.5v1004v4h-82v26h82q-2 52 -11.5 95t-21 67.5
t-23 41.5t-19.5 24l-7 6h603v-234h256v-26h-256v-379q81 164 325 164q208 0 311 -111.5t103 -292.5v-389q0 -59 8.5 -108t20.5 -77t24 -47.5t20 -26.5l9 -7h-684z" />
    <glyph glyph-name="Itilde" unicode="&#x128;" horiz-adv-x="913" 
d="M743 264q0 -59 8.5 -108t20.5 -76.5t24 -47t20 -26.5l9 -6h-739q3 2 8.5 7t20 25.5t25 47.5t19.5 76t9 108v903q0 59 -8.5 108.5t-20.5 77.5t-24 47.5t-21 26.5l-8 7h739q-3 -2 -8.5 -7t-20 -26t-25 -48.5t-19.5 -77t-9 -108.5v-903zM838 1812q0 -21 -3.5 -47.5
t-16.5 -64.5t-33.5 -69.5t-58.5 -56.5t-87 -32q-39 -5 -89.5 5t-79.5 20.5t-86.5 36t-64.5 28.5q-156 62 -243 -28q15 99 76 170.5t139 80.5q63 8 126.5 -10t125 -46.5t92.5 -35.5q62 -14 118 -1.5t85 50.5z" />
    <glyph glyph-name="itilde" unicode="&#x129;" horiz-adv-x="802" 
d="M662 264q0 -59 8.5 -107.5t20 -76t23.5 -47t20 -26.5l9 -7h-684q3 2 8.5 7t20 26t25 47.5t19.5 75.5t9 108v504q0 59 -8.5 107.5t-20.5 76t-24 47t-20 26.5l-9 7h684q-3 -2 -8.5 -7t-19.5 -26t-24.5 -47.5t-19.5 -75.5t-9 -108v-504zM782 1403q0 -21 -3.5 -47.5
t-16.5 -64.5t-33 -69.5t-58 -56.5t-87 -32q-39 -5 -89.5 5t-79.5 20.5t-86.5 36t-64.5 28.5q-156 62 -244 -29q15 99 76.5 171t139.5 81q63 8 126.5 -10t125 -46.5t92.5 -35.5q62 -14 117.5 -1.5t84.5 50.5z" />
    <glyph glyph-name="Imacron" unicode="&#x12a;" horiz-adv-x="917" 
d="M745 264q0 -59 8.5 -108t20.5 -76.5t24 -47t20 -26.5l9 -6h-739q3 2 8.5 7t20 25.5t25 47.5t19.5 76t9 108v903q0 59 -8.5 108.5t-20.5 77.5t-24 47.5t-21 26.5l-8 7h739q-3 -2 -8.5 -7t-20 -26t-25 -48.5t-19.5 -77t-9 -108.5v-903zM16 1651h885v-29h-885v29z" />
    <glyph glyph-name="imacron" unicode="&#x12b;" horiz-adv-x="802" 
d="M662 264q0 -59 8.5 -107.5t20 -76t23.5 -47t20 -26.5l9 -7h-684q3 2 8.5 7t20 26t25 47.5t19.5 75.5t9 108v504q0 59 -8.5 107.5t-20.5 76t-24 47t-20 26.5l-9 7h684q-3 -2 -8.5 -7t-19.5 -26t-24.5 -47.5t-19.5 -75.5t-9 -108v-504zM-41 1241h885v-29h-885v29z" />
    <glyph glyph-name="Ibreve" unicode="&#x12c;" horiz-adv-x="903" 
d="M739 264q0 -59 8.5 -108t20.5 -76.5t24 -47t20 -26.5l9 -6h-739q3 2 8.5 7t20 25.5t25 47.5t19.5 76t9 108v903q0 59 -8.5 108.5t-20.5 77.5t-24 47.5t-21 26.5l-8 7h739q-3 -2 -8.5 -7t-20 -26t-25 -48.5t-19.5 -77t-9 -108.5v-903zM508 1710h178q0 -80 -60.5 -134.5
t-172.5 -55.5q-113 1 -173.5 55.5t-60.5 134.5h176q0 -176 58 -176q55 0 55 176z" />
    <glyph glyph-name="ibreve" unicode="&#x12d;" horiz-adv-x="806" 
d="M664 264q0 -59 8.5 -107.5t20 -76t23.5 -47t20 -26.5l9 -7h-684q3 2 8.5 7t20 26t25 47.5t19.5 75.5t9 108v504q0 59 -8.5 107.5t-20.5 76t-24 47t-20 26.5l-9 7h684q-3 -2 -8.5 -7t-19.5 -26t-24.5 -47.5t-19.5 -75.5t-9 -108v-504zM459 1300h178q0 -80 -61 -134.5
t-173 -55.5q-113 1 -173 55.5t-60 134.5h176q0 -176 57 -176q56 0 56 176z" />
    <glyph glyph-name="Iogonek" unicode="&#x12e;" horiz-adv-x="903" 
d="M688 0q-22 -16 -30.5 -58t-1 -88t27.5 -87.5t55 -57.5t82 2q-61 -62 -148 -81.5t-155 15t-78 113.5q-6 50 13.5 94.5t56 74t78 48.5t82.5 25h-588q3 2 8.5 7t20 26t25 47.5t19.5 75.5t9 108v903q0 59 -8.5 108.5t-20.5 77.5t-24 47.5t-21 26.5l-8 7h739q-3 -2 -8.5 -7
t-20 -26t-25 -48.5t-19.5 -77t-9 -108.5v-903q0 -59 8.5 -107.5t20.5 -76t24 -47t20 -26.5l9 -7h-133z" />
    <glyph glyph-name="iogonek" unicode="&#x12f;" horiz-adv-x="806" 
d="M403 1085q-114 0 -194 72.5t-80 175.5t80 176.5t194 73.5t194.5 -73.5t80.5 -176.5t-80.5 -175.5t-194.5 -72.5zM614 0q-28 -20 -33.5 -78t10.5 -114t57.5 -89t96.5 -8q-60 -62 -146 -81.5t-154.5 15t-79.5 113.5q-6 50 13.5 94.5t55.5 74t77.5 48.5t82.5 25h-533
q3 2 8.5 7t20 26t25 47.5t19.5 75.5t9 108v502q0 59 -8.5 108t-20.5 77t-24 47.5t-20 26.5l-9 7h684q-3 -2 -8.5 -7t-19.5 -26t-24.5 -48t-19.5 -76.5t-9 -108.5v-502q0 -59 8.5 -107.5t20 -76t23.5 -47t20 -26.5l9 -7h-131z" />
    <glyph glyph-name="Idotaccent" unicode="&#x130;" horiz-adv-x="903" 
d="M739 264q0 -59 8.5 -108t20.5 -76.5t24 -47t20 -26.5l9 -6h-739q3 2 8.5 7t20 25.5t25 47.5t19.5 76t9 108v903q0 59 -8.5 108.5t-20.5 77.5t-24 47.5t-21 26.5l-8 7h739q-3 -2 -8.5 -7t-20 -26t-25 -48.5t-19.5 -77t-9 -108.5v-903zM453 1855q69 0 118.5 -49t49.5 -118
t-49.5 -118.5t-118.5 -49.5t-118.5 49.5t-49.5 118.5t49.5 118t118.5 49z" />
    <glyph glyph-name="dotlessi" unicode="&#x131;" horiz-adv-x="806" 
d="M664 264q0 -59 8.5 -107.5t20 -76t23.5 -47t20 -26.5l9 -7h-684q3 2 8.5 7t20 26t25 47.5t19.5 75.5t9 108v504q0 59 -8.5 107.5t-20.5 76t-24 47t-20 26.5l-9 7h684q-3 -2 -8.5 -7t-19.5 -26t-24.5 -47.5t-19.5 -75.5t-9 -108v-504z" />
    <glyph glyph-name="IJ" unicode="&#x132;" horiz-adv-x="1781" 
d="M739 264q0 -59 8.5 -108t20.5 -76.5t24 -47t20 -26.5l9 -6h-739q3 2 8.5 7t20 25.5t25 47.5t19.5 76t9 108v903q0 59 -8.5 108.5t-20.5 77.5t-24 47.5t-21 26.5l-8 7h739q-3 -2 -8.5 -7t-20 -26t-25 -48.5t-19.5 -77t-9 -108.5v-903zM936 1434h784q-3 -2 -8.5 -7t-20 -26
t-25 -48t-19.5 -76t-9 -108v-727q0 -111 -24 -201.5t-63.5 -152.5t-98.5 -108.5t-120 -73.5t-136.5 -43t-140.5 -21.5t-140 -5.5q-10 0 -30 1t-29 1v23q66 -3 113.5 61.5t70.5 174t23 249.5v823q0 59 -13 107.5t-31.5 76.5t-37.5 47.5t-32 26.5z" />
    <glyph glyph-name="ij" unicode="&#x133;" horiz-adv-x="1591" 
d="M664 264q0 -59 8.5 -107.5t20 -76t23.5 -47t20 -26.5l9 -7h-684q3 2 8.5 7t20 26t25 47.5t19.5 75.5t9 108v504q0 59 -8.5 107.5t-20.5 76t-24 47t-20 26.5l-9 7h684q-3 -2 -8.5 -7t-19.5 -26t-24.5 -47.5t-19.5 -75.5t-9 -108v-504zM403 1085q-114 0 -194 73t-80 177
q0 103 80 175.5t194 72.5t193.5 -72.5t79.5 -175.5q0 -104 -79.5 -177t-193.5 -73zM846 1032h684q-3 -2 -8.5 -7t-20 -26t-25 -48t-19.5 -76.5t-9 -108.5v-959q0 -101 -19.5 -182.5t-52 -137.5t-82 -97.5t-100.5 -66t-116.5 -39t-122 -19t-124.5 -4.5q-44 0 -67 2v22
q81 -1 122.5 116.5t41.5 317.5v1047q0 59 -8.5 108t-20.5 77t-24 47.5t-21 26.5zM1188 1085q-114 0 -193.5 72.5t-79.5 175.5t79.5 176.5t193.5 73.5t194 -73.5t80 -176.5t-80 -175.5t-194 -72.5z" />
    <glyph glyph-name="Jcircumflex" unicode="&#x134;" horiz-adv-x="884" 
d="M39 1434h784q-3 -2 -8.5 -7t-20 -26t-25 -48t-19.5 -76t-9 -108v-727q0 -111 -24 -201.5t-63.5 -152.5t-98.5 -108.5t-120 -73.5t-136.5 -43t-140.5 -21.5t-140 -5.5q-10 0 -30 1t-29 1v23q66 -3 113.5 61.5t70.5 174t23 249.5v823q0 59 -13 107.5t-32 76.5t-37.5 47.5
t-31.5 26.5zM440 1890l338 -350l-338 111l-340 -111z" />
    <glyph glyph-name="jcircumflex" unicode="&#x135;" horiz-adv-x="796" 
d="M51 1032h684q-3 -2 -8.5 -7t-20 -26t-25 -48t-19.5 -76.5t-9 -108.5v-959q0 -101 -19.5 -182.5t-52 -137.5t-81.5 -97.5t-100.5 -66t-116.5 -39t-121.5 -19t-124.5 -4.5q-45 0 -68 2v22q81 -1 122.5 116.5t41.5 317.5v1047q0 59 -8.5 108t-20.5 77t-24 47.5t-20 26.5z
M393 1481l338 -351l-338 111l-340 -111z" />
    <glyph glyph-name="Kcommaaccent" unicode="&#x136;" horiz-adv-x="1771" 
d="M1536 264q27 -54 59.5 -101t59 -75.5t49 -49.5t34.5 -30l13 -8h-758q2 2 5 7.5t7.5 26.5t2.5 48t-16.5 76t-41.5 106l-186 391l-25 -26v-365q0 -59 8.5 -108t20.5 -76.5t24 -47t20 -26.5l9 -6h-739q3 2 8.5 7t20 25.5t25 47.5t19.5 76t9 108v903q0 59 -8.5 108.5
t-20.5 77.5t-24 47.5t-21 26.5l-8 7h739q-3 -2 -8.5 -7t-20 -26t-25 -48.5t-19.5 -77t-9 -108.5v-508q242 266 346 379q40 43 48.5 104.5t-10 118.5t-59.5 105.5t-93 67.5h622q-143 -71 -249 -156t-216 -211zM915 -137q71 0 121.5 -50.5t50.5 -121.5q0 -103 -72 -202.5
t-196 -166.5l-12 19q162 84 229 229q-45 -51 -121 -51q-72 0 -122 50.5t-50 121.5t50 121.5t122 50.5z" />
    <glyph glyph-name="kcommaaccent" unicode="&#x137;" horiz-adv-x="1490" 
d="M1272 264q47 -86 96.5 -152t75.5 -89l26 -23h-659q2 2 4.5 7.5t6 26.5t1 48t-17 76t-41.5 106l-92 193l-8 -11v-182q0 -59 8.5 -107.5t20 -76t23.5 -47t20 -26.5l9 -7h-684q3 2 8.5 7t20 26t25 47.5t19.5 75.5t9 108v1008q0 59 -8.5 108t-20.5 77t-24 47.5t-20 26.5l-9 7
h684q-3 -2 -8.5 -7t-19.5 -26t-24.5 -48t-19.5 -76.5t-9 -108.5v-795l223 244q107 121 108.5 195t-106.5 116h528q-329 -78 -440 -231zM766 -137q70 0 121 -50.5t51 -121.5q0 -103 -72 -202.5t-196 -166.5l-13 19q163 85 230 229q-45 -51 -121 -51q-72 0 -122 50.5
t-50 121.5t50 121.5t122 50.5z" />
    <glyph glyph-name="kgreenlandic" unicode="&#x138;" horiz-adv-x="1490" 
d="M1272 264q47 -86 96.5 -152t75.5 -89l26 -23h-659q2 2 4.5 7.5t6 26.5t1 48t-17 76t-41.5 106l-92 193l-8 -11v-182q0 -59 8.5 -107.5t20 -76t23.5 -47t20 -26.5l9 -7h-684q3 2 8.5 7t20 26t25 47.5t19.5 75.5t9 108v508q0 59 -8.5 107.5t-20.5 75.5t-24 45.5t-20 25.5
l-9 6h684q-3 -2 -8.5 -6.5t-19.5 -24.5t-24.5 -46t-19.5 -75t-9 -108v-295l223 244q107 121 108.5 195t-106.5 116h528q-329 -78 -440 -231z" />
    <glyph glyph-name="Lacute" unicode="&#x139;" horiz-adv-x="1312" 
d="M762 27q84 0 156.5 28t121 73.5t87.5 100t61.5 109t37.5 100t20 73.5l5 28v-539h-1169q3 2 8.5 7t20 25.5t25 47.5t19.5 76t9 108v903q0 59 -8.5 108.5t-20.5 77.5t-24 47.5t-21 26.5l-8 7h739q-3 -2 -8.5 -7t-20 -26t-25 -48.5t-19.5 -77t-9 -108.5v-1140h23zM696 1882
q37 -45 32.5 -94.5t-42.5 -85.5q-52 -50 -139 -90.5t-148 -55.5l-61 -16q2 9 7 25t22 61.5t36 86t49.5 88t63.5 79.5q37 36 87 38.5t93 -36.5z" />
    <glyph glyph-name="lacute" unicode="&#x13a;" horiz-adv-x="806" 
d="M664 264q0 -59 8.5 -107.5t20 -76t23.5 -47t20 -26.5l9 -7h-684q3 2 8.5 7t20 26t25 47.5t19.5 75.5t9 108v1008q0 59 -8.5 108t-20.5 77t-24 47.5t-20 26.5l-9 7h684q-3 -2 -8.5 -7t-19.5 -26t-24.5 -48t-19.5 -76.5t-9 -108.5v-1008zM557 1974q37 -45 32.5 -94.5
t-42.5 -85.5q-52 -50 -139 -90.5t-148 -55.5l-61 -16q2 9 7 25t22 61.5t36 86t49.5 88t63.5 79.5q37 36 87 38.5t93 -36.5z" />
    <glyph glyph-name="Lcommaaccent" unicode="&#x13b;" horiz-adv-x="1312" 
d="M762 27q84 0 156.5 28t121 73.5t87.5 100t61.5 109t37.5 100t20 73.5l5 28v-539h-1169q3 2 8.5 7t20 25.5t25 47.5t19.5 76t9 108v903q0 59 -8.5 108.5t-20.5 77.5t-24 47.5t-21 26.5l-8 7h739q-3 -2 -8.5 -7t-20 -26t-25 -48.5t-19.5 -77t-9 -108.5v-1140h23zM666 -137
q70 0 121 -50.5t51 -121.5q0 -103 -72.5 -202.5t-196.5 -166.5l-12 19q162 84 229 229q-45 -51 -120 -51q-72 0 -122 50.5t-50 121.5t50 121.5t122 50.5z" />
    <glyph glyph-name="lcommaaccent" unicode="&#x13c;" horiz-adv-x="806" 
d="M664 264q0 -59 8.5 -107.5t20 -76t23.5 -47t20 -26.5l9 -7h-684q3 2 8.5 7t20 26t25 47.5t19.5 75.5t9 108v1008q0 59 -8.5 108t-20.5 77t-24 47.5t-20 26.5l-9 7h684q-3 -2 -8.5 -7t-19.5 -26t-24.5 -48t-19.5 -76.5t-9 -108.5v-1008zM403 -137q71 0 121.5 -50.5
t50.5 -121.5q0 -103 -72 -202.5t-196 -166.5l-12 19q162 84 229 229q-45 -51 -121 -51q-72 0 -122 50.5t-50 121.5t50 121.5t122 50.5z" />
    <glyph glyph-name="Lcaron" unicode="&#x13d;" horiz-adv-x="1316" 
d="M762 27q84 0 156.5 28t121 73.5t87.5 100t61.5 109t37.5 100t20 73.5l5 28v-539h-1169q3 2 8.5 7t20 25.5t25 47.5t19.5 76t9 108v903q0 59 -8.5 108.5t-20.5 77.5t-24 47.5t-21 26.5l-8 7h739q-3 -2 -8.5 -7t-20 -26t-25 -48.5t-19.5 -77t-9 -108.5v-1140h23zM1133 1184
q88 0 150.5 -62.5t62.5 -150.5q0 -126 -90 -249.5t-242 -205.5l-17 25q198 99 287 280q-63 -63 -151 -63q-89 0 -151 62t-62 151q0 88 62 150.5t151 62.5z" />
    <glyph glyph-name="lcaron" unicode="&#x13e;" horiz-adv-x="1234" 
d="M664 264q0 -59 8.5 -107.5t20 -76t23.5 -47t20 -26.5l9 -7h-684q3 2 8.5 7t20 26t25 47.5t19.5 75.5t9 108v1008q0 59 -8.5 108t-20.5 77t-24 47.5t-20 26.5l-9 7h684q-3 -2 -8.5 -7t-19.5 -26t-24.5 -48t-19.5 -76.5t-9 -108.5v-1008zM981 1296q88 0 150.5 -62.5
t62.5 -150.5q0 -126 -90 -249t-242 -205l-16 24q198 99 287 281q-64 -64 -152 -64q-89 0 -151 62t-62 151q0 88 62 150.5t151 62.5z" />
    <glyph glyph-name="Ldot" unicode="&#x13f;" horiz-adv-x="1316" 
d="M762 27q84 0 156.5 28t121 73.5t87.5 100t61.5 109t37.5 100t20 73.5l5 28v-539h-1169q3 2 8.5 7t20 25.5t25 47.5t19.5 76t9 108v903q0 59 -8.5 108.5t-20.5 77.5t-24 47.5t-21 26.5l-8 7h739q-3 -2 -8.5 -7t-20 -26t-25 -48.5t-19.5 -77t-9 -108.5v-1140h23zM1063 1053
q88 0 150.5 -62.5t62.5 -150.5q0 -89 -62.5 -151t-150.5 -62q-89 0 -151 62t-62 151q0 88 62 150.5t151 62.5z" />
    <glyph glyph-name="ldot" unicode="&#x140;" horiz-adv-x="1234" 
d="M664 264q0 -59 8.5 -107.5t20 -76t23.5 -47t20 -26.5l9 -7h-684q3 2 8.5 7t20 26t25 47.5t19.5 75.5t9 108v1008q0 59 -8.5 108t-20.5 77t-24 47.5t-20 26.5l-9 7h684q-3 -2 -8.5 -7t-19.5 -26t-24.5 -48t-19.5 -76.5t-9 -108.5v-1008zM981 887q88 0 150.5 -62.5
t62.5 -150.5q0 -89 -62.5 -151t-150.5 -62q-89 0 -151 62t-62 151q0 88 62 150.5t151 62.5z" />
    <glyph glyph-name="Lslash" unicode="&#x141;" horiz-adv-x="1302" 
d="M754 27q66 0 124.5 17.5t102.5 47t81.5 68t63.5 81t47 85t33 81t20.5 68t11.5 47.5l3 17v-539h-1167q3 2 8.5 7t20 25.5t25 47.5t19.5 76t9 108v187l-105 -37l-10 26l115 39v688q0 59 -8.5 108.5t-20.5 77.5t-24 47.5t-21 26.5l-8 7h739q-3 -2 -8.5 -7t-20 -26t-25 -48.5
t-19.5 -77t-9 -108.5v-489l193 65l8 -24l-201 -70v-622h23z" />
    <glyph glyph-name="lslash" unicode="&#x142;" horiz-adv-x="806" 
d="M664 266q0 -59 8.5 -108t20 -77t23.5 -47.5t20 -26.5l9 -7h-684q3 2 8.5 7t20 26t25 48t19.5 76.5t9 108.5v211l-176 -61l-8 26l184 64v768q0 59 -8.5 107.5t-20.5 76t-24 47t-20 26.5l-9 7h684q-3 -2 -8.5 -7t-19.5 -26t-24.5 -47.5t-19.5 -75.5t-9 -108v-588l176 59
l8 -24l-184 -66v-389z" />
    <glyph glyph-name="Nacute" unicode="&#x143;" horiz-adv-x="1665" 
d="M1065 1434h621q-159 -61 -228 -181.5t-69 -312.5v-940h-338l-736 1075v-581q0 -192 69.5 -312.5t229.5 -181.5h-620q161 62 229 178.5t68 315.5v616l-150 221q-40 55 -68.5 74t-92.5 29h862q-1 -2 -2 -6.5t1 -23.5t10 -43t31 -68t58 -97l424 -594v338q0 192 -69.5 312.5
t-229.5 181.5zM1202 1882q37 -45 32.5 -94.5t-42.5 -85.5q-52 -50 -139 -90.5t-148 -55.5l-61 -16q2 9 7 25t22 61.5t36 86t49.5 88t63.5 79.5q37 36 87 38.5t93 -36.5z" />
    <glyph glyph-name="nacute" unicode="&#x144;" horiz-adv-x="1546" 
d="M799 0q3 2 8.5 7t20 26t25 47.5t19.5 75.5t9 108v410q0 56 -3 96t-12.5 86.5t-32 71.5t-57.5 26q-43 2 -77.5 -49.5t-34.5 -124.5v-516q0 -59 8.5 -107.5t20 -76t23.5 -47t20 -26.5l9 -7h-684q3 2 8.5 7t20 26t25 47.5t19.5 75.5t9 108v502q0 59 -8.5 108t-20.5 77
t-24 47.5t-20 26.5l-9 7h547l56 -139q79 164 325 164q105 0 185.5 -31t129.5 -86t73 -127t24 -158v-391q0 -59 8.5 -107.5t21 -76t25 -47t20.5 -26.5l9 -7h-686zM1032 1473q38 -45 32.5 -95t-42.5 -86q-52 -50 -139 -90.5t-148 -55.5l-61 -16q2 9 7 25t22 61.5t36 86
t49.5 88t63.5 79.5q38 36 87 39t93 -36z" />
    <glyph glyph-name="Ncommaaccent" unicode="&#x145;" horiz-adv-x="1665" 
d="M1065 1434h621q-159 -61 -228 -181.5t-69 -312.5v-940h-338l-736 1075v-581q0 -192 69.5 -312.5t229.5 -181.5h-620q161 62 229 178.5t68 315.5v616l-150 221q-40 55 -68.5 74t-92.5 29h862q-1 -2 -2 -6.5t1 -23.5t10 -43t31 -68t58 -97l424 -594v338q0 192 -69.5 312.5
t-229.5 181.5zM831 -137q71 0 122 -51t51 -121q0 -103 -72.5 -202.5t-196.5 -166.5l-12 19q162 84 229 229q-45 -51 -121 -51q-72 0 -122 50.5t-50 121.5t50 121.5t122 50.5z" />
    <glyph glyph-name="ncommaaccent" unicode="&#x146;" horiz-adv-x="1546" 
d="M799 0q3 2 8.5 7t20 26t25 47.5t19.5 75.5t9 108v410q0 56 -3 96t-12.5 86.5t-32 71.5t-57.5 26q-43 2 -77.5 -49.5t-34.5 -124.5v-516q0 -59 8.5 -107.5t20 -76t23.5 -47t20 -26.5l9 -7h-684q3 2 8.5 7t20 26t25 47.5t19.5 75.5t9 108v502q0 59 -8.5 108t-20.5 77
t-24 47.5t-20 26.5l-9 7h547l56 -139q79 164 325 164q105 0 185.5 -31t129.5 -86t73 -127t24 -158v-391q0 -59 8.5 -107.5t21 -76t25 -47t20.5 -26.5l9 -7h-686zM772 -137q70 0 121 -50.5t51 -121.5q0 -103 -72 -202.5t-196 -166.5l-12 19q162 84 229 229q-45 -51 -121 -51
q-72 0 -122 50.5t-50 121.5t50 121.5t122 50.5z" />
    <glyph glyph-name="Ncaron" unicode="&#x147;" horiz-adv-x="1665" 
d="M1065 1434h621q-159 -61 -228 -181.5t-69 -312.5v-940h-338l-736 1075v-581q0 -192 69.5 -312.5t229.5 -181.5h-620q161 62 229 178.5t68 315.5v616l-150 221q-40 55 -68.5 74t-92.5 29h862q-1 -2 -2 -6.5t1 -23.5t10 -43t31 -68t58 -97l424 -594v338q0 192 -69.5 312.5
t-229.5 181.5zM840 1780l340 110l-340 -350l-338 350z" />
    <glyph glyph-name="ncaron" unicode="&#x148;" horiz-adv-x="1546" 
d="M799 0q3 2 8.5 7t20 26t25 47.5t19.5 75.5t9 108v410q0 56 -3 96t-12.5 86.5t-32 71.5t-57.5 26q-43 2 -77.5 -49.5t-34.5 -124.5v-516q0 -59 8.5 -107.5t20 -76t23.5 -47t20 -26.5l9 -7h-684q3 2 8.5 7t20 26t25 47.5t19.5 75.5t9 108v502q0 59 -8.5 108t-20.5 77
t-24 47.5t-20 26.5l-9 7h547l56 -139q79 164 325 164q105 0 185.5 -31t129.5 -86t73 -127t24 -158v-391q0 -59 8.5 -107.5t21 -76t25 -47t20.5 -26.5l9 -7h-686zM772 1370l340 111l-340 -351l-338 351z" />
    <glyph glyph-name="napostrophe" unicode="&#x149;" horiz-adv-x="1869" 
d="M1122 0q3 2 8.5 7t20 26t25 47.5t19.5 75.5t9 108v410q0 57 -3 96.5t-12 86t-31.5 71.5t-57.5 26q-43 2 -78 -49.5t-35 -124.5v-516q0 -59 8.5 -107.5t20.5 -76t24 -47t20 -26.5l9 -7h-684q3 2 8.5 7t20 26t25 47.5t19.5 75.5t9 108v502q0 59 -8.5 108t-20.5 77t-24 47.5
t-20 26.5l-9 7h547l55 -139q79 164 326 164q105 0 185.5 -31t129 -86t72.5 -127t24 -158v-391q0 -59 8.5 -107.5t21 -76t25 -47t21.5 -26.5l8 -7h-686zM172 1044q70 0 121 -51t51 -121q0 -103 -72 -202t-196 -166l-13 18q163 85 230 230q-46 -52 -121 -52q-72 0 -122 50.5
t-50 121.5t50 121.5t122 50.5z" />
    <glyph glyph-name="Eng" unicode="&#x14a;" horiz-adv-x="1667" 
d="M1067 1434h621q-160 -62 -229.5 -180.5t-69.5 -313.5v-940v-129q-13 -289 -160 -356q-66 -34 -146 -18.5t-120 75.5q-36 52 -36.5 110t33 103.5t89.5 62.5q53 16 92.5 11.5t68.5 -21t49.5 -40t34.5 -43.5t24 -32.5t18 -8t16 31.5q11 34 14.5 119.5t-0.5 134.5h-313
l-738 1075v-583q0 -190 70 -310.5t229 -181.5h-620q161 62 230 178t69 314v618l-152 221q-38 54 -67.5 73.5t-93.5 29.5h862q-1 -2 -2 -6.5t1.5 -23.5t11 -43t31.5 -68t58 -97l424 -594v338q0 191 -70 312t-229 182z" />
    <glyph glyph-name="eng" unicode="&#x14b;" horiz-adv-x="1525" 
d="M1403 655v-655l-2 -127q-13 -289 -158 -358q-68 -34 -147 -18t-121 77q-35 56 -35.5 111t33 101.5t90.5 63.5q52 16 91.5 11t68.5 -21.5t49 -39.5t34.5 -43.5t24.5 -33t18.5 -7.5t16.5 32q10 34 13 119t-1 133h-579q3 2 9 7t20.5 26t25.5 48t20 76.5t9 108.5v408
q0 56 -3 97.5t-13 87.5t-32.5 71t-56.5 26q-44 0 -79 -51t-35 -125v-514q0 -59 8.5 -108t20 -77t23.5 -47.5t20 -26.5l9 -7h-684q3 2 8.5 7t20 26t25 48t19.5 76.5t9 108.5v502q0 59 -8.5 107.5t-20.5 76t-24 47t-20 26.5l-9 7h547l56 -137q79 164 325 164q208 0 311 -111.5
t103 -292.5z" />
    <glyph glyph-name="Omacron" unicode="&#x14c;" horiz-adv-x="1798" 
d="M899 1456q188 -1 346 -59t264.5 -158t166.5 -234.5t61 -287.5q-1 -153 -61 -287.5t-166.5 -234.5t-264.5 -158.5t-346 -59.5q-188 1 -346.5 59.5t-265 158.5t-166 234.5t-60.5 287.5q1 153 60.5 287.5t166 234.5t265 158t346.5 59zM899 -4q69 0 121 64t80 171.5t41.5 229
t13.5 256.5q0 134 -13.5 255.5t-41.5 229.5t-80 172t-121 64t-121 -64t-81 -171.5t-42.5 -229.5t-13.5 -256q0 -135 13.5 -257t42.5 -229t81 -171t121 -64zM457 1651h884v-29h-884v29z" />
    <glyph glyph-name="omacron" unicode="&#x14d;" horiz-adv-x="1411" 
d="M707 1057q158 0 285 -42.5t208.5 -116t125 -171.5t44.5 -211q-1 -112 -44.5 -209.5t-125 -171t-208.5 -116t-285 -42.5q-159 0 -286.5 42.5t-209.5 116t-125.5 171t-44.5 209.5q1 113 44.5 211t125.5 171.5t209.5 116t286.5 42.5zM707 -6q25 0 45.5 12.5t35 39t25 54
t17.5 73.5t11.5 80t7 89.5t3.5 86.5t2 87q-1 56 -2 87.5t-3.5 87.5t-7 90t-11.5 79.5t-17.5 73.5t-25 54.5t-35 39t-45.5 12.5t-46 -12.5t-35.5 -39t-26 -54.5t-18.5 -73t-11.5 -80t-7 -90t-3.5 -87.5t-2 -87.5q1 -54 2 -86.5t3.5 -87t7 -89.5t11.5 -80t18.5 -73t26 -54.5
t35.5 -39t46 -12.5zM264 1241h885v-29h-885v29z" />
    <glyph glyph-name="Obreve" unicode="&#x14e;" horiz-adv-x="1798" 
d="M899 1456q188 -1 346 -59t264.5 -158t166.5 -234.5t61 -287.5q-1 -153 -61 -287.5t-166.5 -234.5t-264.5 -158.5t-346 -59.5q-188 1 -346.5 59.5t-265 158.5t-166 234.5t-60.5 287.5q1 153 60.5 287.5t166 234.5t265 158t346.5 59zM899 -4q69 0 121 64t80 171.5t41.5 229
t13.5 256.5q0 134 -13.5 255.5t-41.5 229.5t-80 172t-121 64t-121 -64t-81 -171.5t-42.5 -229.5t-13.5 -256q0 -135 13.5 -257t42.5 -229t81 -171t121 -64zM954 1710h179q0 -80 -61 -134.5t-173 -55.5q-113 1 -173 55.5t-60 134.5h176q0 -176 57 -176q55 0 55 176z" />
    <glyph glyph-name="obreve" unicode="&#x14f;" horiz-adv-x="1411" 
d="M707 1057q158 0 285 -42.5t208.5 -116t125 -171.5t44.5 -211q-1 -112 -44.5 -209.5t-125 -171t-208.5 -116t-285 -42.5q-159 0 -286.5 42.5t-209.5 116t-125.5 171t-44.5 209.5q1 113 44.5 211t125.5 171.5t209.5 116t286.5 42.5zM707 -6q25 0 45.5 12.5t35 39t25 54
t17.5 73.5t11.5 80t7 89.5t3.5 86.5t2 87q-1 56 -2 87.5t-3.5 87.5t-7 90t-11.5 79.5t-17.5 73.5t-25 54.5t-35 39t-45.5 12.5t-46 -12.5t-35.5 -39t-26 -54.5t-18.5 -73t-11.5 -80t-7 -90t-3.5 -87.5t-2 -87.5q1 -54 2 -86.5t3.5 -87t7 -89.5t11.5 -80t18.5 -73t26 -54.5
t35.5 -39t46 -12.5zM762 1300h178q0 -80 -60.5 -134.5t-172.5 -55.5q-113 1 -173.5 55.5t-60.5 134.5h176q0 -176 58 -176q55 0 55 176z" />
    <glyph glyph-name="Ohungarumlaut" unicode="&#x150;" horiz-adv-x="1798" 
d="M899 1456q188 -1 346 -59t264.5 -158t166.5 -234.5t61 -287.5q-1 -153 -61 -287.5t-166.5 -234.5t-264.5 -158.5t-346 -59.5q-188 1 -346.5 59.5t-265 158.5t-166 234.5t-60.5 287.5q1 153 60.5 287.5t166 234.5t265 158t346.5 59zM899 -4q69 0 121 64t80 171.5t41.5 229
t13.5 256.5q0 134 -13.5 255.5t-41.5 229.5t-80 172t-121 64t-121 -64t-81 -171.5t-42.5 -229.5t-13.5 -256q0 -135 13.5 -257t42.5 -229t81 -171t121 -64zM1034 1882q26 -27 32 -61.5t-5.5 -65t-34.5 -53.5q-53 -50 -140 -90.5t-148 -55.5l-60 -16q2 9 7 25t21.5 61.5
t35 86t49 88t63.5 79.5q37 36 87.5 38.5t92.5 -36.5zM1397 1882q37 -45 32 -94.5t-43 -85.5q-52 -50 -139 -90.5t-148 -55.5l-61 -16q3 9 7.5 25t21.5 61.5t36.5 86t50 88t63.5 79.5q37 36 87 38.5t93 -36.5z" />
    <glyph glyph-name="ohungarumlaut" unicode="&#x151;" horiz-adv-x="1411" 
d="M707 1057q158 0 285 -42.5t208.5 -116t125 -171.5t44.5 -211q-1 -112 -44.5 -209.5t-125 -171t-208.5 -116t-285 -42.5q-159 0 -286.5 42.5t-209.5 116t-125.5 171t-44.5 209.5q1 113 44.5 211t125.5 171.5t209.5 116t286.5 42.5zM707 -6q25 0 45.5 12.5t35 39t25 54
t17.5 73.5t11.5 80t7 89.5t3.5 86.5t2 87q-1 56 -2 87.5t-3.5 87.5t-7 90t-11.5 79.5t-17.5 73.5t-25 54.5t-35 39t-45.5 12.5t-46 -12.5t-35.5 -39t-26 -54.5t-18.5 -73t-11.5 -80t-7 -90t-3.5 -87.5t-2 -87.5q1 -54 2 -86.5t3.5 -87t7 -89.5t11.5 -80t18.5 -73t26 -54.5
t35.5 -39t46 -12.5zM825 1473q26 -27 32 -62t-5.5 -65.5t-34.5 -53.5q-53 -50 -140 -90.5t-147 -55.5l-61 -16q2 9 7 25t21.5 61.5t35 86t49 88t63.5 79.5q38 36 88 39t92 -36zM1188 1473q38 -45 32.5 -95t-42.5 -86q-52 -50 -139.5 -90.5t-148.5 -55.5l-61 -16q3 9 7.5 25
t21.5 61.5t36.5 86t50 88t63.5 79.5q38 36 87 39t93 -36z" />
    <glyph glyph-name="OE" unicode="&#x152;" horiz-adv-x="2254" 
d="M1645 27q66 0 124.5 17.5t102.5 47t81.5 68t63.5 81t47 85t33 81t20.5 68t11.5 47.5l3 17v-539h-1159q-191 0 -359 52t-290 144.5t-192.5 227.5t-70.5 293q0 210 120.5 374t328 253t463.5 90h1132v-539q-2 11 -5.5 29t-19.5 71t-37.5 101.5t-61 107t-87.5 101t-120 71.5
t-156 29h-70v-676q79 10 144 34t106 55t72 66t46.5 68.5t24.5 60.5t11 43l2 17v-713q0 6 -1.5 17t-11.5 43t-25 62t-46 68t-72 68t-106 54.5t-144 34.5v-680h97zM973 16v1399q-93 0 -170.5 -105t-119.5 -264.5t-42 -328.5q0 -170 42 -330.5t119.5 -265.5t170.5 -105z" />
    <glyph glyph-name="oe" unicode="&#x153;" horiz-adv-x="2093" 
d="M2032 293h20q-69 -152 -215 -233t-336 -83q-220 0 -381 103q-173 -103 -415 -103q-158 0 -285 42.5t-209 116.5t-125.5 172t-44.5 210q1 113 44.5 211t125.5 171.5t209 116t285 42.5q241 0 405 -96q148 96 387 96q128 0 224.5 -28t157 -75.5t98 -118.5t52 -147.5
t15.5 -171.5h-285h-147h-228q30 -125 111 -207.5t177 -107t194.5 -2t165.5 91.5zM1489 1042q-58 0 -94 -63t-41.5 -173.5t24.5 -260.5h238q12 81 9.5 169t-14.5 161t-43.5 120t-78.5 47zM705 -6q25 0 46 12.5t35.5 39t25.5 54.5t18 73.5t11.5 79.5t7 90t3.5 87.5t2 87.5
q-1 56 -2 87.5t-3.5 87.5t-7 90t-11.5 79.5t-18 73.5t-25.5 54.5t-35.5 39t-46 12.5t-45.5 -12.5t-35 -39t-25.5 -54.5t-18 -73t-11.5 -80t-7 -90t-3.5 -87.5t-2 -87.5q1 -55 2 -87.5t3.5 -87.5t7 -90t11.5 -80t18 -73t25.5 -54.5t35 -39t45.5 -12.5z" />
    <glyph glyph-name="Racute" unicode="&#x154;" horiz-adv-x="1695" 
d="M1567 238q20 -38 47 -58t52 -21t50 7q-59 -111 -161.5 -154t-225.5 -30q-143 13 -241.5 100.5t-129.5 259.5q-29 162 -78 223.5t-141 61.5v-363q0 -59 8.5 -107.5t20.5 -76t24 -47t20 -26.5l9 -7h-739q3 2 9 7t20.5 26t25.5 47.5t20 75.5t9 108v905q0 59 -8.5 107.5
t-21 76.5t-25 47.5t-21.5 26.5l-8 7h766q151 0 268 -19.5t194.5 -54t127.5 -86t72 -111t24 -133.5q-5 -151 -101 -249t-311 -134q166 -11 236 -63q64 -45 98 -99.5t61.5 -130.5t49.5 -116zM739 655q150 0 220.5 90.5t70.5 284.5q0 196 -70.5 286.5t-220.5 90.5v-752z
M1098 1882q37 -45 32 -94.5t-43 -85.5q-52 -50 -139 -90.5t-148 -55.5l-61 -16q3 9 7.5 25t21.5 61.5t36.5 86t50 88t63.5 79.5q37 36 87 38.5t93 -36.5z" />
    <glyph glyph-name="racute" unicode="&#x155;" horiz-adv-x="1277" 
d="M1235 952q46 -107 -5.5 -203t-160.5 -110q-63 -7 -112.5 7.5t-77.5 41.5t-49.5 59t-32.5 60t-21 45.5t-20.5 13.5t-26.5 -35q-65 -124 -65 -303v-264q0 -59 8.5 -107.5t20 -76t23.5 -47t20 -26.5l9 -7h-684q3 2 8.5 7t20 26t25 47.5t19.5 75.5t9 108v502q0 59 -8.5 108
t-20.5 77t-24 47.5t-20 26.5l-9 7h547l56 -334q12 54 25.5 96.5t35.5 90t48.5 82t65 63t85.5 41.5q65 17 125 13t110.5 -38.5t75.5 -93.5zM813 1473q38 -45 32.5 -95t-42.5 -86q-52 -50 -139 -90.5t-148 -55.5l-61 -16q2 9 7 25t22 61.5t36 86t49.5 88t63.5 79.5
q38 36 87 39t93 -36z" />
    <glyph glyph-name="Rcommaaccent" unicode="&#x156;" horiz-adv-x="1695" 
d="M1567 238q20 -38 47 -58t52 -21t50 7q-59 -111 -161.5 -154t-225.5 -30q-143 13 -241.5 100.5t-129.5 259.5q-29 162 -78 223.5t-141 61.5v-363q0 -59 8.5 -107.5t20.5 -76t24 -47t20 -26.5l9 -7h-739q3 2 9 7t20.5 26t25.5 47.5t20 75.5t9 108v905q0 59 -8.5 107.5
t-21 76.5t-25 47.5t-21.5 26.5l-8 7h766q151 0 268 -19.5t194.5 -54t127.5 -86t72 -111t24 -133.5q-5 -151 -101 -249t-311 -134q166 -11 236 -63q64 -45 98 -99.5t61.5 -130.5t49.5 -116zM739 655q150 0 220.5 90.5t70.5 284.5q0 196 -70.5 286.5t-220.5 90.5v-752z
M897 -137q71 0 121.5 -50.5t50.5 -121.5q0 -103 -72 -202.5t-196 -166.5l-13 19q163 85 230 229q-45 -51 -121 -51q-72 0 -122 50.5t-50 121.5t50 121.5t122 50.5z" />
    <glyph glyph-name="rcommaaccent" unicode="&#x157;" horiz-adv-x="1277" 
d="M1235 952q46 -107 -5.5 -203t-160.5 -110q-63 -7 -112.5 7.5t-77.5 41.5t-49.5 59t-32.5 60t-21 45.5t-20.5 13.5t-26.5 -35q-65 -124 -65 -303v-264q0 -59 8.5 -107.5t20 -76t23.5 -47t20 -26.5l9 -7h-684q3 2 8.5 7t20 26t25 47.5t19.5 75.5t9 108v502q0 59 -8.5 108
t-20.5 77t-24 47.5t-20 26.5l-9 7h547l56 -334q12 54 25.5 96.5t35.5 90t48.5 82t65 63t85.5 41.5q65 17 125 13t110.5 -38.5t75.5 -93.5zM659 -137q71 0 121.5 -50.5t50.5 -121.5q0 -103 -72 -202.5t-196 -166.5l-12 19q162 84 229 229q-45 -51 -121 -51q-72 0 -122 50.5
t-50 121.5t50 121.5t122 50.5z" />
    <glyph glyph-name="Rcaron" unicode="&#x158;" horiz-adv-x="1695" 
d="M1567 238q20 -38 47 -58t52 -21t50 7q-59 -111 -161.5 -154t-225.5 -30q-143 13 -241.5 100.5t-129.5 259.5q-29 162 -78 223.5t-141 61.5v-363q0 -59 8.5 -107.5t20.5 -76t24 -47t20 -26.5l9 -7h-739q3 2 9 7t20.5 26t25.5 47.5t20 75.5t9 108v905q0 59 -8.5 107.5
t-21 76.5t-25 47.5t-21.5 26.5l-8 7h766q151 0 268 -19.5t194.5 -54t127.5 -86t72 -111t24 -133.5q-5 -151 -101 -249t-311 -134q166 -11 236 -63q64 -45 98 -99.5t61.5 -130.5t49.5 -116zM739 655q150 0 220.5 90.5t70.5 284.5q0 196 -70.5 286.5t-220.5 90.5v-752z
M739 1780l340 110l-340 -350l-338 350z" />
    <glyph glyph-name="rcaron" unicode="&#x159;" horiz-adv-x="1277" 
d="M1235 952q46 -107 -5.5 -203t-160.5 -110q-63 -7 -112.5 7.5t-77.5 41.5t-49.5 59t-32.5 60t-21 45.5t-20.5 13.5t-26.5 -35q-65 -124 -65 -303v-264q0 -59 8.5 -107.5t20 -76t23.5 -47t20 -26.5l9 -7h-684q3 2 8.5 7t20 26t25 47.5t19.5 75.5t9 108v502q0 59 -8.5 108
t-20.5 77t-24 47.5t-20 26.5l-9 7h547l56 -334q12 54 25.5 96.5t35.5 90t48.5 82t65 63t85.5 41.5q65 17 125 13t110.5 -38.5t75.5 -93.5zM659 1370l340 111l-340 -351l-337 351z" />
    <glyph glyph-name="Sacute" unicode="&#x15a;" horiz-adv-x="1396" 
d="M1161 795q72 -49 118.5 -114.5t63 -136.5t9.5 -144.5t-39 -141.5q-30 -65 -84 -116.5t-113 -81.5t-127.5 -49.5t-123 -26.5t-103.5 -7q-68 0 -216.5 27t-240.5 35q-56 5 -103 -12.5t-66 -37.5l-19 -20v570q6 -11 17.5 -30.5t48.5 -76t76.5 -108t99.5 -114t120 -107.5
t134.5 -76t146.5 -31q60 0 91 31t34 86q10 147 -217 268q-18 10 -98 51.5t-115.5 62t-98 59t-108 77.5t-84.5 82q-74 82 -94 187.5t7.5 201.5t90.5 170q75 88 206 136t298 48q81 0 158 -11t214 -46q38 -9 65.5 -7t45 11.5t28.5 19.5t15 19l4 8v-555q-3 11 -9.5 30.5
t-29.5 76t-49 108t-68.5 114t-88 107.5t-107.5 76t-127 31q-94 0 -146 -65t-26 -163q16 -63 91 -125t160 -103.5t195 -95.5t164 -91zM932 1882q37 -45 32.5 -94.5t-42.5 -85.5q-52 -50 -139.5 -90.5t-148.5 -55.5l-61 -16q3 9 7.5 25t21.5 61.5t36.5 86t50 88t63.5 79.5
q37 36 87 38.5t93 -36.5z" />
    <glyph glyph-name="sacute" unicode="&#x15b;" horiz-adv-x="1017" 
d="M840 582q67 -51 101.5 -122.5t33 -142.5t-30.5 -141q-27 -59 -78.5 -101t-112 -62t-111 -28t-97.5 -8q-53 0 -163.5 21t-172.5 27q-42 4 -76.5 -9t-48.5 -28l-14 -15v416l11 -22t31.5 -54t51 -76.5t67.5 -81.5t82.5 -77t94.5 -54t106 -22q40 0 50 38q14 56 -57 133
q-35 37 -87 73q-10 7 -55 37.5t-58.5 40t-49 35.5t-55 42.5t-47 42.5t-51.5 52q-75 80 -72.5 206t79.5 213q58 65 152.5 103.5t213.5 38.5q110 0 275 -41q45 -9 71 -0.5t35 22.5l10 15v-408q-3 8 -8 22t-23.5 55t-38.5 77.5t-52 82t-65.5 78t-77.5 54.5t-89 22
q-52 0 -71 -38t12 -105q22 -45 84.5 -96t161.5 -117.5t139 -97.5zM719 1473q38 -45 32.5 -95t-42.5 -86q-52 -50 -139.5 -90.5t-148.5 -55.5l-61 -16q3 9 7.5 25t21.5 61.5t36.5 86t50 88t63.5 79.5q38 36 87 39t93 -36z" />
    <glyph glyph-name="Scircumflex" unicode="&#x15c;" horiz-adv-x="1396" 
d="M1161 795q72 -49 118.5 -114.5t63 -136.5t9.5 -144.5t-39 -141.5q-30 -65 -84 -116.5t-113 -81.5t-127.5 -49.5t-123 -26.5t-103.5 -7q-68 0 -216.5 27t-240.5 35q-56 5 -103 -12.5t-66 -37.5l-19 -20v570q6 -11 17.5 -30.5t48.5 -76t76.5 -108t99.5 -114t120 -107.5
t134.5 -76t146.5 -31q60 0 91 31t34 86q10 147 -217 268q-18 10 -98 51.5t-115.5 62t-98 59t-108 77.5t-84.5 82q-74 82 -94 187.5t7.5 201.5t90.5 170q75 88 206 136t298 48q81 0 158 -11t214 -46q38 -9 65.5 -7t45 11.5t28.5 19.5t15 19l4 8v-555q-3 11 -9.5 30.5
t-29.5 76t-49 108t-68.5 114t-88 107.5t-107.5 76t-127 31q-94 0 -146 -65t-26 -163q16 -63 91 -125t160 -103.5t195 -95.5t164 -91zM739 1890l338 -350l-338 111l-340 -111z" />
    <glyph glyph-name="scircumflex" unicode="&#x15d;" horiz-adv-x="1017" 
d="M840 582q67 -51 101.5 -122.5t33 -142.5t-30.5 -141q-27 -59 -78.5 -101t-112 -62t-111 -28t-97.5 -8q-53 0 -163.5 21t-172.5 27q-42 4 -76.5 -9t-48.5 -28l-14 -15v416l11 -22t31.5 -54t51 -76.5t67.5 -81.5t82.5 -77t94.5 -54t106 -22q40 0 50 38q14 56 -57 133
q-35 37 -87 73q-10 7 -55 37.5t-58.5 40t-49 35.5t-55 42.5t-47 42.5t-51.5 52q-75 80 -72.5 206t79.5 213q58 65 152.5 103.5t213.5 38.5q110 0 275 -41q45 -9 71 -0.5t35 22.5l10 15v-408q-3 8 -8 22t-23.5 55t-38.5 77.5t-52 82t-65.5 78t-77.5 54.5t-89 22
q-52 0 -71 -38t12 -105q22 -45 84.5 -96t161.5 -117.5t139 -97.5zM506 1481l338 -351l-338 111l-340 -111z" />
    <glyph glyph-name="Scedilla" unicode="&#x15e;" horiz-adv-x="1396" 
d="M1161 795q72 -49 118.5 -114.5t63 -136.5t9.5 -144.5t-39 -141.5q-30 -65 -84 -116.5t-113 -81.5t-127.5 -49.5t-123 -26.5t-103.5 -7h-8l-37 -61q28 6 81.5 5.5t88.5 -9.5q65 -15 104.5 -53.5t36.5 -100.5q-8 -145 -229 -145q-136 0 -211 47v102q20 -46 46.5 -79
t51.5 -37q46 -10 79.5 15t43.5 89q18 108 -51 129q-34 9 -86 6l57 95q-58 3 -195 27.5t-229 31.5q-56 5 -103 -12.5t-66 -37.5l-19 -20v570q6 -11 17.5 -30.5t48.5 -76t76.5 -108t99.5 -114t120 -107.5t134.5 -76t146.5 -31q60 0 91 31t34 86q10 147 -217 268
q-18 10 -98 51.5t-115.5 62t-98 59t-108 77.5t-84.5 82q-74 82 -94 187.5t7.5 201.5t90.5 170q75 88 206 136t298 48q81 0 158 -11t214 -46q38 -9 65.5 -7t45 11.5t28.5 19.5t15 19l4 8v-555q-3 11 -9.5 30.5t-29.5 76t-49 108t-68.5 114t-88 107.5t-107.5 76t-127 31
q-94 0 -146 -65t-26 -163q16 -63 91 -125t160 -103.5t195 -95.5t164 -91z" />
    <glyph glyph-name="scedilla" unicode="&#x15f;" horiz-adv-x="1017" 
d="M840 582q67 -51 101.5 -122.5t33 -142.5t-30.5 -141q-27 -59 -78.5 -101t-112 -62t-111 -28t-97.5 -8q-16 0 -31 3l-35 -60q28 6 80.5 5.5t89.5 -9.5q65 -15 105 -53.5t37 -100.5q-8 -145 -230 -145q-136 0 -211 47v103q20 -46 47 -79.5t52 -37.5q46 -10 79 15t43 89
q18 108 -53 129q-32 9 -84 6l55 93q-33 3 -125 20.5t-155 22.5q-42 4 -76.5 -9t-48.5 -28l-14 -15v416l11 -22t31.5 -54t51 -76.5t67.5 -81.5t82.5 -77t94.5 -54t106 -22q40 0 50 38q14 56 -57 133q-35 37 -87 73q-10 7 -55 37.5t-58.5 40t-49 35.5t-55 42.5t-47 42.5
t-51.5 52q-75 80 -72.5 206t79.5 213q58 65 152.5 103.5t213.5 38.5q110 0 275 -41q45 -9 71 -0.5t35 22.5l10 15v-408q-3 8 -8 22t-23.5 55t-38.5 77.5t-52 82t-65.5 78t-77.5 54.5t-89 22q-52 0 -71 -38t12 -105q22 -45 84.5 -96t161.5 -117.5t139 -97.5z" />
    <glyph glyph-name="Scaron" unicode="&#x160;" horiz-adv-x="1396" 
d="M1161 795q72 -49 118.5 -114.5t63 -136.5t9.5 -144.5t-39 -141.5q-30 -65 -84 -116.5t-113 -81.5t-127.5 -49.5t-123 -26.5t-103.5 -7q-68 0 -216.5 27t-240.5 35q-56 5 -103 -12.5t-66 -37.5l-19 -20v570q6 -11 17.5 -30.5t48.5 -76t76.5 -108t99.5 -114t120 -107.5
t134.5 -76t146.5 -31q60 0 91 31t34 86q10 147 -217 268q-18 10 -98 51.5t-115.5 62t-98 59t-108 77.5t-84.5 82q-74 82 -94 187.5t7.5 201.5t90.5 170q75 88 206 136t298 48q81 0 158 -11t214 -46q38 -9 65.5 -7t45 11.5t28.5 19.5t15 19l4 8v-555q-3 11 -9.5 30.5
t-29.5 76t-49 108t-68.5 114t-88 107.5t-107.5 76t-127 31q-94 0 -146 -65t-26 -163q16 -63 91 -125t160 -103.5t195 -95.5t164 -91zM717 1780l340 110l-340 -350l-338 350z" />
    <glyph glyph-name="scaron" unicode="&#x161;" horiz-adv-x="1017" 
d="M840 582q67 -51 101.5 -122.5t33 -142.5t-30.5 -141q-27 -59 -78.5 -101t-112 -62t-111 -28t-97.5 -8q-53 0 -163.5 21t-172.5 27q-42 4 -76.5 -9t-48.5 -28l-14 -15v416l11 -22t31.5 -54t51 -76.5t67.5 -81.5t82.5 -77t94.5 -54t106 -22q40 0 50 38q14 56 -57 133
q-35 37 -87 73q-10 7 -55 37.5t-58.5 40t-49 35.5t-55 42.5t-47 42.5t-51.5 52q-75 80 -72.5 206t79.5 213q58 65 152.5 103.5t213.5 38.5q110 0 275 -41q45 -9 71 -0.5t35 22.5l10 15v-408q-3 8 -8 22t-23.5 55t-38.5 77.5t-52 82t-65.5 78t-77.5 54.5t-89 22
q-52 0 -71 -38t12 -105q22 -45 84.5 -96t161.5 -117.5t139 -97.5zM504 1370l340 111l-340 -351l-338 351z" />
    <glyph glyph-name="Tcommaaccent" unicode="&#x162;" horiz-adv-x="1531" 
d="M41 1434h1450v-539q-1 10 -4.5 27t-18 66.5t-34 95t-55 102.5t-78.5 100t-107.5 76t-138.5 41v-1139q0 -59 8.5 -107.5t20.5 -76t24 -47t20 -26.5l9 -7h-740q3 2 8.5 7t20 26t25 47.5t19.5 75.5t9 108v1139q-75 -8 -139.5 -40.5t-108 -77.5t-78.5 -98t-55.5 -104.5
t-34 -93.5t-17.5 -68l-5 -26v539zM766 -137q70 0 121 -50.5t51 -121.5q0 -103 -72 -202.5t-196 -166.5l-13 19q163 85 230 229q-45 -51 -121 -51q-72 0 -122 50.5t-50 121.5t50 121.5t122 50.5z" />
    <glyph glyph-name="tcommaaccent" unicode="&#x163;" horiz-adv-x="907" 
d="M868 221h19q-23 -39 -57 -77t-84.5 -78t-121.5 -64.5t-149 -24.5q-89 0 -161 25t-130.5 78.5t-90.5 147t-32 221.5v557h-81v26h81q73 0 143 16.5t143 54t135 108.5t100 169v-348h225v-26h-225v-639q0 -77 27 -127.5t68.5 -66t92 -3.5t98.5 51zM432 -137q70 0 121 -50.5
t51 -121.5q0 -103 -72 -202.5t-196 -166.5l-12 19q162 84 229 229q-45 -51 -121 -51q-72 0 -122 50.5t-50 121.5t50 121.5t122 50.5z" />
    <glyph glyph-name="Tcaron" unicode="&#x164;" horiz-adv-x="1531" 
d="M41 1434h1450v-539q-1 10 -4.5 27t-18 66.5t-34 95t-55 102.5t-78.5 100t-107.5 76t-138.5 41v-1139q0 -59 8.5 -107.5t20.5 -76t24 -47t20 -26.5l9 -7h-740q3 2 8.5 7t20 26t25 47.5t19.5 75.5t9 108v1139q-75 -8 -139.5 -40.5t-108 -77.5t-78.5 -98t-55.5 -104.5
t-34 -93.5t-17.5 -68l-5 -26v539zM764 1780l340 110l-340 -350l-338 350z" />
    <glyph glyph-name="tcaron" unicode="&#x165;" horiz-adv-x="903" 
d="M868 221h19q-23 -39 -57 -77t-84.5 -78t-121.5 -64.5t-149 -24.5q-89 0 -161 25t-130.5 78.5t-90.5 147t-32 221.5v557h-81v26h81q73 0 143 16.5t143 54t135 108.5t100 169v-348h225v-26h-225v-639q0 -77 27 -127.5t68.5 -66t92 -3.5t98.5 51zM793 1780q88 0 150.5 -62.5
t62.5 -150.5q0 -126 -90 -249.5t-242 -205.5l-17 25q198 99 287 280q-63 -63 -151 -63q-89 0 -151 62t-62 151q0 88 62 150.5t151 62.5z" />
    <glyph glyph-name="Tbar" unicode="&#x166;" horiz-adv-x="1531" 
d="M41 1434h1450v-539q-1 10 -4.5 27t-18 66.5t-33.5 95t-54.5 102.5t-78.5 100t-107.5 76t-139.5 41v-674h194v-27h-194v-438q0 -59 8.5 -108t20.5 -76.5t24 -47t20 -26.5l9 -6h-740q3 2 8.5 7t20 25.5t25 47.5t19.5 76t9 108v438h-196v27h196v674q-75 -8 -139.5 -40.5
t-108 -77.5t-78.5 -98t-55.5 -104.5t-34 -93.5t-17.5 -68l-5 -26v539z" />
    <glyph glyph-name="tbar" unicode="&#x167;" horiz-adv-x="907" 
d="M868 223h19q-18 -31 -42 -61.5t-62.5 -64.5t-82 -60t-103 -43t-122.5 -17q-70 0 -130.5 15t-113.5 50.5t-90 89.5t-58.5 135t-21.5 184v288h-81v29h81v238h-81v26h81q73 0 143 16.5t143 54t135 108.5t100 169v-348h225v-26h-225v-238h225v-29h-225v-372q0 -78 27 -128
t68.5 -65t92 -3t98.5 52z" />
    <glyph glyph-name="Utilde" unicode="&#x168;" horiz-adv-x="1513" 
d="M1094 1434h358q-30 -40 -48.5 -93.5t-25.5 -136t-8.5 -139t-1.5 -172.5v-45v-279q0 -49 -4.5 -96.5t-19 -106t-37 -109t-61.5 -101t-90 -87t-125.5 -61.5t-164.5 -31q-59 -6 -121 -1t-124 13t-121.5 31t-112.5 53t-98 79t-77.5 109t-50.5 142.5t-18 180.5v583
q0 59 -8.5 108.5t-20.5 77.5t-24 47.5t-20 26.5l-9 7h740q-3 -2 -8.5 -7t-20 -26t-25 -48.5t-19.5 -77t-9 -108.5v-682q0 -159 69.5 -268.5t178.5 -126.5q107 -19 195 45.5t134.5 179.5t46.5 250v283q0 217 -56.5 367.5t-192.5 218.5zM1282 1812q0 -21 -3.5 -47.5
t-16.5 -64.5t-33.5 -69.5t-58.5 -56.5t-87 -32q-39 -5 -89.5 5t-79.5 20.5t-85.5 36t-64.5 28.5q-156 62 -244 -28q15 99 76 170.5t139 80.5q63 8 126.5 -10t125 -46.5t92.5 -35.5q62 -14 118 -1.5t85 50.5z" />
    <glyph glyph-name="utilde" unicode="&#x169;" horiz-adv-x="1505" 
d="M1362 264q0 -59 8.5 -107.5t20.5 -76t24 -47t21 -26.5l8 -7h-430q-84 0 -122 32t-50 105q-79 -164 -326 -164q-106 0 -187 31t-129.5 87t-73 128.5t-24.5 159.5v387q0 59 -8.5 108t-20.5 77t-24 47.5t-21 26.5l-8 7h603v-674q0 -57 3 -97.5t12.5 -87t32 -71.5t56.5 -26
q44 0 79.5 51t35.5 125v514q0 59 -8.5 108t-20.5 77t-24 47.5t-21 26.5l-8 7h602v-768zM1114 1403q0 -21 -3.5 -47.5t-16.5 -64.5t-33.5 -69.5t-58.5 -56.5t-87 -32q-39 -5 -89.5 5t-79.5 20.5t-85.5 36t-64.5 28.5q-156 62 -244 -29q15 99 76 171t139 81q63 8 126.5 -10
t125 -46.5t92.5 -35.5q62 -14 118 -1.5t85 50.5z" />
    <glyph glyph-name="Umacron" unicode="&#x16a;" horiz-adv-x="1513" 
d="M1094 1434h358q-30 -40 -48.5 -93.5t-25.5 -136t-8.5 -139t-1.5 -172.5v-45v-279q0 -49 -4.5 -96.5t-19 -106t-37 -109t-61.5 -101t-90 -87t-125.5 -61.5t-164.5 -31q-59 -6 -121 -1t-124 13t-121.5 31t-112.5 53t-98 79t-77.5 109t-50.5 142.5t-18 180.5v583
q0 59 -8.5 108.5t-20.5 77.5t-24 47.5t-20 26.5l-9 7h740q-3 -2 -8.5 -7t-20 -26t-25 -48.5t-19.5 -77t-9 -108.5v-682q0 -159 69.5 -268.5t178.5 -126.5q107 -19 195 45.5t134.5 179.5t46.5 250v283q0 217 -56.5 367.5t-192.5 218.5zM356 1651h885v-29h-885v29z" />
    <glyph glyph-name="umacron" unicode="&#x16b;" horiz-adv-x="1505" 
d="M1362 264q0 -59 8.5 -107.5t20.5 -76t24 -47t21 -26.5l8 -7h-430q-84 0 -122 32t-50 105q-79 -164 -326 -164q-106 0 -187 31t-129.5 87t-73 128.5t-24.5 159.5v387q0 59 -8.5 108t-20.5 77t-24 47.5t-21 26.5l-8 7h603v-674q0 -57 3 -97.5t12.5 -87t32 -71.5t56.5 -26
q44 0 79.5 51t35.5 125v514q0 59 -8.5 108t-20.5 77t-24 47.5t-21 26.5l-8 7h602v-768zM291 1241h885v-29h-885v29z" />
    <glyph glyph-name="Ubreve" unicode="&#x16c;" horiz-adv-x="1513" 
d="M1094 1434h358q-30 -40 -48.5 -93.5t-25.5 -136t-8.5 -139t-1.5 -172.5v-45v-279q0 -49 -4.5 -96.5t-19 -106t-37 -109t-61.5 -101t-90 -87t-125.5 -61.5t-164.5 -31q-59 -6 -121 -1t-124 13t-121.5 31t-112.5 53t-98 79t-77.5 109t-50.5 142.5t-18 180.5v583
q0 59 -8.5 108.5t-20.5 77.5t-24 47.5t-20 26.5l-9 7h740q-3 -2 -8.5 -7t-20 -26t-25 -48.5t-19.5 -77t-9 -108.5v-682q0 -159 69.5 -268.5t178.5 -126.5q107 -19 195 45.5t134.5 179.5t46.5 250v283q0 217 -56.5 367.5t-192.5 218.5zM954 1710h179q0 -80 -61 -134.5
t-173 -55.5q-113 1 -173 55.5t-60 134.5h176q0 -176 57 -176q55 0 55 176z" />
    <glyph glyph-name="ubreve" unicode="&#x16d;" horiz-adv-x="1505" 
d="M1362 264q0 -59 8.5 -107.5t20.5 -76t24 -47t21 -26.5l8 -7h-430q-84 0 -122 32t-50 105q-79 -164 -326 -164q-106 0 -187 31t-129.5 87t-73 128.5t-24.5 159.5v387q0 59 -8.5 108t-20.5 77t-24 47.5t-21 26.5l-8 7h603v-674q0 -57 3 -97.5t12.5 -87t32 -71.5t56.5 -26
q44 0 79.5 51t35.5 125v514q0 59 -8.5 108t-20.5 77t-24 47.5t-21 26.5l-8 7h602v-768zM786 1300h179q0 -80 -61 -134.5t-173 -55.5q-113 1 -173 55.5t-60 134.5h176q0 -176 57 -176q55 0 55 176z" />
    <glyph glyph-name="Uring" unicode="&#x16e;" horiz-adv-x="1513" 
d="M1094 1434h358q-30 -40 -48.5 -93.5t-25.5 -136t-8.5 -139t-1.5 -172.5v-45v-279q0 -49 -4.5 -96.5t-19 -106t-37 -109t-61.5 -101t-90 -87t-125.5 -61.5t-164.5 -31q-59 -6 -121 -1t-124 13t-121.5 31t-112.5 53t-98 79t-77.5 109t-50.5 142.5t-18 180.5v583
q0 59 -8.5 108.5t-20.5 77.5t-24 47.5t-20 26.5l-9 7h740q-3 -2 -8.5 -7t-20 -26t-25 -48.5t-19.5 -77t-9 -108.5v-682q0 -159 69.5 -268.5t178.5 -126.5q107 -19 195 45.5t134.5 179.5t46.5 250v283q0 217 -56.5 367.5t-192.5 218.5zM901 1898q112 0 173 -54t61 -134
t-61 -134.5t-173 -55.5q-113 1 -174 55.5t-61 134.5t61 134t174 54zM901 1534q55 0 55 176q0 174 -55 174q-57 0 -57 -174q0 -176 57 -176z" />
    <glyph glyph-name="uring" unicode="&#x16f;" horiz-adv-x="1505" 
d="M1362 264q0 -59 8.5 -107.5t20.5 -76t24 -47t21 -26.5l8 -7h-430q-84 0 -122 32t-50 105q-79 -164 -326 -164q-106 0 -187 31t-129.5 87t-73 128.5t-24.5 159.5v387q0 59 -8.5 108t-20.5 77t-24 47.5t-21 26.5l-8 7h603v-674q0 -57 3 -97.5t12.5 -87t32 -71.5t56.5 -26
q44 0 79.5 51t35.5 125v514q0 59 -8.5 108t-20.5 77t-24 47.5t-21 26.5l-8 7h602v-768zM733 1489q112 0 173 -54.5t61 -134.5t-61 -134.5t-173 -55.5q-113 1 -174 55.5t-61 134.5t61 134.5t174 54.5zM733 1124q55 0 55 176q0 175 -55 175q-57 0 -57 -175q0 -176 57 -176z
" />
    <glyph glyph-name="Uhungarumlaut" unicode="&#x170;" horiz-adv-x="1513" 
d="M1094 1434h358q-30 -40 -48.5 -93.5t-25.5 -136t-8.5 -139t-1.5 -172.5v-45v-279q0 -49 -4.5 -96.5t-19 -106t-37 -109t-61.5 -101t-90 -87t-125.5 -61.5t-164.5 -31q-59 -6 -121 -1t-124 13t-121.5 31t-112.5 53t-98 79t-77.5 109t-50.5 142.5t-18 180.5v583
q0 59 -8.5 108.5t-20.5 77.5t-24 47.5t-20 26.5l-9 7h740q-3 -2 -8.5 -7t-20 -26t-25 -48.5t-19.5 -77t-9 -108.5v-682q0 -159 69.5 -268.5t178.5 -126.5q107 -19 195 45.5t134.5 179.5t46.5 250v283q0 217 -56.5 367.5t-192.5 218.5zM870 1882q26 -27 32 -61.5t-5.5 -65
t-34.5 -53.5q-53 -50 -140 -90.5t-148 -55.5l-60 -16q2 9 7 25t21.5 61.5t35 86t49 88t63.5 79.5q37 36 87.5 38.5t92.5 -36.5zM1233 1882q37 -45 32.5 -94.5t-42.5 -85.5q-52 -50 -139.5 -90.5t-148.5 -55.5l-61 -16q3 9 7.5 25t21.5 61.5t36.5 86t50 88t63.5 79.5
q37 36 87 38.5t93 -36.5z" />
    <glyph glyph-name="uhungarumlaut" unicode="&#x171;" horiz-adv-x="1505" 
d="M1362 264q0 -59 8.5 -107.5t20.5 -76t24 -47t21 -26.5l8 -7h-430q-84 0 -122 32t-50 105q-79 -164 -326 -164q-106 0 -187 31t-129.5 87t-73 128.5t-24.5 159.5v387q0 59 -8.5 108t-20.5 77t-24 47.5t-21 26.5l-8 7h603v-674q0 -57 3 -97.5t12.5 -87t32 -71.5t56.5 -26
q44 0 79.5 51t35.5 125v514q0 59 -8.5 108t-20.5 77t-24 47.5t-21 26.5l-8 7h602v-768zM805 1473q26 -27 32 -62t-5.5 -65.5t-34.5 -53.5q-53 -50 -140 -90.5t-147 -55.5l-61 -16q2 9 7 25t21.5 61.5t35 86t49 88t63.5 79.5q38 36 88 39t92 -36zM1167 1473q38 -45 32.5 -95
t-42.5 -86q-52 -50 -139 -90.5t-148 -55.5l-61 -16q2 9 7 25t22 61.5t36 86t49.5 88t63.5 79.5q38 36 87 39t93 -36z" />
    <glyph glyph-name="Uogonek" unicode="&#x172;" horiz-adv-x="1511" 
d="M1450 1434q-30 -40 -48.5 -93.5t-25.5 -136t-8.5 -139t-1.5 -172.5v-45v-279q0 -51 -5.5 -100t-19 -108.5t-40 -112.5t-65 -102t-98 -87t-134.5 -59q-28 -20 -33.5 -78t10.5 -114t57.5 -89t96.5 -8q-60 -62 -146 -81.5t-155 15t-80 113.5q-5 62 29.5 112t86.5 78.5
t121 47.5q-64 -16 -127 -19q-59 -6 -121 -1t-123.5 13t-121 31t-112.5 53t-97.5 79t-77 109t-50.5 142.5t-18 180.5v583q0 59 -8.5 108.5t-20.5 77.5t-24 47.5t-20 26.5l-9 7h740q-3 -2 -8.5 -7t-20 -26t-25 -48.5t-19.5 -77t-9 -108.5v-682q0 -160 69 -269t177 -126
q108 -19 196 45.5t134 179.5t46 250v283q0 220 -55 368.5t-194 217.5h358z" />
    <glyph glyph-name="uogonek" unicode="&#x173;" horiz-adv-x="1505" 
d="M1311 0q-22 -16 -30.5 -58t-1 -88t27.5 -87.5t55 -57.5t82 2q-61 -62 -148 -81.5t-155 15t-78 113.5q-5 40 8 76.5t37 62t57.5 46.5t66 33.5t66.5 19.5q0 1 1 2t1 2h-288q-84 0 -121 32t-49 105q-81 -164 -328 -164q-105 0 -185.5 31t-129.5 87t-73 128.5t-24 159.5v387
q0 59 -8.5 108t-20.5 77t-24 47.5t-21 26.5l-8 7h603v-674q0 -45 1.5 -77t7 -73.5t16 -67.5t31 -44.5t48.5 -19.5q43 0 78 51t35 125v514q0 59 -8.5 108t-20.5 77t-24 47.5t-21 26.5l-8 7h604v-768q0 -59 8.5 -107.5t20.5 -76t24 -47t21 -26.5l8 -7h-2h2h-133z" />
    <glyph glyph-name="Wcircumflex" unicode="&#x174;" horiz-adv-x="2578" 
d="M1978 1434h621q-112 -96 -208 -237.5t-191 -367.5q-59 -139 -144 -346.5t-140 -344.5l-56 -138h-226q-188 367 -360 696l-283 -696h-219q-495 946 -610 1169q-33 62 -63.5 112.5t-51 77.5t-36.5 45.5t-23 23.5l-8 6h821q-2 -4 -6 -11.5t-10 -33t-7 -54t7.5 -73.5
t29.5 -93q32 -76 119.5 -245t159.5 -300l71 -132q12 20 90 231q0 1 1 3t1 3q-56 110 -137 265.5t-90 174.5q-33 62 -63.5 112.5t-51 77.5t-36.5 45.5t-23 23.5l-8 6h821q-2 -4 -6 -11.5t-10 -33t-7 -54t7.5 -73.5t29.5 -93q32 -76 114.5 -257t148.5 -324l67 -144
q33 68 111 279q61 164 65.5 311t-50 253t-161.5 147zM1268 1890l338 -350l-338 111l-340 -111z" />
    <glyph glyph-name="wcircumflex" unicode="&#x175;" horiz-adv-x="2004" 
d="M1559 1032h446q-163 -143 -287 -434q-43 -101 -103.5 -250.5t-100.5 -248.5l-39 -99h-244q-135 262 -258 500l-207 -500h-238q-356 686 -440 842q-38 71 -71 118.5t-47 59.5l-13 12h674q-5 -8 -10.5 -22.5t-5 -63.5t23.5 -104q24 -55 86 -180t112 -222l50 -98
q16 26 71 178q0 1 3 4q-39 73 -95.5 183t-70.5 135q-37 72 -70 119.5t-47 58.5l-14 12h673q-2 -3 -4.5 -8t-6.5 -23.5t-5 -38.5t5.5 -53t21.5 -67q23 -55 82 -185.5t107 -234.5l48 -103q23 49 80 201q68 178 39.5 322.5t-145.5 189.5zM997 1481l338 -351l-338 111l-340 -111
z" />
    <glyph glyph-name="Ycircumflex" unicode="&#x176;" horiz-adv-x="1656" 
d="M1657 1434q-137 -83 -244 -200.5t-217 -293.5l-115 -182v-494q0 -59 8.5 -107.5t21 -76t25 -47t20.5 -26.5l9 -7h-741q3 2 9 7t20.5 26t25.5 47.5t20 75.5t9 108v338l-318 565q-57 93 -115 159.5t-87 87.5l-29 20h850q-3 -3 -6.5 -8t-10 -25t-7 -43.5t9.5 -63.5t32 -84
l242 -430q32 51 100 160q50 80 63 157t-8.5 139.5t-70 113.5t-119.5 84h623zM809 1890l338 -350l-338 111l-340 -111z" />
    <glyph glyph-name="ycircumflex" unicode="&#x177;" horiz-adv-x="1466" 
d="M1466 1032q-138 -53 -232.5 -168.5t-189.5 -349.5l-194 -514q-15 -35 -111 -268q-170 -387 -463 -283q-65 23 -104 74t-42.5 109.5t17 114t77 94t134.5 42.5q49 2 92.5 -15t71 -41.5t53 -50.5t45 -40t41.5 -11t47.5 36.5t57.5 103.5q11 20 59 135h-352q-231 584 -305 766
q-21 52 -48 98t-50.5 75.5t-44.5 51.5t-33 31l-12 10h737q-2 -2 -5.5 -7.5t-9.5 -27t-7.5 -49t6.5 -76.5t26 -106l186 -528q31 57 60 145q181 535 -127 649h620zM795 1481l338 -351l-338 111l-340 -111z" />
    <glyph glyph-name="Ydieresis" unicode="&#x178;" horiz-adv-x="1656" 
d="M1657 1434q-137 -83 -244 -200.5t-217 -293.5l-115 -182v-494q0 -59 8.5 -107.5t21 -76t25 -47t20.5 -26.5l9 -7h-741q3 2 9 7t20.5 26t25.5 47.5t20 75.5t9 108v338l-318 565q-57 93 -115 159.5t-87 87.5l-29 20h850q-3 -3 -6.5 -8t-10 -25t-7 -43.5t9.5 -63.5t32 -84
l242 -430q32 51 100 160q50 80 63 157t-8.5 139.5t-70 113.5t-119.5 84h623zM600 1855q69 0 118.5 -49t49.5 -118t-49.5 -118.5t-118.5 -49.5t-118.5 49.5t-49.5 118.5t49.5 118t118.5 49zM1014 1855q70 0 119 -49t49 -118t-49 -118.5t-119 -49.5q-69 0 -117.5 49.5
t-48.5 118.5t48.5 118t117.5 49z" />
    <glyph glyph-name="Zacute" unicode="&#x179;" horiz-adv-x="1425" 
d="M834 27q84 0 158.5 28t127 73.5t96 100t70 109t45 100t25.5 73.5l8 28l-43 -539h-1301l717 1405h-159q-84 0 -159 -28t-127 -73t-95.5 -99.5t-70.5 -109t-45.5 -99.5t-26.5 -73l-7 -28l43 539h1253l-716 -1407h207zM1112 1882q37 -45 32.5 -94.5t-42.5 -85.5
q-52 -50 -139 -90.5t-148 -55.5l-61 -16q2 9 7 25t22 61.5t36 86t49.5 88t63.5 79.5q37 36 87 38.5t93 -36.5z" />
    <glyph glyph-name="zacute" unicode="&#x17a;" horiz-adv-x="1146" 
d="M705 27q60 0 113.5 20t91 51.5t68.5 70t50.5 77t32.5 70t19 51.5l5 20l-30 -387h-1035l523 1006h-113q-60 0 -113.5 -20t-91 -51.5t-68.5 -70t-50 -77.5t-32 -70.5t-19 -51.5l-5 -20l29 387h999l-520 -1005h146zM952 1473q38 -45 32.5 -95t-42.5 -86q-52 -50 -139 -90.5
t-148 -55.5l-61 -16q2 9 7 25t22 61.5t36 86t49.5 88t63.5 79.5q38 36 87 39t93 -36z" />
    <glyph glyph-name="Zdotaccent" unicode="&#x17b;" horiz-adv-x="1425" 
d="M834 27q84 0 158.5 28t127 73.5t96 100t70 109t45 100t25.5 73.5l8 28l-43 -539h-1301l717 1405h-159q-84 0 -159 -28t-127 -73t-95.5 -99.5t-70.5 -109t-45.5 -99.5t-26.5 -73l-7 -28l43 539h1253l-716 -1407h207zM795 1855q69 0 118.5 -49t49.5 -118t-49.5 -118.5
t-118.5 -49.5t-118.5 49.5t-49.5 118.5t49.5 118t118.5 49z" />
    <glyph glyph-name="zdotaccent" unicode="&#x17c;" horiz-adv-x="1146" 
d="M705 27q60 0 113.5 20t91 51.5t68.5 70t50.5 77t32.5 70t19 51.5l5 20l-30 -387h-1035l523 1006h-113q-60 0 -113.5 -20t-91 -51.5t-68.5 -70t-50 -77.5t-32 -70.5t-19 -51.5l-5 -20l29 387h999l-520 -1005h146zM635 1446q69 0 118.5 -49.5t49.5 -118.5t-49.5 -118.5
t-118.5 -49.5t-118.5 49.5t-49.5 118.5t49.5 118.5t118.5 49.5z" />
    <glyph glyph-name="Zcaron" unicode="&#x17d;" horiz-adv-x="1425" 
d="M834 27q84 0 158.5 28t127 73.5t96 100t70 109t45 100t25.5 73.5l8 28l-43 -539h-1301l717 1405h-159q-84 0 -159 -28t-127 -73t-95.5 -99.5t-70.5 -109t-45.5 -99.5t-26.5 -73l-7 -28l43 539h1253l-716 -1407h207zM735 1780l340 110l-340 -350l-338 350z" />
    <glyph glyph-name="zcaron" unicode="&#x17e;" horiz-adv-x="1146" 
d="M705 27q60 0 113.5 20t91 51.5t68.5 70t50.5 77t32.5 70t19 51.5l5 20l-30 -387h-1035l523 1006h-113q-60 0 -113.5 -20t-91 -51.5t-68.5 -70t-50 -77.5t-32 -70.5t-19 -51.5l-5 -20l29 387h999l-520 -1005h146zM717 1370l340 111l-340 -351l-338 351z" />
    <glyph glyph-name="longs" unicode="&#x17f;" horiz-adv-x="829" 
d="M760 1772q101 0 188 -27t144 -76.5t77 -119.5t-12 -156q-16 -41 -45.5 -70.5t-64.5 -43t-74.5 -17t-75.5 7.5t-67.5 30t-51 51.5t-25.5 71.5t9 90q7 23 23.5 48t29.5 40t34 38q19 20 26.5 29t16 23t6 21.5t-13 15.5t-32.5 13q-62 16 -105 -36t-63 -152.5t-20 -239.5
v-1049q0 -59 8.5 -107.5t20 -76t23.5 -47t20 -26.5l9 -7h-684q3 2 8.5 7t20 26t25 47.5t19.5 75.5t9 108v740h-82v28h82v191q0 101 20 183t52.5 138t81.5 98.5t100.5 66.5t117 38.5t122 19.5t123.5 5z" />
    <glyph glyph-name="AEacute" unicode="&#x1fc;" horiz-adv-x="2183" 
d="M1573 27q66 0 124.5 17.5t102.5 47t81.5 68t63.5 81t47 85t33 81t20.5 68t11.5 47.5l3 17v-539h-1241q3 2 8.5 7t20 26t25 47.5t19.5 75.5t9 108v305h-360q-17 -26 -58 -100q-55 -98 -60 -189.5t45 -165.5t153 -114h-621q243 94 467 494l430 759q-8 62 -27.5 107
t-35.5 60l-15 14h1213v-539q-2 11 -5.5 29t-19.5 71t-37 101.5t-61 107t-88 101t-120.5 71.5t-156.5 29h-67v-676q79 10 143.5 34t105 55t71.5 66t46 68.5t24 60.5t11 43l2 17v-713q0 6 -1.5 17t-11 43t-24.5 62t-46 68t-71.5 68t-105 54.5t-143.5 34.5v-680h96zM901 598
q0 602 -2 616l-344 -616h346zM1501 1882q37 -45 32.5 -94.5t-42.5 -85.5q-52 -50 -139 -90.5t-148 -55.5l-61 -16q2 9 7 25t22 61.5t36 86t49.5 88t63.5 79.5q37 36 87 38.5t93 -36.5z" />
    <glyph glyph-name="aeacute" unicode="&#x1fd;" horiz-adv-x="2072" 
d="M2011 293h21q-71 -152 -217 -233t-336 -83q-134 0 -251.5 41.5t-212.5 135.5t-134 229q-11 -80 -32.5 -143t-48 -105t-65.5 -72.5t-74.5 -46.5t-85.5 -25t-88.5 -11.5t-93.5 -2.5q-143 0 -247.5 66t-104.5 172q0 75 41.5 132.5t107 91t155.5 65t176.5 53.5t182 58
t160.5 77q-1 70 -8 129t-23 110.5t-44.5 81t-67.5 29.5q-149 0 -82 -161q36 -83 23 -141t-46.5 -88.5t-80.5 -39.5q-42 -9 -84.5 -2.5t-77 23.5t-55.5 57.5t-19 97.5q3 74 41 128.5t101.5 84.5t136 44t155.5 14q265 0 402 -70q143 70 342 70q128 0 224.5 -28t156 -75.5
t97 -118.5t51.5 -147.5t15 -171.5h-274h-158h-225q29 -125 110 -207.5t176.5 -107t194.5 -2t166 91.5zM1466 1042q-58 0 -94 -63t-41 -173.5t27 -260.5h235q12 81 10 169t-13.5 161t-43.5 120t-80 47zM866 459v203q-78 -34 -142 -98.5t-99 -136t-50.5 -141.5t-4 -122.5
t47.5 -71.5q52 -28 110 10.5t91 126.5q47 120 47 230zM1362 1473q38 -45 32.5 -95t-42.5 -86q-52 -50 -139 -90.5t-148 -55.5l-61 -16q2 9 7 25t22 61.5t36 86t49.5 88t63.5 79.5q38 36 87 39t93 -36z" />
    <glyph glyph-name="Oslashacute" unicode="&#x1fe;" horiz-adv-x="1798" 
d="M1167 1524h29l-35 -101q264 -70 418.5 -262t157.5 -444q-1 -153 -61 -287.5t-166.5 -234.5t-264.5 -158.5t-346 -59.5q-91 0 -221 23l-31 -90h-26l32 96q-273 65 -431.5 259.5t-160.5 451.5q1 153 60.5 287.5t166 234.5t265 158t346.5 59q116 0 236 -26zM641 717
q0 -333 72 -535l366 1080q-68 176 -180 176q-69 0 -121 -64t-81 -171.5t-42.5 -229.5t-13.5 -256zM899 -4q69 0 121 64t80 171.5t41.5 229t13.5 256.5q0 307 -61 504l-367 -1074q67 -151 172 -151zM1235 1882q37 -45 32.5 -94.5t-42.5 -85.5q-52 -50 -139 -90.5t-148 -55.5
l-61 -16q2 9 7 25t22 61.5t36 86t49.5 88t63.5 79.5q37 36 87 38.5t93 -36.5z" />
    <glyph glyph-name="oslashacute" unicode="&#x1ff;" horiz-adv-x="1411" 
d="M920 1036q216 -50 332 -189.5t118 -328.5q-1 -112 -44.5 -210t-125 -172t-209.5 -116.5t-286 -42.5q-99 0 -189 19l-35 -90h-26l37 96q-216 48 -332.5 187.5t-118.5 328.5q1 113 44.5 211t125.5 171.5t209 116t285 42.5q97 0 190 -19l35 90h26zM557 518q0 -178 16 -303
l256 655q-34 172 -124 172q-25 0 -45.5 -12.5t-35 -39t-25.5 -54.5t-18 -73t-11.5 -80t-7 -90t-3.5 -87.5t-2 -87.5zM705 -6q25 0 46 12.5t35.5 39t25.5 54.5t18 73.5t11.5 79.5t7 90t3.5 87.5t2 87.5q-4 212 -16 303l-256 -655q34 -172 123 -172zM1008 1473q37 -45 32 -95
t-43 -86q-52 -50 -139 -90.5t-148 -55.5l-61 -16q2 9 7 25t22 61.5t36 86t49.5 88t63.5 79.5q38 36 87.5 39t93.5 -36z" />
    <glyph glyph-name="Scommaaccent" unicode="&#x218;" horiz-adv-x="1396" 
d="M666 -137q70 0 121 -50.5t51 -121.5q0 -103 -72.5 -202.5t-196.5 -166.5l-12 19q162 84 229 229q-45 -51 -120 -51q-72 0 -122 50.5t-50 121.5t50 121.5t122 50.5zM1161 795q72 -49 118.5 -114.5t63 -136.5t9.5 -144.5t-39 -141.5q-30 -65 -84 -116.5t-113 -81.5
t-127.5 -49.5t-123 -26.5t-103.5 -7q-68 0 -216.5 27t-240.5 35q-56 5 -103 -12.5t-66 -37.5l-19 -20v570q6 -11 17.5 -30.5t48.5 -76t76.5 -108t99.5 -114t120 -107.5t134.5 -76t146.5 -31q60 0 91 31t34 86q10 147 -217 268q-18 10 -98 51.5t-115.5 62t-98 59t-108 77.5
t-84.5 82q-74 82 -94 187.5t7.5 201.5t90.5 170q75 88 206 136t298 48q81 0 158 -11t214 -46q38 -9 65.5 -7t45 11.5t28.5 19.5t15 19l4 8v-555q-3 11 -9.5 30.5t-29.5 76t-49 108t-68.5 114t-88 107.5t-107.5 76t-127 31q-94 0 -146 -65t-26 -163q16 -63 91 -125
t160 -103.5t195 -95.5t164 -91z" />
    <glyph glyph-name="scommaaccent" unicode="&#x219;" horiz-adv-x="1017" 
d="M840 582q67 -51 101.5 -122.5t33 -142.5t-30.5 -141q-27 -59 -78.5 -101t-112 -62t-111 -28t-97.5 -8q-53 0 -163.5 21t-172.5 27q-42 4 -76.5 -9t-48.5 -28l-14 -15v416l11 -22t31.5 -54t51 -76.5t67.5 -81.5t82.5 -77t94.5 -54t106 -22q40 0 50 38q14 56 -57 133
q-35 37 -87 73q-10 7 -55 37.5t-58.5 40t-49 35.5t-55 42.5t-47 42.5t-51.5 52q-75 80 -72.5 206t79.5 213q58 65 152.5 103.5t213.5 38.5q110 0 275 -41q45 -9 71 -0.5t35 22.5l10 15v-408q-3 8 -8 22t-23.5 55t-38.5 77.5t-52 82t-65.5 78t-77.5 54.5t-89 22
q-52 0 -71 -38t12 -105q22 -45 84.5 -96t161.5 -117.5t139 -97.5zM483 -137q71 0 121.5 -50.5t50.5 -121.5q0 -103 -72 -202.5t-196 -166.5l-12 19q162 84 229 229q-45 -51 -121 -51q-72 0 -122 50.5t-50 121.5t50 121.5t122 50.5z" />
    <glyph glyph-name="circumflex" unicode="&#x2c6;" horiz-adv-x="841" 
d="M422 1481l338 -351l-338 111l-340 -111z" />
    <glyph glyph-name="caron" unicode="&#x2c7;" horiz-adv-x="841" 
d="M420 1370l340 111l-340 -351l-338 351z" />
    <glyph glyph-name="breve" unicode="&#x2d8;" horiz-adv-x="630" 
d="M371 1300h178q0 -80 -61 -134.5t-173 -55.5q-113 1 -173 55.5t-60 134.5h176q0 -176 57 -176q56 0 56 176z" />
    <glyph glyph-name="dotaccent" unicode="&#x2d9;" horiz-adv-x="499" 
d="M250 1446q69 0 118.5 -49.5t49.5 -118.5t-49.5 -118.5t-118.5 -49.5t-118.5 49.5t-49.5 118.5t49.5 118.5t118.5 49.5z" />
    <glyph glyph-name="ring" unicode="&#x2da;" horiz-adv-x="632" 
d="M317 1489q112 0 173 -54.5t61 -134.5t-61 -134.5t-173 -55.5q-113 1 -174 55.5t-61 134.5t61 134.5t174 54.5zM317 1124q56 0 56 176q0 175 -56 175q-57 0 -57 -175q0 -176 57 -176z" />
    <glyph glyph-name="ogonek" unicode="&#x2db;" horiz-adv-x="546" 
d="M313 0h19q-28 -20 -33 -77.5t11 -114t58 -88.5t97 -7q-61 -63 -148 -82.5t-155 15.5t-78 114q-12 95 62.5 160.5t166.5 79.5z" />
    <glyph glyph-name="tilde" unicode="&#x2dc;" horiz-adv-x="925" 
d="M844 1403q0 -21 -3.5 -47.5t-16.5 -64.5t-33.5 -69.5t-58.5 -56.5t-87 -32q-39 -5 -89.5 5t-79.5 20.5t-85.5 36t-64.5 28.5q-156 62 -244 -29q15 99 76 171t139 81q63 8 126.5 -10t125 -46.5t92.5 -35.5q62 -14 118 -1.5t85 50.5z" />
    <glyph glyph-name="hungarumlaut" unicode="&#x2dd;" horiz-adv-x="917" 
d="M438 1473q26 -27 32 -62t-5.5 -65.5t-34.5 -53.5q-53 -50 -140 -90.5t-148 -55.5l-60 -16q2 9 7 25t21.5 61.5t35 86t49 88t63.5 79.5q38 36 88 39t92 -36zM801 1473q38 -45 32.5 -95t-42.5 -86q-52 -50 -139.5 -90.5t-148.5 -55.5l-61 -16q3 9 7.5 25t21.5 61.5t36.5 86
t50 88t63.5 79.5q38 36 87 39t93 -36z" />
    <glyph glyph-name="Wgrave" unicode="&#x1e80;" horiz-adv-x="2578" 
d="M1978 1434h621q-112 -96 -208 -237.5t-191 -367.5q-59 -139 -144 -346.5t-140 -344.5l-56 -138h-226q-188 367 -360 696l-283 -696h-219q-495 946 -610 1169q-33 62 -63.5 112.5t-51 77.5t-36.5 45.5t-23 23.5l-8 6h821q-2 -4 -6 -11.5t-10 -33t-7 -54t7.5 -73.5
t29.5 -93q32 -76 119.5 -245t159.5 -300l71 -132q12 20 90 231q0 1 1 3t1 3q-56 110 -137 265.5t-90 174.5q-33 62 -63.5 112.5t-51 77.5t-36.5 45.5t-23 23.5l-8 6h821q-2 -4 -6 -11.5t-10 -33t-7 -54t7.5 -73.5t29.5 -93q32 -76 114.5 -257t148.5 -324l67 -144
q33 68 111 279q61 164 65.5 311t-50 253t-161.5 147zM991 1882q43 39 93 36.5t87 -38.5q52 -50 96.5 -135t63.5 -145l19 -60q-9 2 -25.5 6t-63 18.5t-88 31.5t-90.5 45.5t-82 60.5q-38 36 -42.5 85.5t32.5 94.5z" />
    <glyph glyph-name="wgrave" unicode="&#x1e81;" horiz-adv-x="2004" 
d="M1559 1032h446q-163 -143 -287 -434q-43 -101 -103.5 -250.5t-100.5 -248.5l-39 -99h-244q-135 262 -258 500l-207 -500h-238q-356 686 -440 842q-38 71 -71 118.5t-47 59.5l-13 12h674q-5 -8 -10.5 -22.5t-5 -63.5t23.5 -104q24 -55 86 -180t112 -222l50 -98
q16 26 71 178q0 1 3 4q-39 73 -95.5 183t-70.5 135q-37 72 -70 119.5t-47 58.5l-14 12h673q-2 -3 -4.5 -8t-6.5 -23.5t-5 -38.5t5.5 -53t21.5 -67q23 -55 82 -185.5t107 -234.5l48 -103q23 49 80 201q68 178 39.5 322.5t-145.5 189.5zM700 1473q44 39 93.5 36t87.5 -39
q52 -50 96.5 -135t62.5 -145l19 -60q-9 2 -25.5 6t-62.5 18.5t-87.5 31.5t-90.5 45.5t-82 60.5q-38 36 -43 86t32 95z" />
    <glyph glyph-name="Wacute" unicode="&#x1e82;" horiz-adv-x="2578" 
d="M1978 1434h621q-112 -96 -208 -237.5t-191 -367.5q-59 -139 -144 -346.5t-140 -344.5l-56 -138h-226q-188 367 -360 696l-283 -696h-219q-495 946 -610 1169q-33 62 -63.5 112.5t-51 77.5t-36.5 45.5t-23 23.5l-8 6h821q-2 -4 -6 -11.5t-10 -33t-7 -54t7.5 -73.5
t29.5 -93q32 -76 119.5 -245t159.5 -300l71 -132q12 20 90 231q0 1 1 3t1 3q-56 110 -137 265.5t-90 174.5q-33 62 -63.5 112.5t-51 77.5t-36.5 45.5t-23 23.5l-8 6h821q-2 -4 -6 -11.5t-10 -33t-7 -54t7.5 -73.5t29.5 -93q32 -76 114.5 -257t148.5 -324l67 -144
q33 68 111 279q61 164 65.5 311t-50 253t-161.5 147zM1583 1882q37 -45 32.5 -94.5t-42.5 -85.5q-52 -50 -139 -90.5t-148 -55.5l-61 -16q2 9 7 25t22 61.5t36 86t49.5 88t63.5 79.5q37 36 87 38.5t93 -36.5z" />
    <glyph glyph-name="wacute" unicode="&#x1e83;" horiz-adv-x="2004" 
d="M1559 1032h446q-163 -143 -287 -434q-43 -101 -103.5 -250.5t-100.5 -248.5l-39 -99h-244q-135 262 -258 500l-207 -500h-238q-356 686 -440 842q-38 71 -71 118.5t-47 59.5l-13 12h674q-5 -8 -10.5 -22.5t-5 -63.5t23.5 -104q24 -55 86 -180t112 -222l50 -98
q16 26 71 178q0 1 3 4q-39 73 -95.5 183t-70.5 135q-37 72 -70 119.5t-47 58.5l-14 12h673q-2 -3 -4.5 -8t-6.5 -23.5t-5 -38.5t5.5 -53t21.5 -67q23 -55 82 -185.5t107 -234.5l48 -103q23 49 80 201q68 178 39.5 322.5t-145.5 189.5zM1354 1473q37 -45 32 -95t-43 -86
q-52 -50 -139 -90.5t-148 -55.5l-61 -16q3 9 7.5 25t21.5 61.5t36.5 86t50 88t63.5 79.5q38 36 87 39t93 -36z" />
    <glyph glyph-name="Wdieresis" unicode="&#x1e84;" horiz-adv-x="2578" 
d="M1978 1434h621q-112 -96 -208 -237.5t-191 -367.5q-59 -139 -144 -346.5t-140 -344.5l-56 -138h-226q-188 367 -360 696l-283 -696h-219q-495 946 -610 1169q-33 62 -63.5 112.5t-51 77.5t-36.5 45.5t-23 23.5l-8 6h821q-2 -4 -6 -11.5t-10 -33t-7 -54t7.5 -73.5
t29.5 -93q32 -76 119.5 -245t159.5 -300l71 -132q12 20 90 231q0 1 1 3t1 3q-56 110 -137 265.5t-90 174.5q-33 62 -63.5 112.5t-51 77.5t-36.5 45.5t-23 23.5l-8 6h821q-2 -4 -6 -11.5t-10 -33t-7 -54t7.5 -73.5t29.5 -93q32 -76 114.5 -257t148.5 -324l67 -144
q33 68 111 279q61 164 65.5 311t-50 253t-161.5 147zM1061 1855q69 0 118.5 -49t49.5 -118t-49.5 -118.5t-118.5 -49.5t-118.5 49.5t-49.5 118.5t49.5 118t118.5 49zM1475 1855q70 0 118.5 -49t48.5 -118t-48.5 -118.5t-118.5 -49.5q-69 0 -117.5 49.5t-48.5 118.5t48.5 118
t117.5 49z" />
    <glyph glyph-name="wdieresis" unicode="&#x1e85;" horiz-adv-x="2004" 
d="M1559 1032h446q-163 -143 -287 -434q-43 -101 -103.5 -250.5t-100.5 -248.5l-39 -99h-244q-135 262 -258 500l-207 -500h-238q-356 686 -440 842q-38 71 -71 118.5t-47 59.5l-13 12h674q-5 -8 -10.5 -22.5t-5 -63.5t23.5 -104q24 -55 86 -180t112 -222l50 -98
q16 26 71 178q0 1 3 4q-39 73 -95.5 183t-70.5 135q-37 72 -70 119.5t-47 58.5l-14 12h673q-2 -3 -4.5 -8t-6.5 -23.5t-5 -38.5t5.5 -53t21.5 -67q23 -55 82 -185.5t107 -234.5l48 -103q23 49 80 201q68 178 39.5 322.5t-145.5 189.5zM791 1446q69 0 118 -49.5t49 -118.5
t-49 -118.5t-118 -49.5t-118.5 49.5t-49.5 118.5t49.5 118.5t118.5 49.5zM1204 1446q70 0 119 -49.5t49 -118.5t-49 -118.5t-119 -49.5q-69 0 -117.5 49.5t-48.5 118.5t48.5 118.5t117.5 49.5z" />
    <glyph glyph-name="Ygrave" unicode="&#x1ef2;" horiz-adv-x="1656" 
d="M1657 1434q-137 -83 -244 -200.5t-217 -293.5l-115 -182v-494q0 -59 8.5 -107.5t21 -76t25 -47t20.5 -26.5l9 -7h-741q3 2 9 7t20.5 26t25.5 47.5t20 75.5t9 108v338l-318 565q-57 93 -115 159.5t-87 87.5l-29 20h850q-3 -3 -6.5 -8t-10 -25t-7 -43.5t9.5 -63.5t32 -84
l242 -430q32 51 100 160q50 80 63 157t-8.5 139.5t-70 113.5t-119.5 84h623zM655 1882q43 39 93.5 36.5t87.5 -38.5q52 -50 96.5 -135t63.5 -145l18 -60q-9 2 -25.5 6t-62.5 18.5t-87.5 31.5t-90.5 45.5t-82 60.5q-38 36 -43 85.5t32 94.5z" />
    <glyph glyph-name="ygrave" unicode="&#x1ef3;" horiz-adv-x="1466" 
d="M1466 1032q-138 -53 -232.5 -168.5t-189.5 -349.5l-194 -514q-15 -35 -111 -268q-170 -387 -463 -283q-65 23 -104 74t-42.5 109.5t17 114t77 94t134.5 42.5q49 2 92.5 -15t71 -41.5t53 -50.5t45 -40t41.5 -11t47.5 36.5t57.5 103.5q11 20 59 135h-352q-231 584 -305 766
q-21 52 -48 98t-50.5 75.5t-44.5 51.5t-33 31l-12 10h737q-2 -2 -5.5 -7.5t-9.5 -27t-7.5 -49t6.5 -76.5t26 -106l186 -528q31 57 60 145q181 535 -127 649h620zM436 1473q44 39 93 36t87 -39q33 -32 63.5 -78.5t50.5 -90.5t35.5 -83.5t22.5 -63.5l7 -24q-9 2 -25.5 6
t-63 18.5t-88 31.5t-90.5 45.5t-82 60.5q-37 36 -42.5 86t32.5 95z" />
    <glyph glyph-name="endash" unicode="&#x2013;" horiz-adv-x="1071" 
d="M82 690h907v-26h-907v26z" />
    <glyph glyph-name="emdash" unicode="&#x2014;" horiz-adv-x="1402" 
d="M82 690h1239v-26h-1239v26z" />
    <glyph glyph-name="quoteleft" unicode="&#x2018;" horiz-adv-x="548" 
d="M274 1642q88 0 150.5 -61.5t62.5 -150.5q0 -88 -62.5 -149.5t-150.5 -61.5t-150.5 61.5t-62.5 149.5q0 126 89.5 249.5t242.5 206.5l15 -26q-194 -96 -285 -281q63 63 151 63z" />
    <glyph glyph-name="quoteright" unicode="&#x2019;" horiz-adv-x="548" 
d="M274 1642q88 0 150.5 -62t62.5 -150q0 -126 -89.5 -249.5t-241.5 -205.5l-17 24q198 99 287 281q-63 -63 -152 -63t-151 62t-62 151q0 88 62 150t151 62z" />
    <glyph glyph-name="quotesinglbase" unicode="&#x201a;" horiz-adv-x="548" 
d="M274 403q88 0 150.5 -62.5t62.5 -150.5q0 -127 -89 -250t-242 -204l-15 24q196 99 285 281q-64 -64 -152 -64t-150.5 62t-62.5 151q0 88 62.5 150.5t150.5 62.5z" />
    <glyph glyph-name="quotedblleft" unicode="&#x201c;" horiz-adv-x="1058" 
d="M784 1665q89 0 151 -62t62 -151q0 -88 -62 -149.5t-151 -61.5q-88 0 -150.5 61.5t-62.5 149.5q0 126 90 250t242 207l17 -27q-197 -96 -287 -280q63 63 151 63zM274 1665q89 0 151 -62t62 -151q0 -88 -62 -149.5t-151 -61.5q-88 0 -150.5 61.5t-62.5 149.5
q0 127 89.5 250.5t242.5 206.5l17 -27q-197 -96 -287 -280q63 63 151 63z" />
    <glyph glyph-name="quotedblright" unicode="&#x201d;" horiz-adv-x="1058" 
d="M274 1909q88 0 150.5 -62.5t62.5 -150.5q0 -127 -89 -250.5t-242 -204.5l-15 25q197 100 285 280q-63 -63 -152 -63q-88 0 -150.5 62t-62.5 151q0 88 62.5 150.5t150.5 62.5zM784 1909q88 0 150.5 -62.5t62.5 -150.5q0 -127 -89 -250.5t-242 -204.5l-15 25
q197 100 285 280q-63 -63 -152 -63q-88 0 -150.5 62t-62.5 151q0 88 62.5 150.5t150.5 62.5z" />
    <glyph glyph-name="quotedblbase" unicode="&#x201e;" horiz-adv-x="1058" 
d="M274 403q88 0 150.5 -62.5t62.5 -150.5q0 -127 -89 -250t-242 -204l-15 24q196 99 285 281q-64 -64 -152 -64t-150.5 62t-62.5 151q0 88 62.5 150.5t150.5 62.5zM784 403q88 0 150.5 -62.5t62.5 -150.5q0 -127 -89 -250t-242 -204l-15 24q196 99 285 281
q-64 -64 -152 -64t-150.5 62t-62.5 151q0 88 62.5 150.5t150.5 62.5z" />
    <glyph glyph-name="bullet" unicode="&#x2022;" horiz-adv-x="589" 
d="M295 1053q88 0 150.5 -62.5t62.5 -150.5q0 -89 -62.5 -151t-150.5 -62q-89 0 -151 62t-62 151q0 88 62 150.5t151 62.5z" />
    <glyph glyph-name="ellipsis" unicode="&#x2026;" horiz-adv-x="1605" 
d="M274 403q88 0 150.5 -62.5t62.5 -150.5t-62.5 -150.5t-150.5 -62.5t-150.5 62.5t-62.5 150.5t62.5 150.5t150.5 62.5zM803 403q88 0 150.5 -62.5t62.5 -150.5t-62.5 -150.5t-150.5 -62.5t-150.5 62.5t-62.5 150.5t62.5 150.5t150.5 62.5zM1331 403q88 0 150.5 -62.5
t62.5 -150.5t-62.5 -150.5t-150.5 -62.5t-150.5 62.5t-62.5 150.5t62.5 150.5t150.5 62.5z" />
    <glyph glyph-name="perthousand" unicode="&#x2030;" horiz-adv-x="2439" 
d="M1249 1434h27l-911 -1434h-29zM436 1442q180 0 277.5 -104.5t97.5 -258.5q0 -73 -23.5 -137t-69 -114t-118 -79.5t-164.5 -29.5t-164.5 29.5t-118 79.5t-69 114t-23.5 137q0 154 97.5 258.5t277.5 104.5zM436 727q90 0 90 352q0 355 -90 355t-90 -355q0 -352 90 -352z
M1167 700q179 0 277 -103t98 -257q0 -99 -40.5 -179.5t-127.5 -131.5t-207 -52q-121 1 -207.5 52t-126.5 131.5t-40 179.5q0 154 97 257t277 103zM1167 -12q90 0 90 352t-90 352q-91 0 -90 -341v-11q0 -225 34 -303q22 -49 56 -49zM2003 700q179 0 277 -103t98 -257
q0 -99 -40.5 -179.5t-127.5 -131.5t-207 -52q-92 1 -164.5 30.5t-118 79.5t-69 114.5t-23.5 138.5q0 154 97.5 257t277.5 103zM2003 -12q90 0 90 352t-90 352q-91 0 -90 -341v-11q0 -225 34 -303q22 -49 56 -49z" />
    <glyph glyph-name="guilsinglleft" unicode="&#x2039;" horiz-adv-x="479" 
d="M397 1012l-155 -338l155 -340l-377 340z" />
    <glyph glyph-name="guilsinglright" unicode="&#x203a;" horiz-adv-x="481" 
d="M461 674l-379 -340l158 340l-158 338z" />
    <glyph glyph-name="exclamdbl" unicode="&#x203c;" horiz-adv-x="1185" 
d="M303 403q89 0 151 -62.5t62 -150.5t-62 -150.5t-151 -62.5q-88 0 -149.5 62.5t-61.5 150.5t61.5 150.5t149.5 62.5zM303 1434q111 0 177.5 -77t66.5 -179q0 -89 -25 -195.5t-61 -194.5t-72 -163t-61 -117l-25 -43q-10 16 -26 44.5t-58 113.5t-74 167t-58 190.5t-26 197.5
q0 102 66 179t176 77zM881 403q89 0 151 -62.5t62 -150.5t-62 -150.5t-151 -62.5q-88 0 -149.5 62.5t-61.5 150.5t61.5 150.5t149.5 62.5zM881 1434q111 0 177 -77t66 -179q0 -89 -25 -195.5t-61 -194.5t-71.5 -163t-60.5 -117l-25 -43q-10 16 -26 44.5t-58 113.5t-74 167
t-58 190.5t-26 197.5q0 102 66 179t176 77z" />
    <glyph glyph-name="fraction" unicode="&#x2044;" horiz-adv-x="657" 
d="M567 1524h29l-549 -1614h-27z" />
    <glyph glyph-name="Euro" unicode="&#x20ac;" horiz-adv-x="1767" 
d="M1679 410h27q-97 -211 -286.5 -322t-438.5 -111q-91 0 -185 24t-186.5 74.5t-168.5 121.5t-131 173.5t-74 221.5h-154l8 26h141q-6 46 -6 99q0 55 6 104h-149l8 29h146q23 156 100 275t191.5 190t251 106t290.5 35q114 0 295 -45q61 -14 103 -14t67 10.5t38 23t17 23.5
l4 10l45 -569q-3 11 -10 30.5t-31.5 75.5t-53 107t-75.5 113t-98.5 107t-122.5 75.5t-147 30.5q-101 0 -174.5 -84t-105.5 -216t-23 -284h506l-9 -29h-495q2 -34 14 -104q8 -46 25 -99h374l-10 -26h-356q37 -101 99 -174.5t134.5 -111t154.5 -49.5t161.5 3.5t153 53.5
t130.5 96z" />
    <glyph glyph-name="Ruble" unicode="&#x20bd;" horiz-adv-x="1597" 
d="M848 518h-107v-168h422v-26h-422v-60q0 -59 8.5 -107.5t20.5 -76t24 -47t20 -26.5l9 -7h-739q3 2 8.5 7t20 26t25 47.5t19.5 75.5t9 108v60h-84v26h84v168h-84v27h84v624q0 59 -8.5 107.5t-20.5 76.5t-24 47.5t-21 26.5l-8 7h764q150 0 268.5 -25t195 -67.5t127 -102.5
t72.5 -124.5t25 -139.5q-3 -75 -25 -139.5t-72.5 -124t-127 -101.5t-195 -67t-268.5 -25zM741 1405v-860q144 0 216.5 114.5t72.5 315.5q0 202 -72.5 316t-216.5 114z" />
    <glyph glyph-name="afii61352" unicode="&#x2116;" horiz-adv-x="2433" 
d="M1636 682h777v-27h-777v27zM2023 782q-112 1 -192.5 48.5t-118 122t-37.5 167.5q0 142 91 239t257 97q168 0 259.5 -96.5t91.5 -239.5q0 -93 -37.5 -167.5t-118.5 -122t-195 -48.5zM2023 1448q-83 0 -81 -316v-12v-12v-52t2 -64t7.5 -73t13.5 -62t23 -49t35 -17
q85 0 84 318v11v10q1 318 -84 318zM1067 1434h621q-160 -62 -229.5 -180.5t-69.5 -313.5v-940h-338l-736 1077v-583q0 -191 70 -312t229 -182h-620q161 62 229 178.5t68 315.5v618l-150 219q-40 55 -68.5 74t-92.5 29h862q-1 -2 -2 -6.5t1.5 -23t10.5 -42.5t31 -68.5
t57 -97.5l424 -594v338q0 192 -69 312.5t-228 181.5z" />
    <glyph glyph-name="approxequal" unicode="&#x2248;" horiz-adv-x="1107" 
d="M819 811h-26q-42 3 -87 15t-71 23t-72 32q-125 59 -209 65q-90 4 -164.5 -30t-111.5 -74l-17 16q40 42 119 79t174 32q88 -6 219 -68q50 -22 71 -30.5t65 -20.5t84 -14q91 -7 150.5 24t82.5 80l21 -10q-25 -50 -83 -84.5t-145 -34.5zM819 559h-26q-42 3 -87 15t-71 23
t-72 32q-125 59 -209 63q-90 5 -164 -28.5t-112 -73.5l-17 16q40 42 119 79t174 32q88 -6 219 -68q51 -22 71 -30.5t64.5 -21t84.5 -15.5q91 -6 150.5 25.5t82.5 80.5l21 -10q-25 -50 -83 -84.5t-145 -34.5z" />
    <glyph glyph-name="notequal" unicode="&#x2260;" horiz-adv-x="1071" 
d="M989 801h-309l-250 -248h559v-27h-586l-297 -297l-18 19l277 278h-283v27h309l250 248h-559v28h586l297 295l18 -18l-276 -277h282v-28z" />
    <glyph glyph-name="commaaccent" unicode="&#xf6c3;" horiz-adv-x="507" 
d="M254 -137q70 0 121 -50.5t51 -121.5q0 -103 -72 -202.5t-196 -166.5l-13 19q163 85 230 229q-45 -51 -121 -51q-72 0 -122 50.5t-50 121.5t50 121.5t122 50.5z" />
    <glyph glyph-name="T_h.caron" horiz-adv-x="2734" 
d="M2589 264q0 -59 8.5 -107.5t21 -76t25 -47t20.5 -26.5l9 -7h-686q3 2 8.5 7t19.5 26t24.5 47.5t19.5 75.5t9 108v410q0 57 -3 96.5t-12 86t-31.5 71.5t-57.5 26q-44 2 -79.5 -49.5t-35.5 -124.5v-516q0 -59 8.5 -107.5t20.5 -76t24 -47t20 -26.5l9 -7h-684q3 2 8.5 7
t20 26t25 47.5t19.5 75.5t9 108v817q0 132 -73.5 219.5t-202.5 102.5v-1139q0 -59 8.5 -107.5t20.5 -76t24 -47t20 -26.5l9 -7h-740q3 2 8.5 7t20 26t25 47.5t19.5 75.5t9 108v1139q-75 -8 -139.5 -40.5t-107.5 -77.5t-78 -98t-55 -104.5t-33.5 -93.5t-17.5 -68l-5 -26v539
h1012q193 0 392 26t301 52l103 26v-645q80 164 326 164q106 0 187 -31t129.5 -86t73 -127t24.5 -158v-391zM770 1780l340 110l-340 -350l-338 350z" />
    <glyph glyph-name="T_h.commaaccent" horiz-adv-x="2734" 
d="M2589 264q0 -59 8.5 -107.5t21 -76t25 -47t20.5 -26.5l9 -7h-686q3 2 8.5 7t19.5 26t24.5 47.5t19.5 75.5t9 108v410q0 57 -3 96.5t-12 86t-31.5 71.5t-57.5 26q-44 2 -79.5 -49.5t-35.5 -124.5v-516q0 -59 8.5 -107.5t20.5 -76t24 -47t20 -26.5l9 -7h-684q3 2 8.5 7
t20 26t25 47.5t19.5 75.5t9 108v817q0 132 -73.5 219.5t-202.5 102.5v-1139q0 -59 8.5 -107.5t20.5 -76t24 -47t20 -26.5l9 -7h-740q3 2 8.5 7t20 26t25 47.5t19.5 75.5t9 108v1139q-75 -8 -139.5 -40.5t-107.5 -77.5t-78 -98t-55 -104.5t-33.5 -93.5t-17.5 -68l-5 -26v539
h1012q193 0 392 26t301 52l103 26v-645q80 164 326 164q106 0 187 -31t129.5 -86t73 -127t24.5 -158v-391zM766 -137q70 0 121 -50.5t51 -121.5q0 -103 -72 -202.5t-196 -166.5l-13 19q163 85 230 229q-45 -51 -121 -51q-72 0 -122 50.5t-50 121.5t50 121.5t122 50.5z" />
    </font>
</defs>
</svg>
