<svg xmlns="http://www.w3.org/2000/svg" width="15.393" height="14.999" viewBox="0 0 15.393 14.999" fill="#FE1178">
  <path id="Icon_awesome-instagram" data-name="Icon awesome-instagram" d="M7.693,5.892a3.847,3.847,0,1,0,0,7.691,3.847,3.847,0,1,0,0-7.691Zm0,6.346a2.5,2.5,0,1,1,2.565-2.5A2.538,2.538,0,0,1,7.693,12.237Zm5.027-6.5a.921.921,0,1,1-.92-.9A.907.907,0,0,1,12.72,5.734Zm2.613.91A4.377,4.377,0,0,0,14.09,3.5,4.651,4.651,0,0,0,10.866,2.29c-1.271-.07-5.079-.07-6.349,0A4.645,4.645,0,0,0,1.292,3.5,4.391,4.391,0,0,0,.049,6.641c-.072,1.238-.072,4.95,0,6.188a4.377,4.377,0,0,0,1.243,3.143,4.657,4.657,0,0,0,3.224,1.212c1.271.07,5.079.07,6.349,0a4.621,4.621,0,0,0,3.224-1.212,4.406,4.406,0,0,0,1.243-3.143c.072-1.238.072-4.947,0-6.185Zm-1.641,7.514a2.565,2.565,0,0,1-1.463,1.426,17.392,17.392,0,0,1-4.536.3,17.527,17.527,0,0,1-4.536-.3,2.565,2.565,0,0,1-1.463-1.426,16.12,16.12,0,0,1-.309-4.421,16.246,16.246,0,0,1,.309-4.421A2.565,2.565,0,0,1,3.157,3.89a17.392,17.392,0,0,1,4.536-.3,17.527,17.527,0,0,1,4.536.3,2.565,2.565,0,0,1,1.463,1.426A16.12,16.12,0,0,1,14,9.737,16.111,16.111,0,0,1,13.692,14.158Z" transform="translate(0.005 -2.238)" />
</svg>
