<?xml version="1.0" encoding="UTF-8"?> <svg xmlns="http://www.w3.org/2000/svg" id="Analytics" viewBox="0 0 61 61"><defs><style> .cls-1 { fill: #feb691; } .cls-2 { fill: #fff; } .cls-3 { fill: #fe7100; } </style></defs><g id="Icon-Content"><rect id="bg" class="cls-1" width="61" height="61" rx="15" ry="15"></rect></g><rect class="cls-2" x="10.72" y="12.88" width="28.64" height="36.78" rx="2.77" ry="2.77"></rect><g><path class="cls-3" d="M51.91,21.88c-.02-.46-.11-.91-.26-1.35-.51-2.07-1.91-5.89-5.53-7.5.2,3.02-1.09,4.91-1.84,5.73-.04.03-.07.06-.11.1-.07.07-.13.15-.2.22-.12.11-.1.09-.1.09l-.06.09c-1.41,1.78-1.29,4.37.35,6.01,1.77,1.77,4.64,1.77,6.42,0,.92-.92,1.36-2.14,1.32-3.34h0s0-.03,0-.05Z"></path><rect class="cls-2" x="44.7" y="28.76" width="5.11" height="20.9" rx="2.56" ry="2.56"></rect></g><rect class="cls-3" x="13.7" y="37.63" width="14.23" height="3.16" rx="1.58" ry="1.58"></rect><rect class="cls-3" x="13.7" y="43.03" width="21.19" height="3.16" rx="1.58" ry="1.58"></rect><rect class="cls-3" x="29.98" y="15.82" width="6.33" height="6.33" rx="1.18" ry="1.18"></rect></svg> 