<?xml version="1.0" encoding="UTF-8"?> <svg xmlns="http://www.w3.org/2000/svg" id="Calque_2" data-name="Calque 2" viewBox="0 0 60.66 60.66"><defs><style> .cls-1, .cls-2 { fill: #1d63ef; } .cls-3 { fill: #fff; } .cls-4 { letter-spacing: 0em; } .cls-5 { letter-spacing: 0em; } .cls-6 { fill: #e8effe; } .cls-2 { font-family: Montserrat-Bold, Montserrat; font-size: 20px; font-weight: 700; } </style></defs><g id="Analytics"><rect id="bg" class="cls-6" width="60.66" height="60.66" rx="14.92" ry="14.92"></rect><text class="cls-2" transform="translate(8.49 35.16)"><tspan class="cls-5" x="0" y="0">G</tspan><tspan class="cls-4" x="15.42" y="0">E</tspan></text><g id="Groupe_782" data-name="Groupe 782"><rect id="Rectangle_580" data-name="Rectangle 580" class="cls-3" x="33.94" y="36.63" width="8.75" height="2.69" transform="translate(-14.96 46.47) rotate(-53.8)"></rect><path class="cls-1" d="M52.23,27.12c-.63-4.04-4.41-6.81-8.45-6.18-4.04.63-6.81,4.41-6.18,8.45.63,4.04,4.41,6.81,8.45,6.18,4.04-.63,6.81-4.41,6.18-8.45ZM40.26,28.97c-.4-2.57,1.36-4.98,3.93-5.38s4.98,1.36,5.38,3.93-1.36,4.98-3.93,5.38-4.98-1.36-5.38-3.93Z"></path></g></g></svg> 