<?xml version="1.0" encoding="UTF-8"?> <svg xmlns="http://www.w3.org/2000/svg" xmlns:xlink="http://www.w3.org/1999/xlink" viewBox="0 0 60 60"><defs><style>.cls-1{fill:#fff;}.cls-2{fill:#fedbc7;}.cls-3{fill:#fe1178;}</style><symbol id="SMO" viewBox="0 0 60 60"><rect id="bg" class="cls-2" width="60" height="60" rx="14.75" ry="14.75"></rect></symbol></defs><g id="backs"><use width="60" height="60" xlink:href="#SMO"></use></g><g id="icons"><g><path id="Icon_awesome-book-open" class="cls-1" d="M28.75,20.92c-3.62-2.22-9.49-2.83-12.45-3-.93-.07-1.74,.62-1.82,1.56,0,.03,0,.07,0,.1v18.21c.01,.89,.73,1.62,1.62,1.65,2.67,.14,8.07,.65,11.8,2.53,.41,.22,.93,.07,1.15-.35,.06-.12,.1-.25,.1-.38V21.62c0-.29-.15-.55-.39-.7Z"></path><path class="cls-3" d="M43.71,17.92c-2.96,.17-8.83,.78-12.45,3-.25,.15-.4,.42-.4,.71v19.62c.01,.47,.41,.84,.88,.83,.13,0,.26-.04,.38-.1,3.73-1.88,9.13-2.39,11.79-2.52,.89-.03,1.6-.76,1.62-1.65V19.58c-.02-.93-.79-1.68-1.72-1.66-.03,0-.07,0-.1,0h0Z"></path></g></g></svg> 