<?xml version="1.0" encoding="UTF-8"?> <svg xmlns="http://www.w3.org/2000/svg" xmlns:xlink="http://www.w3.org/1999/xlink" viewBox="0 0 60 60"><defs><style>.cls-1{fill:#fff;}.cls-2{fill:#fedbc7;}.cls-3{fill:#fe1178;}</style><symbol id="SMO" viewBox="0 0 60 60"><rect id="bg" class="cls-2" width="60" height="60" rx="14.75" ry="14.75"></rect></symbol></defs><g id="backs"><use width="60" height="60" xlink:href="#SMO"></use></g><g id="icons"><g><circle class="cls-1" cx="30" cy="24.51" r="12.39"></circle><g id="Effective_employees"><path class="cls-3" d="M32.72,39.49c-.22-.09-.35-.3-.35-.54,0-.17,.07-.32,.19-.44,.04-.03,.07-.07,.1-.1,.18-.19,.35-.41,.48-.63,1.04-1.73,.47-3.97-1.25-5-.77-.46-1.68-.62-2.56-.45-1.44,.25-2.58,1.36-2.88,2.79-.27,1.23,.11,2.51,1.01,3.39,.12,.11,.19,.27,.19,.44h0c0,.24-.14,.45-.35,.55-1.45,.6-2.61,1.75-3.23,3.2-.43,.99-.65,2.06-.64,3.14v.78c0,.7,.57,1.27,1.27,1.27h10.62c.7,0,1.27-.57,1.27-1.27v-.79c.01-1.08-.2-2.15-.64-3.14-.62-1.45-1.78-2.59-3.23-3.19Z"></path><path class="cls-3" d="M25.83,38.71c-.48-.41-1.02-.74-1.6-.98-.22-.09-.35-.3-.35-.54,0-.17,.07-.32,.19-.44,.04-.03,.07-.07,.1-.1,.18-.19,.35-.41,.48-.63,1.04-1.73,.47-3.97-1.25-5-.77-.46-1.68-.62-2.56-.45-1.44,.25-2.58,1.36-2.88,2.79-.27,1.23,.11,2.51,1.01,3.39,.12,.11,.19,.27,.19,.44h0c0,.24-.14,.45-.35,.55-1.45,.6-2.61,1.75-3.23,3.2-.43,.99-.65,2.06-.64,3.14v.78c0,.7,.57,1.27,1.27,1.27h5.86v-.29c-.01-1.27,.24-2.53,.76-3.7,.62-1.43,1.67-2.63,3.01-3.43Z"></path><path class="cls-3" d="M44.43,40.93c-.62-1.45-1.78-2.59-3.23-3.19-.22-.09-.35-.3-.35-.54,0-.17,.07-.32,.19-.44,.04-.03,.07-.07,.1-.1,.18-.19,.35-.41,.48-.63,1.04-1.73,.47-3.97-1.25-5-.77-.46-1.68-.62-2.56-.45-1.44,.25-2.58,1.36-2.88,2.79-.27,1.23,.11,2.51,1.01,3.39,.12,.11,.19,.27,.19,.44h0c0,.24-.14,.45-.35,.55-.58,.24-1.12,.57-1.6,.97,1.34,.79,2.39,1.99,3.01,3.42,.51,1.16,.77,2.43,.76,3.7v.3h5.86c.7,0,1.27-.57,1.27-1.27v-.79c.01-1.08-.2-2.15-.64-3.14Z"></path><path class="cls-3" d="M23.77,25.41l1.22,.23c.23,.04,.42,.2,.5,.42,.06,.16,.12,.31,.19,.46,.1,.21,.08,.46-.06,.66l-.7,1.02c-.12,.17-.1,.4,.05,.55l.74,.74c.15,.15,.38,.17,.55,.05l1.02-.7c.19-.13,.44-.16,.66-.06,.15,.07,.3,.14,.46,.19,.22,.08,.38,.27,.42,.5l.23,1.22c.04,.2,.22,.35,.42,.35h1.05c.21,0,.38-.15,.42-.35l.23-1.22c.04-.23,.2-.42,.42-.5,.16-.06,.31-.12,.46-.19,.21-.1,.46-.08,.66,.06l1.02,.7c.17,.12,.4,.1,.55-.05l.74-.74c.15-.15,.17-.38,.05-.55l-.7-1.02c-.13-.19-.16-.44-.06-.66,.07-.15,.14-.3,.19-.46,.08-.22,.27-.38,.5-.42l1.22-.23c.2-.04,.35-.22,.35-.42v-1.05c0-.21-.15-.38-.35-.42l-1.22-.23c-.23-.04-.42-.2-.5-.42-.06-.16-.12-.31-.19-.46-.1-.21-.08-.46,.06-.66l.7-1.02c.12-.17,.1-.4-.05-.55l-.74-.74c-.15-.15-.38-.17-.55-.05l-1.02,.7c-.19,.13-.44,.16-.66,.06-.15-.07-.3-.14-.46-.19-.22-.08-.38-.27-.42-.5l-.23-1.22c-.04-.2-.22-.35-.42-.35h-1.05c-.21,0-.38,.15-.42,.35l-.23,1.22c-.04,.23-.2,.42-.42,.5-.16,.06-.31,.12-.46,.19-.21,.1-.46,.08-.66-.06l-1.02-.7c-.17-.12-.4-.1-.55,.05l-.74,.74c-.15,.15-.17,.38-.05,.55l.7,1.02c.13,.19,.16,.44,.06,.66-.07,.15-.14,.3-.19,.46-.08,.22-.27,.38-.5,.42l-1.22,.23c-.2,.04-.35,.22-.35,.42v1.05c0,.21,.15,.38,.35,.42Zm6.23-3.39c1.35,0,2.44,1.09,2.44,2.44s-1.09,2.44-2.44,2.44-2.44-1.09-2.44-2.44c0-1.35,1.09-2.44,2.44-2.44Z"></path></g></g></g></svg> 