<?xml version="1.0" encoding="UTF-8"?> <svg xmlns="http://www.w3.org/2000/svg" xmlns:xlink="http://www.w3.org/1999/xlink" viewBox="0 0 60 60"><defs><style>.cls-1{fill:#fff;}.cls-2{fill:#fedbc7;}.cls-3{fill:#fe1178;}</style><symbol id="SMO" viewBox="0 0 60 60"><rect id="bg" class="cls-2" width="60" height="60" rx="14.75" ry="14.75"></rect></symbol></defs><g id="backs"><use width="60" height="60" xlink:href="#SMO"></use></g><g id="icons"><g><rect class="cls-3" x="17.7" y="11.42" width="24.59" height="24.59" rx="2.06" ry="2.06"></rect><rect class="cls-3" x="17.7" y="38.68" width="24.59" height="2.28" rx="1" ry="1"></rect><rect class="cls-3" x="17.7" y="42.48" width="24.59" height="2.28" rx="1" ry="1"></rect><rect class="cls-3" x="17.7" y="46.29" width="13.25" height="2.28" rx="1" ry="1"></rect><rect class="cls-3" x="40.01" y="46.29" width="2.28" height="2.28" rx="1" ry="1"></rect><rect class="cls-3" x="37.15" y="46.29" width="2.28" height="2.28" rx="1" ry="1"></rect><rect class="cls-3" x="34.28" y="46.29" width="2.28" height="2.28" rx="1" ry="1"></rect><rect class="cls-3" x="31.42" y="46.29" width="2.28" height="2.28" rx="1" ry="1"></rect><g id="iconfinder_heart_1814104"><g id="Icon-Heart"><path id="Fill-18" class="cls-1" d="M30,28.57l-.17-.15c-3.85-3.13-4.89-4.23-4.89-6.03,0-1.48,1.21-2.67,2.67-2.67,1.23,0,1.93,.7,2.39,1.23,.47-.53,1.16-1.23,2.39-1.23,1.48,0,2.67,1.21,2.67,2.67,0,1.8-1.04,2.9-4.89,6.03l-.17,.15h0Z"></path></g></g></g></g></svg> 