<?xml version="1.0" encoding="UTF-8"?> <svg xmlns="http://www.w3.org/2000/svg" xmlns:xlink="http://www.w3.org/1999/xlink" viewBox="0 0 60 60"><defs><style>.cls-1{fill:#fff;}.cls-2{fill:#fedbc7;}.cls-3{fill:#fe1178;}</style><symbol id="SMO" viewBox="0 0 60 60"><rect id="bg" class="cls-2" width="60" height="60" rx="14.75" ry="14.75"></rect></symbol></defs><g id="backs"><use width="60" height="60" xlink:href="#SMO"></use></g><g id="icons"><g><g><path id="Rectangle_699" class="cls-1" d="M27.5,14.5c-1.66,0-3,1.34-3,3v6c0,1.66,1.34,3,3,3h5c1.66,0,3-1.34,3-3v-6c0-1.66-1.34-3-3-3h-5m0-2h5c2.76,0,5,2.24,5,5v6c0,2.76-2.24,5-5,5h-5c-2.76,0-5-2.24-5-5v-6c0-2.76,2.24-5,5-5Z"></path><path id="Tracé_673" class="cls-3" d="M22.5,19.5h15c2.76,0,5,2.24,5,5l3,18c0,2.76-2.24,5-5,5H19.5c-2.76,0-5-2.24-5-5l3-18c0-2.76,2.24-5,5-5Z"></path><circle id="Ellipse_939" class="cls-1" cx="23.5" cy="22.5" r="1"></circle><circle id="Ellipse_940" class="cls-1" cx="36.5" cy="22.5" r="1"></circle></g><g id="iconfinder_heart_1814104"><g id="Icon-Heart"><g><path id="Fill-18" class="cls-1" d="M33.05,27.72c-1.57,0-2.46,.89-3.05,1.57-.6-.68-1.49-1.57-3.05-1.57-1.86,0-3.4,1.51-3.4,3.4,0,2.29,1.32,3.69,6.23,7.68l.22,.19,.21-.19c4.9-3.99,6.23-5.39,6.23-7.68,0-1.86-1.51-3.4-3.39-3.4Zm-3.05,10.35c-4.5-3.7-5.74-4.99-5.74-6.96,0-1.48,1.22-2.69,2.69-2.69,1.35,0,2.08,.81,2.64,1.45l.41,.46,.4-.46c.56-.64,1.29-1.45,2.64-1.45,1.48,0,2.69,1.22,2.69,2.69,0,1.96-1.24,3.26-5.74,6.96Z"></path><path class="cls-1" d="M33.05,26.84c-1.43,0-2.41,.62-3.05,1.19-.64-.57-1.63-1.19-3.05-1.19-2.36,0-4.28,1.92-4.28,4.28,0,2.68,1.56,4.28,5.95,7.87,.18,.15,.38,.32,.58,.48l.79,.69,.77-.67c.21-.17,.41-.33,.61-.49,4.38-3.59,5.94-5.2,5.94-7.87,0-2.36-1.92-4.28-4.27-4.28Zm-3.05,10.09c-4.02-3.33-4.86-4.36-4.86-5.81,0-1,.81-1.81,1.81-1.81,.9,0,1.38,.48,1.98,1.15l1.07,1.21,1.07-1.21c.59-.68,1.07-1.15,1.98-1.15,.99,0,1.81,.81,1.81,1.81,0,1.45-.84,2.48-4.86,5.81Z"></path><path class="cls-1" d="M34.86,31.12c0,1.45-.84,2.48-4.86,5.81-4.02-3.33-4.86-4.36-4.86-5.81,0-1,.81-1.81,1.81-1.81,.9,0,1.38,.48,1.98,1.15l1.07,1.21,1.07-1.21c.59-.68,1.07-1.15,1.98-1.15,.99,0,1.81,.81,1.81,1.81Z"></path></g></g></g></g></g></svg> 