<?xml version="1.0" encoding="UTF-8"?> <svg xmlns="http://www.w3.org/2000/svg" xmlns:xlink="http://www.w3.org/1999/xlink" viewBox="0 0 60 60"><defs><style>.cls-1{fill:#fff;}.cls-2{fill:#fedbc7;}.cls-3{fill:#fe1178;}</style><symbol id="SMO" viewBox="0 0 60 60"><rect id="bg" class="cls-2" width="60" height="60" rx="14.75" ry="14.75"></rect></symbol></defs><g id="backs"><use width="60" height="60" xlink:href="#SMO"></use></g><g id="icons"><g><circle class="cls-1" cx="30" cy="23.87" r="12.39"></circle><g id="black_exp"><path class="cls-3" d="M25.19,30.76c0-.36,.33-.66,.74-.66h8.14c.41,0,.74,.3,.74,.66s-.33,.66-.74,.66h-8.14c-.41,0-.74-.3-.74-.66Zm-1.11,15.13h11.84c.41,0,.74-.3,.74-.66s-.33-.66-.74-.66h-11.84c-.41,0-.74,.3-.74,.66s.33,.66,.74,.66Zm12.95,0h-14.06c-.81,0-1.48,.59-1.48,1.32s.67,1.32,1.48,1.32h14.06c.81,0,1.48-.59,1.48-1.32s-.67-1.32-1.48-1.32Zm-4.07-14.47h-5.92c0,11.34-1.5,11.5-2.22,13.16h10.35c-.72-1.66-2.22-1.82-2.22-13.16Z"></path><g id="iconfinder_heart_1814104"><g id="Icon-Heart"><g><path id="Fill-18" class="cls-3" d="M32.38,19.54c-1.23,0-1.92,.7-2.38,1.23-.47-.53-1.16-1.23-2.38-1.23-1.45,0-2.66,1.18-2.66,2.66,0,1.79,1.03,2.88,4.87,6l.17,.15,.17-.15c3.83-3.12,4.87-4.21,4.87-6,0-1.45-1.18-2.66-2.65-2.66Zm-2.38,8.09c-3.52-2.89-4.49-3.9-4.49-5.44,0-1.16,.95-2.11,2.11-2.11,1.05,0,1.62,.63,2.06,1.14l.32,.36,.32-.36c.44-.5,1.01-1.14,2.06-1.14,1.16,0,2.11,.95,2.11,2.11,0,1.53-.97,2.55-4.49,5.44Z"></path><path class="cls-3" d="M32.38,18.86c-1.12,0-1.89,.48-2.38,.93-.5-.45-1.27-.93-2.38-.93-1.84,0-3.35,1.5-3.35,3.35,0,2.09,1.22,3.35,4.65,6.15,.14,.12,.3,.25,.45,.37l.62,.54,.6-.52c.17-.13,.32-.26,.47-.39,3.43-2.81,4.65-4.07,4.65-6.15,0-1.84-1.5-3.35-3.34-3.35Zm-2.38,7.89c-3.15-2.6-3.8-3.41-3.8-4.54,0-.78,.63-1.42,1.42-1.42,.7,0,1.08,.37,1.55,.9l.83,.94,.83-.94c.46-.53,.84-.9,1.55-.9,.78,0,1.42,.63,1.42,1.42,0,1.14-.65,1.94-3.8,4.54Z"></path><path class="cls-3" d="M33.8,22.2c0,1.14-.65,1.94-3.8,4.54-3.15-2.6-3.8-3.41-3.8-4.54,0-.78,.63-1.42,1.42-1.42,.7,0,1.08,.37,1.55,.9l.83,.94,.83-.94c.46-.53,.84-.9,1.55-.9,.78,0,1.42,.63,1.42,1.42Z"></path></g></g></g></g><ellipse class="cls-1" cx="33.36" cy="21.16" rx="1.25" ry="1.98" transform="translate(-5.19 29.79) rotate(-45)"></ellipse></g></g></svg> 