<svg xmlns="http://www.w3.org/2000/svg" width="12.968" height="12.968" viewBox="0 0 12.968 12.968" fill="#1D63EF">
  <path id="Icon_awesome-linkedin-in" data-name="Icon awesome-linkedin-in" d="M2.9,12.969H.214V4.311H2.9ZM1.557,3.13A1.564,1.564,0,1,1,3.114,1.558,1.57,1.57,0,0,1,1.557,3.13Zm11.408,9.839H10.283V8.754c0-1-.02-2.293-1.4-2.293-1.4,0-1.612,1.091-1.612,2.22v4.287H4.587V4.311H7.166V5.492H7.2a2.825,2.825,0,0,1,2.544-1.4c2.721,0,3.221,1.792,3.221,4.119v4.756Z" transform="translate(0 -0.001)" />
</svg>
