<?xml version="1.0" encoding="UTF-8"?> <svg xmlns="http://www.w3.org/2000/svg" id="Analytics" viewBox="0 0 61 61"><defs><style>.cls-1{fill:#fedbc7;}.cls-2{fill:#fff;}.cls-3{fill:#fe1178;}</style></defs><g id="Icon-Content"><rect id="bg" class="cls-1" width="61" height="61" rx="15"></rect></g><path class="cls-2" d="M25.35,19.94a4.5,4.5,0,0,0-.27-1.35c-.51-2.07-1.9-5.89-5.52-7.5a7.63,7.63,0,0,1-1.84,5.73.52.52,0,0,1-.11.1l-.2.22-.09.09-.06.09A4.54,4.54,0,1,0,25.35,20h0Z"></path><rect class="cls-2" x="18.14" y="26.82" width="5.11" height="20.9" rx="2.56"></rect><path class="cls-3" d="M53.05,26.64A16.78,16.78,0,0,0,33.13,14.73a3.32,3.32,0,0,0-2.6,3.37,4.31,4.31,0,0,0,1.18,2.61A17.14,17.14,0,0,1,35.36,31c-.15,1.13-.23,2.29-.45,3.41a17.28,17.28,0,0,1-3.61,7.42,3.32,3.32,0,0,0,1.85,5.42,16,16,0,0,0,6.21.27A16.69,16.69,0,0,0,53.05,26.64ZM44.45,21a2.5,2.5,0,0,1,0,5A2.49,2.49,0,0,1,42,23.52,2.52,2.52,0,0,1,44.45,21Zm-9.17-.82a2.5,2.5,0,1,1,2.49,2.49A2.5,2.5,0,0,1,35.28,20.15Zm2.47,24.17a2.49,2.49,0,0,1-2.47-2.49,2.5,2.5,0,1,1,5,.05A2.48,2.48,0,0,1,37.75,44.32Zm6.72-5A2.52,2.52,0,0,1,42,36.8a2.5,2.5,0,0,1,5,0A2.54,2.54,0,0,1,44.47,39.33Zm3.38-6.68a2.5,2.5,0,1,1,2.52-2.45A2.51,2.51,0,0,1,47.85,32.65Z"></path></svg> 