<?xml version="1.0" encoding="UTF-8"?> <svg xmlns="http://www.w3.org/2000/svg" id="Analytics" viewBox="0 0 61 61"><defs><style>.cls-1{fill:#fedbc7;}.cls-2{fill:#fff;}.cls-3{fill:#fe1178;}</style></defs><g id="Icon-Content"><rect id="bg" class="cls-1" width="61" height="61" rx="15"></rect></g><rect class="cls-2" x="10.72" y="12.88" width="28.64" height="36.78" rx="2.77"></rect><path class="cls-3" d="M51.91,21.88a4.82,4.82,0,0,0-.26-1.35c-.51-2.07-1.91-5.89-5.53-7.5a7.59,7.59,0,0,1-1.84,5.73l-.1.1-.2.22-.1.09-.06.09a4.54,4.54,0,1,0,8.09,2.67h0Z"></path><rect class="cls-2" x="44.7" y="28.76" width="5.11" height="20.9" rx="2.56"></rect><rect class="cls-3" x="13.7" y="37.63" width="14.23" height="3.16" rx="1.58"></rect><rect class="cls-3" x="13.7" y="43.03" width="21.19" height="3.16" rx="1.58"></rect><rect class="cls-3" x="29.98" y="15.82" width="6.33" height="6.33" rx="1.18"></rect></svg> 