<?xml version="1.0" encoding="UTF-8"?> <svg xmlns="http://www.w3.org/2000/svg" id="Analytics" viewBox="0 0 61 61"><defs><style>.cls-1{fill:#fedbc7;}.cls-2{fill:#fff;}.cls-3{fill:#fe1178;}</style></defs><g id="Icon-Content"><rect id="bg" class="cls-1" width="61" height="61" rx="15"></rect></g><circle id="Ellipse_902" data-name="Ellipse 902" class="cls-2" cx="30.5" cy="30.5" r="13.5"></circle><path class="cls-3" d="M41.43,21.12l-8.64,8.65a.77.77,0,0,1-1.09,0L29,27.05a.77.77,0,0,0-1.09,0L26,28.92A.77.77,0,0,0,26,30l3.26,3.26,2.42,2.42a.77.77,0,0,0,1.09,0l11.6-11.6a.77.77,0,0,0,0-1.1l-1.87-1.87A.77.77,0,0,0,41.43,21.12Z"></path></svg> 