<?xml version="1.0" encoding="UTF-8"?> <svg xmlns="http://www.w3.org/2000/svg" id="Analytics" viewBox="0 0 61 61"><defs><style>.cls-1{fill:#feb691;}.cls-2{fill:#fff;}.cls-3{fill:#fe7100;}</style></defs><g id="Icon-2"><rect id="bg" class="cls-1" width="61" height="61" rx="15"></rect></g><path id="Icon_awesome-google" data-name="Icon awesome-google" class="cls-2" d="M44.86,30.58c0,7.61-5.22,13-12.92,13a13.36,13.36,0,0,1,0-26.71,12.84,12.84,0,0,1,9,3.5L37.26,23.9c-4.76-4.59-13.6-1.14-13.6,6.36a8.37,8.37,0,0,0,8.28,8.44c5.28,0,7.27-3.8,7.58-5.76H31.94V28.35H44.65A11.87,11.87,0,0,1,44.86,30.58Z"></path><path class="cls-3" d="M31.94,32.89H44.68a15.78,15.78,0,0,0,.18-2.31,11.87,11.87,0,0,0-.21-2.23H31.94Z"></path></svg> 