<?xml version="1.0" encoding="UTF-8"?> <svg xmlns="http://www.w3.org/2000/svg" id="Analytics" viewBox="0 0 61 61"><defs><style>.cls-1{fill:#feb691;}.cls-2{fill:#fe7100;}.cls-3{fill:#fff;}</style></defs><g id="Icon-SEO-Strategie"><rect id="bg" class="cls-1" width="61" height="61" rx="15"></rect></g><path class="cls-2" d="M44.68,29.18a3.86,3.86,0,0,1-2.46-3.64.82.82,0,0,0-.61-.8,2.29,2.29,0,0,0-.64,0,4.57,4.57,0,0,1-3.79-1.45,4.82,4.82,0,0,1-1.29-2.79.79.79,0,0,0-.76-.8,1.75,1.75,0,0,0-.54.12,3.35,3.35,0,0,1-1.83,0A4.41,4.41,0,0,1,29.9,17.4a.89.89,0,0,0-1.22-.57,13.09,13.09,0,0,0-6.64,4,14,14,0,0,0-3.74,9,12.57,12.57,0,0,0,.27,3.23,13.64,13.64,0,0,0,15.1,10.7A13,13,0,0,0,41,40.39a13.37,13.37,0,0,0,4.5-10A1.14,1.14,0,0,0,44.68,29.18Zm-20.8,2a.8.8,0,1,1,0-1.59.79.79,0,0,1,.79.79A.78.78,0,0,1,23.88,31.19Zm3.2,6.3a2.39,2.39,0,1,1,2.4-2.36A2.41,2.41,0,0,1,27.08,37.49Zm.8-9.55a1.59,1.59,0,1,1,0-3.17,1.61,1.61,0,0,1,1.59,1.59A1.59,1.59,0,0,1,27.88,27.94Zm6.38,11.15a1.59,1.59,0,1,1,0-3.18,1.59,1.59,0,0,1,0,3.18Zm.8-6.37a2.39,2.39,0,1,1,2.37-2.39A2.41,2.41,0,0,1,35.06,32.72Zm4.72,1.65a.8.8,0,0,1-.79-.8.79.79,0,0,1,.8-.78.79.79,0,0,1,0,1.58Z"></path><path class="cls-3" d="M35.06,32.72a2.39,2.39,0,1,1,2.37-2.39A2.41,2.41,0,0,1,35.06,32.72Z"></path><path class="cls-3" d="M27.08,37.49a2.38,2.38,0,1,1,2.39-2.36A2.4,2.4,0,0,1,27.08,37.49Z"></path><path class="cls-3" d="M29.47,26.36a1.59,1.59,0,1,1-1.58-1.59A1.6,1.6,0,0,1,29.47,26.36Z"></path><path class="cls-3" d="M34.25,35.91a1.59,1.59,0,0,1,0,3.18,1.59,1.59,0,1,1,0-3.18Z"></path><path class="cls-3" d="M24.65,30.39a.78.78,0,0,1-.77.8.81.81,0,0,1-.81-.79.82.82,0,0,1,.79-.8A.79.79,0,0,1,24.65,30.39Z"></path><path class="cls-3" d="M40.57,33.59a.78.78,0,0,1-.8.78.8.8,0,0,1-.78-.8.79.79,0,1,1,1.58,0Z"></path></svg> 