<?xml version="1.0" encoding="UTF-8"?> <svg xmlns="http://www.w3.org/2000/svg" id="Analytics" viewBox="0 0 61 61"><defs><style>.cls-1{fill:#fedbc7;}.cls-2{fill:#fe1178;}.cls-3{fill:#fff;}</style></defs><g id="Icon-Content"><rect id="bg" class="cls-1" width="61" height="61" rx="15"></rect></g><path class="cls-2" d="M38.51,29.47v8.12a6.33,6.33,0,0,1-6,6.41,6.15,6.15,0,0,1-6.35-6.15V29.47a.84.84,0,0,0-.84-.84H20.84a.85.85,0,0,0-.84.84v8A12.57,12.57,0,0,0,31.75,50.18a12.34,12.34,0,0,0,13-12.33V29.47a.85.85,0,0,0-.84-.84H39.35A.85.85,0,0,0,38.51,29.47Z"></path><rect class="cls-3" x="20" y="23.33" width="6.19" height="4.2" rx="1"></rect><rect class="cls-3" x="38.51" y="23.33" width="6.19" height="4.2" rx="1"></rect><path class="cls-2" d="M36.42,15.4H34.35a.53.53,0,0,1-.53-.53v-5a.54.54,0,0,0-.92-.38l-5,5a.53.53,0,0,0,.37.91h2.07a.54.54,0,0,1,.54.54v5a.53.53,0,0,0,.91.38l5-5A.54.54,0,0,0,36.42,15.4Z"></path></svg> 