<?xml version="1.0" encoding="UTF-8"?> <svg xmlns="http://www.w3.org/2000/svg" id="Analytics" viewBox="0 0 61 61"><defs><style>.cls-1{fill:#e8effe;}.cls-2{fill:#fff;}.cls-3{fill:#1d63ef;}</style></defs><g id="Icon-SEO-Strategie"><rect id="bg" class="cls-1" width="61" height="61" rx="15"></rect></g><path id="Icon_awesome-book-open" data-name="Icon awesome-book-open" class="cls-2" d="M29.6,21.42c-3.62-2.22-9.49-2.83-12.45-3A1.71,1.71,0,0,0,15.33,20V38.3A1.67,1.67,0,0,0,17,40c2.67.14,8.06.65,11.79,2.53a.84.84,0,0,0,1.15-.35.8.8,0,0,0,.11-.37V22.12A.81.81,0,0,0,29.6,21.42Z"></path><path class="cls-3" d="M44.57,18.42c-3,.17-8.83.78-12.46,3a.83.83,0,0,0-.4.71V41.75a.86.86,0,0,0,1.26.73C36.7,40.6,42.09,40.09,44.76,40a1.68,1.68,0,0,0,1.62-1.65V20.08a1.69,1.69,0,0,0-1.72-1.66h-.09Z"></path></svg> 