<?xml version="1.0" encoding="UTF-8"?> <svg xmlns="http://www.w3.org/2000/svg" id="Analytics" viewBox="0 0 61 61"><defs><style>.cls-1{fill:#feb691;}.cls-2{fill:#fe7100;}.cls-3{fill:#fff;}</style></defs><g id="Icon-SMO"><rect id="bg" class="cls-1" width="61" height="61" rx="15"></rect></g><g id="Groupe_822" data-name="Groupe 822"><rect id="Rectangle_613" data-name="Rectangle 613" class="cls-2" x="29.4" y="21.48" width="16" height="4" transform="translate(-5.65 33.33) rotate(-45)"></rect><path id="Polygone_13" data-name="Polygone 13" class="cls-2" d="M47.36,12.38a1,1,0,0,1,1.14.83.86.86,0,0,1,0,.32L46.9,23.66a1,1,0,0,1-1.14.83,1,1,0,0,1-.55-.28l-8.54-8.53a1,1,0,0,1,0-1.42,1,1,0,0,1,.55-.28Z"></path></g><g id="Groupe_825" data-name="Groupe 825"><rect id="Rectangle_613-2" data-name="Rectangle 613-2" class="cls-2" x="35.4" y="26.82" width="4" height="16" transform="translate(-13.67 36.65) rotate(-45)"></rect><path id="Polygone_13-2" data-name="Polygone 13-2" class="cls-2" d="M48.5,44.78a1,1,0,0,1-.83,1.14.81.81,0,0,1-.31,0l-10.14-1.6a1,1,0,0,1-.83-1.14,1,1,0,0,1,.28-.55l8.54-8.54a1,1,0,0,1,1.41,0,1,1,0,0,1,.28.55Z"></path></g><g id="Groupe_823" data-name="Groupe 823"><rect id="Rectangle_613-3" data-name="Rectangle 613-3" class="cls-2" x="18.06" y="32.82" width="16" height="4" transform="translate(-16.99 28.63) rotate(-45)"></rect><path id="Polygone_13-3" data-name="Polygone 13-3" class="cls-2" d="M16.11,45.92A1,1,0,0,1,15,45.09a1.61,1.61,0,0,1,0-.31l1.6-10.14a1,1,0,0,1,1.15-.83,1,1,0,0,1,.55.28l8.53,8.54a1,1,0,0,1,0,1.41,1,1,0,0,1-.55.28Z"></path></g><g id="Groupe_824" data-name="Groupe 824"><rect id="Rectangle_613-4" data-name="Rectangle 613-4" class="cls-2" x="24.06" y="15.48" width="4" height="16" transform="translate(-8.97 25.31) rotate(-45)"></rect><path id="Polygone_13-4" data-name="Polygone 13-4" class="cls-2" d="M15,13.53a1,1,0,0,1,.83-1.15,1.71,1.71,0,0,1,.32,0L26.24,14a1,1,0,0,1,.83,1.15,1,1,0,0,1-.28.55l-8.53,8.53a1,1,0,0,1-1.42,0,1,1,0,0,1-.28-.55Z"></path></g><circle id="Ellipse_913" data-name="Ellipse 913" class="cls-3" cx="31.23" cy="29.65" r="9"></circle></svg> 