<?xml version="1.0" encoding="UTF-8"?> <svg xmlns="http://www.w3.org/2000/svg" id="Analytics" viewBox="0 0 61 61"><defs><style>.cls-1{fill:#fedbc7;}.cls-2{fill:#fe1178;}.cls-3{fill:#fff;}</style></defs><g id="Icon-Content"><rect id="bg" class="cls-1" width="61" height="61" rx="15"></rect></g><path class="cls-2" d="M41.43,23H39.26c-.3-1.69.59-3.8-1.67-4.85l-.36.58a3.6,3.6,0,1,1-3.72-5.46,3.65,3.65,0,0,1,3.9,1.91,1.63,1.63,0,0,0,.77.72,4.69,4.69,0,0,1,3.23,4A27,27,0,0,1,41.43,23Z"></path><path class="cls-3" d="M45.86,23.05a4.64,4.64,0,0,0-.53,0H15.2a1.14,1.14,0,0,0-1.09,1.55c.56,2.06,1.15,4.11,1.74,6.16a1.12,1.12,0,0,0,1.11.89c.87,0,2.71,0,2.71,0H22v13c0,.25,0,.5,0,.78H39V31.65h2.29a21.55,21.55,0,0,0,2.71,0,1.5,1.5,0,0,0,1-.8c.67-2.08,1.25-4.19,1.82-6.3A1.12,1.12,0,0,0,45.86,23.05Z"></path><path class="cls-3" d="M41.57,45.47a4.64,4.64,0,0,0-.53,0H20a4.64,4.64,0,0,0-.53,0,1.14,1.14,0,0,0,0,2.28c.2,0,.41,0,.61,0H40.93c.2,0,.41,0,.61,0a1.14,1.14,0,1,0,0-2.28Z"></path></svg> 