<?xml version="1.0" encoding="UTF-8"?> <svg xmlns="http://www.w3.org/2000/svg" id="Analytics" viewBox="0 0 61 61"><defs><style>.cls-1{fill:#fedbc7;}.cls-2{fill:#fe1178;}.cls-3{fill:#fff;}</style></defs><g id="Icon-Content"><rect id="bg" class="cls-1" width="61" height="61" rx="15"></rect><path class="cls-2" d="M14.33,21.83h18a3,3,0,0,1,3,3V39.17a0,0,0,0,1,0,0h-24a0,0,0,0,1,0,0V24.83A3,3,0,0,1,14.33,21.83Z" transform="translate(-7.19 53.81) rotate(-90)"></path><path class="cls-3" d="M28.66,21.83h24a0,0,0,0,1,0,0V36.17a3,3,0,0,1-3,3h-18a3,3,0,0,1-3-3V21.83A0,0,0,0,1,28.66,21.83Z" transform="translate(10.15 71.15) rotate(-90)"></path><rect class="cls-2" x="34.1" y="23.75" width="9.27" height="2.47" rx="1.23"></rect><rect class="cls-2" x="34.1" y="29.29" width="13.09" height="1.56" rx="0.78"></rect><rect class="cls-2" x="34.1" y="31.99" width="10.05" height="1.56" rx="0.78"></rect><rect class="cls-2" x="34.1" y="34.78" width="11.74" height="1.56" rx="0.78"></rect></g></svg> 