<?xml version="1.0" encoding="UTF-8"?> <svg xmlns="http://www.w3.org/2000/svg" width="61" height="61" viewBox="0 0 61 61"><g id="Icon-SEO" transform="translate(-482 -665)"><rect id="bg" width="61" height="61" rx="15" transform="translate(482 665)" fill="#e8effe"></rect><path id="Polygone_3" data-name="Polygone 3" d="M7.155,4.416a2,2,0,0,1,3.691,0l6,14.35A2,2,0,0,1,15,21.537H3a2,2,0,0,1-1.845-2.771Z" transform="translate(493.231 705) rotate(-90)" fill="#1d63ef"></path><path id="Polygone_4" data-name="Polygone 4" d="M7.155,4.416a2,2,0,0,1,3.691,0l6,14.35A2,2,0,0,1,15,21.537H3a2,2,0,0,1-1.845-2.771Z" transform="translate(532.769 687) rotate(90)" fill="#1d63ef"></path><circle id="Ellipse_882" data-name="Ellipse 882" cx="3" cy="3" r="3" transform="translate(510 693)" fill="#fff"></circle></g></svg> 