<?xml version="1.0" encoding="UTF-8"?> <svg xmlns="http://www.w3.org/2000/svg" width="61" height="61" viewBox="0 0 61 61"><g id="Icon-SEO-SEO-International" transform="translate(-801 -8173)"><rect id="Rectangle_375" data-name="Rectangle 375" width="61" height="61" rx="15" transform="translate(801 8173)" fill="#e8effe"></rect><g id="Groupe_822" data-name="Groupe 822" transform="translate(6415.83 2190.25) rotate(45)"><rect id="Rectangle_613" data-name="Rectangle 613" width="4" height="16" transform="translate(302 8184)" fill="#1d63ef"></rect><path id="Polygone_13" data-name="Polygone 13" d="M7.191,1.112a1,1,0,0,1,1.617,0l6.036,8.3A1,1,0,0,1,14.036,11H1.964a1,1,0,0,1-.809-1.588Z" transform="translate(296 8176)" fill="#1d63ef"></path></g><g id="Groupe_825" data-name="Groupe 825" transform="translate(6845.75 13786.83) rotate(135)"><rect id="Rectangle_613-2" data-name="Rectangle 613" width="4" height="16" transform="translate(302 8184)" fill="#1d63ef"></rect><path id="Polygone_13-2" data-name="Polygone 13" d="M7.191,1.112a1,1,0,0,1,1.617,0l6.036,8.3A1,1,0,0,1,14.036,11H1.964a1,1,0,0,1-.809-1.588Z" transform="translate(296 8176)" fill="#1d63ef"></path></g><g id="Groupe_823" data-name="Groupe 823" transform="translate(-4750.83 14216.751) rotate(-135)"><rect id="Rectangle_613-3" data-name="Rectangle 613" width="4" height="16" transform="translate(302 8184)" fill="#1d63ef"></rect><path id="Polygone_13-3" data-name="Polygone 13" d="M7.191,1.112a1,1,0,0,1,1.617,0l6.036,8.3A1,1,0,0,1,14.036,11H1.964a1,1,0,0,1-.809-1.588Z" transform="translate(296 8176)" fill="#1d63ef"></path></g><g id="Groupe_824" data-name="Groupe 824" transform="translate(-5180.75 2620.17) rotate(-45)"><rect id="Rectangle_613-4" data-name="Rectangle 613" width="4" height="16" transform="translate(302 8184)" fill="#1d63ef"></rect><path id="Polygone_13-4" data-name="Polygone 13" d="M7.191,1.112a1,1,0,0,1,1.617,0l6.036,8.3A1,1,0,0,1,14.036,11H1.964a1,1,0,0,1-.809-1.588Z" transform="translate(296 8176)" fill="#1d63ef"></path></g><circle id="Ellipse_913" data-name="Ellipse 913" cx="9" cy="9" r="9" transform="translate(823 8195)" fill="#fff"></circle></g></svg> 