<?xml version="1.0" encoding="UTF-8"?> <svg xmlns="http://www.w3.org/2000/svg" id="Analytics" viewBox="0 0 61 61"><defs><style>.cls-1{fill:#fef0c5;}.cls-2{fill:#fff;}.cls-3{fill:#fec302;}</style></defs><rect id="bg" class="cls-1" width="61" height="61" rx="15"></rect><path class="cls-2" d="M20.12,16.29H40.88a3.66,3.66,0,0,1,3.66,3.66V33.63A10.75,10.75,0,0,1,33.8,44.38H20.12a3.66,3.66,0,0,1-3.66-3.66V19.95A3.66,3.66,0,0,1,20.12,16.29Z"></path><path class="cls-3" d="M20.12,16.29H36a0,0,0,0,1,0,0V25A10.75,10.75,0,0,1,25.2,35.79H16.45a0,0,0,0,1,0,0V19.95A3.66,3.66,0,0,1,20.12,16.29Z"></path></svg> 