<?xml version="1.0" encoding="UTF-8"?> <svg xmlns="http://www.w3.org/2000/svg" id="Analytics" viewBox="0 0 61 61"><defs><style>.cls-1{fill:#fef0c5;}.cls-2{fill:#fff;}.cls-3{fill:#fec302;}</style></defs><rect id="bg" class="cls-1" width="61" height="61" rx="15"></rect><g id="Groupe_774" data-name="Groupe 774"><path id="Rectangle_559" data-name="Rectangle 559" class="cls-2" d="M21.5,32.4h5v12h-5a3,3,0,0,1-3-3v-6A3,3,0,0,1,21.5,32.4Z"></path></g><g id="Groupe_774-2" data-name="Groupe 774"><path id="Rectangle_559-2" data-name="Rectangle 559" class="cls-2" d="M29.5,25h5V44.4h-8V28A3,3,0,0,1,29.5,25Z"></path></g><g id="Groupe_774-3" data-name="Groupe 774"><path id="Rectangle_559-3" data-name="Rectangle 559" class="cls-3" d="M37.5,16.6H40a2.49,2.49,0,0,1,2.5,2.49V41.32a3.08,3.08,0,0,1-3.08,3.08H34.5V19.6A3,3,0,0,1,37.5,16.6Z"></path></g></svg> 