<?xml version="1.0" encoding="UTF-8"?> <svg xmlns="http://www.w3.org/2000/svg" id="Analytics" viewBox="0 0 61 61"><defs><style>.cls-1{fill:#fedbc7;}.cls-2{fill:#fe1178;}.cls-3{fill:#fff;}</style></defs><g id="Icon-Content"><rect id="bg" class="cls-1" width="61" height="61" rx="15"></rect><g id="Groupe_773" data-name="Groupe 773"><rect id="Rectangle_555" data-name="Rectangle 555" class="cls-2" x="20" y="26.5" width="21" height="8" rx="1" transform="translate(-12.63 30.5) rotate(-45)"></rect><rect id="Rectangle_556" data-name="Rectangle 556" class="cls-3" x="39.02" y="14.48" width="7" height="8" rx="1" transform="translate(-0.61 35.48) rotate(-45)"></rect><path id="Polygone_5" data-name="Polygone 5" class="cls-2" d="M17.69,44.54a1,1,0,0,1-1.22-.71.92.92,0,0,1,0-.52l1.2-4.43a1,1,0,0,1,1.22-.7.89.89,0,0,1,.45.26l3.22,3.22a1,1,0,0,1,0,1.41,1,1,0,0,1-.45.26Z"></path></g></g></svg> 