<?xml version="1.0" encoding="UTF-8"?> <svg xmlns="http://www.w3.org/2000/svg" id="Analytics" viewBox="0 0 61 61"><defs><style>.cls-1{fill:#fedbc7;}.cls-2{fill:#fff;}.cls-3{fill:#fe1178;}</style></defs><g id="Icon-Content"><rect id="bg" class="cls-1" width="61" height="61" rx="15"></rect></g><path class="cls-2" d="M17.65,33.41a3.89,3.89,0,0,1-1.34-.63l.59-1.32a3.92,3.92,0,0,0,1.16.57,4.22,4.22,0,0,0,1.34.22A2.26,2.26,0,0,0,20.51,32a.68.68,0,0,0,.36-.59.57.57,0,0,0-.21-.45,1.69,1.69,0,0,0-.55-.29c-.22-.07-.51-.15-.89-.24a12.38,12.38,0,0,1-1.42-.41,2.4,2.4,0,0,1-.95-.66,1.81,1.81,0,0,1-.39-1.22A2.15,2.15,0,0,1,16.81,27a2.41,2.41,0,0,1,1.08-.85,4.39,4.39,0,0,1,1.76-.32,5.58,5.58,0,0,1,1.42.18,4.21,4.21,0,0,1,1.22.49l-.55,1.34a4.2,4.2,0,0,0-2.1-.6,2,2,0,0,0-1.09.24.74.74,0,0,0-.35.63.62.62,0,0,0,.41.58,6.57,6.57,0,0,0,1.24.37c.58.14,1,.28,1.42.41a2.48,2.48,0,0,1,.95.65,1.78,1.78,0,0,1,.39,1.21,2.08,2.08,0,0,1-.36,1.18,2.44,2.44,0,0,1-1.09.85,4.41,4.41,0,0,1-1.77.32A6,6,0,0,1,17.65,33.41Z"></path><path class="cls-2" d="M29.69,32.12v1.41H23.81V25.94h5.73v1.41h-4V29h3.52v1.36H25.56v1.76Z"></path><path class="cls-2" d="M32.61,33.15a3.95,3.95,0,0,1-1.49-5.42,3.75,3.75,0,0,1,1.49-1.41,4.68,4.68,0,0,1,4.25,0,3.82,3.82,0,0,1,2,3.42,3.79,3.79,0,0,1-2,3.41,4.68,4.68,0,0,1-4.25,0ZM36,31.85A2.2,2.2,0,0,0,36.8,31a2.57,2.57,0,0,0,.31-1.25,2.61,2.61,0,0,0-.31-1.26,2.2,2.2,0,0,0-.85-.86,2.54,2.54,0,0,0-2.43,0,2.2,2.2,0,0,0-.85.86,2.61,2.61,0,0,0-.31,1.26A2.57,2.57,0,0,0,32.67,31a2.2,2.2,0,0,0,.85.86,2.54,2.54,0,0,0,2.43,0Z"></path><path class="cls-3" d="M47.75,25.57V23.4H40.58v2.17H42a1,1,0,0,1,1,1v6.33a1,1,0,0,1-1,1H40.58v2.16h7.17V34H46.32a1,1,0,0,1-1-1V26.6a1,1,0,0,1,1-1Z"></path></svg> 