<?xml version="1.0" encoding="UTF-8"?> <svg xmlns="http://www.w3.org/2000/svg" id="Analytics" viewBox="0 0 61 61"><defs><style>.cls-1{fill:#feb691;}.cls-2{fill:#fe7100;}.cls-3{fill:#fff;}</style></defs><g id="Icon-SEO-Strategie"><rect id="bg" class="cls-1" width="61" height="61" rx="15"></rect></g><path class="cls-2" d="M40,13.32c-3.35,0-6.71,0-10.06,0a4.4,4.4,0,0,0-3.3,1.3c-1.95,1.93-4,3.79-6,5.63a4.5,4.5,0,0,0-1.54,3.51q0,3.7,0,7.43c0,3.4,0,6.8,0,10.19a4.18,4.18,0,0,0,4.3,4.31H40.1a5.05,5.05,0,0,0,1.23-.15,4.17,4.17,0,0,0,3.06-4.16V17.68A4.19,4.19,0,0,0,40,13.32Zm-7.55,5.81a1.21,1.21,0,0,1,1.19-1c2,0,4,0,6,0a1.3,1.3,0,0,1,1.25,1.38,1.23,1.23,0,0,1-1.26,1.29c-1,0-2,0-3,0H33.86A1.32,1.32,0,0,1,32.49,19.13ZM21.86,23.38a1.59,1.59,0,0,1,.59-1.12l4.23-4.05,1.8-1.72A1.61,1.61,0,0,1,29.74,16c0,.1,0,.2,0,.31V21a2.56,2.56,0,0,1-2.83,2.68l-4.88-.25ZM40,34.36c-1,1.1-1.93,2.19-2.9,3.29-.7.8-1.4,1.59-2.11,2.38a1.45,1.45,0,0,1-2.41-.19c-.81-1.24-1.63-2.48-2.44-3.73-.08-.1-.15-.21-.3-.43a2.25,2.25,0,0,1-.23.36c-1.31,1.41-2.64,2.82-4,4.23a1.25,1.25,0,0,1-1.3.4,1.36,1.36,0,0,1-1-1,1.18,1.18,0,0,1,.3-1.15c1.85-2,3.71-3.92,5.59-5.85a1.43,1.43,0,0,1,2.21.28c.83,1.26,1.66,2.51,2.48,3.77l.25.37.26-.28,3.51-4a1.41,1.41,0,0,1,.93-.55,1.31,1.31,0,0,1,1.33.57A1.35,1.35,0,0,1,40,34.36Zm.8-8.93a1.28,1.28,0,0,1-1.31.79c-1.65,0-3.3,0-5,0-.26,0-.53,0-.79,0a1.29,1.29,0,0,1-1.31-1.38,1.27,1.27,0,0,1,1.34-1.3h5.77A1.35,1.35,0,0,1,40.8,25.43Z"></path><path class="cls-3" d="M34.19,37.08a3.06,3.06,0,0,0,.26-.29c1.17-1.33,2.34-2.65,3.5-4a1.49,1.49,0,0,1,.94-.54,1.3,1.3,0,0,1,1.33.58A1.36,1.36,0,0,1,40,34.36c-1,1.1-1.94,2.19-2.9,3.29-.71.79-1.4,1.59-2.11,2.38a1.45,1.45,0,0,1-2.41-.19l-2.44-3.72-.3-.44a2.25,2.25,0,0,1-.23.36q-2,2.12-4,4.22a1.22,1.22,0,0,1-1.3.4,1.3,1.3,0,0,1-1-1,1.19,1.19,0,0,1,.3-1.15c1.86-2,3.71-3.92,5.59-5.85a1.42,1.42,0,0,1,2.21.28q1.24,1.88,2.48,3.77Z"></path><path class="cls-3" d="M36.66,23.54h2.89a1.35,1.35,0,0,1,1.25,1.89,1.28,1.28,0,0,1-1.31.79h-5c-.26,0-.53,0-.79,0a1.29,1.29,0,0,1-1.31-1.38,1.27,1.27,0,0,1,1.34-1.3Z"></path><path class="cls-3" d="M36.67,20.85H33.86a1.32,1.32,0,0,1-1.37-1.73,1.21,1.21,0,0,1,1.19-.95c2,0,4,0,6,0a1.3,1.3,0,0,1,1.25,1.37,1.24,1.24,0,0,1-1.27,1.3c-1,0-2,0-2.95,0Z"></path></svg> 