<?xml version="1.0" encoding="UTF-8"?> <svg xmlns="http://www.w3.org/2000/svg" width="61" height="61" viewBox="0 0 61 61"><g id="Icon-SEO-Referencement-e-commerce" transform="translate(-270 -9906)"><rect id="Rectangle_377" data-name="Rectangle 377" width="61" height="61" rx="15" transform="translate(270 9906)" fill="#e8effe"></rect><g id="Icon_feather-shopping-cart" data-name="Icon feather-shopping-cart" transform="translate(282.5 9919.25)"><path id="Tracé_654" data-name="Tracé 654" d="M15,31.5A1.5,1.5,0,1,1,13.5,30,1.5,1.5,0,0,1,15,31.5Z" fill="none" stroke="#fff" stroke-linecap="round" stroke-linejoin="round" stroke-width="3"></path><path id="Tracé_657" data-name="Tracé 657" d="M10.637,9.036H33.765l-1.841,12.28-2.259,2.728H15.007L11.9,22.976l-1.259-8.391Z" fill="#1d63ef"></path><path id="Tracé_655" data-name="Tracé 655" d="M31.5,31.5A1.5,1.5,0,1,1,30,30,1.5,1.5,0,0,1,31.5,31.5Z" fill="none" stroke="#fff" stroke-linecap="round" stroke-linejoin="round" stroke-width="3"></path><path id="Tracé_656" data-name="Tracé 656" d="M1.5,1.5h6l4.02,20.085a3,3,0,0,0,3,2.415H29.1a3,3,0,0,0,3-2.415L34.5,9H9" fill="none" stroke="#1d63ef" stroke-linecap="round" stroke-linejoin="round" stroke-width="3"></path></g></g></svg> 