<?xml version="1.0" encoding="UTF-8"?> <svg xmlns="http://www.w3.org/2000/svg" id="Analytics" viewBox="0 0 61 61"><defs><style>.cls-1{fill:#fedbc7;}.cls-2{fill:#fe1178;}.cls-3{fill:#fff;}</style></defs><g id="Icon-growth-hacking"><rect id="bg" class="cls-1" width="61" height="61" rx="15"></rect></g><path class="cls-2" d="M37,25.29c0,1.84,0,3.67,0,5.51a6.51,6.51,0,0,1-13,.05q-.09-5.57,0-11.15a6.51,6.51,0,0,1,13,0C37,21.58,37,23.43,37,25.29Z"></path><path class="cls-3" d="M41.23,35.32a11.58,11.58,0,0,1-8.77,6.76c-.2,0-.39.08-.61.13v2.66h5a1.36,1.36,0,0,1,1.52,1.31,1.34,1.34,0,0,1-1.51,1.32H24.16a1.32,1.32,0,1,1,0-2.62c1.65,0,3.31,0,5,0V42.18A11.19,11.19,0,0,1,24,40.3a11.65,11.65,0,0,1-5.25-9.95c0-.78,0-1.55,0-2.32a1.32,1.32,0,0,1,1.32-1.44c.76,0,1.25.58,1.3,1.45a29,29,0,0,0,.3,4.68,9.1,9.1,0,0,0,17.86-.92c.15-1.23.09-2.47.12-3.71,0-.92.54-1.51,1.31-1.5A1.32,1.32,0,0,1,42.26,28C42.29,30.52,42.37,33,41.23,35.32Z"></path></svg> 