<?xml version="1.0" encoding="UTF-8"?> <svg xmlns="http://www.w3.org/2000/svg" id="Analytics" viewBox="0 0 61 61"><defs><style>.cls-1{fill:#fef0c5;}.cls-2{fill:#fff;}.cls-3{fill:#fec302;}</style></defs><rect id="bg" class="cls-1" width="61" height="61" rx="15"></rect><path class="cls-2" d="M18.34,20.47v8.16a13.85,13.85,0,0,0,12.94,14A13.59,13.59,0,0,0,45.53,29V20.47a3.06,3.06,0,0,0-2.35-3L32.65,15a3.14,3.14,0,0,0-1.43,0L20.69,17.5A3.06,3.06,0,0,0,18.34,20.47Z"></path><path class="cls-3" d="M32.87,23.07,33.81,25a1,1,0,0,0,.78.57l2.09.3a1.05,1.05,0,0,1,.58,1.79l-1.51,1.47a1,1,0,0,0-.3.93l.36,2.07a1.05,1.05,0,0,1-1.53,1.1l-1.86-1a1,1,0,0,0-1,0l-1.87,1a1,1,0,0,1-1.52-1.1L28.42,30a1,1,0,0,0-.3-.93l-1.51-1.47a1.05,1.05,0,0,1,.58-1.79l2.08-.3a1,1,0,0,0,.79-.57L31,23.07A1,1,0,0,1,32.87,23.07Z"></path></svg> 