<?xml version="1.0" encoding="UTF-8"?> <svg xmlns="http://www.w3.org/2000/svg" id="Analytics" viewBox="0 0 61 61"><defs><style>.cls-1{fill:#fedbc7;}.cls-2{fill:#fe1178;}.cls-3{fill:#fff;}</style></defs><g id="Icon-Content"><rect id="bg" class="cls-1" width="61" height="61" rx="15"></rect><rect class="cls-2" x="17.06" y="18.46" width="29.84" height="24.35" rx="3" transform="translate(1.34 62.62) rotate(-90)"></rect><path class="cls-3" d="M28.87,33.6a1.21,1.21,0,0,0,.24.35H25.36a1,1,0,0,1-.79-1.65l3.58-4.41a1,1,0,0,1,1.57,0l1.33,1.65-2,2.45A1.52,1.52,0,0,0,28.87,33.6Z"></path><path class="cls-3" d="M37.39,34H30.23a1,1,0,0,1-.78-1.65l1.93-2.37,1.65-2a1,1,0,0,1,.36-.27.52.52,0,0,1,.21-.07.56.56,0,0,1,.22,0,.9.9,0,0,1,.36.08.87.87,0,0,1,.42.29l.49.6a2.45,2.45,0,0,0-.08.62,2.56,2.56,0,0,0,2.56,2.56h.09l.52.63A1,1,0,0,1,37.39,34Z"></path><path class="cls-3" d="M39.63,29.11c0,.1,0,.2,0,.31a2.54,2.54,0,0,1-.12.43c0,.08-.07.16-.11.25a.28.28,0,0,0-.05.08l-.08.12-.09.12-.06.07a2.09,2.09,0,0,1-.22.2s0,0,0,0a1.32,1.32,0,0,1-.25.16s0,0,0,0l-.29.13-.08,0a.76.76,0,0,1-.26.06h0a3,3,0,0,1-.31,0,1.86,1.86,0,0,1-.34,0L37,31.07l-.06,0h0l-.29-.13-.07-.05a1.7,1.7,0,0,1-.26-.18l-.12-.11-.1-.1s0-.05-.06-.08a1.44,1.44,0,0,1-.18-.25,2.79,2.79,0,0,1-.15-.3s0,0,0-.05a2.29,2.29,0,0,1-.08-.28s0-.06,0-.09a1.82,1.82,0,0,1,0-.32V29s0,0,0,0a1.36,1.36,0,0,1,0-.29,2,2,0,0,1,.09-.3v0a2.08,2.08,0,0,1,.53-.77,1.73,1.73,0,0,1,.21-.17,2,2,0,0,1,.27-.17,2.52,2.52,0,0,1,.29-.12h0a2.47,2.47,0,0,1,.29-.06,1.67,1.67,0,0,1,.32,0A2.06,2.06,0,0,1,39.63,29.11Z"></path></g></svg> 