<?xml version="1.0" encoding="UTF-8"?> <svg xmlns="http://www.w3.org/2000/svg" id="Analytics" viewBox="0 0 61 61"><defs><style>.cls-1{fill:#feb691;}.cls-2{fill:#fff;}.cls-3{fill:#fe7100;}</style></defs><g id="Icon-marketing-digital"><rect id="bg" class="cls-1" width="61" height="61" rx="15"></rect></g><path class="cls-2" d="M44.21,16a19.17,19.17,0,0,0-6.49,1.15,23.19,23.19,0,0,0-9.39,6.14.49.49,0,0,1-.34.15A14.6,14.6,0,0,0,24.7,24a15.27,15.27,0,0,0-6.94,3.94.63.63,0,0,0-.19.67.59.59,0,0,0,.54.41l2.47.35,2.11.31-.51.57a.61.61,0,0,0,0,.95l7.64,7.64a.61.61,0,0,0,1,0c.18-.15.36-.3.58-.5.21,1.56.43,3.05.64,4.54,0,.36.3.63.6.58a1,1,0,0,0,.58-.29,15.17,15.17,0,0,0,4.33-10,.77.77,0,0,1,.17-.47,22.93,22.93,0,0,0,5-6.79A20.15,20.15,0,0,0,45,16.79C45,16.25,44.75,16,44.21,16Zm-7.52,11.3a3,3,0,1,1,3-3A3,3,0,0,1,36.69,27.33Z"></path><path class="cls-3" d="M25.68,39.17a3.57,3.57,0,0,1-1.87,3.08,27.77,27.77,0,0,1-4.47,1.87c-.8.28-1.61.53-2.41.8a.66.66,0,0,1-.73-.13.61.61,0,0,1-.12-.7,44.55,44.55,0,0,1,2.42-6.44,3.83,3.83,0,0,1,2.12-2.08A3.76,3.76,0,0,1,25.68,39.17Z"></path></svg> 