<?xml version="1.0" encoding="UTF-8"?> <svg xmlns="http://www.w3.org/2000/svg" width="100.586" height="22.018" viewBox="0 0 100.586 22.018"><g id="LOGO-Noiise" transform="translate(-100 -45.627)"><path id="Tracé_270" data-name="Tracé 270" d="M76.5,54.011,62.247,45.475v6.216H54.1v-19.7c4.764,2.851,9.453,5.659,14.248,8.531V34.453H76.5Z" transform="translate(45.904 13.634)"></path><path id="Tracé_271" data-name="Tracé 271" d="M75.368,42.764a8.375,8.375,0,0,1,2.669-6.553,9.915,9.915,0,0,1,5.651-2.479,11.657,11.657,0,0,1,5.716.609,8.341,8.341,0,0,1,5.684,6.676,8.909,8.909,0,0,1-2.58,8.379,9.75,9.75,0,0,1-6.057,2.552,11.655,11.655,0,0,1-4.745-.459,8.771,8.771,0,0,1-6.329-7.43A8.015,8.015,0,0,1,75.368,42.764Zm7.062.042a2.714,2.714,0,0,0,2.822,2.879,2.86,2.86,0,1,0-.042-5.716A2.714,2.714,0,0,0,82.43,42.807Z" transform="translate(48.963 13.868)"></path><path id="Tracé_272" data-name="Tracé 272" d="M127.482,34.144h16.066v5.132h-8.866v1.017h7.983v4.768h-7.991v.994h9.441V51.38H127.482Z" transform="translate(56.471 13.944)"></path><path id="Tracé_273" data-name="Tracé 273" d="M126.659,34.32v5.956c-1.582-.368-3.146-.772-4.729-1.083a10.333,10.333,0,0,0-2.081-.079c-.128,0-.254.214-.381.328.106.109.2.284.321.316.909.229,1.84.386,2.739.649a8.426,8.426,0,0,1,4.029,2.076,4.5,4.5,0,0,1,1.242,2.636,5.7,5.7,0,0,1-1.228,4.664,6.811,6.811,0,0,1-3.971,2,18.5,18.5,0,0,1-7.658-.382c-.709-.161-1.425-.3-2.123-.506a.662.662,0,0,1-.406-.462c-.029-1.8-.018-3.592-.018-5.428,2.522.558,4.888,1.574,7.442,1.518l.1-.353a12.535,12.535,0,0,0-1.25-.434,16.5,16.5,0,0,1-4.774-1.623,4.706,4.706,0,0,1-2.182-4.952,7.593,7.593,0,0,1,.524-2.027,5.615,5.615,0,0,1,4.278-3.211,16.1,16.1,0,0,1,5.889-.168C123.821,33.939,125.22,34.128,126.659,34.32Z" transform="translate(54.196 13.861)"></path><path id="Tracé_274" data-name="Tracé 274" d="M94.067,32.127h7.88c0,1.253.022,2.473-.026,3.69-.007.159-.35.376-.574.444-2.15.652-4.306,1.277-6.452,2.017h7.011V51.672H94.067Z" transform="translate(51.659 13.654)"></path><path id="Tracé_275" data-name="Tracé 275" d="M103.653,38.286h7.052V51.659h-7.7V32.144h7.749c0,1.232.018,2.472-.025,3.711,0,.146-.329.348-.54.412-2.132.643-4.272,1.263-6.409,1.892C103.746,38.169,103.722,38.216,103.653,38.286Z" transform="translate(52.946 13.656)"></path></g></svg> 