<?xml version="1.0" encoding="UTF-8"?> <svg xmlns="http://www.w3.org/2000/svg" xmlns:xlink="http://www.w3.org/1999/xlink" width="40px" height="40px" viewBox="0 0 40 40" version="1.1"><g id="surface1"><path style=" stroke:none;fill-rule:nonzero;fill:rgb(100%,0%,0%);fill-opacity:1;" d="M 17.207031 24.191406 L 18.957031 24.191406 L 18.957031 32.164062 L 17.550781 32.160156 L 17.554688 31.132812 C 17.179688 31.941406 15.671875 32.59375 14.886719 32.023438 C 14.464844 31.722656 14.480469 31.191406 14.4375 30.738281 C 14.414062 30.480469 14.433594 29.917969 14.429688 29.152344 L 14.425781 24.191406 L 16.164062 24.191406 L 16.171875 29.230469 C 16.171875 29.917969 16.136719 30.316406 16.175781 30.449219 C 16.425781 31.207031 17.066406 30.796875 17.207031 30.410156 C 17.253906 30.28125 17.207031 29.921875 17.207031 29.199219 Z M 24.542969 25.753906 L 24.546875 29.921875 C 24.546875 31.941406 23.394531 33.089844 21.558594 31.40625 L 21.429688 32.074219 L 19.992188 32.09375 L 20.003906 21.40625 L 21.746094 21.40625 L 21.738281 24.503906 C 23.355469 23.21875 24.542969 24.171875 24.542969 25.753906 Z M 23.25 25.546875 C 23.25 25.203125 22.90625 24.921875 22.484375 24.921875 C 22.066406 24.921875 21.722656 25.203125 21.722656 25.546875 L 21.722656 30.222656 C 21.722656 30.566406 22.066406 30.851562 22.484375 30.851562 C 22.90625 30.851562 23.25 30.566406 23.25 30.222656 Z M 19.691406 15.351562 C 20.117188 15.351562 20.464844 14.96875 20.464844 14.5 L 20.464844 10.089844 C 20.464844 9.621094 20.117188 9.234375 19.691406 9.234375 C 19.265625 9.234375 18.917969 9.621094 18.917969 10.089844 L 18.917969 14.5 C 18.917969 14.96875 19.265625 15.351562 19.691406 15.351562 Z M 14.769531 22.796875 L 14.769531 21.410156 L 9.179688 21.398438 L 9.179688 22.765625 L 10.925781 22.769531 L 10.925781 32.171875 L 12.671875 32.171875 L 12.671875 22.796875 Z M 40 0 L 40 40 L 0 40 L 0 0 Z M 23.09375 13.773438 C 23.09375 14.484375 23.105469 14.957031 23.128906 15.199219 C 23.152344 15.4375 23.203125 15.667969 23.296875 15.890625 C 23.386719 16.109375 23.527344 16.285156 23.714844 16.421875 C 23.902344 16.554688 24.144531 16.621094 24.429688 16.621094 C 24.683594 16.621094 24.90625 16.550781 25.101562 16.410156 C 25.296875 16.273438 25.457031 16.066406 25.59375 15.785156 L 25.5625 16.472656 L 27.511719 16.472656 L 27.511719 8.1875 L 25.976562 8.1875 L 25.976562 14.632812 C 25.976562 14.984375 25.6875 15.269531 25.335938 15.269531 C 24.984375 15.269531 24.695312 14.984375 24.695312 14.632812 L 24.695312 8.1875 L 23.097656 8.1875 L 23.097656 13.773438 Z M 17.589844 9.347656 C 17.457031 9.792969 17.390625 10.414062 17.390625 11.210938 L 17.390625 13.402344 C 17.390625 14.128906 17.425781 14.675781 17.5 15.039062 C 17.574219 15.398438 17.695312 15.710938 17.867188 15.964844 C 18.035156 16.222656 18.273438 16.414062 18.582031 16.539062 C 18.890625 16.671875 19.265625 16.730469 19.710938 16.730469 C 20.109375 16.730469 20.460938 16.65625 20.765625 16.507812 C 21.070312 16.359375 21.324219 16.125 21.515625 15.816406 C 21.714844 15.503906 21.84375 15.167969 21.902344 14.808594 C 21.960938 14.453125 21.992188 13.886719 21.992188 13.117188 L 21.992188 11.023438 C 21.992188 10.417969 21.960938 9.964844 21.890625 9.667969 C 21.828125 9.371094 21.710938 9.082031 21.53125 8.804688 C 21.359375 8.523438 21.109375 8.300781 20.785156 8.125 C 20.460938 7.949219 20.078125 7.863281 19.625 7.863281 C 19.089844 7.863281 18.648438 8 18.304688 8.269531 C 17.960938 8.539062 17.722656 8.898438 17.589844 9.347656 Z M 11.210938 4.917969 L 13.523438 10.375 L 13.523438 16.726562 L 15.363281 16.726562 L 15.363281 10.375 L 17.539062 4.929688 L 15.527344 4.929688 L 14.371094 8.972656 L 13.203125 4.917969 Z M 32.570312 22.304688 C 32.570312 20.171875 30.71875 18.425781 28.453125 18.425781 L 11.546875 18.425781 C 9.28125 18.425781 7.433594 20.171875 7.433594 22.304688 L 7.433594 31.203125 C 7.433594 33.335938 9.28125 35.082031 11.546875 35.082031 L 28.453125 35.082031 C 30.71875 35.082031 32.570312 33.335938 32.570312 31.203125 Z M 30.015625 29.371094 C 30.617188 32.921875 25.605469 33.507812 25.605469 29.375 L 25.605469 26.894531 C 25.605469 26.148438 25.675781 25.566406 25.828125 25.136719 C 25.976562 24.703125 26.226562 24.382812 26.5625 24.148438 C 27.621094 23.382812 29.710938 23.617188 29.925781 25.113281 C 29.996094 25.582031 30.015625 26.410156 30.015625 27.234375 L 30.015625 28.359375 L 27.015625 28.359375 L 27.015625 30.285156 C 27.015625 30.675781 27.339844 30.992188 27.734375 30.992188 L 27.988281 30.992188 C 28.382812 30.992188 28.703125 30.671875 28.703125 30.285156 L 28.703125 29.554688 C 28.703125 29.484375 28.707031 29.425781 28.707031 29.375 Z M 27.039062 26.984375 L 28.695312 26.984375 L 28.714844 26.019531 C 28.714844 25.589844 28.363281 25.242188 27.929688 25.242188 L 27.828125 25.242188 C 27.394531 25.242188 27.046875 25.589844 27.046875 26.019531 Z M 27.039062 26.984375 "></path></g></svg> 