<?xml version="1.0" encoding="UTF-8"?> <svg xmlns="http://www.w3.org/2000/svg" xmlns:xlink="http://www.w3.org/1999/xlink" width="209" height="209" xml:space="preserve" overflow="hidden"><defs><clipPath id="clip0"><rect x="1340" y="980" width="209" height="209"></rect></clipPath></defs><g clip-path="url(#clip0)" transform="translate(-1340 -980)"><path d="M1497.61 980C1525.99 980 1549 1003.01 1549 1031.39L1549 1137.61C1549 1165.99 1525.99 1189 1497.61 1189L1391.39 1189C1363.01 1189 1340 1165.99 1340 1137.61L1340 1031.39C1340 1003.01 1363.01 980 1391.39 980Z" fill="#FEDBC7"></path><path d="M1413.01 1060.28 1413.01 1060.28C1421.04 1052.26 1434.04 1052.26 1442.07 1060.28L1473.62 1091.76 1473.62 1091.76 1444.5 1120.85 1444.5 1120.85 1413.01 1089.33C1405 1081.31 1405 1068.3 1413.01 1060.28Z" fill="#FFFFFF"></path><path d="M1475.99 1060.28 1475.99 1060.28C1484 1068.3 1484 1081.31 1475.99 1089.33L1444.5 1120.85 1444.5 1120.85 1415.38 1091.76 1415.38 1091.76 1446.9 1060.28C1454.92 1052.24 1467.94 1052.24 1475.97 1060.26 1475.98 1060.27 1475.98 1060.27 1475.99 1060.28Z" fill="#FE1178"></path></g></svg> 