<?xml version="1.0" encoding="UTF-8"?>
<svg xmlns="http://www.w3.org/2000/svg" id="Analytics" viewBox="0 0 61 61"><defs><style>.cls-1{fill:#e8effe;}.cls-2{fill:#1d63ef;}</style></defs><g id="Icon-SEO"><rect id="bg" class="cls-1" width="61" height="61" rx="15"/><path class="cls-2" d="M46.35,29.16,32,23.16a1.83,1.83,0,0,0-.77-.16L31,23a2.08,2.08,0,0,0-1,.13l-14.35,6a2,2,0,0,0-1.08,1.08,2,2,0,0,0,1.08,2.61l14.35,6a1.83,1.83,0,0,0,.77.16L31,39a2.08,2.08,0,0,0,1-.13l14.35-6a2,2,0,0,0,1.08-1.08A2,2,0,0,0,46.35,29.16ZM31,34a3,3,0,1,1,3-3A3,3,0,0,1,31,34Z"/></g></svg>