<?xml version="1.0" encoding="UTF-8"?>
<svg xmlns="http://www.w3.org/2000/svg" id="Analytics" viewBox="0 0 61 61"><defs><style>.cls-1{fill:#feb691;}.cls-2{fill:#fff;}.cls-3{fill:#fe7100;}</style></defs><g id="Icon-2"><rect id="bg" class="cls-1" width="61" height="61" rx="15"/><path id="Rectangle_554" data-name="Rectangle 554" class="cls-2" d="M33.29,29.49h0a3,3,0,0,1,0,4.24l-9.9,9.9a3,3,0,0,1-4.24,0h0a3,3,0,0,1,0-4.24l9.9-9.9A3,3,0,0,1,33.29,29.49Z"/><path id="Polygone_11" data-name="Polygone 11" class="cls-3" d="M41.47,18.59A3,3,0,0,1,45,22.28L40.82,38.39a3,3,0,0,1-5.06,1.33l-12-12.46A3,3,0,0,1,23.79,23a3,3,0,0,1,1.43-.77Z"/></g></svg>