<?xml version="1.0" encoding="UTF-8"?><svg id="Calque_2" xmlns="http://www.w3.org/2000/svg" viewBox="0 0 181 181"><defs><style>.cls-1{fill:#fff;}.cls-2{fill:#56e0bd;}.cls-3{fill:#d4f5ed;stroke:#b4eede;stroke-miterlimit:10;}</style></defs><g id="Calque_1-2"><g><g id="Icon-UX"><g id="bg"><rect class="cls-3" x=".5" y=".5" width="180" height="180" rx="44.26" ry="44.26"/></g></g><g><path class="cls-2" d="M137.58,59.6l-4.36,4.36c-.55,.55-.85,1.29-.85,2.06v41.72H47.71V55.85H122.74c.64,0,1.25-.25,1.7-.7l5.03-5.04c.35-.35,.1-.95-.4-.95H47.03c-.55,0-1.07,.08-1.56,.24-.17,.05-.33,.11-.49,.17-1.26,.54-2.27,1.55-2.8,2.8-.06,.16-.12,.32-.17,.49-.16,.49-.24,1.02-.24,1.56v60.07c0,1.09,.33,2.1,.9,2.93,.03,.06,.07,.11,.11,.16,.96,1.31,2.5,2.16,4.25,2.16h34.06v7.42h-11.69c-.65,0-1.24,.26-1.67,.69-.53,.53-.8,1.3-.64,2.13,.21,1.12,1.27,1.88,2.4,1.88h41.2c.65,0,1.23-.26,1.66-.69,.53-.52,.8-1.3,.64-2.13-.21-1.12-1.26-1.88-2.4-1.88h-11.6v-7.42h34.07c.21,0,.41-.01,.61-.04,2.61-.3,4.64-2.52,4.64-5.21V59.91c0-.38-.46-.57-.73-.3Zm-50.26,53.41c.27-.84,.94-1.51,1.78-1.78,2.17-.71,4.17,1.13,3.76,3.28-.21,1.13-1.13,2.05-2.26,2.26-2.15,.41-3.99-1.59-3.28-3.76Z"/><path class="cls-2" d="M103.15,74.08h0c1.12-1.2,2.63-1.96,4.26-2.13,3.72-.39,7.06,2.31,7.45,6.04,.39,3.72-2.31,7.06-6.04,7.45h-.16c-.06,0-.13,0-.19,0h-.45c-.07,0-.15,0-.22,0-3.12,.23-6,1.72-8,4.13-2.12-5.53,.44-11.04,2.08-13.76,.31-.63,.73-1.21,1.22-1.72h.05Z"/><rect class="cls-1" x="111.38" y="57.56" width="31.24" height="7.64" rx="3.65" ry="3.65" transform="translate(-6.21 107.78) rotate(-45)"/></g></g></g></svg>