<svg xmlns="http://www.w3.org/2000/svg" xmlns:xlink="http://www.w3.org/1999/xlink" width="156.461" height="123.944" viewBox="0 0 156.461 123.944">
  <defs>
    <filter id="Icon_material-place" x="88.138" y="46.331" width="41.446" height="46.351" filterUnits="userSpaceOnUse">
      <feOffset dy="15" input="SourceAlpha"/>
      <feGaussianBlur stdDeviation="5" result="blur"/>
      <feFlood flood-color="#fe1178" flood-opacity="0.2"/>
      <feComposite operator="in" in2="blur"/>
      <feComposite in="SourceGraphic"/>
    </filter>
  </defs>
  <g id="Carte-Paris" transform="translate(-3 25)">
    <path id="Tracé_1363" data-name="Tracé 1363" d="M155.573,79.7c1.386,3.041-.1,5.563-.472,8.234a95.6,95.6,0,0,1-2.14,9.358,20.119,20.119,0,0,0-12.6,3.95c-.884.651-.508,3.024-.753,4.888-1.936.824-4.2,1.786-6.758,2.886-4.506-5.557-9.012-11.228-13.636-16.8-3.872-4.667-7.935-9.172-11.79-13.851a38.448,38.448,0,0,1-2.605-4.506,8.042,8.042,0,0,0-2.014-2.7c-6.919-4.344-14.09-8.043-22.133-10.129-4.547-1.183-8.694-3.83-13.1-5.623a20.36,20.36,0,0,0-6.209-1.589c-3.46-.227-6.955.042-10.439.054A17.668,17.668,0,0,0,35.843,61.3C30.9,67.883,25.32,73.99,20.366,80.563,16.841,85.242,14,90.423,10.65,95.245a4.871,4.871,0,0,1-8.593-.723A26.422,26.422,0,0,1,.091,86.891c-.352-2.563.209-4.78,3.687-4.8.747-.006,1.858-1.135,2.181-1.984C8.272,74,10.148,67.716,12.736,61.741c1.536-3.55,4.177-6.6,6.2-9.949,1.906-3.143,3.525-6.471,5.533-9.549,1.649-2.533,3.681-4.816,5.551-7.218-2.922-2.462-3.2-5.88-.49-9.065,3.233-3.788,6.508-7.517,11.837-8.509,1.16-.215,2.122-1.416,3.209-2.11C51.611,10.872,58.633,6.39,65.72,2.01a6.185,6.185,0,0,1,2.9-.424c19-.574,37.986-1.3,56.987-1.583,6.621-.1,11.754,3.161,13.451,10.714a33.977,33.977,0,0,1,1.159,8.855c-.287,6.209,2.605,9.657,8.3,11.4,2.748.842,2.9,1.7,1.709,3.2,1.04.992,2.432,1.721,2.779,2.785a33.053,33.053,0,0,1,1.493,7.577c.771,9.812,1.446,19.629,1.961,29.453.1,1.906-1.548,4.254-.885,5.712" transform="translate(3 -25)" fill="#fbd8c4"/>
    <path id="Tracé_1364" data-name="Tracé 1364" d="M153.194,204.638c-4.01,2.414-7.834,4.84-11.784,7.051a54.523,54.523,0,0,1-9.118,4.41,41.56,41.56,0,0,1-9.011,1.482,3.058,3.058,0,0,1-2.151-1.332c-1.542-2.169-3.006-2.014-4.93-.436-1.613,1.32-3.519,2.8-5.45.072-.1.2-.191.711-.5.938-1.566,1.153-8.993-.245-10.385-1.643a8.609,8.609,0,0,0-3.281-1.816c-10.827-3.687-21.751-7.093-32.465-11.067-4.219-1.56-7.971-4.374-11.951-6.6-3.776-2.109-3.759-2.079-6.5,1.213a9.92,9.92,0,0,1-2.964,2.868c-1.123.514-3.316.747-3.788.137a4.878,4.878,0,0,1-.478-4.123c1.542-3.794,1.667-3.836-2.085-5.736,3.466-5.426,6.687-11,10.451-16.176,2.557-3.513,6.041-6.334,8.814-9.71,2.438-2.958,4.464-6.251,6.669-9.4a10.412,10.412,0,0,1,8.64-4.523c4.475-.149,8.957-.221,13.433-.1a13.571,13.571,0,0,1,4.822,1.2c3.006,1.3,5.892,2.868,8.855,4.261a23.217,23.217,0,0,0,2.862.938c-.376.323-.747.645-1.123.962.914-.083,1.96-.49,2.719-.191,1.536.615,3.328,1.3,4.3,2.521,3.191,4.034,7.7,5.88,12.13,7.822a27.973,27.973,0,0,1,11.1,8.694c5.731,7.344,11.891,14.347,17.849,21.517,1.763,2.128,3.418,4.338,5.318,6.758" transform="translate(-19.683 -118.642)" fill="#fbd8c4"/>
    <path id="Tracé_1365" data-name="Tracé 1365" d="M244.99,183.89c-1.864-1.117-3.245-1.847-4.488-2.761-.418-.3-.5-1.082-.729-1.637.622-.161,1.3-.568,1.847-.436,2.115.484,3.388,1.763,3.37,4.834" transform="translate(-146.596 -136.698)" fill="#fbd8c4"/>
    <path id="Tracé_1366" data-name="Tracé 1366" d="M265.264,191.139c-.2.37-.406.747-.61,1.117q-2.4-1.389-4.8-2.779l.5-.879q2.456,1.264,4.906,2.54" transform="translate(-159.126 -142.668)" fill="#fbd8c4"/>
    <g transform="matrix(1, 0, 0, 1, 3, -25)" filter="url(#Icon_material-place)">
      <path id="Icon_material-place-2" data-name="Icon material-place" d="M13.223,3A5.719,5.719,0,0,0,7.5,8.723c0,4.292,5.723,10.628,5.723,10.628s5.723-6.336,5.723-10.628A5.719,5.719,0,0,0,13.223,3Zm0,7.767a2.044,2.044,0,1,1,2.044-2.044A2.045,2.045,0,0,1,13.223,10.767Z" transform="translate(95.64 43.33)" fill="#fe1178"/>
    </g>
  </g>
</svg>
