<svg xmlns="http://www.w3.org/2000/svg" xmlns:xlink="http://www.w3.org/1999/xlink" width="145.115" height="146.893" viewBox="0 0 145.115 146.893">
  <defs>
    <filter id="Icon_material-place" x="35.327" y="60.323" width="41.446" height="46.351" filterUnits="userSpaceOnUse">
      <feOffset dy="15" input="SourceAlpha"/>
      <feGaussianBlur stdDeviation="5" result="blur"/>
      <feFlood flood-color="#02bf75" flood-opacity="0.2"/>
      <feComposite operator="in" in2="blur"/>
      <feComposite in="SourceGraphic"/>
    </filter>
  </defs>
  <g id="Carte-Marseille" transform="translate(-8.258 -2.553)">
    <path id="Tracé_1367" data-name="Tracé 1367" d="M139.176,109.757a34.011,34.011,0,0,1-1.323-6.259c-.667-4.214-1.7-8.379-4.972-11.295-3.936-3.511-3.009-7.871-1.617-11.533.648-1.705,3.731-3.778,5.922-4.507,1.694-.564,2.588-.979,3.292-2.481a12.026,12.026,0,0,1,2.12-3.221c3.02-3.142,3.1-3.707,1.411-7.752a29.384,29.384,0,0,1-1.1-4.847c-3.638-.756-4.249-1.446-3.993-5.919a10.5,10.5,0,0,0-2.988.7c-4.1,2.551-8.095,5.227-13.357,4.407-.994-.155-2.148.45-3.178.834-2.232.833-7.517-.038-8.617-1.454-3.876-4.987-7.693-10.022-11.695-14.908a4.145,4.145,0,0,1-.735-4.813q2.788-6.542,5.324-13.19a4.5,4.5,0,0,0,.254-3.135Q99.289,11.008,94.3,1.8C93.551.428,92.139-.73,90.413.56,86.616,3.4,82.9,6.345,79.154,9.247c-1.8,1.394-3.327,2.6-6.141,2.4-2.119-.149-4.185,1.988-7.07,1.986-2.694,0-5.3,2.608-8.127,3.311C56.5,17.274,54.69,15.883,53.2,15.1a1.706,1.706,0,0,1-.341-1.6c1.537-1.606.911-2.981-.43-4.394,1.789-1.569,1.845-3.445.387-4.911-.9-.9-2.847-1.858-3.749-1.468a66.4,66.4,0,0,0-7.914,4.665c.437.627.762.9.832,1.228.275,1.283.869,2.7.533,3.828-.18.605-2,.931-3.1,1.005a10.968,10.968,0,0,1-4.143-.395c-1.486-.5-2.248-.1-3.356.915a32.232,32.232,0,0,1-6.039,4.29c-2.09,1.163-5.083.131-5.73-2.08-1.5-5.127-6.152-7.3-9.567-10.615a2.177,2.177,0,0,0-3.426.2A9.1,9.1,0,0,1,3.8,7.639C.345,9.109.074,9.966,2.555,12.678c1.121,1.225,1.2,1.891-.236,3.088A6.559,6.559,0,0,0,.044,19.831a34.843,34.843,0,0,0,.68,8.006,2.416,2.416,0,0,0,2.082,1.125c.974-.34,1.678-1.384,2.586-2a7.782,7.782,0,0,1,2.558-1.27c1.48-.327,3.033-.314,4.532-.574,1.087-.189,2.4-1.153,3.157-.8a60.445,60.445,0,0,1,8.433,4.854c.746.512.754,2.041,1.2,3.061a3.914,3.914,0,0,0,1,1.294c1.814,1.6,3.687,3.142,5.495,4.752,2.889,2.573,5.783,4.9,10.134,4.233.913-.14,2.044,1.138,3.075,1.762l-.434.794c-1.774-3.166-4.436-2.155-7.474-1.875,3.873,5.688,7.484,10.972,11.075,16.269,2.924,4.312,2.835,9.07-.634,13.726,1.663.3,3.032.506,4.378.812,3.232.734,2.776-2.591,4.339-3.842-.237,2.036-.148,4.524-1.35,5.716-3.066,3.04-6.749.243-10.145-.128-.08,1.636.268,3.172-.3,4.217a44.782,44.782,0,0,1-4.1,5.509c.85.5,1.4,1.109,1.949,1.11,3.85,0,5.83,2.975,7.477,5.48,1.219,1.854,2.289,2.318,4.122,2.279.116,0,.237.193.355.3l-.9.472c1.229.966,2.806,1.675,3.553,2.89,2.292,3.733,2.481,7.972,1.718,12.138-.348,1.9-1.476,4.492-3.909,3.729-2.6-.815-3.155.213-3.688,2.136-.4,1.432-.9,2.839-1.236,4.284a5.084,5.084,0,0,1-3.692,4.083,4.222,4.222,0,0,0-2.636,2.207c-.711,2.838-.9,5.8-1.391,8.7a28.665,28.665,0,0,1-1.073,3.5c2.905.547,6.928.291,9.576,2.069,3.1,2.082,4.908,1,7.347-.269a13.966,13.966,0,0,1,3.49-.98c3.271-.715,6.535-1.492,9.838-2.019a8.99,8.99,0,0,1,4.267.277c3.05,1.087,5.982,2.5,8.483,3.578,1.208-.862,2.051-1.963,2.821-1.915a24.541,24.541,0,0,1,5.841,1.228c2.551.816,5.025,1.873,7.42,2.784l-2.341-6.4c2.808.434,5.063,1.115,7.3,1.052a17.389,17.389,0,0,1,9.867,2.4,10.056,10.056,0,0,0,3.418,1.064c4.524.8,9.444.487,12.912,5.25.586-3.172,2.586-1.821,4.073-1.815,2.976-6.231,5.57-12.315-1.329-17.664a1.841,1.841,0,0,1-.667-.882,7.756,7.756,0,0,1-.561-3.1c1.057-5.409,1.116-5.4,6.68-5.38a3.528,3.528,0,0,0,1.113-.014c1.032-.361,2.035-.8,3.05-1.214-.574-.941-1.133-1.892-1.727-2.82-.9-1.415-2.125-2.71-2.681-4.247" transform="translate(8.257 2.554)" fill="#b4eede"/>
    <path id="Tracé_1368" data-name="Tracé 1368" d="M48.635,200.575l10-3.06-.168-.951c-4.008-.891-6.606,2.5-9.831,4.012" transform="translate(-20.773 -103.189)" fill="#b4eede"/>
    <g transform="matrix(1, 0, 0, 1, 8.26, 2.55)" filter="url(#Icon_material-place)">
      <path id="Icon_material-place-2" data-name="Icon material-place" d="M13.223,3A5.719,5.719,0,0,0,7.5,8.723c0,4.292,5.723,10.628,5.723,10.628s5.723-6.336,5.723-10.628A5.719,5.719,0,0,0,13.223,3Zm0,7.767a2.044,2.044,0,1,1,2.044-2.044A2.045,2.045,0,0,1,13.223,10.767Z" transform="translate(42.83 57.32)" fill="#02bf75"/>
    </g>
  </g>
</svg>
