<?xml version="1.0" encoding="UTF-8"?> <svg xmlns="http://www.w3.org/2000/svg" id="Analytics" viewBox="0 0 61 61"><defs><style>.cls-1{fill:#feb691;}.cls-2{fill:#fff;}.cls-3{fill:#fe7100;}</style></defs><g id="Icon-marketing-digital"><rect id="bg" class="cls-1" width="61" height="61" rx="15"></rect><g id="Groupe_776" data-name="Groupe 776"><path id="Rectangle_564" data-name="Rectangle 564" class="cls-2" d="M27,32h0a3,3,0,0,1,3,3v5a3,3,0,0,1-3,3h0a3,3,0,0,1-3-3V35A3,3,0,0,1,27,32Z"></path><path id="Polygone_6" data-name="Polygone 6" class="cls-3" d="M20.85,33.14a3,3,0,0,1,0-5.28l13.72-7.45a3,3,0,0,1,4.07,1.2A3.1,3.1,0,0,1,39,23.05V38a3,3,0,0,1-4.43,2.64Z"></path><path id="Tracé_636" data-name="Tracé 636" class="cls-2" d="M39,27.56c2.45,0,4.44,1.54,4.44,3.44s-2,3.44-4.44,3.44Z"></path></g></g></svg>