<?xml version="1.0" encoding="UTF-8"?> <svg xmlns="http://www.w3.org/2000/svg" width="63.144" height="48.333" viewBox="0 0 63.144 48.333"><g transform="translate(-3 -14.069)"><path d="M65.263,51.779a4.1,4.1,0,0,0-5.273-1.048L49.15,56.863a4.332,4.332,0,0,0-4.326-4.117H32.647A9.3,9.3,0,0,1,28.369,51.7a10.35,10.35,0,0,0-4.749-1.155H16.05V47.064a.974.974,0,0,0-.961-.974H3.974A.974.974,0,0,0,3,47.064V71.915a.974.974,0,0,0,.974.981H15.09a.981.981,0,0,0,.981-.981V67.832l20.566,4.91a6.092,6.092,0,0,0,1.478.175,6.441,6.441,0,0,0,3.405-.967L64.195,57.81a4.117,4.117,0,0,0,1.068-6.045ZM14.1,70.968H4.955V48.045H14.1ZM64.121,54.694a2.129,2.129,0,0,1-.987,1.458L40.472,70.29a4.493,4.493,0,0,1-3.405.557L16.05,65.823V52.5h7.57a8.436,8.436,0,0,1,3.849.92,11.217,11.217,0,0,0,5.179,1.269H44.824a2.378,2.378,0,0,1,0,4.755H29.719V61.4H44.824a4.326,4.326,0,0,0,3.755-2.183l.081.141L60.951,52.41a2.156,2.156,0,0,1,2.774.551A2.116,2.116,0,0,1,64.121,54.694Z" transform="translate(0 -10.514)" fill="#1c63ef"></path><path d="M54.665,40.325,66.251,28.631h0a8.651,8.651,0,0,0-11.6-12.762A8.651,8.651,0,0,0,43.065,28.631ZM49.291,15.95a6.716,6.716,0,0,1,4.566,1.792l.888.888.631-.846a6.717,6.717,0,0,1,9.477,9.477L54.665,37.531,44.476,27.268A6.717,6.717,0,0,1,49.318,15.95Z" transform="translate(-12.399)" fill="#1c63ef"></path></g></svg> 