<?xml version="1.0" encoding="UTF-8"?> <svg xmlns="http://www.w3.org/2000/svg" width="40" height="32.894" viewBox="0 0 40 32.894"><g transform="translate(-3 -11.35)"><path d="M38.438,11.35H7.562A4.566,4.566,0,0,0,3,15.912V32.72a4.566,4.566,0,0,0,4.562,4.562h9.549L22.515,44a.643.643,0,0,0,.5.243h0a.638.638,0,0,0,.5-.243l5.37-6.719h9.549A4.566,4.566,0,0,0,43,32.72V15.912a4.566,4.566,0,0,0-4.562-4.562Zm3.285,21.37A3.285,3.285,0,0,1,38.447,36H28.579a.651.651,0,0,0-.5.238L23,42.571l-5.106-6.336A.63.63,0,0,0,17.4,36H7.562A3.285,3.285,0,0,1,4.277,32.72V15.912a3.285,3.285,0,0,1,3.277-3.277H38.438a3.285,3.285,0,0,1,3.277,3.277Z" transform="translate(0 0)" fill="#1c63ef"></path><path d="M45.918,26.1l-6.2-.83L36.9,19.693a.643.643,0,0,0-.574-.353h0a.647.647,0,0,0-.57.366L33.037,25.34l-6.179.966a.643.643,0,0,0-.345,1.1l4.523,4.319-.991,6.17a.638.638,0,0,0,.634.745.655.655,0,0,0,.306-.077l5.5-2.979,5.562,2.847a.63.63,0,0,0,.677-.055.647.647,0,0,0,.251-.63l-1.123-6.136,4.43-4.413a.638.638,0,0,0,.157-.66A.647.647,0,0,0,45.918,26.1Zm-5.213,4.834a.655.655,0,0,0-.179.57l.949,5.2-4.681-2.413a.651.651,0,0,0-.6,0l-4.672,2.515.851-5.217a.638.638,0,0,0-.191-.566l-3.83-3.651,5.221-.813a.651.651,0,0,0,.481-.357l2.289-4.766,2.387,4.715a.647.647,0,0,0,.489.349l5.238.7Z" transform="translate(-13.395 -4.59)" fill="#1c63ef"></path></g></svg> 