<?xml version="1.0" encoding="UTF-8"?> <svg xmlns="http://www.w3.org/2000/svg" width="64.596" height="64" viewBox="0 0 64.596 64"><g transform="translate(-2.73 -3)"><path d="M62.989,33.146h-1.07A26.768,26.768,0,0,0,40.38,7.877a5.375,5.375,0,0,0-10.7,0A26.778,26.778,0,0,0,8.137,33.146H7.067A4.334,4.334,0,0,0,4,34.415,4.27,4.27,0,0,0,2.73,37.483a4.337,4.337,0,0,0,4.337,4.337H8.148v2.13a5.416,5.416,0,0,0,5.407,5.407H16.92L12.926,53.35a3.321,3.321,0,0,0-3.277-2.9H6.338a3.32,3.32,0,0,0-3.31,3.31V63.69A3.32,3.32,0,0,0,6.338,67H43.127a5.51,5.51,0,0,0,3.906-1.611L58.388,54.034a3.951,3.951,0,0,0,.872-4.392,4.225,4.225,0,0,0-.463-.817,5.4,5.4,0,0,0,3.112-4.877v-2.13h1.081a4.337,4.337,0,1,0,0-8.673ZM10.752,56.341v8.452H6.338a1.107,1.107,0,0,1-1.1-1.1V53.759a1.107,1.107,0,0,1,1.1-1.1h3.31a1.107,1.107,0,0,1,1.1,1.1ZM35.028,5.207A3.208,3.208,0,0,1,38.1,7.48c-.188-.022-.386-.033-.574-.055L37.1,7.392c-.684-.044-1.368-.088-2.074-.088s-1.379.033-2.063.088c-.143.011-.287.022-.441.044-.188.022-.375.022-.563.044A3.208,3.208,0,0,1,35.028,5.207ZM30.934,9.863A24.94,24.94,0,0,1,37.1,9.6a19.777,19.777,0,0,1,2.019.265,24.622,24.622,0,0,1,20.6,23.283h-49.4A24.621,24.621,0,0,1,30.934,9.863Zm25.9,42.6L45.467,63.822a3.262,3.262,0,0,1-2.339.971H12.959V56.418l6.753-6.753a1.092,1.092,0,0,1,.783-.32H38.338a1.107,1.107,0,0,1,1.1,1.1v1.1a1.107,1.107,0,0,1-1.1,1.1H31.718a3.31,3.31,0,0,0,0,6.621H42.94a3.28,3.28,0,0,0,2.339-.971l8.044-8.044a3.144,3.144,0,0,1,2.207-.916,1.834,1.834,0,0,1,1.3,3.123ZM41.45,49.345h9.677l-7.4,7.4a1.16,1.16,0,0,1-.783.32H31.718a1.1,1.1,0,1,1,0-2.207h6.621a3.32,3.32,0,0,0,3.31-3.31v-1.1A3.315,3.315,0,0,0,41.45,49.345Zm18.262-5.407a3.2,3.2,0,0,1-3.2,3.2H13.555a3.2,3.2,0,0,1-3.2-3.2v-2.13H59.712Zm1.1-4.337H9.24c-1.644,0-4.3.287-4.3-2.13a2.086,2.086,0,0,1,.629-1.5c.894-.894,2.472-.629,3.63-.629H63a2.131,2.131,0,0,1,2.13,2.13C65.119,39.888,62.46,39.6,60.816,39.6Z" fill="#1c63ef"></path><path d="M37.31,12.952a1.094,1.094,0,0,0-1.269.9,1.108,1.108,0,0,0,.9,1.269,15.411,15.411,0,0,1,12.91,12.866,1.1,1.1,0,0,0,1.092.949.728.728,0,0,0,.154-.011,1.1,1.1,0,0,0,.938-1.247A17.545,17.545,0,0,0,37.31,12.952Z" transform="translate(3.444 1.028)" fill="#1c63ef"></path></g></svg> 