<?xml version="1.0" encoding="UTF-8"?> <svg xmlns="http://www.w3.org/2000/svg" width="27.133" height="37" viewBox="0 0 27.133 37"><g transform="translate(-5 -1)"><path d="M17.633,28.133A8.643,8.643,0,0,0,26.267,19.5V9.633A8.633,8.633,0,0,0,9,9.633V19.5a8.643,8.643,0,0,0,8.633,8.633Zm0-24.667A6.178,6.178,0,0,1,23.677,8.4H20.1a1.233,1.233,0,0,0,0,2.467h3.7v2.467H20.1a1.233,1.233,0,1,0,0,2.467h3.7v2.467H20.1a1.233,1.233,0,0,0,0,2.467h3.577a6.167,6.167,0,0,1-12.087,0h3.577a1.233,1.233,0,0,0,0-2.467h-3.7V15.8h3.7a1.233,1.233,0,1,0,0-2.467h-3.7V10.867h3.7a1.233,1.233,0,0,0,0-2.467H11.59a6.178,6.178,0,0,1,6.043-4.933Z" transform="translate(0.933)" fill="#1c63ef"></path><path d="M32.133,16.233a1.233,1.233,0,1,0-2.467,0,11.1,11.1,0,1,1-22.2,0,1.233,1.233,0,0,0-2.467,0,13.579,13.579,0,0,0,12.333,13.5v2.53h-3.7a1.233,1.233,0,0,0,0,2.467H23.5a1.233,1.233,0,0,0,0-2.467H19.8v-2.53a13.579,13.579,0,0,0,12.333-13.5Z" transform="translate(0 3.267)" fill="#1c63ef"></path></g></svg> 