<?xml version="1.0" encoding="UTF-8"?> <svg xmlns="http://www.w3.org/2000/svg" width="63.143" height="54.401" viewBox="0 0 63.143 54.401"><path d="M69.9,28.046a16,16,0,0,0-14.25-10.389h-.983A19.711,19.711,0,0,0,39.5,24.817a19.8,19.8,0,0,0-15.232-7.23h-.983A16.055,16.055,0,0,0,9.037,27.976a16.716,16.716,0,0,0,3.72,17.9L38.448,71.567a1.357,1.357,0,0,0,1.965,0L66.105,45.946A16.608,16.608,0,0,0,69.9,28.046ZM48.767,58.16a10.771,10.771,0,0,0-1.474-3.931L40.554,43.91a1.443,1.443,0,0,0-2.387,0L31.429,54.229a9.908,9.908,0,0,0-1.474,3.931,11.829,11.829,0,0,1-.491-13.548L39.291,29.59l9.827,15.022A11.588,11.588,0,0,1,48.767,58.16ZM11.634,29.029a13.284,13.284,0,0,1,11.793-8.634h.842a16.956,16.956,0,0,1,13.477,6.739l-10.529,16A14.586,14.586,0,0,0,25.252,54.51L14.722,43.91A13.742,13.742,0,0,1,11.634,29.029Zm27.8,39.59-5.475-5.475a6.451,6.451,0,0,1-.07-7.3l5.545-8.494,5.545,8.494a6.451,6.451,0,0,1-.07,7.3ZM64.14,43.91l-10.6,10.6a14.3,14.3,0,0,0-1.965-11.372l-10.389-16a16.855,16.855,0,0,1,13.477-6.739h.842A13.284,13.284,0,0,1,67.3,29.029,13.9,13.9,0,0,1,64.14,43.91Z" transform="translate(-7.894 -17.587)" fill="#1c63ef"></path></svg> 