<?xml version="1.0" encoding="UTF-8"?> <svg xmlns="http://www.w3.org/2000/svg" width="65" height="65" viewBox="0 0 65 65"><circle cx="1.5" cy="1.5" r="1.5" transform="translate(5.5 4)" fill="#1c63ef"></circle><circle cx="1.5" cy="1.5" r="1.5" transform="translate(10.5 4)" fill="#1c63ef"></circle><ellipse cx="1" cy="1.5" rx="1" ry="1.5" transform="translate(16.5 4)" fill="#1c63ef"></ellipse><path d="M63.646,47.4h-2.14a.827.827,0,0,1-.068-.162l1.517-1.517a1.354,1.354,0,0,0,.393-.961,1.422,1.422,0,0,0-.393-.961l-3.372-3.358V5.417A5.417,5.417,0,0,0,54.167,0H5.417A5.417,5.417,0,0,0,0,5.417v47.4a1.354,1.354,0,0,0,1.354,1.354H37.917a1.354,1.354,0,0,0,1.354,1.354h2.14a.826.826,0,0,1,.068.163L39.961,57.2a1.354,1.354,0,0,0-.393.961,1.422,1.422,0,0,0,.393.961l3.832,3.832a1.354,1.354,0,0,0,1.923,0l1.517-1.517.162.068v2.14A1.354,1.354,0,0,0,48.75,65h5.417a1.354,1.354,0,0,0,1.354-1.354v-2.14l.162-.068L57.2,62.955a1.354,1.354,0,0,0,.961.393,1.422,1.422,0,0,0,.961-.393l3.832-3.832a1.422,1.422,0,0,0,.393-.961,1.354,1.354,0,0,0-.393-.961l-1.517-1.517a.826.826,0,0,1,.068-.162h2.14A1.354,1.354,0,0,0,65,54.167V48.75A1.354,1.354,0,0,0,63.646,47.4ZM2.708,5.417A2.708,2.708,0,0,1,5.417,2.708h48.75a2.708,2.708,0,0,1,2.708,2.708V8.125H2.708Zm0,46.042V10.833H56.875V40.3l-1.192,1.178-.162-.068v-2.14a1.354,1.354,0,0,0-1.354-1.354H48.75A1.354,1.354,0,0,0,47.4,39.271v2.14l-.162.068-1.517-1.517a1.354,1.354,0,0,0-.961-.393,1.422,1.422,0,0,0-.961.393l-3.832,3.832a1.422,1.422,0,0,0-.393.961,1.354,1.354,0,0,0,.393.961l1.517,1.517a.826.826,0,0,1-.068.162h-2.14a1.354,1.354,0,0,0-1.354,1.354v2.708Zm59.583,1.354H60.545a1.354,1.354,0,0,0-1.354.961,7.855,7.855,0,0,1-.636,1.544,1.354,1.354,0,0,0,.284,1.557l1.232,1.232-1.842,1.964-1.354-1.232a1.354,1.354,0,0,0-1.611-.23,7.854,7.854,0,0,1-1.544.636,1.354,1.354,0,0,0-.961,1.354v1.693H50.1V60.545a1.354,1.354,0,0,0-.961-1.354,7.854,7.854,0,0,1-1.544-.636,1.354,1.354,0,0,0-1.611.23l-1.232,1.232-1.909-1.787L44.078,57a1.354,1.354,0,0,0,.23-1.611,7.854,7.854,0,0,1-.636-1.544,1.354,1.354,0,0,0-1.354-.961H40.625V50.1h1.747a1.354,1.354,0,0,0,1.354-.961,7.854,7.854,0,0,1,.636-1.544,1.354,1.354,0,0,0-.284-1.557l-1.232-1.232L44.755,42.9l1.232,1.232a1.354,1.354,0,0,0,1.611.23,7.854,7.854,0,0,1,1.544-.636,1.354,1.354,0,0,0,.961-1.354V40.625h2.708v1.747a1.354,1.354,0,0,0,.961,1.354,7.854,7.854,0,0,1,1.544.636,1.354,1.354,0,0,0,1.557-.284l1.232-1.232,1.909,1.909-1.232,1.232a1.354,1.354,0,0,0-.23,1.611,7.854,7.854,0,0,1,.636,1.544,1.354,1.354,0,0,0,1.354.961h1.747Z" fill="#1c63ef"></path><path d="M47.21,40.029a5.417,5.417,0,1,0,5.417,5.417A5.417,5.417,0,0,0,47.21,40.029Zm0,8.125a2.708,2.708,0,1,1,2.708-2.708A2.708,2.708,0,0,1,47.21,48.154Zm-27.476-29.4a1.354,1.354,0,0,0-1.923,0l-5.417,5.417a1.354,1.354,0,0,0,0,1.923l5.417,5.417a1.36,1.36,0,1,0,1.923-1.923l-4.469-4.455,4.469-4.455a1.354,1.354,0,0,0,0-1.923Zm18.958,5.417-5.417-5.417a1.36,1.36,0,1,0-1.923,1.923l4.469,4.455-4.469,4.455a1.36,1.36,0,1,0,1.923,1.923l5.417-5.417a1.354,1.354,0,0,0,0-1.923ZM27.169,17.008a1.354,1.354,0,0,0-1.625,1.083L22.835,31.633a1.354,1.354,0,0,0,1.083,1.625h.271a1.354,1.354,0,0,0,1.354-1.083l2.708-13.542a1.354,1.354,0,0,0-1.083-1.625Z" transform="translate(4.248 6.012)" fill="#1c63ef"></path></svg> 