<?xml version="1.0" encoding="UTF-8"?> <svg xmlns="http://www.w3.org/2000/svg" width="73.846" height="64" viewBox="0 0 73.846 64"><g transform="translate(-2 -6)"><path d="M74.615,6H3.231A1.231,1.231,0,0,0,2,7.231V54a1.231,1.231,0,0,0,1.231,1.231H27.969l-7.446,7.446a1.26,1.26,0,0,0-.308,1.231,1.231,1.231,0,0,0,.948.849l3.532.7.714,3.557a1.238,1.238,0,0,0,.849.935,1.19,1.19,0,0,0,.357.049,1.239,1.239,0,0,0,.874-.357l8.123-8.135.369.332A4.421,4.421,0,0,0,38.923,63.4a4.421,4.421,0,0,0,2.942-1.563l.369-.332,8.123,8.135a1.239,1.239,0,0,0,.874.357,1.19,1.19,0,0,0,.357-.049,1.238,1.238,0,0,0,.849-.935l.714-3.557,3.532-.7a1.231,1.231,0,0,0,.948-.849,1.26,1.26,0,0,0-.308-1.231l-7.446-7.446H74.615A1.231,1.231,0,0,0,75.846,54V7.231A1.231,1.231,0,0,0,74.615,6ZM27.366,66.271l-.418-2.1a1.238,1.238,0,0,0-.972-.96l-2.08-.418,5.7-5.7a4.073,4.073,0,0,0,.935,2.843,3.546,3.546,0,0,0,2.277.9Zm14.548-7.5a6.123,6.123,0,0,0-1.735,1.268c-.431.406-.96.9-1.255.9s-.825-.492-1.255-.9a6.123,6.123,0,0,0-1.735-1.268,6.6,6.6,0,0,0-2.2-.357,3.17,3.17,0,0,1-1.452-.234,3.17,3.17,0,0,1-.234-1.452,6.6,6.6,0,0,0-.357-2.2,6.123,6.123,0,0,0-1.268-1.735c-.406-.431-.9-.96-.9-1.255s.492-.825.9-1.255a6.123,6.123,0,0,0,1.268-1.735,6.6,6.6,0,0,0,.357-2.2,3.17,3.17,0,0,1,.234-1.452,3.17,3.17,0,0,1,1.452-.234,6.6,6.6,0,0,0,2.2-.357,6.123,6.123,0,0,0,1.735-1.268c.431-.406.96-.9,1.255-.9s.825.492,1.255.9A6.123,6.123,0,0,0,41.914,44.3a6.6,6.6,0,0,0,2.2.357,3.17,3.17,0,0,1,1.452.234,3.17,3.17,0,0,1,.234,1.452,6.6,6.6,0,0,0,.357,2.2,6.123,6.123,0,0,0,1.268,1.735c.406.431.9.96.9,1.255s-.492.825-.9,1.255a6.123,6.123,0,0,0-1.268,1.735,6.6,6.6,0,0,0-.357,2.2,3.17,3.17,0,0,1-.234,1.452,3.17,3.17,0,0,1-1.452.234,6.6,6.6,0,0,0-2.2.357Zm12.037,4.012-2.08.418a1.238,1.238,0,0,0-.972.96l-.418,2.1-5.44-5.44a3.546,3.546,0,0,0,2.277-.9,4.073,4.073,0,0,0,.935-2.843ZM49.668,49.077c-.148-.172-.3-.32-.443-.48a4.431,4.431,0,0,1-.788-1,4.442,4.442,0,0,1-.172-1.342,4.431,4.431,0,0,0-.948-3.114A4.431,4.431,0,0,0,44.2,42.2a4.442,4.442,0,0,1-1.342-.172,4.431,4.431,0,0,1-1-.788,4.421,4.421,0,0,0-2.942-1.563,4.421,4.421,0,0,0-2.942,1.563,4.431,4.431,0,0,1-1,.788,4.442,4.442,0,0,1-1.342.172,4.431,4.431,0,0,0-3.114.948,4.431,4.431,0,0,0-.948,3.114,4.442,4.442,0,0,1-.172,1.342,4.43,4.43,0,0,1-.788,1c-.148.16-.3.308-.443.48H8.154V12.154H69.692V49.077Zm23.717,3.692H50.5a2.873,2.873,0,0,0,.283-1.231H70.923a1.231,1.231,0,0,0,1.231-1.231V10.923a1.231,1.231,0,0,0-1.231-1.231h-64a1.231,1.231,0,0,0-1.231,1.231V50.308a1.231,1.231,0,0,0,1.231,1.231H27.058a2.873,2.873,0,0,0,.283,1.231H4.462V8.462H73.384Z" transform="translate(0 0)" fill="#1c63ef"></path><path d="M39.308,44.154a6.154,6.154,0,1,0-6.154,6.154A6.154,6.154,0,0,0,39.308,44.154Zm-6.154,3.692a3.692,3.692,0,1,1,3.692-3.692A3.692,3.692,0,0,1,33.154,47.846Z" transform="translate(5.769 7.385)" fill="#1c63ef"></path><rect width="20" height="3" transform="translate(28.923 17)" fill="#1c63ef"></rect><rect width="36" height="2" transform="translate(20.923 31)" fill="#1c63ef"></rect><rect width="36" height="3" transform="translate(20.923 23)" fill="#1c63ef"></rect></g></svg> 