<?xml version="1.0" encoding="UTF-8"?> <svg xmlns="http://www.w3.org/2000/svg" width="64" height="64" viewBox="0 0 64 64"><path d="M39,36.56H25v2H39Zm-11.34-8-1.06,5.9L32,31.7l5.3,2.82-.98-6,4.34-4.14-6-.92L32,18.18l-2.7,5.34-6,.82Zm3-3.18L32,22.7l1.3,2.68,2.96.46-2.16,2,.48,2.94L32,29.44,29.34,30.8l.52-2.94-2.12-2Zm28,8.98v-.1A6.3,6.3,0,0,0,64,28V26.28H63A6.2,6.2,0,0,0,58.72,28a29.26,29.26,0,0,0-.38-3h.14v-.1a7.4,7.4,0,0,0,2.92-8.5l-.34-1.02-1,.42a6.38,6.38,0,0,0-3.36,3.38,27.22,27.22,0,0,0-1.32-2.78h0a7.62,7.62,0,0,0,.18-9.1l-.68-.92L54,7a7.16,7.16,0,0,0-2,4.52,26,26,0,0,0-2.1-2A7.42,7.42,0,0,0,47.32.62L46.38,0l-.5,1a7.6,7.6,0,0,0-.8,3.34,6.28,6.28,0,0,0-4.16-.16H39.84l.24,1.2a5.76,5.76,0,0,0,2.5,3.7,6.58,6.58,0,0,0-2,2.36l-.4.8.74.48a5.82,5.82,0,0,0,3.2.96,6,6,0,0,0,1.461-.18,6.28,6.28,0,0,0,3.279-2.28,22.42,22.42,0,0,1,1.78,1.86h0a5.78,5.78,0,0,0-4.54,1.6l-.74.62.56.76A6.16,6.16,0,0,0,50.3,18.6h.5a5.82,5.82,0,0,0,3.02-.88c.4.76.76,1.54,1.1,2.36h-.16a5.72,5.72,0,0,0-4.76-.2l-.86.36.28.88a6.78,6.78,0,0,0,3.52,4.12,5.7,5.7,0,0,0,2.42.54,5.46,5.46,0,0,0,.98-.12c.14.8.24,1.6.32,2.42a6.3,6.3,0,0,0-4.34-1.76h-1V28a6.28,6.28,0,0,0,5.16,6.16c-.12.86-.28,1.72-.48,2.54a6.5,6.5,0,0,0-3.36-3.44l-1.04-.52-.36,1.12A7.38,7.38,0,0,0,54,42.28a20.859,20.859,0,0,1-1.2,2.18A7.16,7.16,0,0,0,50.76,40L50,39.08l-.68.94a7.62,7.62,0,0,0,0,8.96c-.58.56-1.18,1.1-1.8,1.6a7.4,7.4,0,0,0-.54-5.14l-.44-1.18-1.06.68a7.46,7.46,0,0,0-2.64,8.52A19.5,19.5,0,0,1,36.98,55a6.92,6.92,0,0,0-4.18,2l-.82.82L31.16,57a6.92,6.92,0,0,0-4.18-2,19.5,19.5,0,0,1-5.86-1.54,7.46,7.46,0,0,0-2.64-8.52l-1.02-.8-.44,1.2a7.7,7.7,0,0,0-.58,5.24c-.62-.5-1.22-1.04-1.8-1.6a7.66,7.66,0,0,0,0-8.96l-.64-.9-.76.88a7.16,7.16,0,0,0-2.12,4.56A20.86,20.86,0,0,1,10,42.28,7.38,7.38,0,0,0,12.7,34l-.34-1.04-1,.42A6.48,6.48,0,0,0,8,36.76c-.2-.84-.36-1.7-.48-2.56a6.28,6.28,0,0,0,5.1-6.2V26.28h-1A6.3,6.3,0,0,0,7.28,28a14.072,14.072,0,0,1,.32-2.42,5.46,5.46,0,0,0,.98.12A5.7,5.7,0,0,0,11,25.16a6.78,6.78,0,0,0,3.52-4.12l.26-.88L14,19.88A5.72,5.72,0,0,0,9.32,20H9.16c.34-.82.7-1.6,1.1-2.36a5.82,5.82,0,0,0,3.02.88h.5A6.16,6.16,0,0,0,18.16,16l.5-.72L18,14.72a5.86,5.86,0,0,0-4.6-1.66h0c.56-.66,1.14-1.26,1.74-1.84a6.3,6.3,0,0,0,3.28,2.28,6,6,0,0,0,1.46.18,5.82,5.82,0,0,0,3.2-.96l.74-.5-.4-.8a6.78,6.78,0,0,0-2-2.38,5.66,5.66,0,0,0,2.44-4l.14-.8L23.1,4a6.88,6.88,0,0,0-1.82-.26,6.22,6.22,0,0,0-2.38.46A8,8,0,0,0,18.1.96L17.58,0l-.9.6a7.42,7.42,0,0,0-2.56,8.8A23.1,23.1,0,0,0,12,11.54,7.4,7.4,0,0,0,9.8,6.92L9,6.28l-.62.84a7.62,7.62,0,0,0,.2,9.12h0c-.48.88-.9,1.8-1.3,2.74A6.4,6.4,0,0,0,4,15.8l-1-.52-.36,1.1a7.4,7.4,0,0,0,2.92,8.5v.1h.12A29.261,29.261,0,0,0,5.28,28,6.2,6.2,0,0,0,1,26.32H0V28a6.3,6.3,0,0,0,5.3,6.2v.1h.16c.16,1.08.34,2.14.6,3.18H6a5.66,5.66,0,0,0-4.56-.12l-.94.3.3.94a6.78,6.78,0,0,0,3.52,4.12,5.62,5.62,0,0,0,2.42.54A4.88,4.88,0,0,0,8,43.14v.1h.18A31.12,31.12,0,0,0,9.7,46a5.78,5.78,0,0,0-4.56,1.66l-.66.6L5,49a6,6,0,0,0,4.38,2.52h.5a5.72,5.72,0,0,0,3.22-1h0l.16-.14a24.221,24.221,0,0,0,2.3,2,6.4,6.4,0,0,0-3.86,3.3l-.44.8.76.5a5.68,5.68,0,0,0,3.2.98,5.24,5.24,0,0,0,1.46-.2,6.2,6.2,0,0,0,3.44-2.44h0v-.16a21.12,21.12,0,0,0,6.48,1.72,4.76,4.76,0,0,1,2.94,1.42l.82.82-3.4,3.4,1.42,1.42L32,60.64,35.4,64l1.42-1.42-3.4-3.4.82-.82a4.76,4.76,0,0,1,2.94-1.42,21.1,21.1,0,0,0,6.5-1.72v.16h0a6.22,6.22,0,0,0,3.42,2.44,5.24,5.24,0,0,0,1.46.2,5.68,5.68,0,0,0,3.2-.98l.74-.5-.4-.8a6.5,6.5,0,0,0-3.88-3.3,21.278,21.278,0,0,0,2.28-2l.16.16h0a5.86,5.86,0,0,0,3.22.98h.5a6,6,0,0,0,4.38-2.54l.5-.7-.64-.62A5.78,5.78,0,0,0,54.3,46a31.119,31.119,0,0,0,1.56-2.78h.18v-.1a5.76,5.76,0,0,0,1.18.12,5.6,5.6,0,0,0,2.4-.54,6.78,6.78,0,0,0,3.519-4.12l.26-.88-.84-.34a5.72,5.72,0,0,0-4.62.1h0c.26-1.04.44-2.1.6-3.18Zm0-2.3A4.28,4.28,0,0,1,62,28.46a4.32,4.32,0,0,1-3.22,3.74ZM42.36,6a4,4,0,0,1,3.12.9,6.88,6.88,0,0,0,.42,1.06,4,4,0,0,0-.7.04,3.74,3.74,0,0,1-2.84-2Zm2.72,5.64a3.68,3.68,0,0,1-2.18,0A4,4,0,0,1,45.12,10a3.46,3.46,0,0,1,2.16,0,4,4,0,0,1-2.2,1.56ZM48.28,8A5.58,5.58,0,0,1,47.2,3.2,5.52,5.52,0,0,1,48.28,8Zm2.1,8.62a3.82,3.82,0,0,1-2.26-1,3.58,3.58,0,0,1,2.26-.52,3.86,3.86,0,0,1,2.28,1,3.84,3.84,0,0,1-2.28.48Zm3.88-2.22a5.7,5.7,0,0,1,.36-4.94,5.72,5.72,0,0,1-.36,4.94Zm-.42,9.02a4.76,4.76,0,0,1-2-2,3.76,3.76,0,0,1,2,.32,4.6,4.6,0,0,1,2,2,3.72,3.72,0,0,1-2-.32ZM18.52,6.82A4,4,0,0,1,21.6,5.78,3.78,3.78,0,0,1,18.88,8a5.2,5.2,0,0,0-.78-.1A5.32,5.32,0,0,0,18.52,6.82ZM18,9.88v.32l.94-.2a4.28,4.28,0,0,1,2.16,1.46,3.68,3.68,0,0,1-2.18,0A4.3,4.3,0,0,1,16.7,10,3.74,3.74,0,0,1,18,9.88ZM16.78,3.16A5.52,5.52,0,0,1,15.72,8a5.58,5.58,0,0,1,1.06-4.84Zm-3.16,12a3.64,3.64,0,0,1,2.26.52,3.86,3.86,0,0,1-2.26,1A3.78,3.78,0,0,1,11.34,16a3.86,3.86,0,0,1,2.28-.94ZM9.36,9.48a5.74,5.74,0,0,1,.38,4.92,5.74,5.74,0,0,1-.38-4.92Zm.8,12.32a3.54,3.54,0,0,1,2-.32,4.6,4.6,0,0,1-2,2,3.72,3.72,0,0,1-2,.32,4.6,4.6,0,0,1,2-2ZM2,28.46A4.28,4.28,0,0,1,5.24,32v.16A4.32,4.32,0,0,1,2,28.46ZM4.28,18.28A5.26,5.26,0,0,1,6,22.82a5.36,5.36,0,0,1-1.72-4.54Zm.88,22.64a4.5,4.5,0,0,1-2-2,3.8,3.8,0,0,1,2,.32,4.54,4.54,0,0,1,2,2,3.84,3.84,0,0,1-2-.32ZM10.6,28.46a4.32,4.32,0,0,1-3.28,3.76,4.3,4.3,0,0,1,3.28-3.76ZM9.28,40.34a5.3,5.3,0,0,1,1.78-4.54,5.4,5.4,0,0,1-1.78,4.54Zm.28,9.14a3.86,3.86,0,0,1-2.28-1,3.82,3.82,0,0,1,4.54.48,3.64,3.64,0,0,1-2.26.52Zm3.88-2.18a5.62,5.62,0,0,1,.36-4.9,5.7,5.7,0,0,1-.36,4.9Zm2.8,8.7a3.86,3.86,0,0,1-2.18,0,4.26,4.26,0,0,1,2.22-1.5,3.62,3.62,0,0,1,2.16,0,4.24,4.24,0,0,1-2.2,1.5Zm3.2-3.6a5.68,5.68,0,0,1-1.06-4.8,5.6,5.6,0,0,1,1.06,4.7Zm26.18-4.8a5.6,5.6,0,0,1-1.06,4.8,5.56,5.56,0,0,1,1.06-4.9ZM50,55.82a3.78,3.78,0,0,1-2.16,0,4.24,4.24,0,0,1-2.2-1.5,3.62,3.62,0,0,1,2.16,0A4,4,0,0,1,50,55.82Zm.64-8.52a5.66,5.66,0,0,1-.36-4.92,5.68,5.68,0,0,1,.28,4.92Zm3.9.66a3.78,3.78,0,0,1,2.26.52,3.86,3.86,0,0,1-2.28,1,3.74,3.74,0,0,1-2.26-.52,3.86,3.86,0,0,1,2.2-.96ZM53.02,35.78a5.32,5.32,0,0,1,1.78,4.56,5.42,5.42,0,0,1-1.86-4.56Zm.46-7.32a4.3,4.3,0,0,1,3.28,3.76,4.32,4.32,0,0,1-3.36-3.76ZM58.9,39.3a3.76,3.76,0,0,1,2-.3,4.56,4.56,0,0,1-2,2,3.84,3.84,0,0,1-2,.34,4.54,4.54,0,0,1,1.92-2.04ZM58,22.84a5.34,5.34,0,0,1,1.78-4.56A5.42,5.42,0,0,1,58,22.84ZM36,42.56v-2H28v2Z" fill="#1c63ef"></path></svg> 