<?xml version="1.0" encoding="UTF-8"?> <svg xmlns="http://www.w3.org/2000/svg" xmlns:xlink="http://www.w3.org/1999/xlink" version="1.1" id="Calque_1" x="0px" y="0px" viewBox="0 0 60 60" style="enable-background:new 0 0 60 60;" xml:space="preserve"> <style type="text/css"> .st0{fill:#E8EFFE;} .st1{fill:#14317A;} .st2{fill:#FFFFFF;} .st3{fill:#C82A35;} </style> <path id="bg" class="st0" d="M14.8,0h30.5C53.4,0,60,6.6,60,14.8v30.5C60,53.4,53.4,60,45.2,60H14.8C6.6,60,0,53.4,0,45.2V14.8 C0,6.6,6.6,0,14.8,0z"></path> <path class="st1" d="M17.3,19.8h8l0,0V38l0,0h-8c-1.1,0-2-0.9-2-2V21.8C15.3,20.7,16.2,19.8,17.3,19.8z"></path> <rect x="25.3" y="19.8" class="st2" width="10" height="18.2"></rect> <path class="st3" d="M35.3,19.8h8c1.1,0,2,0.9,2,2V36c0,1.1-0.9,2-2,2h-8l0,0V19.8L35.3,19.8z"></path> </svg> 