<?xml version="1.0" encoding="UTF-8"?> <svg xmlns="http://www.w3.org/2000/svg" id="Analytics" viewBox="0 0 61 61"><defs><style>.cls-1{fill:#feb691;}.cls-2{fill:#fe7100;}.cls-3{fill:#fff;}</style></defs><g id="Icon-SEO-SEO-LOCAL"><rect id="Rectangle_374" data-name="Rectangle 374" class="cls-1" width="61" height="61" rx="15"></rect><circle id="Ellipse_912" data-name="Ellipse 912" class="cls-2" cx="31" cy="31" r="9"></circle><g id="Groupe_821" data-name="Groupe 821"><rect id="Rectangle_613" data-name="Rectangle 613" class="cls-3" x="34.83" y="17.17" width="16" height="4" transform="translate(-1.01 35.9) rotate(-45)"></rect><path id="Polygone_13" data-name="Polygone 13" class="cls-3" d="M32.87,30.27a1,1,0,0,1-1.14-.83.81.81,0,0,1,0-.31L33.33,19a1,1,0,0,1,1.14-.83.94.94,0,0,1,.55.28L43.56,27a1,1,0,0,1,0,1.41,1,1,0,0,1-.55.28Z"></path></g></g></svg> 