<?xml version="1.0" encoding="UTF-8"?> <svg xmlns="http://www.w3.org/2000/svg" id="Analytics" viewBox="0 0 61 61"><defs><style>.cls-1{fill:#feb691;}.cls-2{fill:#fff;}.cls-3{fill:#fe7100;}</style></defs><g id="Icon-marketing-digital"><rect id="bg" class="cls-1" width="61" height="61" rx="15"></rect></g><g id="Icon-SEO-Accompagnement"><g id="Groupe_786" data-name="Groupe 786"><g id="Groupe_785" data-name="Groupe 785"><rect id="Rectangle_583" data-name="Rectangle 583" class="cls-2" x="22" y="29" width="26" height="14" rx="2"></rect><path id="Polygone_12" data-name="Polygone 12" class="cls-2" d="M42.35,45.6a1,1,0,0,1-1.37.33.87.87,0,0,1-.33-.33l-3.72-6.08a1,1,0,0,1,.33-1.37,1,1,0,0,1,.52-.15h7.44a1,1,0,0,1,1,1,1,1,0,0,1-.15.52Z"></path></g><g id="Groupe_784" data-name="Groupe 784"><rect id="Rectangle_583-2" data-name="Rectangle 583-2" class="cls-3" x="13" y="15" width="28" height="18" rx="2"></rect><path id="Polygone_12-2" data-name="Polygone 12-2" class="cls-3" d="M20.35,35.6a1,1,0,0,1-1.37.33.87.87,0,0,1-.33-.33l-3.72-6.08a1,1,0,0,1,.33-1.37,1,1,0,0,1,.52-.15h7.44a1,1,0,0,1,1,1,1,1,0,0,1-.15.52Z"></path></g></g></g></svg> 