<?xml version="1.0" encoding="UTF-8"?> <svg xmlns="http://www.w3.org/2000/svg" xmlns:xlink="http://www.w3.org/1999/xlink" version="1.1" x="0px" y="0px" viewBox="0 0 61 61" style="enable-background:new 0 0 61 61;" xml:space="preserve"> <style type="text/css"> .st0{display:none;} .st1{display:inline;fill:#FDDAC6;} .st2{display:inline;} .st3{fill:#FFFFFF;} .st4{fill:#FE1178;} .st5{fill:#FEF0C5;} .st6{fill:#FEC302;} .st7{fill:none;stroke:#FFFFFF;stroke-width:3;stroke-linecap:round;stroke-linejoin:round;} </style> <g id="Icon-content-audit" class="st0"> <path class="st1" d="M0,49c0-12.3,0-24.6,0-37c0.4-0.3,0.4-0.9,0.6-1.3c2-6.1,7.7-10.6,14-10.6C25.2,0,35.8,0,46.5,0.1 C54,0.1,60.8,6.6,60.9,13.9C61,24.9,61,36,60.9,47.1C60.8,54.6,54.3,61,46.7,61c-11,0-22,0-32.9,0c-1.8,0-3.4-0.4-5-1.2 C4.1,57.6,1.5,53.8,0,49z"></path> <g id="Icon-analytics-audit_00000172416657377424780770000001481930520847330713_" class="st2"> <g id="Groupe_782_00000027600303143117503670000001876027088585496460_"> <rect id="Rectangle_580_00000110467486866590638790000003402302201151629215_" x="37" y="31.5" transform="matrix(0.7071 -0.7071 0.7071 0.7071 -15.4718 38.7101)" class="st3" width="4" height="13"></rect> <path class="st4" d="M27,16c-6.1,0-11,4.9-11,11s4.9,11,11,11s11-4.9,11-11S33.1,16,27,16z M27,34c-3.9,0-7-3.1-7-7s3.1-7,7-7 s7,3.1,7,7S30.9,34,27,34L27,34z"></path> </g> </g> </g> <g id="Icon-Analytics-Facebook" class="st0"> <g id="Icon-social-ads-facebook_00000135685549422234604570000016366398747168056966_" class="st2"> <g id="Icon-SMO_00000126286963029928324860000005911666267599881874_"> <path id="bg_00000128467025948157035370000006712119813001104534_" class="st5" d="M15,0h31c8.3,0,15,6.7,15,15v31 c0,8.3-6.7,15-15,15H15C6.7,61,0,54.3,0,46V15C0,6.7,6.7,0,15,0z"></path> </g> <path class="st3" d="M20.1,17.3h20.8c1.7,0,3,1.3,3,3v20.8c0,1.7-1.3,3-3,3H20.1c-1.7,0-3-1.3-3-3V20.3 C17.1,18.7,18.4,17.3,20.1,17.3z"></path> <path id="Icon_awesome-facebook-f_00000042729406751681770200000016150729110452059065_" class="st6" d="M33.8,31.6l0.4-2.5h-2.4 v-1.6c-0.1-0.7,0.4-1.3,1.1-1.4c0.1,0,0.2,0,0.3,0h1.1v-2.1c-0.7-0.1-1.3-0.2-2-0.2c-1.7-0.1-3.2,1.2-3.3,2.9c0,0.2,0,0.3,0,0.5 v1.9h-2.2v2.5H29v6.1h2.7v-6.1H33.8z"></path> </g> </g> <g id="Icon-Analytics-Accompagnement" class="st0"> <g id="Icon-SEO-strategie_00000076593208070301953550000005853309678585308052_" class="st2"> <g id="Icon-SEO-Strategie_00000018239340837596500990000001946718632304847519_"> <path id="bg_00000031180902363039784890000013505034600737083034_" class="st5" d="M15,0h31c8.3,0,15,6.7,15,15v31 c0,8.3-6.7,15-15,15H15C6.7,61,0,54.3,0,46V15C0,6.7,6.7,0,15,0z"></path> <circle id="Ellipse_902_00000044146291909334991500000011030700329822406078_" class="st3" cx="30.5" cy="30.5" r="13.5"></circle> <polygon class="st6" points="42.2,20.1 32.5,29.8 28.7,26 25.7,29 29.5,32.8 29.5,32.8 32.5,35.7 45.2,23 "></polygon> </g> </g> </g> <g id="Icon-Analytics-Strategie-Visite" class="st0"> <g id="Icon-SEO-Referencement-site-vitrine_00000160172240349810460990000010812397425915319207_" class="st2"> <g id="Icon-SEO-Referencement-site-vitrine_00000178922803290228422300000008743079102343006613_" transform="translate(-270)"> <path id="Rectangle_378_00000101814104929595645950000017675073277520635321_" class="st5" d="M285,0h31c8.3,0,15,6.7,15,15v31 c0,8.3-6.7,15-15,15h-31c-8.3,0-15-6.7-15-15V15C270,6.7,276.7,0,285,0z"></path> <ellipse id="Ellipse_915_00000121246547196188187880000014127463741117575069_" class="st6" cx="301" cy="30" rx="20" ry="12"></ellipse> <path id="Rectangle_615_00000110439932309649714930000009670101589961177229_" class="st3" d="M301,25L301,25c2.8,0,5,2.2,5,5 l0,0c0,2.8-2.2,5-5,5l0,0c-2.8,0-5-2.2-5-5l0,0C296,27.2,298.2,25,301,25z"></path> </g> </g> </g> <g id="Icon-Analytics-Strategie-Visite-Achat" class="st0"> <g id="Icon-SEA-shopping_00000111880003040125858140000010902879645486158503_" class="st2"> <g id="Icon-SMO_00000147912592821949924010000011149189186323433135_"> <path id="bg_00000148645304301178789890000003290047208050883229_" class="st5" d="M15,0h31c8.3,0,15,6.7,15,15v31 c0,8.3-6.7,15-15,15H15C6.7,61,0,54.3,0,46V15C0,6.7,6.7,0,15,0z"></path> </g> <g id="Icon_feather-shopping-cart_00000109725441218919384940000012971213252913360565_"> <path class="st3" d="M26,47.8c-1.7,0-3-1.3-3-3s1.3-3,3-3s3,1.3,3,3S27.7,47.8,26,47.8z"></path> <path class="st3" d="M42.5,47.8c-1.7,0-3-1.3-3-3s1.3-3,3-3s3,1.3,3,3S44.2,47.8,42.5,47.8z"></path> <path class="st6" d="M48.5,22.5l-2.4,12.6c-0.4,2.1-2.3,3.6-4.4,3.6H26.9c-2.1,0-4-1.5-4.4-3.6L20,22.6c0,0,0-0.1,0-0.1l-1.2-6.2 H14c-0.8,0-1.5-0.7-1.5-1.5s0.7-1.5,1.5-1.5h6c0.7,0,1.3,0.5,1.5,1.2l1.3,6.3H47c0.4,0,0.9,0.2,1.2,0.5 C48.4,21.6,48.6,22.1,48.5,22.5z"></path> </g> </g> </g> <g id="Icon-Analytics-Rebond"> <g id="Icon-content-motion_00000011723557488750159760000015523262356179220392_"> <g id="Icon-growth-hacking_00000158716375295425846090000007224740706627676554_"> <path id="bg_00000132810879346659123440000002834006024855985281_" class="st5" d="M15,0h31c8.3,0,15,6.7,15,15v31 c0,8.3-6.7,15-15,15H15C6.7,61,0,54.3,0,46V15C0,6.7,6.7,0,15,0z"></path> </g> <circle class="st6" cx="44.3" cy="27.5" r="7.2"></circle> <path class="st7" d="M19.5,41.4L19.5,41.4c0-7.8-4.1-14.9-10.9-18.8C6,21,3.1,20,0,19.7"></path> <path class="st7" d="M32.5,28.6L32.5,28.6c-7,0-12.7,5.7-12.7,12.7l0,0l0,0"></path> </g> </g> </svg> 