<?xml version="1.0" encoding="UTF-8"?> <svg xmlns="http://www.w3.org/2000/svg" xmlns:xlink="http://www.w3.org/1999/xlink" version="1.1" x="0px" y="0px" viewBox="0 0 61 61" style="enable-background:new 0 0 61 61;" xml:space="preserve"> <style type="text/css"> .st0{display:none;} .st1{display:inline;fill:#FDDAC6;} .st2{display:inline;} .st3{fill:#FFFFFF;} .st4{fill:#FE1178;} .st5{fill:#FEF0C5;} .st6{fill:#FEC302;} </style> <g id="Icon-content-audit" class="st0"> <path class="st1" d="M0,49c0-12.3,0-24.6,0-37c0.4-0.3,0.4-0.9,0.6-1.3c2-6.1,7.7-10.6,14-10.6C25.2,0,35.8,0,46.5,0.1 C54,0.1,60.8,6.6,60.9,13.9C61,24.9,61,36,60.9,47.1C60.8,54.6,54.3,61,46.7,61c-11,0-22,0-32.9,0c-1.8,0-3.4-0.4-5-1.2 C4.1,57.6,1.5,53.8,0,49z"></path> <g id="Icon-analytics-audit_00000172416657377424780770000001481930520847330713_" class="st2"> <g id="Groupe_782_00000027600303143117503670000001876027088585496460_"> <rect id="Rectangle_580_00000110467486866590638790000003402302201151629215_" x="37" y="31.5" transform="matrix(0.7071 -0.7071 0.7071 0.7071 -15.4718 38.7101)" class="st3" width="4" height="13"></rect> <path class="st4" d="M27,16c-6.1,0-11,4.9-11,11s4.9,11,11,11s11-4.9,11-11S33.1,16,27,16z M27,34c-3.9,0-7-3.1-7-7s3.1-7,7-7 s7,3.1,7,7S30.9,34,27,34L27,34z"></path> </g> </g> </g> <g id="Icon-Analytics-Facebook" class="st0"> <g id="Icon-social-ads-facebook_00000135685549422234604570000016366398747168056966_" class="st2"> <g id="Icon-SMO_00000126286963029928324860000005911666267599881874_"> <path id="bg_00000128467025948157035370000006712119813001104534_" class="st5" d="M15,0h31c8.3,0,15,6.7,15,15v31 c0,8.3-6.7,15-15,15H15C6.7,61,0,54.3,0,46V15C0,6.7,6.7,0,15,0z"></path> </g> <path class="st3" d="M20.1,17.3h20.8c1.7,0,3,1.3,3,3v20.8c0,1.7-1.3,3-3,3H20.1c-1.7,0-3-1.3-3-3V20.3 C17.1,18.7,18.4,17.3,20.1,17.3z"></path> <path id="Icon_awesome-facebook-f_00000042729406751681770200000016150729110452059065_" class="st6" d="M33.8,31.6l0.4-2.5h-2.4 v-1.6c-0.1-0.7,0.4-1.3,1.1-1.4c0.1,0,0.2,0,0.3,0h1.1v-2.1c-0.7-0.1-1.3-0.2-2-0.2c-1.7-0.1-3.2,1.2-3.3,2.9c0,0.2,0,0.3,0,0.5 v1.9h-2.2v2.5H29v6.1h2.7v-6.1H33.8z"></path> </g> </g> <g id="Icon-Analytics-Strategie"> <g id="Icon-SEO-strategie_00000076593208070301953550000005853309678585308052_"> <g id="Icon-SEO-Strategie_00000018239340837596500990000001946718632304847519_"> <path id="bg_00000031180902363039784890000013505034600737083034_" class="st5" d="M15,0h31c8.3,0,15,6.7,15,15v31 c0,8.3-6.7,15-15,15H15C6.7,61,0,54.3,0,46V15C0,6.7,6.7,0,15,0z"></path> <circle id="Ellipse_902_00000044146291909334991500000011030700329822406078_" class="st3" cx="30.5" cy="30.5" r="13.5"></circle> <polygon class="st6" points="42.2,20.1 32.5,29.8 28.7,26 25.7,29 29.5,32.8 29.5,32.8 32.5,35.7 45.2,23 "></polygon> </g> </g> </g> <g id="Icon-Analytics-Strategie_-_copie" class="st0"> <g id="Icon-SEO-accompagnement_00000130635246721146814870000010298857149532798849_" class="st2"> <g id="Icon-SEO_00000082336155521275850810000007588370005060541111_"> <path id="bg_00000014628146916061745430000008871470720561943209_" class="st5" d="M15,0h31c8.3,0,15,6.7,15,15v31 c0,8.3-6.7,15-15,15H15C6.7,61,0,54.3,0,46V15C0,6.7,6.7,0,15,0z"></path> </g> <g id="Groupe_786_00000011751594149317441260000001567105186775092613_"> <g id="Groupe_785_00000011712065216879837110000007957123431008634800_"> <path id="Rectangle_583_00000138550588195936916530000008370738450093771191_" class="st3" d="M24,29h22c1.1,0,2,0.9,2,2v10 c0,1.1-0.9,2-2,2H24c-1.1,0-2-0.9-2-2V31C22,29.9,22.9,29,24,29z"></path> <path id="Polygone_12_00000023264028175741118860000014838269751617188527_" class="st3" d="M42.3,45.6 c-0.3,0.5-0.9,0.6-1.4,0.3c-0.1-0.1-0.3-0.2-0.3-0.3l-3.7-6.1c-0.3-0.5-0.1-1.1,0.3-1.4c0.2-0.1,0.3-0.1,0.5-0.2h7.4 c0.6,0,1,0.4,1,1c0,0.2-0.1,0.4-0.2,0.5L42.3,45.6z"></path> </g> <g id="Groupe_784_00000007401624082392352120000002136755707867224212_"> <path id="Rectangle_583-2_00000137817272941788386080000001074160992558817946_" class="st6" d="M15,15h24c1.1,0,2,0.9,2,2v14 c0,1.1-0.9,2-2,2H15c-1.1,0-2-0.9-2-2V17C13,15.9,13.9,15,15,15z"></path> <path id="Polygone_12-2_00000149344031806272153020000002570810984042809245_" class="st6" d="M20.4,35.6 c-0.3,0.5-0.9,0.6-1.4,0.3c-0.1-0.1-0.3-0.2-0.3-0.3l-3.7-6.1c-0.3-0.5-0.1-1.1,0.3-1.4c0.2-0.1,0.3-0.1,0.5-0.1h7.4 c0.6,0,1,0.4,1,1c0,0.2-0.1,0.4-0.1,0.5L20.4,35.6z"></path> </g> </g> </g> </g> </svg> 