<svg xmlns="http://www.w3.org/2000/svg" width="85.321" height="81.644" viewBox="0 0 85.321 81.644">
  <g id="etoile-angle" transform="translate(-1036.512 -925.571)">
    <path id="Soustraction_1" data-name="Soustraction 1" d="M109,118.215h0A39.467,39.467,0,0,0,69.5,79l.015,0A39.464,39.464,0,0,0,109,39.786,39.47,39.47,0,0,0,148.475,79,39.467,39.467,0,0,0,109,118.215Z" transform="translate(967.013 889)" fill="#1d63ef"/>
    <path id="Soustraction_4" data-name="Soustraction 4" d="M84.826,70.215h0A15.313,15.313,0,0,0,69.5,55h.006A15.311,15.311,0,0,0,84.825,39.786,15.314,15.314,0,0,0,100.141,55,15.312,15.312,0,0,0,84.826,70.215Z" transform="translate(1021.692 885.785)" fill="#1d63ef"/>
    <path id="Soustraction_3" data-name="Soustraction 3" d="M76.823,54.215h0a7.217,7.217,0,0,0-2.145-5.086A7.328,7.328,0,0,0,69.5,47h0a7.326,7.326,0,0,0,5.175-2.128,7.217,7.217,0,0,0,2.145-5.086,7.219,7.219,0,0,0,2.145,5.086A7.328,7.328,0,0,0,84.141,47a7.328,7.328,0,0,0-5.173,2.128,7.217,7.217,0,0,0-2.145,5.086Z" transform="translate(976.371 899)" fill="#1d63ef"/>
    <path id="Soustraction_5" data-name="Soustraction 5" d="M76.823,54.215h0a7.217,7.217,0,0,0-2.145-5.086A7.328,7.328,0,0,0,69.5,47h0a7.326,7.326,0,0,0,5.175-2.128,7.217,7.217,0,0,0,2.145-5.086,7.219,7.219,0,0,0,2.145,5.086A7.328,7.328,0,0,0,84.141,47a7.328,7.328,0,0,0-5.173,2.128,7.217,7.217,0,0,0-2.145,5.086Z" transform="translate(1023.371 946)" fill="#1d63ef"/>
  </g>
</svg>
