<svg xmlns="http://www.w3.org/2000/svg" width="59" height="35" viewBox="0 0 59 35">
  <g id="icon_optimize" transform="translate(-335.618 46.44)">
    <rect id="Rectangle_485" data-name="Rectangle 485" width="59" height="35" rx="17.5" transform="translate(335.618 -46.44)" fill="#fbd8c4"/>
    <path id="Icon_ionic-ios-settings" data-name="Icon ionic-ios-settings" d="M24.107,15.186a2.75,2.75,0,0,1,1.764-2.566,10.9,10.9,0,0,0-1.319-3.178,2.787,2.787,0,0,1-1.119.239,2.744,2.744,0,0,1-2.51-3.862A10.868,10.868,0,0,0,17.751,4.5a2.748,2.748,0,0,1-5.131,0A10.9,10.9,0,0,0,9.442,5.819a2.744,2.744,0,0,1-2.51,3.862,2.7,2.7,0,0,1-1.119-.239A11.142,11.142,0,0,0,4.5,12.625a2.749,2.749,0,0,1,.006,5.131,10.9,10.9,0,0,0,1.319,3.178,2.745,2.745,0,0,1,3.623,3.623,10.964,10.964,0,0,0,3.178,1.319,2.743,2.743,0,0,1,5.12,0,10.9,10.9,0,0,0,3.178-1.319,2.748,2.748,0,0,1,3.623-3.623,10.964,10.964,0,0,0,1.319-3.178A2.763,2.763,0,0,1,24.107,15.186Zm-8.871,4.447a4.452,4.452,0,1,1,4.452-4.452A4.451,4.451,0,0,1,15.236,19.632Z" transform="translate(349.933 -44.128)" fill="#fe1178"/>
  </g>
</svg>
