<svg xmlns="http://www.w3.org/2000/svg" width="15" height="15" viewBox="0 0 15 15">
  <path id="Icon_awesome-check-square" data-name="Icon awesome-check-square" d="M13.393,17.25H1.607A1.607,1.607,0,0,1,0,15.643V3.857A1.607,1.607,0,0,1,1.607,2.25H13.393A1.607,1.607,0,0,1,15,3.857V15.643A1.607,1.607,0,0,1,13.393,17.25ZM6.54,13.967,12.7,7.806a.536.536,0,0,0,0-.758l-.758-.758a.536.536,0,0,0-.758,0L6.161,11.315,3.815,8.969a.536.536,0,0,0-.758,0L2.3,9.727a.536.536,0,0,0,0,.758l3.482,3.482A.536.536,0,0,0,6.54,13.967Z" transform="translate(0 -2.25)" fill="#02bf75"/>
</svg>
