<?xml version="1.0" encoding="UTF-8"?> <svg xmlns="http://www.w3.org/2000/svg" id="Analytics" viewBox="0 0 60.66 60.66"><defs><style>.cls-1{fill:#e8effe;}.cls-2{fill:#fff;}.cls-3{fill:#1d63ef;}</style></defs><rect id="bg" class="cls-1" width="60.66" height="60.66" rx="14.92"></rect><path class="cls-2" d="M30.33,15.27a15.06,15.06,0,1,0,15.06,15.1A15.09,15.09,0,0,0,30.33,15.27Zm1.84,21c-.31.33-.63.66-1,1a5.45,5.45,0,0,1-3.77,1.52,5.47,5.47,0,0,1-4-9.26c.32-.34.66-.67,1-1a1.36,1.36,0,0,1,1.91,1.95c-.29.3-.59.58-.88.88a2.74,2.74,0,1,0,3.88,3.87c.29-.28.57-.57.86-.86a1.36,1.36,0,1,1,1.93,1.92Zm.52-6.31-2.81,2.82a1.45,1.45,0,0,1-1.08.43,1.33,1.33,0,0,1-1.18-.83,1.3,1.3,0,0,1,.27-1.49c.48-.51,1-1,1.49-1.5L30.74,28a1.38,1.38,0,0,1,2-.07A1.36,1.36,0,0,1,32.69,29.91Zm4.5,1.3c-.31.35-.66.67-1,1a1.36,1.36,0,0,1-1.92-1.93l.89-.89a2.74,2.74,0,1,0-3.88-3.87c-.29.28-.57.57-.86.86a1.35,1.35,0,0,1-2,0,1.32,1.32,0,0,1,0-1.92,17.82,17.82,0,0,1,1.84-1.64,5.08,5.08,0,0,1,3-.87,5.49,5.49,0,0,1,3.84,9.26Z"></path><path class="cls-3" d="M33.35,22a5.49,5.49,0,0,1,3.84,9.26c-.31.35-.66.67-1,1a1.36,1.36,0,0,1-1.93,0,1.34,1.34,0,0,1,0-1.9l.89-.89a2.74,2.74,0,1,0-3.88-3.87c-.29.28-.57.57-.86.86a1.35,1.35,0,0,1-2,0,1.32,1.32,0,0,1,0-1.92,17.82,17.82,0,0,1,1.84-1.64A5.08,5.08,0,0,1,33.35,22Z"></path><path class="cls-3" d="M27.43,38.72a5.47,5.47,0,0,1-4-9.26c.32-.34.66-.67,1-1a1.36,1.36,0,0,1,1.91,1.95c-.29.29-.59.58-.88.88a2.74,2.74,0,1,0,3.88,3.87c.29-.28.57-.57.86-.86a1.36,1.36,0,1,1,1.93,1.92c-.31.33-.63.66-1,1A5.45,5.45,0,0,1,27.43,38.72Z"></path><path class="cls-3" d="M28.8,33.16a1.33,1.33,0,0,1-1.18-.83,1.3,1.3,0,0,1,.27-1.49c.48-.51,1-1,1.49-1.5L30.74,28a1.37,1.37,0,1,1,1.95,1.93c-.93.94-1.87,1.88-2.81,2.81A1.42,1.42,0,0,1,28.8,33.16Z"></path></svg> 