<?xml version="1.0" encoding="UTF-8"?> <svg xmlns="http://www.w3.org/2000/svg" id="Analytics" viewBox="0 0 61 61"><defs><style>.cls-1{fill:#fedbc7;}.cls-2{fill:#fff;}.cls-3{fill:#fe1178;}</style></defs><g id="Icon-growth-hacking"><rect id="bg" class="cls-1" width="61" height="61" rx="15"></rect></g><g id="Groupe_773" data-name="Groupe 773"><rect id="Rectangle_555" data-name="Rectangle 555" class="cls-2" x="13.86" y="25.38" width="21" height="8" rx="1" transform="translate(-13.64 25.83) rotate(-45)"></rect><rect id="Rectangle_556" data-name="Rectangle 556" class="cls-2" x="32.88" y="13.36" width="7" height="8" rx="1" transform="translate(-1.62 30.81) rotate(-45)"></rect><path id="Polygone_5" data-name="Polygone 5" class="cls-2" d="M11.55,43.42a1,1,0,0,1-1.23-.7,1.19,1.19,0,0,1,0-.53l1.21-4.42a1,1,0,0,1,1.22-.71.89.89,0,0,1,.45.26l3.22,3.22a1,1,0,0,1,0,1.41.87.87,0,0,1-.44.26Z"></path></g><rect class="cls-3" x="23.94" y="38.56" width="23.91" height="4.5" rx="1.01"></rect><rect class="cls-3" x="30.5" y="32.47" width="17.34" height="4.5" rx="1.01"></rect><rect class="cls-3" x="36.45" y="26" width="11.4" height="4.5" rx="1.01"></rect></svg> 