<?xml version="1.0" encoding="UTF-8"?> <svg xmlns="http://www.w3.org/2000/svg" id="Analytics" viewBox="0 0 61 61"><defs><style>.cls-1{fill:#fedbc7;}.cls-2{fill:#fe1178;}.cls-3{fill:#fff;}</style></defs><g id="Icon-ref-amazon"><rect id="bg" class="cls-1" width="61" height="61" rx="15"></rect></g><path class="cls-2" d="M36,15.55a5.63,5.63,0,0,1,1.41-1c2.24-1.35,6.77-3.45,11.31-1.71a9.42,9.42,0,0,0-3.39,6.57,1.09,1.09,0,0,1,0,.18c0,.12,0,.25,0,.37a1,1,0,0,0,0,.16l0,.13A5.57,5.57,0,1,1,36,15.59h0Z"></path><rect class="cls-3" x="22.42" y="22.35" width="6.28" height="25.67" rx="3" transform="translate(32.37 -7.77) rotate(45)"></rect></svg> 