<svg xmlns="http://www.w3.org/2000/svg" width="18.986" height="18.986" viewBox="0 0 18.986 18.986">
  <path id="Icon_awesome-info-circle" data-name="Icon awesome-info-circle" d="M10.055.563a9.493,9.493,0,1,0,9.493,9.493A9.494,9.494,0,0,0,10.055.563Zm0,4.211A1.608,1.608,0,1,1,8.448,6.381,1.608,1.608,0,0,1,10.055,4.773ZM12.2,14.5a.459.459,0,0,1-.459.459H8.371a.459.459,0,0,1-.459-.459v-.919a.459.459,0,0,1,.459-.459h.459v-2.45H8.371a.459.459,0,0,1-.459-.459V9.29a.459.459,0,0,1,.459-.459h2.45a.459.459,0,0,1,.459.459v3.828h.459a.459.459,0,0,1,.459.459Z" transform="translate(-0.563 -0.563)"/>
</svg>
