<?xml version="1.0" encoding="UTF-8"?> <svg xmlns="http://www.w3.org/2000/svg" id="Analytics" viewBox="0 0 60.66 60.66"><defs><style>.cls-1{fill:#e8effe;}.cls-2{fill:#fff;}.cls-3{fill:#1d63ef;}</style></defs><rect id="bg" class="cls-1" width="60.66" height="60.66" rx="14.92"></rect><circle class="cls-2" cx="30.33" cy="30.33" r="13.27"></circle><path class="cls-3" d="M43.86,30.44A13.28,13.28,0,0,1,30.28,43.86c-7.74,0-13.5-5.9-13.48-13.77,0-7.54,6-13.31,13.71-13.29A13.28,13.28,0,0,1,43.86,30.44ZM38.64,21c-6-5.24-15.59-3.89-18.4,2.55h3.88c-1.59,1.34.76,10.43,3.22,13.81,3.58-7,3-10.59-.59-13.74h6.56c-1.43,1.22.52,9.32,3.39,14,1.21-4.31,3.78-8.26.49-12.66C36,23.44,36.71,21.94,38.64,21ZM34.77,42.53,30.83,31.72h-.54L26.55,42.53Zm-9.67-1-6-16.22C16,31.07,18.74,38.78,25.1,41.5ZM41.66,25.24,36.53,41C42.43,37.64,44.44,31,41.66,25.24Z"></path></svg> 