<?xml version="1.0" encoding="UTF-8"?> <svg xmlns="http://www.w3.org/2000/svg" id="Analytics" viewBox="0 0 60.66 60.66"><defs><style>.cls-1{fill:#e8effe;}.cls-2{fill:#d70200;}.cls-3{fill:#f7c702;}</style></defs><rect id="bg" class="cls-1" width="60.66" height="60.66" rx="14.92"></rect><path d="M17.48,20H43.76a2,2,0,0,1,2,2v4.12a0,0,0,0,1,0,0H15.48a0,0,0,0,1,0,0V22A2,2,0,0,1,17.48,20Z"></path><rect class="cls-2" x="15.48" y="26.16" width="30.29" height="6.12"></rect><path class="cls-3" d="M15.48,32.28H45.76a0,0,0,0,1,0,0v4.12a2,2,0,0,1-2,2H17.48a2,2,0,0,1-2-2V32.28A0,0,0,0,1,15.48,32.28Z"></path></svg> 