<?xml version="1.0" encoding="UTF-8"?> <svg xmlns="http://www.w3.org/2000/svg" id="Analytics" viewBox="0 0 60.66 60.66"><defs><style>.cls-1{fill:#e8effe;}.cls-2{fill:#1d63ef;}.cls-3{fill:#fff;}</style></defs><rect id="bg" class="cls-1" width="60.66" height="60.66" rx="14.92"></rect><path class="cls-2" d="M43.82,32.79l-2.22-.72a11.14,11.14,0,0,0,.15-1.74,12.66,12.66,0,0,0-.13-1.64L43.86,28a1,1,0,0,0,.66-1.31L44,25.05a1,1,0,0,0-1.3-.66l-2.22.72a11.48,11.48,0,0,0-2-2.74l1.38-1.9A1,1,0,0,0,39.66,19l-1.38-1a1,1,0,0,0-1.44.22l-1.37,1.89a11.31,11.31,0,0,0-3.21-1.05V16.73a1,1,0,0,0-1-1h-1.7a1,1,0,0,0-1,1v2.34a11.17,11.17,0,0,0-3.21,1L23.9,18.19A1,1,0,0,0,22.46,18l-1.37,1a1,1,0,0,0-.23,1.44l1.37,1.89a11.37,11.37,0,0,0-2,2.72L18,24.29a1,1,0,0,0-1.31.66l-.52,1.61a1,1,0,0,0,.66,1.31l2.23.72a11.14,11.14,0,0,0-.15,1.74A12.36,12.36,0,0,0,19,32l-2.24.73a1,1,0,0,0-.66,1.3l.52,1.62a1,1,0,0,0,1.3.66l2.22-.72a11.64,11.64,0,0,0,2,2.74l-1.38,1.9A1,1,0,0,0,21,41.63l1.37,1a1,1,0,0,0,1.45-.23l1.37-1.89a10.92,10.92,0,0,0,3.21,1.06v2.36a1,1,0,0,0,1,1h1.69a1,1,0,0,0,1-1V41.59a11.7,11.7,0,0,0,3.21-1l1.39,1.9a1,1,0,0,0,1.44.23l1.37-1a1,1,0,0,0,.23-1.45l-1.37-1.88a11.23,11.23,0,0,0,2-2.73l2.23.73a1,1,0,0,0,1.3-.66l.53-1.62A1,1,0,0,0,43.82,32.79ZM30.33,35.27a4.94,4.94,0,1,1,4.94-4.94A4.94,4.94,0,0,1,30.33,35.27Z"></path><circle class="cls-3" cx="30.33" cy="30.33" r="4.94"></circle></svg> 