<?xml version="1.0" encoding="UTF-8"?> <svg xmlns="http://www.w3.org/2000/svg" id="Analytics" viewBox="0 0 60.66 60.66"><defs><style>.cls-1{fill:#e8effe;}.cls-2{fill:#f5d223;}.cls-3{fill:#e8323e;}</style></defs><rect id="bg" class="cls-1" width="60.66" height="60.66" rx="14.92"></rect><path d="M17.48,20h8.1a0,0,0,0,1,0,0V38.39a0,0,0,0,1,0,0h-8.1a2,2,0,0,1-2-2V22A2,2,0,0,1,17.48,20Z"></path><rect class="cls-2" x="25.57" y="20.04" width="10.1" height="18.35"></rect><path class="cls-3" d="M35.7,20h8.1a2,2,0,0,1,2,2V36.39a2,2,0,0,1-2,2H35.7a0,0,0,0,1,0,0V20A0,0,0,0,1,35.7,20Z"></path></svg> 