<?xml version="1.0" encoding="UTF-8"?> <svg xmlns="http://www.w3.org/2000/svg" id="Analytics" viewBox="0 0 60.66 60.66"><defs><style>.cls-1{fill:#e8effe;}.cls-2{fill:#1d63ef;}.cls-3{font-size:4.25px;fill:#fff;font-family:Montserrat-Medium, Montserrat;font-weight:500;}.cls-4{font-family:Montserrat-MediumItalic, Montserrat;font-style:italic;}.cls-5{letter-spacing:0em;}.cls-6{letter-spacing:-0.01em;}.cls-7{letter-spacing:-0.01em;}</style></defs><rect id="bg" class="cls-1" width="60.66" height="60.66" rx="14.92"></rect><path class="cls-2" d="M14.77,27.51a7,7,0,0,1,2.5-9,7.42,7.42,0,0,1,9.81,1.39c3.84-2.68,8.29-2.5,10.62,1.51,5-2.62,11.37,1.47,11.37,7.31S44.53,37.48,39.42,37c-.25,2.53-5.93,3.88-7.64,2.33-1.19,4-9.08,6.95-12.67-.2-5.52.08-7.46-3.27-7.46-6.09S13.26,28.08,14.77,27.51Z"></path><text class="cls-3" transform="translate(20.19 31.17)">Sales<tspan class="cls-4" x="11.09" y="0">f</tspan><tspan class="cls-5" x="12.59" y="0">o</tspan><tspan class="cls-6" x="15.29" y="0">r</tspan><tspan class="cls-7" x="16.98" y="0">c</tspan><tspan class="cls-5" x="19.38" y="0">e</tspan></text></svg> 