<?xml version="1.0" encoding="UTF-8"?> <svg xmlns="http://www.w3.org/2000/svg" id="Analytics" viewBox="0 0 61 61"><defs><style>.cls-1{fill:#fedbc7;}.cls-2{fill:#fff;}.cls-3{fill:#fe1178;}</style></defs><g id="Icon-ref-amazon"><rect id="bg" class="cls-1" width="61" height="61" rx="15"></rect></g><g id="Groupe_773" data-name="Groupe 773"><rect id="Rectangle_555" data-name="Rectangle 555" class="cls-2" x="19.18" y="26.34" width="16.21" height="6.17" rx="0.77" transform="translate(-12.81 27.91) rotate(-45)"></rect><rect id="Rectangle_556" data-name="Rectangle 556" class="cls-2" x="33.86" y="17.06" width="5.4" height="6.17" rx="0.77" transform="translate(-3.54 31.75) rotate(-45)"></rect><path id="Polygone_5" data-name="Polygone 5" class="cls-2" d="M17.4,40.25a.77.77,0,0,1-.95-.54.9.9,0,0,1,0-.4l.93-3.42a.77.77,0,0,1,.95-.54.66.66,0,0,1,.34.2L21.16,38a.77.77,0,0,1,0,1.09.69.69,0,0,1-.35.2Z"></path></g><rect class="cls-3" x="26.36" y="37.8" width="21.4" height="2.48" rx="1.24"></rect></svg> 