<?xml version="1.0" encoding="UTF-8"?> <svg xmlns="http://www.w3.org/2000/svg" id="Analytics" viewBox="0 0 60.66 60.66"><defs><style>.cls-1{fill:#e8effe;}.cls-2{fill:#022066;}.cls-3{fill:#c1112d;}.cls-4{fill:#fff;}</style></defs><rect id="bg" class="cls-1" width="60.66" height="60.66" rx="14.92"></rect><path class="cls-2" d="M45.77,22V36.47a1.94,1.94,0,0,1-.19.76A2,2,0,0,1,45,38a1.89,1.89,0,0,1-.82.39,2,2,0,0,1-.43,0H17.48l-.3,0a1.92,1.92,0,0,1-.87-.36,1.9,1.9,0,0,1-.61-.71,1.82,1.82,0,0,1-.21-.74.91.91,0,0,1,0-.17V22a2.45,2.45,0,0,1,0-.27,2,2,0,0,1,.24-.72,1.93,1.93,0,0,1,.65-.68,1.89,1.89,0,0,1,.94-.32H43.77l.29,0a2,2,0,0,1,1.49,1.07,1.82,1.82,0,0,1,.21.74A.91.91,0,0,1,45.77,22Z"></path><path class="cls-3" d="M45.77,30.38H33.72l11.86,6.85A2,2,0,0,1,45,38L32,30.41v8H29.64v-8h-.13L16.31,38a1.9,1.9,0,0,1-.61-.71l12-6.92H15.48V28.05h12.4l-12.14-7a1.93,1.93,0,0,1,.65-.68L29.64,28V20H32v7.88l13-7.5a2.1,2.1,0,0,1,.61.71l-12,6.92H45.77Z"></path><path class="cls-4" d="M15.48,30.38v.75H24.9l-9.41,5.43a1.82,1.82,0,0,0,.21.74l12-6.92Zm16.48,0v8h.75V31.71L44.2,38.34A1.89,1.89,0,0,0,45,38Zm4.38-3.11,9.42-5.43a1.82,1.82,0,0,0-.21-.74l-12,6.92H45.77V27.3Zm9.43,3.08H33.72l11.86,6.85a1.94,1.94,0,0,0,.19-.76l-9.25-5.34h9.25ZM44.06,20.06,32.71,26.62V20H32v7.88l13-7.5A2.08,2.08,0,0,0,44.06,20.06ZM28.89,26.72,17.33,20.05a1.89,1.89,0,0,0-.94.32L29.64,28V20h-.75Zm.62,3.66L16.31,38a1.92,1.92,0,0,0,.87.36l11.71-6.76v6.78h.75v-8ZM15.74,21.05a2,2,0,0,0-.24.72l9.58,5.53h-9.6v.75h12.4Z"></path></svg> 