<?xml version="1.0" encoding="UTF-8"?> <svg xmlns="http://www.w3.org/2000/svg" id="Analytics" viewBox="0 0 61 61"><defs><style>.cls-1{fill:#feb691;}.cls-2{fill:#fff;}.cls-3{fill:#fe7100;}</style></defs><g id="Icon-SMO"><rect id="bg" class="cls-1" width="61" height="61" rx="15"></rect></g><g id="Icon_feather-shopping-cart" data-name="Icon feather-shopping-cart"><path class="cls-2" d="M26,47.75a3,3,0,1,1,3-3A3,3,0,0,1,26,47.75Zm0-3Z"></path><path class="cls-2" d="M42.5,47.75a3,3,0,1,1,3-3A3,3,0,0,1,42.5,47.75Zm0-3Z"></path><path class="cls-3" d="M48.47,22.53l-2.4,12.59a4.5,4.5,0,0,1-4.41,3.63H26.93a4.49,4.49,0,0,1-4.38-3.62L20,22.6a.36.36,0,0,1,0-.11l-1.25-6.24H14a1.5,1.5,0,0,1,0-3h6a1.51,1.51,0,0,1,1.47,1.21l1.26,6.29H47a1.52,1.52,0,0,1,1.16.54A1.5,1.5,0,0,1,48.47,22.53Z"></path></g></svg> 