<?xml version="1.0" encoding="UTF-8"?> <svg xmlns="http://www.w3.org/2000/svg" id="Analytics" viewBox="0 0 61 61"><defs><style>.cls-1{fill:#fedbc7;}.cls-2{fill:#fe1178;}.cls-3{fill:#fff;}</style></defs><g id="Icon-ref-amazon"><rect id="bg" class="cls-1" width="61" height="61" rx="15"></rect></g><path class="cls-2" d="M29.34,14.45H17.61a3,3,0,0,0-3.16,3.17V29.34a3,3,0,0,0,3.17,3.16H29.34a3,3,0,0,0,3.16-3.16s0-9.77,0-11.73A3,3,0,0,0,29.34,14.45ZM26.8,26.36c.29,0,.58.08.87.14a1,1,0,0,1,.81,1.16,1,1,0,0,1-1.16.82,8.25,8.25,0,0,1-3.7-1.23.35.35,0,0,0-.3,0,8.39,8.39,0,0,1-3.72,1.21,1,1,0,0,1-1.13-.88,1,1,0,0,1,.87-1.11c.56-.1,1.11-.19,1.66-.33.32-.08.62-.24.95-.36-.06-.11-.09-.18-.13-.24A6.69,6.69,0,0,1,20.6,22.7c0-.19-.11-.24-.29-.23s-.56,0-.84,0a1,1,0,1,1,0-2h3c0-.34,0-.65,0-1a1,1,0,1,1,2,0c0,.32,0,.63,0,1h3a1,1,0,0,1,0,2c-.37,0-.73,0-1.12,0A7,7,0,0,1,25,25.74,4.6,4.6,0,0,0,26.8,26.36Z"></path><path class="cls-3" d="M43.38,28.49H34.51v2.86a3,3,0,0,1-3.15,3.16H28.49v8.87a3,3,0,0,0,3.16,3.17H43.38a3,3,0,0,0,3.17-3.17V31.66A3,3,0,0,0,43.38,28.49Zm-1.6,14a1,1,0,0,1-1.1-.46c-.23-.42-.45-.86-.65-1.29a.35.35,0,0,0-.36-.23H35.38a.33.33,0,0,0-.36.23c-.18.39-.38.78-.59,1.17a1,1,0,0,1-1.36.52A1,1,0,0,1,32.65,41c1.3-2.62,2.62-5.25,3.93-7.87a1,1,0,0,1,1.88,0c1.31,2.63,2.63,5.26,3.94,7.9a2.56,2.56,0,0,1,.16.49A1,1,0,0,1,41.78,42.5Z"></path><path class="cls-2" d="M24.36,22.48a4.58,4.58,0,0,1-.88,1.93,4.5,4.5,0,0,1-.89-1.93Z"></path><path class="cls-3" d="M38.89,38.5H36.15c.44-.9.89-1.79,1.37-2.75C38,36.71,38.44,37.58,38.89,38.5Z"></path></svg> 