<?xml version="1.0" encoding="UTF-8"?> <svg xmlns="http://www.w3.org/2000/svg" id="Analytics" viewBox="0 0 61 61"><defs><style>.cls-1{fill:#fedbc7;}.cls-2{fill:#fe1178;}.cls-3{fill:#fff;}</style></defs><g id="Icon-ref-amazon"><rect id="bg" class="cls-1" width="61" height="61" rx="15"></rect></g><path class="cls-2" d="M45.62,21.49l-5-3a3.42,3.42,0,0,0-2.81-.31L15.91,25.32a3.42,3.42,0,0,0-2.19,4.3l2.7,8.3a3.41,3.41,0,0,0,4.3,2.19L42.65,33a3.44,3.44,0,0,0,2.09-1.91L47,25.75A3.39,3.39,0,0,0,45.62,21.49Zm-1.87,4.19A1.17,1.17,0,0,1,43,23.46a1.17,1.17,0,1,1,.72,2.22Z"></path><rect class="cls-3" x="16.83" y="26.48" width="13.23" height="2.8" rx="1" transform="translate(-7.47 8.61) rotate(-17.99)"></rect><rect class="cls-3" x="18.32" y="29.85" width="18.45" height="4.39" rx="1" transform="translate(-8.55 10.08) rotate(-17.99)"></rect></svg> 