<?xml version="1.0" encoding="UTF-8"?> <svg xmlns="http://www.w3.org/2000/svg" id="Analytics" viewBox="0 0 60.66 60.66"><defs><style>.cls-1{fill:#e8effe;}.cls-2{fill:#1d63ef;}.cls-3{fill:#fefefe;}</style></defs><rect id="bg" class="cls-1" width="60.66" height="60.66" rx="14.92"></rect><path class="cls-2" d="M42.24,26.18a49.46,49.46,0,0,0-6.63-7.53c-2.11-2.14-4.27-4.26-5.28-7.33C29.41,14.06,27.57,16,25.7,18a81.94,81.94,0,0,0-6.1,6.53c-2.73,3.55-4.34,7.45-3.69,12,.83,5.9,4.1,10,9.7,11.94a13.81,13.81,0,0,0,14.93-3.4C45.68,40.08,46.3,32.44,42.24,26.18Zm-20,11.33c-.38.66-.63.66-1.09,0a4.4,4.4,0,0,1-.82-2.91c0-3.2,1.43-5.63,3.28-7.89.23-.29.4-.2.61,0q1.67,1.71,3.35,3.39c.42.42.2.74-.11,1.1-1.27,1.41-2.53,2.84-3.79,4.26A11.82,11.82,0,0,0,22.26,37.51ZM32,45.3a4.9,4.9,0,0,1-5.49-1.83,4.74,4.74,0,0,1,.07-5.91c1.15-1.44,2.47-2.74,3.69-4.11.24-.28.4-.21.61,0a50.49,50.49,0,0,1,3.76,4.38,4.41,4.41,0,0,1,.81,2.73A4.87,4.87,0,0,1,32,45.3Zm8.15-8.52a4.77,4.77,0,0,1-.17.65c-.22.61-.61.71-1,.2-3.14-4.38-7.21-7.92-10.87-11.81-1.36-1.44-1.35-2.48.05-3.89.72-.72,1.48-1.41,2.25-2.15,2.48,2.81,5.49,5.24,7.7,8.4A10.76,10.76,0,0,1,40.12,36.78Z"></path><path class="cls-3" d="M30.41,19.78c2.48,2.81,5.49,5.24,7.7,8.4a10.76,10.76,0,0,1,2,8.6,3.66,3.66,0,0,1-.17.65c-.22.61-.61.71-1,.2-3.14-4.38-7.21-7.92-10.87-11.82-1.36-1.44-1.35-2.47.05-3.88C28.88,21.21,29.63,20.52,30.41,19.78Z"></path><path class="cls-3" d="M35.43,40.57a4.94,4.94,0,0,1-8.95,2.9,4.75,4.75,0,0,1,.07-5.91c1.15-1.44,2.46-2.74,3.69-4.12.24-.27.4-.2.6,0a47.69,47.69,0,0,1,3.77,4.39A4.44,4.44,0,0,1,35.43,40.57Z"></path><path class="cls-3" d="M20.35,34.63c0-3.21,1.43-5.63,3.28-7.89.23-.29.39-.2.61,0q1.67,1.71,3.35,3.4c.41.41.21.73-.11,1.09C26.2,32.65,25,34.08,23.69,35.5a12.41,12.41,0,0,0-1.43,2c-.38.65-.63.66-1.1,0A4.44,4.44,0,0,1,20.35,34.63Z"></path></svg> 