<?xml version="1.0" encoding="UTF-8"?> <svg xmlns="http://www.w3.org/2000/svg" xmlns:xlink="http://www.w3.org/1999/xlink" version="1.1" x="0px" y="0px" viewBox="0 0 40 40" style="enable-background:new 0 0 40 40;" xml:space="preserve"> <style type="text/css"> .st0{display:none;} .st1{display:inline;} .st2{fill:#1ED760;} .st3{fill:#FFFFFF;} .st4{fill:#6440A4;} .st5{display:inline;fill:#BD0216;} .st6{fill:#007BB6;} .st7{fill:#6845B5;} .st8{fill:#4161C4;} .st9{fill:#593A9A;} .st10{fill:#3C59B3;} .st11{fill:url(#SVGID_00000057867778169109715590000017385376239407269037_);} .st12{display:inline;fill:#3C5A9A;} </style> <g id="picto-spotify" class="st0"> <g class="st1"> <path class="st2" d="M19.7,1C30.3,0.8,38.9,9.4,39,19.9c0.1,10.7-8.5,18.9-18.6,19.1C9.8,39.2,1.1,30.7,1,20.1 C0.9,9.5,9.4,1.1,19.7,1z M17.8,14.6c0.7,0,1.9,0.1,3.1,0.2c2.2,0.2,4.4,0.6,6.5,1.3c1.4,0.4,2.7,1,3.9,1.7 c0.9,0.5,1.9,0.2,2.4-0.7c0.5-0.8,0.2-1.9-0.7-2.4c-0.2-0.1-0.4-0.2-0.6-0.3c-3.4-1.8-7.1-2.7-10.9-3.2c-2.6-0.3-5.2-0.3-7.8-0.1 c-1.9,0.2-3.7,0.5-5.5,1c-1,0.3-1.5,1.3-1.2,2.2c0.3,1,1.2,1.5,2.2,1.2C11.8,14.9,14.5,14.6,17.8,14.6z M29.8,24 c0.7-0.1,1.2-0.5,1.4-1.1c0.2-0.7-0.1-1.3-0.7-1.7c-2.9-1.8-6.1-2.8-9.4-3.3c-2.9-0.4-5.7-0.5-8.6,0c-1.1,0.2-2.2,0.5-3.3,0.7 c-0.8,0.2-1.3,1-1,1.8c0.2,0.8,1,1.3,1.9,1c2.9-0.8,5.8-1.1,8.8-0.8c3.6,0.3,6.9,1.2,10,3C29.2,23.8,29.5,23.9,29.8,24z M17.2,23.8c-2.7,0-4.6,0.3-7.2,0.8C9.3,24.8,8.8,25.3,9,26c0.2,0.7,0.8,1.1,1.5,0.9c1.2-0.2,2.4-0.5,3.6-0.6 c2.3-0.3,4.7-0.2,7,0.2c2.1,0.4,4,1.1,5.8,2.2c0.3,0.2,0.6,0.3,1,0.2c0.5-0.1,0.8-0.5,0.9-1c0.1-0.5-0.2-0.9-0.7-1.2 C24.8,24.6,21,23.8,17.2,23.8z"></path> <path class="st3" d="M17.8,14.6c-3.3,0-6,0.3-8.6,1c-1,0.3-1.9-0.2-2.2-1.2c-0.3-1,0.2-1.9,1.2-2.2c1.8-0.5,3.6-0.8,5.5-1 c2.6-0.2,5.2-0.2,7.8,0.1c3.8,0.4,7.5,1.3,10.9,3.2c0.2,0.1,0.4,0.2,0.6,0.3c0.9,0.5,1.1,1.6,0.7,2.4c-0.5,0.9-1.5,1.2-2.4,0.7 c-1.3-0.7-2.6-1.3-3.9-1.7c-2.1-0.7-4.3-1.1-6.5-1.3C19.7,14.7,18.5,14.6,17.8,14.6z"></path> <path class="st3" d="M29.8,24c-0.3-0.1-0.5-0.2-0.8-0.3c-3.1-1.8-6.5-2.7-10-3c-3-0.2-6,0-8.8,0.8c-0.9,0.2-1.6-0.2-1.9-1 c-0.2-0.8,0.2-1.6,1-1.8c1.1-0.3,2.2-0.6,3.3-0.7c2.9-0.5,5.7-0.4,8.6,0c3.3,0.5,6.5,1.5,9.4,3.3c0.6,0.4,0.9,1,0.7,1.7 C31,23.5,30.4,23.9,29.8,24z"></path> <path class="st3" d="M17.2,23.8c3.8,0,7.5,0.8,10.9,2.9c0.5,0.3,0.8,0.8,0.7,1.2c-0.1,0.5-0.4,0.9-0.9,1c-0.4,0.1-0.7,0-1-0.2 c-1.8-1.1-3.8-1.8-5.8-2.2c-2.3-0.4-4.7-0.5-7-0.2c-1.2,0.2-2.4,0.4-3.6,0.6C9.7,27.1,9.1,26.7,9,26c-0.1-0.7,0.3-1.3,1.1-1.4 C12.6,24,14.5,23.8,17.2,23.8z"></path> </g> </g> <g id="picto-twitch" class="st0"> <g class="st1"> <path class="st4" d="M39,1.8C39,1.1,38.8,1,38.2,1c-5.6,0-11.2,0-16.8,0C15.7,1,10,1,4.4,1C3.9,1,3.6,1.1,3.4,1.6 C2.7,3.4,2,5.2,1.2,6.9C1.1,7.3,1,7.6,1,8c0,8.4,0,16.8,0,25.2c0,0.6,0.1,0.8,0.8,0.8c2.8,0,5.6,0,8.4,0c0.5,0,0.7,0.1,0.7,0.6 c0,1.3,0,2.6,0,3.9c0,0.5,0.2,0.6,0.6,0.6c1.2,0,2.5,0,3.7,0c0.4,0,0.7-0.1,1-0.4c1.5-1.5,3-2.9,4.5-4.3c0.3-0.3,0.6-0.4,1-0.4 c2.1,0,4.2,0,6.3,0c0.5,0,0.8-0.1,1.1-0.4c3.1-3,6.2-6,9.4-8.9c0.3-0.3,0.5-0.6,0.5-1.1C39,16.2,39,9,39,1.8z M35.4,22.3 c0,0.3-0.1,0.6-0.4,0.8c-1.7,1.6-3.4,3.2-5.1,4.9c-0.3,0.3-0.6,0.3-0.9,0.3c-2.7,0-5.3,0-8,0c-0.6,0-1,0.2-1.4,0.6 c-1.5,1.5-3.1,3-4.8,4.6c0-1.6,0-3,0-4.4c0-0.6-0.1-0.8-0.8-0.8c-2.2,0-4.4,0-6.6,0c-0.5,0-0.7-0.1-0.7-0.6c0-7.6,0-15.1,0-22.7 c0-0.4,0.1-0.6,0.6-0.6c9.1,0,18.3,0,27.4,0c0.5,0,0.6,0.2,0.6,0.6C35.4,10.8,35.4,16.6,35.4,22.3z"></path> <path class="st4" d="M19.8,15.7c0,1.4,0,2.8,0,4.2c0,0.6-0.2,0.8-0.8,0.7c-0.5,0-1.1,0-1.6,0c-0.5,0-0.7-0.1-0.7-0.7 c0-2.8,0-5.7,0-8.5c0-0.6,0.2-0.7,0.7-0.7c0.6,0,1.1,0.1,1.7,0c0.6-0.1,0.7,0.2,0.7,0.7C19.8,12.9,19.8,14.3,19.8,15.7z"></path> <path class="st4" d="M29.2,15.7c0,1.5,0,2.9,0,4.4c0,0.4-0.1,0.6-0.6,0.6c-0.7,0-1.3,0-2,0c-0.4,0-0.5-0.1-0.5-0.5 c0-2.9,0-5.9,0-8.8c0-0.4,0.1-0.5,0.5-0.5c0.7,0,1.4,0,2.1,0c0.4,0,0.5,0.1,0.5,0.5C29.1,12.8,29.2,14.2,29.2,15.7z"></path> </g> </g> <g id="picto-snapchat" class="st0"> <image style="display:inline;overflow:visible;" width="400" height="400" transform="matrix(0.1 0 0 0.1 0 0)"> </image> </g> <g id="picto-tiktok" class="st0"> <g class="st1"> <defs> <rect id="SVGID_1_" width="40" height="40"></rect> </defs> <clipPath id="SVGID_00000054982918697820205200000014093033301933850545_"> <use xlink:href="#SVGID_1_" style="overflow:visible;"></use> </clipPath> <g style="clip-path:url(#SVGID_00000054982918697820205200000014093033301933850545_);"> <image style="overflow:visible;" width="450" height="450" transform="matrix(0.1072 0 0 0.1072 -4.1241 -3.9927)"> </image> </g> </g> </g> <g id="picto-pinterest" class="st0"> <path class="st5" d="M17.8,29.1C17.8,29.1,17.8,29.1,17.8,29.1c0.9,1.3,2.1,1.9,3.5,2.1c1.8,0.3,3.6,0,5.3-0.9c2-1,3.5-2.6,4.5-4.6 c0.9-1.7,1.4-3.5,1.6-5.4c0.2-1.7,0.1-3.3-0.4-4.9c-0.9-2.8-2.6-5-5.2-6.5c-1.8-1-3.7-1.6-5.8-1.7c-2.2-0.1-4.4,0.1-6.4,0.9 c-4.1,1.6-6.6,4.7-7.4,9c-0.5,2.5-0.1,4.9,1.2,7.1c0.5,1,1.2,1.8,2.2,2.4c0.2,0.1,0.4,0.3,0.7,0.4c0.2,0.1,0.4,0,0.5-0.2 c0.2-0.8,0.4-1.6,0.6-2.4c0-0.2,0-0.4-0.2-0.6c-1.2-1.5-1.6-3.3-1.5-5.2c0.3-3.9,2.9-6.9,6.7-7.8c2-0.5,3.9-0.4,5.8,0.4 c2.5,1,4,2.9,4.6,5.5c0.3,1.2,0.2,2.4,0.1,3.6c-0.1,1.3-0.5,2.6-1.1,3.8c-0.6,1.2-1.4,2.2-2.6,2.9c-1,0.6-2,0.8-3.2,0.6 c-1.7-0.3-2.7-1.9-2.3-3.6c0.3-1.3,0.8-2.6,1.1-3.9c0.2-0.8,0.5-1.6,0.5-2.5c0-0.5,0-1-0.2-1.5C20,15.5,19,15,17.9,15.1 c-1.1,0.1-1.9,0.7-2.4,1.6c-0.7,1-0.9,2.1-0.9,3.3c0,1,0.2,1.9,0.6,2.8c0,0.1,0,0.2,0,0.3c-0.8,3.2-1.5,6.5-2.3,9.7 c-0.2,1-0.3,2-0.3,3c0,0.8,0.1,1.7,0.2,2.5c0,0.2,0,0.2-0.2,0.1C6.3,36,1.8,30.7,0.5,24.2c-0.5-2.1-0.6-4.3-0.3-6.5 c0.7-5.9,3.5-10.5,8.3-14c2.3-1.7,4.8-2.8,7.6-3.3C22.3-0.8,28.1,0.6,33,4.9c3.5,3,5.7,6.8,6.6,11.3c1,5.4,0,10.4-3,14.9 c-2.9,4.3-6.9,7.1-12,8.4c-2,0.5-4,0.6-6,0.5c-1.5-0.1-2.9-0.4-4.3-0.8c-0.1,0-0.2-0.1-0.1-0.2c0.8-1.3,1.5-2.6,2-4 c0.4-0.9,0.6-1.9,0.8-2.9c0.2-0.9,0.5-1.8,0.7-2.8C17.8,29.2,17.8,29.2,17.8,29.1z"></path> </g> <g id="picto-linkedin" class="st0"> <g class="st1"> <path class="st6" d="M40,19.9c0,5.7,0,11.3,0,17c0,1.9-1.2,3.1-3.1,3.1c-11.2,0-22.5,0-33.7,0C1.4,40,0,38.8,0,36.8 C0,25.6,0,14.3,0,3c0-1.7,1.3-3,3-3c11.3,0,22.7,0,34,0c1.7,0,3,1.3,3,3C40,8.6,40,14.3,40,19.9z M21.4,17.3c0-0.7,0-1.3,0-2 c0-0.5,0-0.5-0.5-0.5c-1.6,0-3.2,0-4.8,0c-0.5,0-0.5,0-0.5,0.5c0,4.4,0,8.8,0,13.2c0,1.7,0,3.4,0,5.1c0,0.3,0.1,0.5,0.4,0.5 c1.7,0,3.5,0,5.2,0c0.3,0,0.4-0.1,0.4-0.4c0-2.8,0-5.6,0-8.4c0-0.7,0-1.4,0.1-2.1c0.1-0.8,0.2-1.7,0.8-2.3c0.8-1.1,2-1.2,3.2-1.1 c1.1,0.1,1.9,0.8,2.1,1.9c0.2,0.6,0.3,1.3,0.3,1.9c0,3.3,0,6.7,0,10c0,0.5,0,0.5,0.5,0.5c1.7,0,3.4,0,5.1,0c0.5,0,0.5,0,0.5-0.5 c0-3.5,0-6.9,0-10.4c0-1.4-0.1-2.9-0.5-4.2c-0.4-1.6-1.3-3-2.8-3.8c-0.9-0.5-1.8-0.7-2.8-0.8c-1.4-0.1-2.8,0-4.1,0.6 C23,15.6,22.1,16.3,21.4,17.3z M5.8,24.5c0,3,0,6,0,9c0,0.6,0,0.6,0.7,0.6c1.6,0,3.3,0,4.9,0c0.5,0,0.6,0,0.6-0.5 c0-6.1,0-12.1,0-18.2c0-0.5,0-0.5-0.5-0.5c-1.7,0-3.3,0-5,0c-0.6,0-0.6,0-0.6,0.6C5.8,18.5,5.8,21.5,5.8,24.5z M8.9,12.4 c2,0,3.5-1.5,3.5-3.5c0-2-1.6-3.5-3.5-3.5C7,5.4,5.4,7,5.4,8.9C5.4,10.9,6.9,12.4,8.9,12.4z"></path> <path class="st3" d="M21.4,17.3c0.7-1,1.6-1.8,2.7-2.3c1.3-0.6,2.7-0.7,4.1-0.6c1,0.1,1.9,0.3,2.8,0.8c1.5,0.8,2.3,2.2,2.8,3.8 c0.4,1.4,0.5,2.8,0.5,4.2c0,3.5,0,6.9,0,10.4c0,0.5,0,0.5-0.5,0.5c-1.7,0-3.4,0-5.1,0c-0.5,0-0.5,0-0.5-0.5c0-3.3,0-6.7,0-10 c0-0.6-0.1-1.3-0.3-1.9c-0.3-1.1-1-1.8-2.1-1.9c-1.2-0.1-2.4,0-3.2,1.1c-0.5,0.7-0.7,1.5-0.8,2.3c-0.1,0.7-0.1,1.4-0.1,2.1 c0,2.8,0,5.6,0,8.4c0,0.3-0.1,0.4-0.4,0.4c-1.7,0-3.5,0-5.2,0c-0.4,0-0.4-0.1-0.4-0.5c0-1.7,0-3.4,0-5.1c0-4.4,0-8.8,0-13.2 c0-0.5,0-0.5,0.5-0.5c1.6,0,3.2,0,4.8,0c0.5,0,0.5,0,0.5,0.5C21.4,16,21.4,16.7,21.4,17.3z"></path> <path class="st3" d="M5.8,24.5c0-3,0-6,0-9.1c0-0.6,0-0.6,0.6-0.6c1.7,0,3.3,0,5,0c0.5,0,0.5,0,0.5,0.5c0,6.1,0,12.1,0,18.2 c0,0.5,0,0.5-0.6,0.5c-1.6,0-3.3,0-4.9,0c-0.7,0-0.7,0-0.7-0.6C5.8,30.5,5.8,27.5,5.8,24.5z"></path> <path class="st3" d="M8.9,12.4c-2,0-3.5-1.6-3.5-3.5C5.4,7,7,5.4,8.9,5.4c2,0,3.5,1.6,3.5,3.5C12.4,10.9,10.8,12.4,8.9,12.4z"></path> </g> </g> <g id="picto-instagram"> <path class="st7" d="M-15.3,0.1C-15.3,0-15.3,0-15.3,0.1C-15,0-14.8,0-14.6,0c0,0,0,0.1,0,0.1C-14.8,0.2-15.1,0.3-15.3,0.1z"></path> <path class="st8" d="M-33.3,0.1c-0.2,0-0.4,0-0.5,0c0,0,0,0,0-0.1C-33.7,0-33.5,0-33.3,0.1C-33.3,0-33.3,0-33.3,0.1z"></path> <path class="st9" d="M-14.5,0.1C-14.5,0-14.5,0-14.5,0.1C-14.4,0-14.3,0-14.1,0c0,0,0,0.1,0,0.1C-14.3,0.2-14.4,0.2-14.5,0.1z"></path> <path class="st10" d="M-34.2,0.1C-34.2,0-34.2,0-34.2,0.1C-34.1,0-34,0-33.8,0c0,0,0,0,0,0.1C-34,0.1-34.1,0.1-34.2,0.1z"></path> <g> <linearGradient id="SVGID_00000154420021094620318250000010805964554110117016_" gradientUnits="userSpaceOnUse" x1="29.8208" y1="2.3477" x2="9.5596" y2="38.7664"> <stop offset="0" style="stop-color:#4845A2"></stop> <stop offset="0.189" style="stop-color:#8744A1"></stop> <stop offset="0.3002" style="stop-color:#A844A1"></stop> <stop offset="0.3509" style="stop-color:#AB429A"></stop> <stop offset="0.423" style="stop-color:#B43C88"></stop> <stop offset="0.5078" style="stop-color:#C33269"></stop> <stop offset="0.6017" style="stop-color:#D7243F"></stop> <stop offset="0.6036" style="stop-color:#D7243E"></stop> <stop offset="0.8766" style="stop-color:#F9A326"></stop> <stop offset="1" style="stop-color:#F9DD26"></stop> </linearGradient> <path style="fill:url(#SVGID_00000154420021094620318250000010805964554110117016_);" d="M40,9.4v21.3c0,5.2-4.2,9.4-9.4,9.4H9.4 C4.2,40,0,35.8,0,30.6V9.4C0,4.2,4.2,0,9.4,0h21.2C35.8,0,40,4.2,40,9.4L40,9.4z"></path> <path class="st3" d="M26.2,5.4H13.8c-4.7,0-8.5,3.8-8.5,8.5v12.4c0,4.7,3.8,8.5,8.5,8.5h12.4c4.7,0,8.5-3.8,8.5-8.5V13.8 C34.6,9.1,30.9,5.4,26.2,5.4 M31.9,26.4c0,3.1-2.5,5.6-5.6,5.6H13.6c-3.1,0-5.6-2.5-5.6-5.6V13.8c0-3.1,2.5-5.6,5.6-5.6h12.7 c3.1,0,5.6,2.5,5.6,5.6V26.4z"></path> <path class="st3" d="M20,12.5c-4.2,0-7.6,3.4-7.6,7.6c0,4.2,3.4,7.6,7.6,7.6c4.2,0,7.6-3.4,7.6-7.6C27.6,15.9,24.2,12.5,20,12.5 M20,25c-2.7,0-4.9-2.2-4.9-4.9c0-2.7,2.2-4.9,4.9-4.9c2.7,0,4.9,2.2,4.9,4.9C24.9,22.8,22.7,25,20,25"></path> </g> </g> <g id="picto-fb" class="st0"> <path class="st12" d="M20.8,40C13,40.5,3,35.3,0.5,24.5c-2.6-11.6,5-22,15.4-24.1c11-2.3,21.3,4.8,23.6,15.3 c2.4,11-4.5,20.2-12.6,23c0-0.1,0-0.1,0-0.2c0-4.3,0-8.6,0-12.9c0-0.2,0.1-0.2,0.3-0.2c1.2,0,2.3,0,3.5,0c0.2,0,0.3,0,0.3-0.3 c0.1-1.1,0.2-2.1,0.3-3.2c0.1-0.5,0.1-1,0.2-1.4c0-0.2-0.1-0.2-0.3-0.2c-1.3,0-2.6,0-4,0c-0.1,0-0.2,0-0.3,0c0-0.2,0-0.5,0-0.7 c0-0.8,0-1.6,0-2.4c0-0.8,0.5-1.3,1.3-1.3c1,0,1.9,0,2.9-0.1c0.1,0,0.2,0,0.3,0c0-1.7,0-3.4,0-5.1c-0.1,0-0.2,0-0.2,0 c-1.5,0-3,0-4.5,0c-1.1,0-2.3,0.3-3.3,0.8c-1.3,0.8-2.1,2-2.3,3.5c-0.1,0.7-0.2,1.4-0.2,2.2c0,0.9,0,1.8,0,2.8c0,0.1,0,0.2,0,0.3 c-0.1,0-0.2,0-0.3,0c-0.8,0-1.6,0-2.4,0c-0.2,0-0.3,0-0.3,0.3c0,1.5,0,3.1,0,4.6c0,0.2,0.1,0.3,0.3,0.3c0.8,0,1.6,0,2.5,0 c0.1,0,0.2,0,0.3,0C20.8,30.3,20.8,35.1,20.8,40z"></path> </g> </svg> 