<?xml version="1.0" encoding="UTF-8"?><svg id="uuid-02db3f1e-e944-4e84-8fd4-55dafb7768f6" xmlns="http://www.w3.org/2000/svg" viewBox="0 0 785.06 800"><path d="m754.48,380.92c-3.08,2.21-6.16,4.3-9.22,6.38V77.71c0-42.98-32.32-77.71-72.1-77.71H112.31C72.54,0,40.21,34.73,40.21,77.71v309.87c-3.2-2.17-6.41-4.36-9.63-6.66-23.9-16.67-39.56,6.03-24.91,27.72,28.52,34.94,82.74,78.33,165.86,112.46-87.95,299.61,214.67,347.2,210.04,193.58,0,2.85.17-87.19.3-151.05,7.95,1.87,14.84,3.7,21.32,5.3.13,63.41.28,148.53.28,145.76-4.62,153.62,298.2,106.03,210.05-193.58,83.14-34.13,137.36-77.52,165.86-112.46,14.66-21.68-.99-44.38-24.9-27.72Zm-298.59,76.32c-37.02-1.87-50.73,14.05-52.56,38.58-8.91-6.33-18.01-13.86-27.35-22.53-1.55-1.46-3.03-2.74-4.46-3.93-8.12-8.56-21.52-13.16-42.33-12.12-49.62,1.54-140.43,11.39-246.19-44.03V112.84c0-54.41,13.86-71.48,63.67-71.48h496.38c47.19,0,63.85,20.28,63.85,71.48v297.86c-107.84,58.28-200.66,48.12-251.01,46.54Z"/><path d="m510.12,240.16c-53.22,0-96.41,40.36-96.41,90.16s43.19,90.16,96.41,90.16,96.38-40.36,96.38-90.16-43.18-90.16-96.38-90.16Z"/><ellipse cx="285.8" cy="330.33" rx="96.38" ry="90.16"/></svg>