<svg xmlns="http://www.w3.org/2000/svg" xmlns:xlink="http://www.w3.org/1999/xlink" width="163.482" height="183.017" viewBox="0 0 163.482 183.017">
  <defs>
    <filter id="Icon_material-place" x="36.654" y="13.381" width="41.446" height="46.351" filterUnits="userSpaceOnUse">
      <feOffset dy="15" input="SourceAlpha"/>
      <feGaussianBlur stdDeviation="5" result="blur"/>
      <feFlood flood-color="#1d63ef" flood-opacity="0.2"/>
      <feComposite operator="in" in2="blur"/>
      <feComposite in="SourceGraphic"/>
    </filter>
  </defs>
  <g id="Carte-Lyon" transform="translate(0)">
    <path id="Tracé_1360" data-name="Tracé 1360" d="M151.212,116.706c.411,5.657,1.034,14.2-1.275,23.062-2.488,9.56-12.6,25.645-18.647,35.255-.947,1.508-1.79,2.849-2.479,3.966a25.175,25.175,0,0,0-3.518,10.9c-.071-.1-.145-.2-.22-.3-7.38-9.926-7.073-22.164.407-31.924.611-.8,1.1-1.691,1.645-2.521-.058-.058-.12-.116-.179-.17.253-.278.519-.565.789-.864,6.2-6.778,16.562-18.128,13.8-29.013-.656-2.579-1.84-4.353-3.522-5.275-2.845-1.553-6.371-.382-9.486.657a15.013,15.013,0,0,1-4.386,1.051c-1.466-.046-3.177-1.288-4.809-3.5-3.713-5.009-6.022-13.568-4.847-17.957A39.966,39.966,0,0,1,125.857,80.6c1.371,2.7,2.637,5.213,3.937,7.7.291.552.673,1.283,1.179,1.458,5.644,1.956,10.927,5.714,17.455,3.447a3.062,3.062,0,0,1,2.592.942,20.741,20.741,0,0,1,1.661,2.351c-2.546,4.93-2.16,10-1.856,13.959.066.885.133,1.719.154,2.463.033,1.076.125,2.329.233,3.783" transform="translate(-66.759 -47.126)" fill="#e8effe"/>
    <path id="Tracé_1361" data-name="Tracé 1361" d="M49.816,109.719c-2.621-4.252-10.74-6.383-14.968-3.962q-9.376,5.357-18.759,10.694c-.644.361-1.741.972-2.052.727C9.374,113.537,2.749,112.336.062,106.348c-.357-.8.889-3.173,1.894-3.58a63.75,63.75,0,0,1,8.123-2.359c2.313-3.506,4.128-5.81,5.428-8.373.968-1.9,1.151-4.182,1.886-6.217,1.163-3.223,2.542-6.371,3.75-9.577.881-2.338,1.611-4.734,2.451-7.093,1.042-2.92,2.313-5.781,3.115-8.763.452-1.691.942-4.444.07-5.229-4.008-3.617-3.646-8.032-3.251-12.6.1-1.146.179-2.3.315-4.032a40.344,40.344,0,0,1-5.416.212,34.7,34.7,0,0,1-5.245-1.425c2.977-2.172,4.614-3.771,6.574-4.639a5.178,5.178,0,0,1,4.07.5c2.255,1.325,3.875.976,5.387-.968a7.293,7.293,0,0,1,9.108-1.582c1.619,1.042,3.2,2.151,4.261,2.865,3.414-3.546,6.591-6.79,9.681-10.109a15.424,15.424,0,0,0,1.607-2.641c2.126-3.526,3.884-7.372,6.537-10.449,1.536-1.786,4.776-2.16,3.438-5.137,2.92-1.221,5.515-2.625,8.29-3.352,1.541-.4,3.376.332,5.7.635C78.169,1.993,79,.9,79.672,0c1.894,1.96,3.879,3.8,5.54,5.884.457.578.212,2.031-.158,2.891a15.879,15.879,0,0,1-9.074,8.589A39.379,39.379,0,0,0,60.34,29.088C52.308,35.8,47.81,43.017,45.323,52.3c-1.533,5.715,1.474,15,5.245,20.093,2.131,2.87,4.456,4.427,6.732,4.5a16.378,16.378,0,0,0,5.254-1.179c2.633-.876,5.615-1.865,7.5-.831,1.063.581,1.819,1.79,2.3,3.7,2.434,9.582-7.368,20.309-13.223,26.721-.382.419-.748.818-1.088,1.2-3.165-1-5.407,2.812-8.231,3.219" transform="translate(0)" fill="#e8effe"/>
    <path id="Tracé_1362" data-name="Tracé 1362" d="M248.081,154.194c-2.8,8.6-6.076,17.036-9.2,25.521a49.154,49.154,0,0,0-3.115,21.77c.129,1.4.021,2.812.021,4.9-2.488-.257-4.739-.079-6.691-.764-7.463-2.633-14.893-5.382-22.177-8.456-1.856-.785-3.422-2.741-4.618-4.5-2.425-3.567-5.441-1.445-8.115-1-2.878.482-1.74,2.99-1.62,4.8.324,4.888.731,9.776,1.084,14.4-6.271.706-11.878,1.412-17.5,1.944-3.028.287-4.3,1.3-3.626,4.685.976,4.926,1.4,9.959,2.039,14.864-5.349,1.582-15.192-2.052-18.066-6.25-4.813-7.031-7.023-15.013-8.493-23.228a33.348,33.348,0,0,0-1.591-6.13c.054-4.926.735-9.589,3.368-13.859.685-1.113,1.524-2.446,2.467-3.95,6.122-9.731,16.367-26.023,18.95-35.953,2.409-9.257,1.769-18.049,1.346-23.872-.1-1.42-.2-2.649-.224-3.675-.025-.8-.091-1.665-.162-2.575-.27-3.505-.581-7.612,1.117-11.616,8.231-6.134,11.155-16.936,22.925-16.18,0,7.658.058,15.03-.029,22.4a8.636,8.636,0,0,0,2.832,7.06c4.361,4.294,7.874,9.444,11.757,14.228,2.77,3.418,5.636,6.765,8.31,10.258a4.494,4.494,0,0,1,.523,2.927c-.278,2.766,1.018,3.692,3.592,3.763,5.32.153,10.636.469,15.952.706,1.3.058,2.608-.024,3.891.15,6.416.876,7.052,1.5,5.054,7.633" transform="translate(-85.605 -49.716)" fill="#e8effe"/>
    <g transform="matrix(1, 0, 0, 1, 0, 0)" filter="url(#Icon_material-place)">
      <path id="Icon_material-place-2" data-name="Icon material-place" d="M13.223,3A5.719,5.719,0,0,0,7.5,8.723c0,4.292,5.723,10.628,5.723,10.628s5.723-6.336,5.723-10.628A5.719,5.719,0,0,0,13.223,3Zm0,7.767a2.044,2.044,0,1,1,2.044-2.044A2.045,2.045,0,0,1,13.223,10.767Z" transform="translate(44.15 10.38)" fill="#1d63ef"/>
    </g>
  </g>
</svg>
