<svg xmlns="http://www.w3.org/2000/svg" xmlns:xlink="http://www.w3.org/1999/xlink" width="104.558" height="170.55" viewBox="0 0 104.558 170.55">
  <defs>
    <filter id="Icon_material-place" x="45.088" y="50.376" width="41.446" height="46.351" filterUnits="userSpaceOnUse">
      <feOffset dy="15" input="SourceAlpha"/>
      <feGaussianBlur stdDeviation="5" result="blur"/>
      <feFlood flood-color="#02bf75" flood-opacity="0.2"/>
      <feComposite operator="in" in2="blur"/>
      <feComposite in="SourceGraphic"/>
    </filter>
  </defs>
  <g id="Carte-Aix" transform="translate(-43.449 1.5)">
    <path id="Tracé_1371" data-name="Tracé 1371" d="M10.532,29.816l21.675-8.853L41.213,9.515l4.274-2.748S47.166.661,47.929.2s2.833,0,2.833,0L49.3,9.209l9.922,5.7v4.07l2.442,3.664H59.987l-.458,1.373.61,3.511-1.221-1.069L50.762,40.042l6.478,2.6L61.666,37.3l7.174-2.748L70.062,31.8,81.51,36.074l7.327,1.679v8.7H86.394L86.7,50.88l-1.526,1.984L86.852,54.7l1.984,3.511H92.5l2.595,2.442h3.511l5.953.916v5.953l-1.526,2.289,1.526,7.174-4.121,1.679L100.132,92.7l-9.616,2.289-1.373,17.4H85.631l-.305,1.984-2.137,2.442H79.983l-5.342,4.731-2.748.916.763,19.538,1.832,2.442-6.411,4.885-2.9.763,1.221,9.616H63.8l-2.442,2.747-.153,5.037L48.082,170.55l-.153-.916-2.748.916L42.892,155.9,40.907,153l1.069-17.1-1.526-.61L43.2,110.867l-4.274-5.648L32.512,85.483l-4.579-1.023-4.427,19.233L20,96.824l-5.5-3.816L9.158,85.483,0,64.923,4.732,52.254l1.832-.763,2.747-4.885L10.99,46l.305-1.984,1.374-.306,2.442-4.579L14.5,35.005Z" transform="translate(43.449 -1.5)" fill="#b4eede"/>
    <g transform="matrix(1, 0, 0, 1, 43.45, -1.5)" filter="url(#Icon_material-place)">
      <path id="Icon_material-place-2" data-name="Icon material-place" d="M13.223,3A5.719,5.719,0,0,0,7.5,8.723c0,4.292,5.723,10.628,5.723,10.628s5.723-6.336,5.723-10.628A5.719,5.719,0,0,0,13.223,3Zm0,7.767a2.044,2.044,0,1,1,2.044-2.044A2.045,2.045,0,0,1,13.223,10.767Z" transform="translate(52.59 47.38)" fill="#02bf75"/>
    </g>
  </g>
</svg>
