<svg xmlns="http://www.w3.org/2000/svg" xmlns:xlink="http://www.w3.org/1999/xlink" width="152.556" height="159.776" viewBox="0 0 152.556 159.776">
  <defs>
    <filter id="Icon_material-place" x="19.314" y="75.76" width="41.446" height="46.351" filterUnits="userSpaceOnUse">
      <feOffset dy="15" input="SourceAlpha"/>
      <feGaussianBlur stdDeviation="5" result="blur"/>
      <feFlood flood-color="#1d63ef" flood-opacity="0.2"/>
      <feComposite operator="in" in2="blur"/>
      <feComposite in="SourceGraphic"/>
    </filter>
  </defs>
  <g id="Carte-Nantes" transform="translate(-0.905 7.888)">
    <path id="Tracé_1370" data-name="Tracé 1370" d="M.05,141.006a87.409,87.409,0,0,1,9.871.081c3.289.377,5.941-.833,8.537-2.374a3.732,3.732,0,0,0,1.529-2.363c1.674-10.592,8.1-18.745,13.733-27.368a21.869,21.869,0,0,0,2.912-8.672c1.11-7.7,6.163-11.524,12.848-13.9,3.79-1.345,5.42-2.771,6.971-6.8L50.69,75.52c3.648-2.509,6.691-4.8,9.935-6.753,1.727-1.042,3.045-1.893,3.218-4.194.192-2.541,1.371-5.039,1.364-7.555,0-1.832-1.038-3.764-1.951-5.472-4.2-7.853-8.514-15.642-12.806-23.488,1.995-2.071,4.074-2.9,6.01-.838,3.275,3.494,7.615,3.231,11.685,3.535,3.21.24,6.209.314,8.779,2.634a4.756,4.756,0,0,0,3.164.675c2.575-.154,3.03,1.077,2.77,3.3-.142,1.215-.207,3.187.467,3.618,2.712,1.735,2.656,4.5,3.24,7.024.931,4.023,2.6,5.263,6.75,6.166,2.523.549,4.831,2.078,7.512,3.292,1.659-3.622,5.352-6.137,4.1-11.467-1.316-5.616,1.887-10.478,6.052-14.145,6.121-5.389,6.012-12.193,4.831-19.172-.45-2.661-2.014-5.163-3.234-7.659-.958-1.961-.16-4.05,2.006-4.249,3.778-.348,7.517-1.886,11.347.706,1.274.862,3.824-.148,6.261-.339.233,4.547.984,9.012-1.2,13.345a6.63,6.63,0,0,0-.867,2.829c.017,3.661.116,7.329.43,10.973.054.634,1.222,1.3,2,1.72,2.027,1.095,4.123,2.061,6.948,3.451-2.583,3.622-4.539,6.974-7.092,9.789-3.148,3.472.3,6.5-.568,9.718l.922.586,9.834-5.113.883.505c-.561,1.793-.809,3.77-1.746,5.341-2.338,3.921-2.185,7,.837,10.3a10.2,10.2,0,0,1,1.46,2.553c.623,1.3.8,3.2,1.811,3.875,4.631,3.087,2.806,7.25,2.66,11.374a13.053,13.053,0,0,0,2.178,6.935c2.582,4.086,2.846,4.757-1.547,6.707-8.31,3.689-16.809,6.956-25.236,10.384-1.338.545-2.707,1.013-4.283,1.6,3.1,5.635-2.371,7.438-4.565,10.642-2.12,3.1-4.634,5.925-6.93,8.906a1.444,1.444,0,0,0-.186,1.248c1.577,3.16-.6,4.979-2.408,6.955-2.191,2.394-2.027,2.917,1.165,3.875.421.126.849.231,1.207.328.219,1.919-.233,4.671.757,5.357,2.86,1.981,6.3,3.143,9.518,4.6a7.872,7.872,0,0,1,2.581,1.458c-3.316.927-5.044,2.7-5.384,5.89-.2,1.832-1.31,3.019-3.247,2.314a55.3,55.3,0,0,1-8.884-3.83,6.713,6.713,0,0,1-2.617-4.028c-1.093-4.777-4.072-8.152-7.582-11.231-.326-.286-.889-.73-1.13-.624-3.705,1.636-4.462-1.1-5.77-3.494-.423-.775-2.133-.779-3.166-1.307-4.889-2.5-10.15-2.4-15.443-2.55-2.067-.059-4.1-1.225-6.154-1.887l.092-1.216c-2.784,1.816-5.691,3.472-8.329,5.48-5.864,4.464-11.564,9.14-17.388,13.657a11.4,11.4,0,0,1-12.09,1.562c-4.633-1.943-9.22-4-13.874-5.889a15.624,15.624,0,0,0-3.605-.633c-2.062-.3-4.128-.57-6.193-.852l.05-1.723" transform="translate(0.905 -7.888)" fill="#e8effe"/>
    <g transform="matrix(1, 0, 0, 1, 0.91, -7.89)" filter="url(#Icon_material-place)">
      <path id="Icon_material-place-2" data-name="Icon material-place" d="M13.223,3A5.719,5.719,0,0,0,7.5,8.723c0,4.292,5.723,10.628,5.723,10.628s5.723-6.336,5.723-10.628A5.719,5.719,0,0,0,13.223,3Zm0,7.767a2.044,2.044,0,1,1,2.044-2.044A2.045,2.045,0,0,1,13.223,10.767Z" transform="translate(26.81 72.76)" fill="#1d63ef"/>
    </g>
  </g>
</svg>
